<?xml version="1.0" encoding="utf-8"?>
<!-- Generator: Adobe Illustrator 19.0.0, SVG Export Plug-In . SVG Version: 6.00 Build 0)  -->
<svg version="1.1" id="Layer_1" xmlns="http://www.w3.org/2000/svg" xmlns:xlink="http://www.w3.org/1999/xlink" x="0px" y="0px"
	 viewBox="0 0 1920 1080" style="enable-background:new 0 0 1920 1080;" xml:space="preserve">
<style type="text/css">
	.st0{fill:#00D499;}
	.st1{fill:#FFD82A;}
	.st2{fill:#D8D8DB;}
	.st3{fill:#00AA84;}
	.st4{fill:#A1A199;}
	.st5{fill:#D0D0CC;}
	.st6{fill:#333333;}
	.st7{fill:#D49500;}
	.st8{fill:#4D4D4D;}
	.st9{fill:#F2F2F2;}
	.st10{fill:#CCCCCC;}
	.st11{fill:#E6E6E6;}
	.st12{fill:#006837;}
	.st13{fill:#FFFFFF;}
	.st14{clip-path:url(#XMLID_2_);}
	.st15{fill:none;}
	.st16{clip-path:url(#XMLID_3_);}
	.st17{fill:#FF653E;}
	.st18{clip-path:url(#XMLID_4_);}
	.st19{clip-path:url(#XMLID_5_);}
</style>
<g id="XMLID_343_">
	<polygon id="XMLID_446_" class="st0" points="1044,471 812,471 812,595 862,595 862,602 994,602 994,595 1021,595 1021,602 
		1044,602 1044,602 1132,602 1132,471 	"/>
	<rect id="XMLID_443_" x="1021" y="601.9" class="st1" width="22.8" height="7.5"/>
	<rect id="XMLID_441_" x="862.1" y="601.9" class="st1" width="131.9" height="7.5"/>
	<polygon id="XMLID_440_" class="st2" points="803.7,455 788,455 788,464 804,464 804,626 812,626 812,463.6 812,455 	"/>
	<rect id="XMLID_439_" x="812.4" y="470.7" class="st3" width="6.6" height="123.8"/>
	<rect id="XMLID_438_" x="800.6" y="488.8" class="st4" width="3.2" height="39.2"/>
	<rect id="XMLID_437_" x="800.6" y="549.7" class="st4" width="3.2" height="23.4"/>
	<rect id="XMLID_436_" x="797.5" y="488.8" class="st5" width="3.2" height="39.2"/>
	<rect id="XMLID_435_" x="797.5" y="549.7" class="st5" width="3.2" height="23.4"/>
	<rect id="XMLID_434_" x="795" y="542.5" class="st6" width="8.8" height="3.5"/>
	<rect id="XMLID_433_" x="795" y="576.1" class="st6" width="8.8" height="3.5"/>
	<rect id="XMLID_432_" x="865.8" y="601.9" class="st7" width="2.4" height="4.7"/>
	<rect id="XMLID_431_" x="871.6" y="601.9" class="st7" width="2.4" height="4.7"/>
	<rect id="XMLID_430_" x="877.4" y="601.9" class="st7" width="2.4" height="4.7"/>
	<rect id="XMLID_429_" x="883.2" y="601.9" class="st7" width="2.4" height="4.7"/>
	<rect id="XMLID_428_" x="888.9" y="601.9" class="st7" width="2.4" height="4.7"/>
	<rect id="XMLID_427_" x="894.7" y="601.9" class="st7" width="2.4" height="4.7"/>
	<rect id="XMLID_426_" x="900.5" y="601.9" class="st7" width="2.4" height="4.7"/>
	<rect id="XMLID_425_" x="906.3" y="601.9" class="st7" width="2.4" height="4.7"/>
	<rect id="XMLID_424_" x="912.1" y="601.9" class="st7" width="2.4" height="4.7"/>
	<rect id="XMLID_423_" x="917.8" y="601.9" class="st7" width="2.4" height="4.7"/>
	<rect id="XMLID_422_" x="923.6" y="601.9" class="st7" width="2.4" height="4.7"/>
	<rect id="XMLID_421_" x="929.4" y="601.9" class="st7" width="2.4" height="4.7"/>
	<rect id="XMLID_420_" x="935.2" y="601.9" class="st7" width="2.4" height="4.7"/>
	<rect id="XMLID_419_" x="940.9" y="601.9" class="st7" width="2.4" height="4.7"/>
	<rect id="XMLID_418_" x="946.7" y="601.9" class="st7" width="2.4" height="4.7"/>
	<rect id="XMLID_417_" x="952.5" y="601.9" class="st7" width="2.4" height="4.7"/>
	<rect id="XMLID_416_" x="958.3" y="601.9" class="st7" width="2.4" height="4.7"/>
	<rect id="XMLID_415_" x="964.1" y="601.9" class="st7" width="2.4" height="4.7"/>
	<rect id="XMLID_414_" x="969.8" y="601.9" class="st7" width="2.4" height="4.7"/>
	<rect id="XMLID_413_" x="975.6" y="601.9" class="st7" width="2.4" height="4.7"/>
	<rect id="XMLID_412_" x="981.4" y="601.9" class="st7" width="2.4" height="4.7"/>
	<rect id="XMLID_411_" x="987.2" y="601.9" class="st7" width="2.4" height="4.7"/>
	<rect id="XMLID_410_" x="1022.6" y="602.2" class="st7" width="2.4" height="4.7"/>
	<rect id="XMLID_409_" x="1028.3" y="602.2" class="st7" width="2.4" height="4.7"/>
	<rect id="XMLID_408_" x="1034.1" y="602.2" class="st7" width="2.4" height="4.7"/>
	<rect id="XMLID_407_" x="1039.9" y="602.2" class="st7" width="2.4" height="4.7"/>
	<g id="XMLID_398_">
		<rect id="XMLID_406_" x="831.6" y="496.5" class="st6" width="17.5" height="26.1"/>
		<rect id="XMLID_405_" x="835.5" y="500.6" class="st8" width="10.2" height="18"/>
		<rect id="XMLID_404_" x="849.2" y="500.6" class="st9" width="5.1" height="3"/>
		<rect id="XMLID_403_" x="849.2" y="507.8" class="st9" width="5.1" height="3"/>
		<rect id="XMLID_402_" x="849.2" y="515" class="st9" width="5.1" height="3"/>
		<rect id="XMLID_401_" x="826.6" y="500.6" class="st9" width="5.1" height="3"/>
		<rect id="XMLID_400_" x="826.6" y="507.8" class="st9" width="5.1" height="3"/>
		<rect id="XMLID_399_" x="826.6" y="515" class="st9" width="5.1" height="3"/>
	</g>
	<g id="XMLID_389_">
		<rect id="XMLID_397_" x="831.8" y="533.3" class="st6" width="17.5" height="26.1"/>
		<rect id="XMLID_396_" x="835.6" y="537.4" class="st8" width="10.2" height="18"/>
		<rect id="XMLID_395_" x="849.3" y="537.4" class="st9" width="5.1" height="3"/>
		<rect id="XMLID_394_" x="849.3" y="544.6" class="st9" width="5.1" height="3"/>
		<rect id="XMLID_393_" x="849.3" y="551.8" class="st9" width="5.1" height="3"/>
		<rect id="XMLID_392_" x="826.7" y="537.4" class="st9" width="5.1" height="3"/>
		<rect id="XMLID_391_" x="826.7" y="544.6" class="st9" width="5.1" height="3"/>
		<rect id="XMLID_390_" x="826.7" y="551.8" class="st9" width="5.1" height="3"/>
	</g>
	<g id="XMLID_375_">
		<rect id="XMLID_388_" x="864.6" y="480.6" class="st1" width="18.5" height="54.8"/>
		<circle id="XMLID_387_" class="st7" cx="878.2" cy="488.1" r="2.9"/>
		<circle id="XMLID_386_" class="st7" cx="878.2" cy="496.2" r="2.9"/>
		<circle id="XMLID_385_" class="st7" cx="878.2" cy="504.3" r="2.9"/>
		<circle id="XMLID_384_" class="st7" cx="878.2" cy="512.5" r="2.9"/>
		<circle id="XMLID_383_" class="st7" cx="878.2" cy="520.6" r="2.9"/>
		<circle id="XMLID_382_" class="st7" cx="878.2" cy="528.7" r="2.9"/>
		<circle id="XMLID_381_" class="st7" cx="869.6" cy="488.1" r="2.9"/>
		<circle id="XMLID_380_" class="st7" cx="869.6" cy="496.2" r="2.9"/>
		<circle id="XMLID_379_" class="st7" cx="869.6" cy="504.3" r="2.9"/>
		<circle id="XMLID_378_" class="st7" cx="869.6" cy="512.5" r="2.9"/>
		<circle id="XMLID_377_" class="st7" cx="869.6" cy="520.6" r="2.9"/>
		<circle id="XMLID_376_" class="st7" cx="869.6" cy="528.7" r="2.9"/>
	</g>
	<g id="XMLID_370_">
		<rect id="XMLID_374_" x="891.7" y="480.6" class="st9" width="32.3" height="13.5"/>
		<g id="XMLID_371_">
			<rect id="XMLID_373_" x="895.5" y="482.7" class="st10" width="10" height="9.3"/>
			<rect id="XMLID_372_" x="910.2" y="482.7" class="st10" width="10" height="9.3"/>
		</g>
	</g>
	<rect id="XMLID_369_" x="864.3" y="546.6" class="st6" width="33.8" height="17.1"/>
	<rect id="XMLID_368_" x="866.9" y="549.3" class="st8" width="28.5" height="11.7"/>
	<rect id="XMLID_367_" x="868.2" y="554.6" class="st6" width="13" height="1.9"/>
	<rect id="XMLID_366_" x="884.8" y="554.6" class="st6" width="8.7" height="1.9"/>
	<g id="XMLID_363_">
		<circle id="XMLID_365_" class="st11" cx="895.9" cy="578.2" r="6.8"/>
		<path id="XMLID_364_" class="st10" d="M891.2,573.2c2.7-2.7,7-2.7,9.7,0s2.7,7,0,9.7"/>
	</g>
	<g id="XMLID_360_">
		<circle id="XMLID_362_" class="st11" cx="912.1" cy="578.2" r="6.8"/>
		<path id="XMLID_361_" class="st10" d="M907.4,573.2c2.7-2.7,7-2.7,9.7,0s2.7,7,0,9.7"/>
	</g>
	<g id="XMLID_351_">
		<rect id="XMLID_359_" x="1102.6" y="481.1" class="st6" width="17.5" height="26.1"/>
		<rect id="XMLID_358_" x="1106.4" y="485.2" class="st8" width="10.2" height="18"/>
		<rect id="XMLID_357_" x="1120.1" y="485.2" class="st9" width="5.1" height="3"/>
		<rect id="XMLID_356_" x="1120.1" y="492.4" class="st9" width="5.1" height="3"/>
		<rect id="XMLID_355_" x="1120.1" y="499.6" class="st9" width="5.1" height="3"/>
		<rect id="XMLID_354_" x="1097.5" y="485.2" class="st9" width="5.1" height="3"/>
		<rect id="XMLID_353_" x="1097.5" y="492.4" class="st9" width="5.1" height="3"/>
		<rect id="XMLID_352_" x="1097.5" y="499.6" class="st9" width="5.1" height="3"/>
	</g>
	<g id="XMLID_325_">
		<rect id="XMLID_341_" x="1086.2" y="578.5" class="st6" width="38.4" height="9.8"/>
		<rect id="XMLID_340_" x="1088.9" y="580.7" class="st8" width="33" height="5.4"/>
		<rect id="XMLID_339_" x="1118.4" y="574.6" class="st9" width="2.5" height="3.9"/>
		<rect id="XMLID_338_" x="1113.7" y="574.6" class="st9" width="2.5" height="3.9"/>
		<rect id="XMLID_337_" x="1108.9" y="574.6" class="st9" width="2.5" height="3.9"/>
		<rect id="XMLID_336_" x="1104.2" y="574.6" class="st9" width="2.5" height="3.9"/>
		<rect id="XMLID_335_" x="1099.4" y="574.6" class="st9" width="2.5" height="3.9"/>
		<rect id="XMLID_334_" x="1094.7" y="574.6" class="st9" width="2.5" height="3.9"/>
		<rect id="XMLID_333_" x="1089.9" y="574.6" class="st9" width="2.5" height="3.9"/>
		<rect id="XMLID_332_" x="1118.4" y="588.3" class="st9" width="2.5" height="3.9"/>
		<rect id="XMLID_331_" x="1113.6" y="588.3" class="st9" width="2.5" height="3.9"/>
		<rect id="XMLID_330_" x="1108.9" y="588.3" class="st9" width="2.5" height="3.9"/>
		<rect id="XMLID_329_" x="1104.1" y="588.3" class="st9" width="2.5" height="3.9"/>
		<rect id="XMLID_328_" x="1099.4" y="588.3" class="st9" width="2.5" height="3.9"/>
		<rect id="XMLID_327_" x="1094.6" y="588.3" class="st9" width="2.5" height="3.9"/>
		<rect id="XMLID_326_" x="1089.9" y="588.3" class="st9" width="2.5" height="3.9"/>
	</g>
	<g id="XMLID_242_">
		<circle id="XMLID_324_" class="st12" cx="960.4" cy="536.6" r="44.8"/>
		<circle id="XMLID_323_" class="st13" cx="960.4" cy="536.6" r="41.5"/>
		<circle id="XMLID_322_" class="st6" cx="960.4" cy="536.7" r="38.6"/>
		<circle id="XMLID_321_" class="st6" cx="960.4" cy="536.7" r="38.6"/>
		<g id="XMLID_284_">
			<defs>
				<circle id="XMLID_285_" cx="960.5" cy="536.7" r="35"/>
			</defs>
			<clipPath id="XMLID_2_">
				<use xlink:href="#XMLID_285_"  style="overflow:visible;"/>
			</clipPath>
			<g id="XMLID_286_" class="st14">
				<g id="XMLID_319_">
					<path id="XMLID_320_" class="st1" d="M997.1,536c0,0,0.4,1,0.7,3c0.2,1.9,0,4.8-1.3,8c0,0-0.3,0.1-1,0.2
						c-0.7,0.1-1.6,0.2-2.9,0.1c-1.3-0.1-2.8-0.4-4.6-1c-1.8-0.6-3.9-1.4-6.3-2.5c0,0,0.1-0.4,0.2-0.9c0-0.1,0.1-0.3,0.1-0.4
						c0-0.2,0-0.3,0-0.5c0-0.3,0.1-0.7,0.1-1c0.1-0.7,0-1.4,0-1.9c0-0.5,0-0.9,0-0.9s0.4,0.1,1.2,0.2c0.8,0.1,1.9,0.3,3.3,0.3
						c1.4,0.1,3,0,4.8-0.4C993.1,538,995.1,537.3,997.1,536z"/>
				</g>
				<g id="XMLID_317_">
					<path id="XMLID_318_" class="st1" d="M994.6,549c0,0,0,0.3,0,0.8c0,0.5-0.2,1.3-0.4,2.2c-0.1,0.5-0.3,1-0.5,1.5
						c-0.2,0.5-0.5,1.1-0.9,1.7c-0.3,0.6-0.7,1.3-1.2,1.9c-0.5,0.6-1,1.2-1.6,1.9c0,0-0.4,0-1-0.1c-0.6-0.1-1.6-0.4-2.7-1
						c-1.1-0.6-2.5-1.4-4-2.6c-1.5-1.2-3.1-2.7-5-4.6c0,0,0.2-0.3,0.5-0.8c0.3-0.5,0.6-1.1,0.9-1.7c0.3-0.6,0.5-1.3,0.7-1.8
						c0.1-0.1,0.1-0.2,0.1-0.3c0-0.1,0.1-0.2,0.1-0.3c0-0.1,0.1-0.2,0.1-0.2s0.4,0.3,1.1,0.7c0.7,0.4,1.7,1,3,1.5
						c1.3,0.5,2.8,1.1,4.6,1.4C990.2,549.5,992.4,549.6,994.6,549z"/>
				</g>
				<g id="XMLID_315_">
					<path id="XMLID_316_" class="st1" d="M987.7,560.3c0,0-0.1,0.3-0.3,0.7c-0.1,0.2-0.3,0.5-0.4,0.9c-0.2,0.3-0.4,0.7-0.7,1.1
						c-0.6,0.8-1.3,1.7-2.4,2.6c-0.5,0.4-1.1,0.9-1.8,1.3c-0.7,0.4-1.4,0.8-2.2,1.1c0,0-0.3-0.1-0.9-0.5c-0.6-0.4-1.3-0.9-2.2-1.9
						c-0.9-0.9-1.8-2.2-2.8-3.9c-1-1.6-2-3.7-3-6.1c0,0,0.1-0.1,0.2-0.1c0.1-0.1,0.3-0.2,0.5-0.4c0.4-0.4,1-0.8,1.5-1.3
						c0.5-0.5,1-1,1.4-1.4c0.3-0.4,0.5-0.7,0.5-0.7s0.3,0.4,0.8,1c0.5,0.6,1.2,1.5,2.2,2.5c1,1,2.2,2,3.8,3c0.8,0.5,1.7,0.9,2.6,1.3
						C985.4,559.9,986.5,560.1,987.7,560.3z"/>
				</g>
				<g id="XMLID_313_">
					<path id="XMLID_314_" class="st1" d="M977.1,568.3c0,0-0.2,0.2-0.6,0.6c-0.2,0.2-0.4,0.4-0.7,0.6c-0.2,0.1-0.3,0.2-0.5,0.4
						c-0.2,0.1-0.4,0.2-0.6,0.4c-0.4,0.2-0.9,0.5-1.4,0.8c-0.5,0.2-1.1,0.6-1.8,0.7c-1.3,0.4-2.9,0.8-4.6,0.8c0,0-1.1-1-2-3.3
						c-0.5-1.2-0.9-2.7-1.2-4.6c-0.3-1.9-0.5-4.1-0.6-6.7c0,0,0.1,0,0.2-0.1c0.2,0,0.4-0.1,0.6-0.2c0.3-0.1,0.6-0.2,0.9-0.3
						c0.2-0.1,0.3-0.1,0.5-0.2c0.2-0.1,0.3-0.1,0.5-0.2c0.3-0.1,0.6-0.3,1-0.4c0.2-0.1,0.3-0.1,0.4-0.2c0.1-0.1,0.3-0.1,0.4-0.2
						c0.5-0.3,0.8-0.4,0.8-0.4s0.1,0.4,0.3,1.2c0.2,0.8,0.6,1.8,1.2,3.1c0.6,1.3,1.3,2.7,2.5,4.2C973.6,565.7,975,567.1,977.1,568.3
						z"/>
				</g>
				<g id="XMLID_311_">
					<path id="XMLID_312_" class="st1" d="M964.3,571.9c0,0-1,0.5-2.9,1c-0.5,0.1-1,0.2-1.6,0.2c-0.6,0-1.2,0.1-1.9,0
						c-0.7,0-1.4-0.1-2.2-0.3c-0.8-0.2-1.6-0.3-2.4-0.6c0,0-0.6-1.3-0.6-3.9c0-1.3,0.1-2.8,0.5-4.7c0.4-1.9,1-4,1.9-6.5
						c0,0,0.4,0,0.9,0.1c0.5,0.1,1.3,0,2,0c0.4,0,0.7,0,1,0c0.3,0,0.6-0.1,0.9-0.1c0.5-0.1,0.9-0.1,0.9-0.1s-0.1,0.4-0.1,1.2
						c-0.1,0.8-0.1,1.9,0,3.3c0.1,1.4,0.3,3.1,0.8,4.8C962,568.2,962.8,570.1,964.3,571.9z"/>
				</g>
				<g id="XMLID_309_">
					<path id="XMLID_310_" class="st1" d="M951.1,570.7c0,0-0.3,0-0.8,0.1c-0.5,0-1.3-0.1-2.2-0.2c-0.5-0.1-1-0.2-1.6-0.3
						c-0.6-0.2-1.2-0.4-1.8-0.7c-0.3-0.1-0.6-0.3-1-0.4c-0.2-0.1-0.3-0.2-0.5-0.3c-0.2-0.1-0.3-0.2-0.5-0.3c-0.7-0.4-1.3-0.9-2-1.4
						c0,0,0-0.4,0.1-1c0.1-0.7,0.3-1.6,0.8-2.8c0.5-1.2,1.2-2.6,2.2-4.2c1-1.6,2.4-3.4,4.1-5.4c0,0,0.3,0.2,0.8,0.4
						c0.5,0.2,1.2,0.5,1.8,0.8c0.3,0.2,0.7,0.2,1,0.3c0.3,0.1,0.6,0.2,0.9,0.3c0.3,0.1,0.5,0.1,0.6,0.2c0.2,0,0.2,0,0.2,0
						s-0.2,0.4-0.6,1.1c-0.3,0.7-0.8,1.8-1.2,3.1c-0.4,1.3-0.8,2.9-1,4.7c-0.1,0.9-0.1,1.9,0,2.9c0.1,0.5,0.1,1.1,0.2,1.6
						C950.8,569.6,951,570.2,951.1,570.7z"/>
				</g>
				<g id="XMLID_307_">
					<path id="XMLID_308_" class="st1" d="M939.3,564.8c0,0-0.3-0.1-0.8-0.2c-0.2-0.1-0.6-0.2-0.9-0.4c-0.3-0.2-0.7-0.4-1.1-0.6
						c-0.8-0.5-1.8-1.2-2.8-2.2c-0.5-0.5-1-1-1.5-1.6c-0.5-0.6-0.9-1.3-1.3-2.1c0,0,0.1-0.3,0.4-0.9c0.3-0.6,0.8-1.4,1.7-2.3
						c0.9-1,2-2,3.6-3.1c1.5-1.1,3.5-2.3,5.8-3.5c0,0,0.1,0.1,0.2,0.2c0.1,0.1,0.2,0.3,0.4,0.5c0.4,0.4,0.9,0.9,1.4,1.4
						c0.6,0.4,1.1,0.9,1.5,1.2c0.2,0.2,0.4,0.3,0.5,0.4c0.1,0.1,0.2,0.1,0.2,0.1s-0.3,0.3-0.9,0.8c-0.6,0.6-1.4,1.4-2.3,2.4
						c-0.9,1.1-1.8,2.4-2.6,4.1c-0.4,0.8-0.8,1.7-1,2.8C939.5,562.6,939.3,563.6,939.3,564.8z"/>
				</g>
				<g id="XMLID_305_">
					<path id="XMLID_306_" class="st1" d="M930.3,555c0,0-0.2-0.2-0.6-0.5c-0.4-0.4-1-0.9-1.5-1.7c-0.3-0.4-0.6-0.8-0.9-1.3
						c-0.3-0.5-0.6-1.1-0.9-1.7c-0.5-1.3-1.1-2.8-1.3-4.5c0,0,0.9-1.1,3.1-2.3c1.1-0.6,2.6-1.1,4.5-1.6c1.9-0.5,4.1-0.9,6.7-1.2
						c0,0,0,0.1,0.1,0.2c0.1,0.1,0.2,0.4,0.3,0.6c0.1,0.2,0.2,0.5,0.4,0.8c0.1,0.3,0.3,0.6,0.5,0.9c0.4,0.6,0.7,1.2,1,1.7
						c0.3,0.4,0.5,0.7,0.5,0.7s-0.4,0.1-1.2,0.5c-0.7,0.3-1.8,0.8-3,1.5c-1.2,0.7-2.6,1.6-3.9,2.9
						C932.6,551.3,931.3,552.8,930.3,555z"/>
				</g>
				<g id="XMLID_303_">
					<path id="XMLID_304_" class="st1" d="M925.5,542.6c0,0-0.6-0.9-1.2-2.8c-0.2-0.9-0.5-2.1-0.6-3.5c-0.1-0.7,0-1.4,0.1-2.2
						c0-0.4,0.1-0.8,0.1-1.2c0.1-0.4,0.1-0.8,0.2-1.2c0,0,1.3-0.7,3.8-1c1.3-0.1,2.8-0.1,4.7,0.1c1.9,0.2,4.1,0.7,6.7,1.3
						c0,0,0,0.4,0,0.9c0,0.3,0,0.6,0,0.9c0,0.3,0.1,0.7,0.1,1.1c0,0.4,0.1,0.7,0.1,1c0.1,0.3,0.1,0.6,0.2,0.9
						c0.1,0.5,0.2,0.9,0.2,0.9s-0.5,0-1.2,0c-0.8,0-1.9,0.1-3.3,0.3c-1.4,0.2-3,0.6-4.7,1.2C929,539.9,927.3,541,925.5,542.6z"/>
				</g>
				<g id="XMLID_301_">
					<path id="XMLID_302_" class="st1" d="M925.5,529.4c0,0-0.1-0.3-0.1-0.8c0-0.5-0.1-1.3,0-2.2c0-0.5,0.1-1,0.2-1.6
						c0.1-0.6,0.3-1.2,0.5-1.9c0.4-1.3,1.1-2.7,2.1-4.2c0,0,0.3-0.1,1,0c0.7,0,1.7,0.1,2.9,0.5c1.2,0.3,2.7,0.9,4.4,1.8
						c1.7,0.9,3.6,2.1,5.7,3.6c0,0-0.1,0.3-0.3,0.8c-0.2,0.5-0.4,1.2-0.6,1.9c-0.1,0.3-0.2,0.7-0.2,1c-0.1,0.3-0.1,0.6-0.2,0.9
						c0,0.3-0.1,0.5-0.1,0.6c0,0.2,0,0.2,0,0.2s-0.4-0.2-1.2-0.5c-0.8-0.3-1.8-0.6-3.2-0.9c-1.4-0.3-3-0.6-4.8-0.5
						c-0.9,0-1.9,0.1-2.9,0.3C927.7,528.6,926.6,528.9,925.5,529.4z"/>
				</g>
				<g id="XMLID_299_">
					<path id="XMLID_300_" class="st1" d="M930.3,517c0,0,0-0.3,0.2-0.8c0.1-0.5,0.4-1.2,0.8-2.1c0.2-0.4,0.5-0.9,0.8-1.4
						c0.3-0.5,0.7-1,1.1-1.5c0.4-0.5,0.9-1.1,1.5-1.6c0.6-0.5,1.2-1,2-1.5c0,0,0.3,0.1,1,0.3c0.6,0.2,1.5,0.7,2.5,1.5
						c1,0.8,2.2,1.8,3.5,3.3c1.3,1.4,2.6,3.2,4,5.4c0,0-0.1,0.1-0.2,0.2c-0.1,0.1-0.3,0.3-0.5,0.5c-0.3,0.4-0.8,1-1.2,1.5
						c-0.4,0.6-0.8,1.2-1.1,1.6c-0.2,0.2-0.2,0.4-0.3,0.6c-0.1,0.1-0.1,0.2-0.1,0.2s-0.3-0.3-0.9-0.8c-0.6-0.5-1.5-1.2-2.6-2
						c-1.2-0.8-2.6-1.6-4.3-2.2c-0.9-0.3-1.8-0.6-2.8-0.8C932.6,517,931.5,517,930.3,517z"/>
				</g>
				<g id="XMLID_297_">
					<path id="XMLID_298_" class="st1" d="M939.3,507.2c0,0,0.1-0.2,0.4-0.7c0.3-0.4,0.8-1,1.5-1.7c0.4-0.3,0.8-0.7,1.2-1
						c0.2-0.2,0.5-0.4,0.7-0.5c0.3-0.2,0.6-0.3,0.9-0.5c0.6-0.3,1.3-0.7,2-1c0.4-0.2,0.7-0.3,1.1-0.4c0.4-0.1,0.8-0.2,1.2-0.3
						c0,0,1.2,0.8,2.6,2.9c0.7,1.1,1.4,2.5,2,4.3c0.7,1.8,1.2,4,1.8,6.5c0,0-0.1,0-0.2,0.1c-0.1,0-0.3,0.2-0.6,0.3
						c-0.2,0.1-0.5,0.3-0.8,0.5c-0.3,0.2-0.6,0.3-0.9,0.5c-0.6,0.4-1.2,0.8-1.6,1.1c-0.4,0.3-0.7,0.6-0.7,0.6s-0.2-0.4-0.6-1.1
						c-0.4-0.7-0.9-1.7-1.7-2.8c-0.8-1.1-1.8-2.4-3.2-3.6c-0.7-0.6-1.5-1.2-2.4-1.7C941.4,508.1,940.4,507.6,939.3,507.2z"/>
				</g>
				<g id="XMLID_295_">
					<path id="XMLID_296_" class="st1" d="M951.1,501.3c0,0,0.2-0.2,0.7-0.5c0.4-0.3,1.1-0.7,2-1c0.9-0.3,2.1-0.7,3.4-0.9
						c0.7-0.1,1.4-0.1,2.2-0.1c0.8,0,1.6,0,2.5,0.2c0,0,0.9,1.2,1.3,3.7c0.2,1.2,0.4,2.8,0.4,4.7c0,1.9-0.3,4.1-0.7,6.7
						c0,0-0.4,0-0.9,0.1c-0.3,0-0.6,0.1-0.9,0.1c-0.3,0.1-0.7,0.1-1,0.2c-0.3,0.1-0.7,0.1-1,0.2c-0.3,0-0.6,0.2-0.9,0.3
						c-0.5,0.2-0.8,0.3-0.8,0.3s0-0.5-0.1-1.2c-0.1-0.8-0.3-1.9-0.6-3.3c-0.3-1.4-0.8-2.9-1.7-4.6
						C954.1,504.5,953,502.9,951.1,501.3z"/>
				</g>
				<g id="XMLID_293_">
					<path id="XMLID_294_" class="st1" d="M964.3,500.1c0,0,0.1,0,0.2-0.1c0.1,0,0.3-0.1,0.6-0.1c0.5-0.1,1.3-0.2,2.2-0.2
						c1-0.1,2.2,0.1,3.5,0.4c0.3,0.1,0.7,0.2,1,0.3c0.4,0.1,0.7,0.2,1.1,0.4c0.7,0.3,1.5,0.6,2.3,1c0,0,0.1,0.3,0.1,1
						c0,0.7,0,1.7-0.2,2.9c-0.2,1.3-0.7,2.8-1.4,4.5c-0.7,1.8-1.8,3.8-3.1,6c0,0-0.3-0.1-0.9-0.3c-0.3-0.1-0.6-0.1-0.9-0.2
						c-0.3-0.1-0.7-0.1-1-0.2c-0.2,0-0.3-0.1-0.5-0.1c-0.2,0-0.3,0-0.5,0c-0.3,0-0.6-0.1-0.9-0.1c-0.3,0-0.5,0-0.6-0.1
						c-0.2,0-0.2,0-0.2,0c0,0,0.1-0.4,0.3-1.2c0.2-0.8,0.5-1.9,0.6-3.3c0.2-1.4,0.3-3,0.1-4.8C966,504.2,965.5,502.2,964.3,500.1z"
						/>
				</g>
				<g id="XMLID_291_">
					<path id="XMLID_292_" class="st1" d="M977.1,503.7c0,0,0.3,0,0.8,0.1c0.5,0.1,1.2,0.3,2.2,0.6c0.5,0.2,1,0.4,1.5,0.6
						c0.5,0.3,1.1,0.6,1.6,1c0.6,0.4,1.2,0.8,1.7,1.3c0.6,0.5,1.1,1.1,1.7,1.8c0,0-0.1,1.4-1.5,3.6c-0.7,1.1-1.6,2.4-2.9,3.7
						c-1.3,1.4-3,2.9-5,4.5c0,0-0.3-0.2-0.7-0.6c-0.5-0.3-1.1-0.7-1.7-1.1c-0.6-0.3-1.3-0.7-1.7-0.9c-0.2-0.1-0.4-0.2-0.6-0.3
						c-0.1-0.1-0.2-0.1-0.2-0.1s0.3-0.4,0.8-1c0.5-0.6,1.1-1.6,1.8-2.8c0.7-1.2,1.4-2.7,1.8-4.5C977.1,508.1,977.4,506,977.1,503.7z
						"/>
				</g>
				<g id="XMLID_289_">
					<path id="XMLID_290_" class="st1" d="M987.7,511.7c0,0,0.3,0.1,0.7,0.4c0.2,0.1,0.5,0.3,0.8,0.5c0.3,0.2,0.6,0.5,1,0.8
						c0.4,0.3,0.7,0.7,1.1,1.1c0.2,0.2,0.4,0.4,0.6,0.7c0.2,0.3,0.4,0.5,0.6,0.8c0.4,0.6,0.8,1.2,1.1,1.9c0.4,0.7,0.6,1.5,0.9,2.3
						c0,0-0.2,0.3-0.6,0.8c-0.4,0.5-1.1,1.2-2.1,2c-1,0.8-2.4,1.6-4.1,2.4c-1.7,0.8-3.8,1.6-6.3,2.4c0,0,0-0.1-0.1-0.2
						c0-0.1-0.1-0.2-0.1-0.2c-0.1-0.1-0.1-0.2-0.2-0.3c-0.3-0.4-0.7-1-1.1-1.6c-0.5-0.5-0.9-1.1-1.3-1.5c-0.4-0.4-0.6-0.6-0.6-0.6
						s0.4-0.2,1.1-0.7c0.7-0.4,1.6-1.1,2.7-2c1.1-0.9,2.2-2,3.3-3.5c0.5-0.7,1.1-1.6,1.5-2.5C987,513.9,987.4,512.9,987.7,511.7z"/>
				</g>
				<g id="XMLID_287_">
					<path id="XMLID_288_" class="st1" d="M994.6,523c0,0,0.2,0.2,0.5,0.6c0.2,0.2,0.3,0.5,0.6,0.8c0.2,0.3,0.5,0.7,0.7,1.1
						c0.4,0.9,0.9,2,1.2,3.3c0.1,0.7,0.3,1.4,0.3,2.2c0,0.4,0.1,0.8,0.1,1.2c0,0.4,0,0.8-0.1,1.3c0,0-1.1,1-3.5,1.7
						c-1.2,0.4-2.8,0.6-4.7,0.8c-1.9,0.1-4.1,0.1-6.8,0c0,0-0.1-0.4-0.2-0.9c-0.1-0.5-0.2-1.2-0.5-1.9c-0.2-0.7-0.4-1.4-0.6-1.8
						c-0.2-0.5-0.4-0.8-0.4-0.8s0.4-0.1,1.2-0.2c0.8-0.2,1.9-0.4,3.2-0.9c1.3-0.5,2.8-1.1,4.4-2.1
						C991.8,526.3,993.3,524.9,994.6,523z"/>
				</g>
			</g>
		</g>
		<circle id="XMLID_283_" class="st15" cx="960.3" cy="536.7" r="23.1"/>
		<g id="XMLID_246_">
			<defs>
				<circle id="XMLID_247_" cx="960.5" cy="536.7" r="35"/>
			</defs>
			<clipPath id="XMLID_3_">
				<use xlink:href="#XMLID_247_"  style="overflow:visible;"/>
			</clipPath>
			<g id="XMLID_248_" class="st16">
				<g id="XMLID_281_">
					<path id="XMLID_282_" class="st1" d="M997.1,536c0,0,0.4,1,0.7,3c0.2,1.9,0,4.8-1.3,8c0,0-0.3,0.1-1,0.2
						c-0.7,0.1-1.6,0.2-2.9,0.1c-1.3-0.1-2.8-0.4-4.6-1c-1.8-0.6-3.9-1.4-6.3-2.5c0,0,0.1-0.4,0.2-0.9c0-0.1,0.1-0.3,0.1-0.4
						c0-0.2,0-0.3,0-0.5c0-0.3,0.1-0.7,0.1-1c0.1-0.7,0-1.4,0-1.9c0-0.5,0-0.9,0-0.9s0.4,0.1,1.2,0.2c0.8,0.1,1.9,0.3,3.3,0.3
						c1.4,0.1,3,0,4.8-0.4C993.1,538,995.1,537.3,997.1,536z"/>
				</g>
				<g id="XMLID_279_">
					<path id="XMLID_280_" class="st1" d="M994.6,549c0,0,0,0.3,0,0.8c0,0.5-0.2,1.3-0.4,2.2c-0.1,0.5-0.3,1-0.5,1.5
						c-0.2,0.5-0.5,1.1-0.9,1.7c-0.3,0.6-0.7,1.3-1.2,1.9c-0.5,0.6-1,1.2-1.6,1.9c0,0-0.4,0-1-0.1c-0.6-0.1-1.6-0.4-2.7-1
						c-1.1-0.6-2.5-1.4-4-2.6c-1.5-1.2-3.1-2.7-5-4.6c0,0,0.2-0.3,0.5-0.8c0.3-0.5,0.6-1.1,0.9-1.7c0.3-0.6,0.5-1.3,0.7-1.8
						c0.1-0.1,0.1-0.2,0.1-0.3c0-0.1,0.1-0.2,0.1-0.3c0-0.1,0.1-0.2,0.1-0.2s0.4,0.3,1.1,0.7c0.7,0.4,1.7,1,3,1.5
						c1.3,0.5,2.8,1.1,4.6,1.4C990.2,549.5,992.4,549.6,994.6,549z"/>
				</g>
				<g id="XMLID_277_">
					<path id="XMLID_278_" class="st1" d="M987.7,560.3c0,0-0.1,0.3-0.3,0.7c-0.1,0.2-0.3,0.5-0.4,0.9c-0.2,0.3-0.4,0.7-0.7,1.1
						c-0.6,0.8-1.3,1.7-2.4,2.6c-0.5,0.4-1.1,0.9-1.8,1.3c-0.7,0.4-1.4,0.8-2.2,1.1c0,0-0.3-0.1-0.9-0.5c-0.6-0.4-1.3-0.9-2.2-1.9
						c-0.9-0.9-1.8-2.2-2.8-3.9c-1-1.6-2-3.7-3-6.1c0,0,0.1-0.1,0.2-0.1c0.1-0.1,0.3-0.2,0.5-0.4c0.4-0.4,1-0.8,1.5-1.3
						c0.5-0.5,1-1,1.4-1.4c0.3-0.4,0.5-0.7,0.5-0.7s0.3,0.4,0.8,1c0.5,0.6,1.2,1.5,2.2,2.5c1,1,2.2,2,3.8,3c0.8,0.5,1.7,0.9,2.6,1.3
						C985.4,559.9,986.5,560.1,987.7,560.3z"/>
				</g>
				<g id="XMLID_275_">
					<path id="XMLID_276_" class="st1" d="M977.1,568.3c0,0-0.2,0.2-0.6,0.6c-0.2,0.2-0.4,0.4-0.7,0.6c-0.2,0.1-0.3,0.2-0.5,0.4
						c-0.2,0.1-0.4,0.2-0.6,0.4c-0.4,0.2-0.9,0.5-1.4,0.8c-0.5,0.2-1.1,0.6-1.8,0.7c-1.3,0.4-2.9,0.8-4.6,0.8c0,0-1.1-1-2-3.3
						c-0.5-1.2-0.9-2.7-1.2-4.6c-0.3-1.9-0.5-4.1-0.6-6.7c0,0,0.1,0,0.2-0.1c0.2,0,0.4-0.1,0.6-0.2c0.3-0.1,0.6-0.2,0.9-0.3
						c0.2-0.1,0.3-0.1,0.5-0.2c0.2-0.1,0.3-0.1,0.5-0.2c0.3-0.1,0.6-0.3,1-0.4c0.2-0.1,0.3-0.1,0.4-0.2c0.1-0.1,0.3-0.1,0.4-0.2
						c0.5-0.3,0.8-0.4,0.8-0.4s0.1,0.4,0.3,1.2c0.2,0.8,0.6,1.8,1.2,3.1c0.6,1.3,1.3,2.7,2.5,4.2C973.6,565.7,975,567.1,977.1,568.3
						z"/>
				</g>
				<g id="XMLID_273_">
					<path id="XMLID_274_" class="st1" d="M964.3,571.9c0,0-1,0.5-2.9,1c-0.5,0.1-1,0.2-1.6,0.2c-0.6,0-1.2,0.1-1.9,0
						c-0.7,0-1.4-0.1-2.2-0.3c-0.8-0.2-1.6-0.3-2.4-0.6c0,0-0.6-1.3-0.6-3.9c0-1.3,0.1-2.8,0.5-4.7c0.4-1.9,1-4,1.9-6.5
						c0,0,0.4,0,0.9,0.1c0.5,0.1,1.3,0,2,0c0.4,0,0.7,0,1,0c0.3,0,0.6-0.1,0.9-0.1c0.5-0.1,0.9-0.1,0.9-0.1s-0.1,0.4-0.1,1.2
						c-0.1,0.8-0.1,1.9,0,3.3c0.1,1.4,0.3,3.1,0.8,4.8C962,568.2,962.8,570.1,964.3,571.9z"/>
				</g>
				<g id="XMLID_271_">
					<path id="XMLID_272_" class="st1" d="M951.1,570.7c0,0-0.3,0-0.8,0.1c-0.5,0-1.3-0.1-2.2-0.2c-0.5-0.1-1-0.2-1.6-0.3
						c-0.6-0.2-1.2-0.4-1.8-0.7c-0.3-0.1-0.6-0.3-1-0.4c-0.2-0.1-0.3-0.2-0.5-0.3c-0.2-0.1-0.3-0.2-0.5-0.3c-0.7-0.4-1.3-0.9-2-1.4
						c0,0,0-0.4,0.1-1c0.1-0.7,0.3-1.6,0.8-2.8c0.5-1.2,1.2-2.6,2.2-4.2c1-1.6,2.4-3.4,4.1-5.4c0,0,0.3,0.2,0.8,0.4
						c0.5,0.2,1.2,0.5,1.8,0.8c0.3,0.2,0.7,0.2,1,0.3c0.3,0.1,0.6,0.2,0.9,0.3c0.3,0.1,0.5,0.1,0.6,0.2c0.2,0,0.2,0,0.2,0
						s-0.2,0.4-0.6,1.1c-0.3,0.7-0.8,1.8-1.2,3.1c-0.4,1.3-0.8,2.9-1,4.7c-0.1,0.9-0.1,1.9,0,2.9c0.1,0.5,0.1,1.1,0.2,1.6
						C950.8,569.6,951,570.2,951.1,570.7z"/>
				</g>
				<g id="XMLID_269_">
					<path id="XMLID_270_" class="st1" d="M939.3,564.8c0,0-0.3-0.1-0.8-0.2c-0.2-0.1-0.6-0.2-0.9-0.4c-0.3-0.2-0.7-0.4-1.1-0.6
						c-0.8-0.5-1.8-1.2-2.8-2.2c-0.5-0.5-1-1-1.5-1.6c-0.5-0.6-0.9-1.3-1.3-2.1c0,0,0.1-0.3,0.4-0.9c0.3-0.6,0.8-1.4,1.7-2.3
						c0.9-1,2-2,3.6-3.1c1.5-1.1,3.5-2.3,5.8-3.5c0,0,0.1,0.1,0.2,0.2c0.1,0.1,0.2,0.3,0.4,0.5c0.4,0.4,0.9,0.9,1.4,1.4
						c0.6,0.4,1.1,0.9,1.5,1.2c0.2,0.2,0.4,0.3,0.5,0.4c0.1,0.1,0.2,0.1,0.2,0.1s-0.3,0.3-0.9,0.8c-0.6,0.6-1.4,1.4-2.3,2.4
						c-0.9,1.1-1.8,2.4-2.6,4.1c-0.4,0.8-0.8,1.7-1,2.8C939.5,562.6,939.3,563.6,939.3,564.8z"/>
				</g>
				<g id="XMLID_267_">
					<path id="XMLID_268_" class="st1" d="M930.3,555c0,0-0.2-0.2-0.6-0.5c-0.4-0.4-1-0.9-1.5-1.7c-0.3-0.4-0.6-0.8-0.9-1.3
						c-0.3-0.5-0.6-1.1-0.9-1.7c-0.5-1.3-1.1-2.8-1.3-4.5c0,0,0.9-1.1,3.1-2.3c1.1-0.6,2.6-1.1,4.5-1.6c1.9-0.5,4.1-0.9,6.7-1.2
						c0,0,0,0.1,0.1,0.2c0.1,0.1,0.2,0.4,0.3,0.6c0.1,0.2,0.2,0.5,0.4,0.8c0.1,0.3,0.3,0.6,0.5,0.9c0.4,0.6,0.7,1.2,1,1.7
						c0.3,0.4,0.5,0.7,0.5,0.7s-0.4,0.1-1.2,0.5c-0.7,0.3-1.8,0.8-3,1.5c-1.2,0.7-2.6,1.6-3.9,2.9
						C932.6,551.3,931.3,552.8,930.3,555z"/>
				</g>
				<g id="XMLID_265_">
					<path id="XMLID_266_" class="st1" d="M925.5,542.6c0,0-0.6-0.9-1.2-2.8c-0.2-0.9-0.5-2.1-0.6-3.5c-0.1-0.7,0-1.4,0.1-2.2
						c0-0.4,0.1-0.8,0.1-1.2c0.1-0.4,0.1-0.8,0.2-1.2c0,0,1.3-0.7,3.8-1c1.3-0.1,2.8-0.1,4.7,0.1c1.9,0.2,4.1,0.7,6.7,1.3
						c0,0,0,0.4,0,0.9c0,0.3,0,0.6,0,0.9c0,0.3,0.1,0.7,0.1,1.1c0,0.4,0.1,0.7,0.1,1c0.1,0.3,0.1,0.6,0.2,0.9
						c0.1,0.5,0.2,0.9,0.2,0.9s-0.5,0-1.2,0c-0.8,0-1.9,0.1-3.3,0.3c-1.4,0.2-3,0.6-4.7,1.2C929,539.9,927.3,541,925.5,542.6z"/>
				</g>
				<g id="XMLID_263_">
					<path id="XMLID_264_" class="st1" d="M925.5,529.4c0,0-0.1-0.3-0.1-0.8c0-0.5-0.1-1.3,0-2.2c0-0.5,0.1-1,0.2-1.6
						c0.1-0.6,0.3-1.2,0.5-1.9c0.4-1.3,1.1-2.7,2.1-4.2c0,0,0.3-0.1,1,0c0.7,0,1.7,0.1,2.9,0.5c1.2,0.3,2.7,0.9,4.4,1.8
						c1.7,0.9,3.6,2.1,5.7,3.6c0,0-0.1,0.3-0.3,0.8c-0.2,0.5-0.4,1.2-0.6,1.9c-0.1,0.3-0.2,0.7-0.2,1c-0.1,0.3-0.1,0.6-0.2,0.9
						c0,0.3-0.1,0.5-0.1,0.6c0,0.2,0,0.2,0,0.2s-0.4-0.2-1.2-0.5c-0.8-0.3-1.8-0.6-3.2-0.9c-1.4-0.3-3-0.6-4.8-0.5
						c-0.9,0-1.9,0.1-2.9,0.3C927.7,528.6,926.6,528.9,925.5,529.4z"/>
				</g>
				<g id="XMLID_261_">
					<path id="XMLID_262_" class="st1" d="M930.3,517c0,0,0-0.3,0.2-0.8c0.1-0.5,0.4-1.2,0.8-2.1c0.2-0.4,0.5-0.9,0.8-1.4
						c0.3-0.5,0.7-1,1.1-1.5c0.4-0.5,0.9-1.1,1.5-1.6c0.6-0.5,1.2-1,2-1.5c0,0,0.3,0.1,1,0.3c0.6,0.2,1.5,0.7,2.5,1.5
						c1,0.8,2.2,1.8,3.5,3.3c1.3,1.4,2.6,3.2,4,5.4c0,0-0.1,0.1-0.2,0.2c-0.1,0.1-0.3,0.3-0.5,0.5c-0.3,0.4-0.8,1-1.2,1.5
						c-0.4,0.6-0.8,1.2-1.1,1.6c-0.2,0.2-0.2,0.4-0.3,0.6c-0.1,0.1-0.1,0.2-0.1,0.2s-0.3-0.3-0.9-0.8c-0.6-0.5-1.5-1.2-2.6-2
						c-1.2-0.8-2.6-1.6-4.3-2.2c-0.9-0.3-1.8-0.6-2.8-0.8C932.6,517,931.5,517,930.3,517z"/>
				</g>
				<g id="XMLID_259_">
					<path id="XMLID_260_" class="st1" d="M939.3,507.2c0,0,0.1-0.2,0.4-0.7c0.3-0.4,0.8-1,1.5-1.7c0.4-0.3,0.8-0.7,1.2-1
						c0.2-0.2,0.5-0.4,0.7-0.5c0.3-0.2,0.6-0.3,0.9-0.5c0.6-0.3,1.3-0.7,2-1c0.4-0.2,0.7-0.3,1.1-0.4c0.4-0.1,0.8-0.2,1.2-0.3
						c0,0,1.2,0.8,2.6,2.9c0.7,1.1,1.4,2.5,2,4.3c0.7,1.8,1.2,4,1.8,6.5c0,0-0.1,0-0.2,0.1c-0.1,0-0.3,0.2-0.6,0.3
						c-0.2,0.1-0.5,0.3-0.8,0.5c-0.3,0.2-0.6,0.3-0.9,0.5c-0.6,0.4-1.2,0.8-1.6,1.1c-0.4,0.3-0.7,0.6-0.7,0.6s-0.2-0.4-0.6-1.1
						c-0.4-0.7-0.9-1.7-1.7-2.8c-0.8-1.1-1.8-2.4-3.2-3.6c-0.7-0.6-1.5-1.2-2.4-1.7C941.4,508.1,940.4,507.6,939.3,507.2z"/>
				</g>
				<g id="XMLID_257_">
					<path id="XMLID_258_" class="st1" d="M951.1,501.3c0,0,0.2-0.2,0.7-0.5c0.4-0.3,1.1-0.7,2-1c0.9-0.3,2.1-0.7,3.4-0.9
						c0.7-0.1,1.4-0.1,2.2-0.1c0.8,0,1.6,0,2.5,0.2c0,0,0.9,1.2,1.3,3.7c0.2,1.2,0.4,2.8,0.4,4.7c0,1.9-0.3,4.1-0.7,6.7
						c0,0-0.4,0-0.9,0.1c-0.3,0-0.6,0.1-0.9,0.1c-0.3,0.1-0.7,0.1-1,0.2c-0.3,0.1-0.7,0.1-1,0.2c-0.3,0-0.6,0.2-0.9,0.3
						c-0.5,0.2-0.8,0.3-0.8,0.3s0-0.5-0.1-1.2c-0.1-0.8-0.3-1.9-0.6-3.3c-0.3-1.4-0.8-2.9-1.7-4.6
						C954.1,504.5,953,502.9,951.1,501.3z"/>
				</g>
				<g id="XMLID_255_">
					<path id="XMLID_256_" class="st1" d="M964.3,500.1c0,0,0.1,0,0.2-0.1c0.1,0,0.3-0.1,0.6-0.1c0.5-0.1,1.3-0.2,2.2-0.2
						c1-0.1,2.2,0.1,3.5,0.4c0.3,0.1,0.7,0.2,1,0.3c0.4,0.1,0.7,0.2,1.1,0.4c0.7,0.3,1.5,0.6,2.3,1c0,0,0.1,0.3,0.1,1
						c0,0.7,0,1.7-0.2,2.9c-0.2,1.3-0.7,2.8-1.4,4.5c-0.7,1.8-1.8,3.8-3.1,6c0,0-0.3-0.1-0.9-0.3c-0.3-0.1-0.6-0.1-0.9-0.2
						c-0.3-0.1-0.7-0.1-1-0.2c-0.2,0-0.3-0.1-0.5-0.1c-0.2,0-0.3,0-0.5,0c-0.3,0-0.6-0.1-0.9-0.1c-0.3,0-0.5,0-0.6-0.1
						c-0.2,0-0.2,0-0.2,0c0,0,0.1-0.4,0.3-1.2c0.2-0.8,0.5-1.9,0.6-3.3c0.2-1.4,0.3-3,0.1-4.8C966,504.2,965.5,502.2,964.3,500.1z"
						/>
				</g>
				<g id="XMLID_253_">
					<path id="XMLID_254_" class="st1" d="M977.1,503.7c0,0,0.3,0,0.8,0.1c0.5,0.1,1.2,0.3,2.2,0.6c0.5,0.2,1,0.4,1.5,0.6
						c0.5,0.3,1.1,0.6,1.6,1c0.6,0.4,1.2,0.8,1.7,1.3c0.6,0.5,1.1,1.1,1.7,1.8c0,0-0.1,1.4-1.5,3.6c-0.7,1.1-1.6,2.4-2.9,3.7
						c-1.3,1.4-3,2.9-5,4.5c0,0-0.3-0.2-0.7-0.6c-0.5-0.3-1.1-0.7-1.7-1.1c-0.6-0.3-1.3-0.7-1.7-0.9c-0.2-0.1-0.4-0.2-0.6-0.3
						c-0.1-0.1-0.2-0.1-0.2-0.1s0.3-0.4,0.8-1c0.5-0.6,1.1-1.6,1.8-2.8c0.7-1.2,1.4-2.7,1.8-4.5C977.1,508.1,977.4,506,977.1,503.7z
						"/>
				</g>
				<g id="XMLID_251_">
					<path id="XMLID_252_" class="st1" d="M987.7,511.7c0,0,0.3,0.1,0.7,0.4c0.2,0.1,0.5,0.3,0.8,0.5c0.3,0.2,0.6,0.5,1,0.8
						c0.4,0.3,0.7,0.7,1.1,1.1c0.2,0.2,0.4,0.4,0.6,0.7c0.2,0.3,0.4,0.5,0.6,0.8c0.4,0.6,0.8,1.2,1.1,1.9c0.4,0.7,0.6,1.5,0.9,2.3
						c0,0-0.2,0.3-0.6,0.8c-0.4,0.5-1.1,1.2-2.1,2c-1,0.8-2.4,1.6-4.1,2.4c-1.7,0.8-3.8,1.6-6.3,2.4c0,0,0-0.1-0.1-0.2
						c0-0.1-0.1-0.2-0.1-0.2c-0.1-0.1-0.1-0.2-0.2-0.3c-0.3-0.4-0.7-1-1.1-1.6c-0.5-0.5-0.9-1.1-1.3-1.5c-0.4-0.4-0.6-0.6-0.6-0.6
						s0.4-0.2,1.1-0.7c0.7-0.4,1.6-1.1,2.7-2c1.1-0.9,2.2-2,3.3-3.5c0.5-0.7,1.1-1.6,1.5-2.5C987,513.9,987.4,512.9,987.7,511.7z"/>
				</g>
				<g id="XMLID_249_">
					<path id="XMLID_250_" class="st1" d="M994.6,523c0,0,0.2,0.2,0.5,0.6c0.2,0.2,0.3,0.5,0.6,0.8c0.2,0.3,0.5,0.7,0.7,1.1
						c0.4,0.9,0.9,2,1.2,3.3c0.1,0.7,0.3,1.4,0.3,2.2c0,0.4,0.1,0.8,0.1,1.2c0,0.4,0,0.8-0.1,1.3c0,0-1.1,1-3.5,1.7
						c-1.2,0.4-2.8,0.6-4.7,0.8c-1.9,0.1-4.1,0.1-6.8,0c0,0-0.1-0.4-0.2-0.9c-0.1-0.5-0.2-1.2-0.5-1.9c-0.2-0.7-0.4-1.4-0.6-1.8
						c-0.2-0.5-0.4-0.8-0.4-0.8s0.4-0.1,1.2-0.2c0.8-0.2,1.9-0.4,3.2-0.9c1.3-0.5,2.8-1.1,4.4-2.1
						C991.8,526.3,993.3,524.9,994.6,523z"/>
				</g>
			</g>
		</g>
		<circle id="XMLID_245_" class="st6" cx="960.4" cy="536.5" r="23.4"/>
		<circle id="XMLID_244_" class="st17" cx="960.3" cy="536.7" r="19.2"/>
		<circle id="XMLID_243_" class="st13" cx="960.4" cy="536.6" r="2.8"/>
	</g>
	<g id="XMLID_442_">
		<circle id="XMLID_526_" class="st12" cx="1054.4" cy="537.6" r="44.8"/>
		<circle id="XMLID_525_" class="st13" cx="1054.4" cy="537.6" r="41.5"/>
		<circle id="XMLID_524_" class="st6" cx="1054.4" cy="537.7" r="38.6"/>
		<circle id="XMLID_523_" class="st6" cx="1054.4" cy="537.7" r="38.6"/>
		<g id="XMLID_486_">
			<defs>
				<circle id="XMLID_487_" cx="1054.5" cy="537.7" r="35"/>
			</defs>
			<clipPath id="XMLID_4_">
				<use xlink:href="#XMLID_487_"  style="overflow:visible;"/>
			</clipPath>
			<g id="XMLID_488_" class="st18">
				<g id="XMLID_521_">
					<path id="XMLID_522_" class="st1" d="M1091.1,537c0,0,0.4,1,0.7,3c0.2,1.9,0,4.8-1.3,8c0,0-0.3,0.1-1,0.2
						c-0.7,0.1-1.6,0.2-2.9,0.1c-1.3-0.1-2.8-0.4-4.6-1c-1.8-0.6-3.9-1.4-6.3-2.5c0,0,0.1-0.4,0.2-0.9c0-0.1,0.1-0.3,0.1-0.4
						c0-0.2,0-0.3,0-0.5c0-0.3,0.1-0.7,0.1-1c0.1-0.7,0-1.4,0-1.9c0-0.5,0-0.9,0-0.9s0.4,0.1,1.2,0.2c0.8,0.1,1.9,0.3,3.3,0.3
						c1.4,0.1,3,0,4.8-0.4C1087.1,539,1089.1,538.3,1091.1,537z"/>
				</g>
				<g id="XMLID_519_">
					<path id="XMLID_520_" class="st1" d="M1088.6,550c0,0,0,0.3,0,0.8c0,0.5-0.2,1.3-0.4,2.2c-0.1,0.5-0.3,1-0.5,1.5
						c-0.2,0.5-0.5,1.1-0.9,1.7c-0.3,0.6-0.7,1.3-1.2,1.9c-0.5,0.6-1,1.2-1.6,1.9c0,0-0.4,0-1-0.1c-0.6-0.1-1.6-0.4-2.7-1
						c-1.1-0.6-2.5-1.4-4-2.6c-1.5-1.2-3.1-2.7-5-4.6c0,0,0.2-0.3,0.5-0.8c0.3-0.5,0.6-1.1,0.9-1.7c0.3-0.6,0.5-1.3,0.7-1.8
						c0.1-0.1,0.1-0.2,0.1-0.3c0-0.1,0.1-0.2,0.1-0.3c0-0.1,0.1-0.2,0.1-0.2s0.4,0.3,1.1,0.7c0.7,0.4,1.7,1,3,1.5
						c1.3,0.5,2.8,1.1,4.6,1.4C1084.2,550.5,1086.4,550.6,1088.6,550z"/>
				</g>
				<g id="XMLID_517_">
					<path id="XMLID_518_" class="st1" d="M1081.7,561.3c0,0-0.1,0.3-0.3,0.7c-0.1,0.2-0.3,0.5-0.4,0.9c-0.2,0.3-0.4,0.7-0.7,1.1
						c-0.6,0.8-1.3,1.7-2.4,2.6c-0.5,0.4-1.1,0.9-1.8,1.3c-0.7,0.4-1.4,0.8-2.2,1.1c0,0-0.3-0.1-0.9-0.5c-0.6-0.4-1.3-0.9-2.2-1.9
						c-0.9-0.9-1.8-2.2-2.8-3.9c-1-1.6-2-3.7-3-6.1c0,0,0.1-0.1,0.2-0.1c0.1-0.1,0.3-0.2,0.5-0.4c0.4-0.4,1-0.8,1.5-1.3
						c0.5-0.5,1-1,1.4-1.4c0.3-0.4,0.5-0.7,0.5-0.7s0.3,0.4,0.8,1c0.5,0.6,1.2,1.5,2.2,2.5c1,1,2.2,2,3.8,3c0.8,0.5,1.7,0.9,2.6,1.3
						C1079.4,560.9,1080.5,561.1,1081.7,561.3z"/>
				</g>
				<g id="XMLID_515_">
					<path id="XMLID_516_" class="st1" d="M1071.1,569.3c0,0-0.2,0.2-0.6,0.6c-0.2,0.2-0.4,0.4-0.7,0.6c-0.2,0.1-0.3,0.2-0.5,0.4
						c-0.2,0.1-0.4,0.2-0.6,0.4c-0.4,0.2-0.9,0.5-1.4,0.8c-0.5,0.2-1.1,0.6-1.8,0.7c-1.3,0.4-2.9,0.8-4.6,0.8c0,0-1.1-1-2-3.3
						c-0.5-1.2-0.9-2.7-1.2-4.6c-0.3-1.9-0.5-4.1-0.6-6.7c0,0,0.1,0,0.2-0.1c0.2,0,0.4-0.1,0.6-0.2c0.3-0.1,0.6-0.2,0.9-0.3
						c0.2-0.1,0.3-0.1,0.5-0.2c0.2-0.1,0.3-0.1,0.5-0.2c0.3-0.1,0.6-0.3,1-0.4c0.2-0.1,0.3-0.1,0.4-0.2c0.1-0.1,0.3-0.1,0.4-0.2
						c0.5-0.3,0.8-0.4,0.8-0.4s0.1,0.4,0.3,1.2c0.2,0.8,0.6,1.8,1.2,3.1c0.6,1.3,1.3,2.7,2.5,4.2
						C1067.6,566.7,1069,568.1,1071.1,569.3z"/>
				</g>
				<g id="XMLID_513_">
					<path id="XMLID_514_" class="st1" d="M1058.3,572.9c0,0-1,0.5-2.9,1c-0.5,0.1-1,0.2-1.6,0.2c-0.6,0-1.2,0.1-1.9,0
						c-0.7,0-1.4-0.1-2.2-0.3c-0.8-0.2-1.6-0.3-2.4-0.6c0,0-0.6-1.3-0.6-3.9c0-1.3,0.1-2.8,0.5-4.7c0.4-1.9,1-4,1.9-6.5
						c0,0,0.4,0,0.9,0.1c0.5,0.1,1.3,0,2,0c0.4,0,0.7,0,1,0c0.3,0,0.6-0.1,0.9-0.1c0.5-0.1,0.9-0.1,0.9-0.1s-0.1,0.4-0.1,1.2
						c-0.1,0.8-0.1,1.9,0,3.3c0.1,1.4,0.3,3.1,0.8,4.8C1056,569.2,1056.8,571.1,1058.3,572.9z"/>
				</g>
				<g id="XMLID_511_">
					<path id="XMLID_512_" class="st1" d="M1045.1,571.7c0,0-0.3,0-0.8,0.1c-0.5,0-1.3-0.1-2.2-0.2c-0.5-0.1-1-0.2-1.6-0.3
						c-0.6-0.2-1.2-0.4-1.8-0.7c-0.3-0.1-0.6-0.3-1-0.4c-0.2-0.1-0.3-0.2-0.5-0.3c-0.2-0.1-0.3-0.2-0.5-0.3c-0.7-0.4-1.3-0.9-2-1.4
						c0,0,0-0.4,0.1-1c0.1-0.7,0.3-1.6,0.8-2.8c0.5-1.2,1.2-2.6,2.2-4.2c1-1.6,2.4-3.4,4.1-5.4c0,0,0.3,0.2,0.8,0.4
						c0.5,0.2,1.2,0.5,1.8,0.8c0.3,0.2,0.7,0.2,1,0.3c0.3,0.1,0.6,0.2,0.9,0.3c0.3,0.1,0.5,0.1,0.6,0.2c0.2,0,0.2,0,0.2,0
						s-0.2,0.4-0.6,1.1c-0.3,0.7-0.8,1.8-1.2,3.1c-0.4,1.3-0.8,2.9-1,4.7c-0.1,0.9-0.1,1.9,0,2.9c0.1,0.5,0.1,1.1,0.2,1.6
						C1044.8,570.6,1045,571.2,1045.1,571.7z"/>
				</g>
				<g id="XMLID_509_">
					<path id="XMLID_510_" class="st1" d="M1033.3,565.8c0,0-0.3-0.1-0.8-0.2c-0.2-0.1-0.6-0.2-0.9-0.4c-0.3-0.2-0.7-0.4-1.1-0.6
						c-0.8-0.5-1.8-1.2-2.8-2.2c-0.5-0.5-1-1-1.5-1.6c-0.5-0.6-0.9-1.3-1.3-2.1c0,0,0.1-0.3,0.4-0.9c0.3-0.6,0.8-1.4,1.7-2.3
						c0.9-1,2-2,3.6-3.1c1.5-1.1,3.5-2.3,5.8-3.5c0,0,0.1,0.1,0.2,0.2c0.1,0.1,0.2,0.3,0.4,0.5c0.4,0.4,0.9,0.9,1.4,1.4
						c0.6,0.4,1.1,0.9,1.5,1.2c0.2,0.2,0.4,0.3,0.5,0.4c0.1,0.1,0.2,0.1,0.2,0.1s-0.3,0.3-0.9,0.8c-0.6,0.6-1.4,1.4-2.3,2.4
						c-0.9,1.1-1.8,2.4-2.6,4.1c-0.4,0.8-0.8,1.7-1,2.8C1033.5,563.6,1033.3,564.6,1033.3,565.8z"/>
				</g>
				<g id="XMLID_507_">
					<path id="XMLID_508_" class="st1" d="M1024.3,556c0,0-0.2-0.2-0.6-0.5c-0.4-0.4-1-0.9-1.5-1.7c-0.3-0.4-0.6-0.8-0.9-1.3
						c-0.3-0.5-0.6-1.1-0.9-1.7c-0.5-1.3-1.1-2.8-1.3-4.5c0,0,0.9-1.1,3.1-2.3c1.1-0.6,2.6-1.1,4.5-1.6c1.9-0.5,4.1-0.9,6.7-1.2
						c0,0,0,0.1,0.1,0.2c0.1,0.1,0.2,0.4,0.3,0.6c0.1,0.2,0.2,0.5,0.4,0.8c0.1,0.3,0.3,0.6,0.5,0.9c0.4,0.6,0.7,1.2,1,1.7
						c0.3,0.4,0.5,0.7,0.5,0.7s-0.4,0.1-1.2,0.5c-0.7,0.3-1.8,0.8-3,1.5c-1.2,0.7-2.6,1.6-3.9,2.9
						C1026.6,552.3,1025.3,553.8,1024.3,556z"/>
				</g>
				<g id="XMLID_505_">
					<path id="XMLID_506_" class="st1" d="M1019.5,543.6c0,0-0.6-0.9-1.2-2.8c-0.2-0.9-0.5-2.1-0.6-3.5c-0.1-0.7,0-1.4,0.1-2.2
						c0-0.4,0.1-0.8,0.1-1.2c0.1-0.4,0.1-0.8,0.2-1.2c0,0,1.3-0.7,3.8-1c1.3-0.1,2.8-0.1,4.7,0.1c1.9,0.2,4.1,0.7,6.7,1.3
						c0,0,0,0.4,0,0.9c0,0.3,0,0.6,0,0.9c0,0.3,0.1,0.7,0.1,1.1c0,0.4,0.1,0.7,0.1,1c0.1,0.3,0.1,0.6,0.2,0.9
						c0.1,0.5,0.2,0.9,0.2,0.9s-0.5,0-1.2,0c-0.8,0-1.9,0.1-3.3,0.3c-1.4,0.2-3,0.6-4.7,1.2C1023,540.9,1021.3,542,1019.5,543.6z"/>
				</g>
				<g id="XMLID_503_">
					<path id="XMLID_504_" class="st1" d="M1019.5,530.4c0,0-0.1-0.3-0.1-0.8c0-0.5-0.1-1.3,0-2.2c0-0.5,0.1-1,0.2-1.6
						c0.1-0.6,0.3-1.2,0.5-1.9c0.4-1.3,1.1-2.7,2.1-4.2c0,0,0.3-0.1,1,0c0.7,0,1.7,0.1,2.9,0.5c1.2,0.3,2.7,0.9,4.4,1.8
						c1.7,0.9,3.6,2.1,5.7,3.6c0,0-0.1,0.3-0.3,0.8c-0.2,0.5-0.4,1.2-0.6,1.9c-0.1,0.3-0.2,0.7-0.2,1c-0.1,0.3-0.1,0.6-0.2,0.9
						c0,0.3-0.1,0.5-0.1,0.6c0,0.2,0,0.2,0,0.2s-0.4-0.2-1.2-0.5c-0.8-0.3-1.8-0.6-3.2-0.9c-1.4-0.3-3-0.6-4.8-0.5
						c-0.9,0-1.9,0.1-2.9,0.3C1021.7,529.6,1020.6,529.9,1019.5,530.4z"/>
				</g>
				<g id="XMLID_501_">
					<path id="XMLID_502_" class="st1" d="M1024.3,518c0,0,0-0.3,0.2-0.8c0.1-0.5,0.4-1.2,0.8-2.1c0.2-0.4,0.5-0.9,0.8-1.4
						c0.3-0.5,0.7-1,1.1-1.5c0.4-0.5,0.9-1.1,1.5-1.6c0.6-0.5,1.2-1,2-1.5c0,0,0.3,0.1,1,0.3c0.6,0.2,1.5,0.7,2.5,1.5
						c1,0.8,2.2,1.8,3.5,3.3c1.3,1.4,2.6,3.2,4,5.4c0,0-0.1,0.1-0.2,0.2c-0.1,0.1-0.3,0.3-0.5,0.5c-0.3,0.4-0.8,1-1.2,1.5
						c-0.4,0.6-0.8,1.2-1.1,1.6c-0.2,0.2-0.2,0.4-0.3,0.6c-0.1,0.1-0.1,0.2-0.1,0.2s-0.3-0.3-0.9-0.8c-0.6-0.5-1.5-1.2-2.6-2
						c-1.2-0.8-2.6-1.6-4.3-2.2c-0.9-0.3-1.8-0.6-2.8-0.8C1026.6,518,1025.5,518,1024.3,518z"/>
				</g>
				<g id="XMLID_499_">
					<path id="XMLID_500_" class="st1" d="M1033.3,508.2c0,0,0.1-0.2,0.4-0.7c0.3-0.4,0.8-1,1.5-1.7c0.4-0.3,0.8-0.7,1.2-1
						c0.2-0.2,0.5-0.4,0.7-0.5c0.3-0.2,0.6-0.3,0.9-0.5c0.6-0.3,1.3-0.7,2-1c0.4-0.2,0.7-0.3,1.1-0.4c0.4-0.1,0.8-0.2,1.2-0.3
						c0,0,1.2,0.8,2.6,2.9c0.7,1.1,1.4,2.5,2,4.3c0.7,1.8,1.2,4,1.8,6.5c0,0-0.1,0-0.2,0.1c-0.1,0-0.3,0.2-0.6,0.3
						c-0.2,0.1-0.5,0.3-0.8,0.5c-0.3,0.2-0.6,0.3-0.9,0.5c-0.6,0.4-1.2,0.8-1.6,1.1c-0.4,0.3-0.7,0.6-0.7,0.6s-0.2-0.4-0.6-1.1
						c-0.4-0.7-0.9-1.7-1.7-2.8c-0.8-1.1-1.8-2.4-3.2-3.6c-0.7-0.6-1.5-1.2-2.4-1.7C1035.4,509.1,1034.4,508.6,1033.3,508.2z"/>
				</g>
				<g id="XMLID_497_">
					<path id="XMLID_498_" class="st1" d="M1045.1,502.3c0,0,0.2-0.2,0.7-0.5c0.4-0.3,1.1-0.7,2-1c0.9-0.3,2.1-0.7,3.4-0.9
						c0.7-0.1,1.4-0.1,2.2-0.1c0.8,0,1.6,0,2.5,0.2c0,0,0.9,1.2,1.3,3.7c0.2,1.2,0.4,2.8,0.4,4.7c0,1.9-0.3,4.1-0.7,6.7
						c0,0-0.4,0-0.9,0.1c-0.3,0-0.6,0.1-0.9,0.1c-0.3,0.1-0.7,0.1-1,0.2c-0.3,0.1-0.7,0.1-1,0.2c-0.3,0-0.6,0.2-0.9,0.3
						c-0.5,0.2-0.8,0.3-0.8,0.3s0-0.5-0.1-1.2c-0.1-0.8-0.3-1.9-0.6-3.3c-0.3-1.4-0.8-2.9-1.7-4.6
						C1048.1,505.5,1047,503.9,1045.1,502.3z"/>
				</g>
				<g id="XMLID_495_">
					<path id="XMLID_496_" class="st1" d="M1058.3,501.1c0,0,0.1,0,0.2-0.1c0.1,0,0.3-0.1,0.6-0.1c0.5-0.1,1.3-0.2,2.2-0.2
						c1-0.1,2.2,0.1,3.5,0.4c0.3,0.1,0.7,0.2,1,0.3c0.4,0.1,0.7,0.2,1.1,0.4c0.7,0.3,1.5,0.6,2.3,1c0,0,0.1,0.3,0.1,1
						c0,0.7,0,1.7-0.2,2.9c-0.2,1.3-0.7,2.8-1.4,4.5c-0.7,1.8-1.8,3.8-3.1,6c0,0-0.3-0.1-0.9-0.3c-0.3-0.1-0.6-0.1-0.9-0.2
						c-0.3-0.1-0.7-0.1-1-0.2c-0.2,0-0.3-0.1-0.5-0.1c-0.2,0-0.3,0-0.5,0c-0.3,0-0.6-0.1-0.9-0.1c-0.3,0-0.5,0-0.6-0.1
						c-0.2,0-0.2,0-0.2,0c0,0,0.1-0.4,0.3-1.2c0.2-0.8,0.5-1.9,0.6-3.3c0.2-1.4,0.3-3,0.1-4.8C1060,505.2,1059.5,503.2,1058.3,501.1
						z"/>
				</g>
				<g id="XMLID_493_">
					<path id="XMLID_494_" class="st1" d="M1071.1,504.7c0,0,0.3,0,0.8,0.1c0.5,0.1,1.2,0.3,2.2,0.6c0.5,0.2,1,0.4,1.5,0.6
						c0.5,0.3,1.1,0.6,1.6,1c0.6,0.4,1.2,0.8,1.7,1.3c0.6,0.5,1.1,1.1,1.7,1.8c0,0-0.1,1.4-1.5,3.6c-0.7,1.1-1.6,2.4-2.9,3.7
						c-1.3,1.4-3,2.9-5,4.5c0,0-0.3-0.2-0.7-0.6c-0.5-0.3-1.1-0.7-1.7-1.1c-0.6-0.3-1.3-0.7-1.7-0.9c-0.2-0.1-0.4-0.2-0.6-0.3
						c-0.1-0.1-0.2-0.1-0.2-0.1s0.3-0.4,0.8-1c0.5-0.6,1.1-1.6,1.8-2.8c0.7-1.2,1.4-2.7,1.8-4.5
						C1071.1,509.1,1071.4,507,1071.1,504.7z"/>
				</g>
				<g id="XMLID_491_">
					<path id="XMLID_492_" class="st1" d="M1081.7,512.7c0,0,0.3,0.1,0.7,0.4c0.2,0.1,0.5,0.3,0.8,0.5c0.3,0.2,0.6,0.5,1,0.8
						c0.4,0.3,0.7,0.7,1.1,1.1c0.2,0.2,0.4,0.4,0.6,0.7c0.2,0.3,0.4,0.5,0.6,0.8c0.4,0.6,0.8,1.2,1.1,1.9c0.4,0.7,0.6,1.5,0.9,2.3
						c0,0-0.2,0.3-0.6,0.8c-0.4,0.5-1.1,1.2-2.1,2c-1,0.8-2.4,1.6-4.1,2.4c-1.7,0.8-3.8,1.6-6.3,2.4c0,0,0-0.1-0.1-0.2
						c0-0.1-0.1-0.2-0.1-0.2c-0.1-0.1-0.1-0.2-0.2-0.3c-0.3-0.4-0.7-1-1.1-1.6c-0.5-0.5-0.9-1.1-1.3-1.5c-0.4-0.4-0.6-0.6-0.6-0.6
						s0.4-0.2,1.1-0.7c0.7-0.4,1.6-1.1,2.7-2c1.1-0.9,2.2-2,3.3-3.5c0.5-0.7,1.1-1.6,1.5-2.5C1081,514.9,1081.4,513.9,1081.7,512.7z
						"/>
				</g>
				<g id="XMLID_489_">
					<path id="XMLID_490_" class="st1" d="M1088.6,524c0,0,0.2,0.2,0.5,0.6c0.2,0.2,0.3,0.5,0.6,0.8c0.2,0.3,0.5,0.7,0.7,1.1
						c0.4,0.9,0.9,2,1.2,3.3c0.1,0.7,0.3,1.4,0.3,2.2c0,0.4,0.1,0.8,0.1,1.2c0,0.4,0,0.8-0.1,1.3c0,0-1.1,1-3.5,1.7
						c-1.2,0.4-2.8,0.6-4.7,0.8c-1.9,0.1-4.1,0.1-6.8,0c0,0-0.1-0.4-0.2-0.9c-0.1-0.5-0.2-1.2-0.5-1.9c-0.2-0.7-0.4-1.4-0.6-1.8
						c-0.2-0.5-0.4-0.8-0.4-0.8s0.4-0.1,1.2-0.2c0.8-0.2,1.9-0.4,3.2-0.9c1.3-0.5,2.8-1.1,4.4-2.1
						C1085.8,527.3,1087.3,525.9,1088.6,524z"/>
				</g>
			</g>
		</g>
		<circle id="XMLID_485_" class="st15" cx="1054.3" cy="537.7" r="23.1"/>
		<g id="XMLID_448_">
			<defs>
				<circle id="XMLID_449_" cx="1054.5" cy="537.7" r="35"/>
			</defs>
			<clipPath id="XMLID_5_">
				<use xlink:href="#XMLID_449_"  style="overflow:visible;"/>
			</clipPath>
			<g id="XMLID_450_" class="st19">
				<g id="XMLID_483_">
					<path id="XMLID_484_" class="st1" d="M1091.1,537c0,0,0.4,1,0.7,3c0.2,1.9,0,4.8-1.3,8c0,0-0.3,0.1-1,0.2
						c-0.7,0.1-1.6,0.2-2.9,0.1c-1.3-0.1-2.8-0.4-4.6-1c-1.8-0.6-3.9-1.4-6.3-2.5c0,0,0.1-0.4,0.2-0.9c0-0.1,0.1-0.3,0.1-0.4
						c0-0.2,0-0.3,0-0.5c0-0.3,0.1-0.7,0.1-1c0.1-0.7,0-1.4,0-1.9c0-0.5,0-0.9,0-0.9s0.4,0.1,1.2,0.2c0.8,0.1,1.9,0.3,3.3,0.3
						c1.4,0.1,3,0,4.8-0.4C1087.1,539,1089.1,538.3,1091.1,537z"/>
				</g>
				<g id="XMLID_481_">
					<path id="XMLID_482_" class="st1" d="M1088.6,550c0,0,0,0.3,0,0.8c0,0.5-0.2,1.3-0.4,2.2c-0.1,0.5-0.3,1-0.5,1.5
						c-0.2,0.5-0.5,1.1-0.9,1.7c-0.3,0.6-0.7,1.3-1.2,1.9c-0.5,0.6-1,1.2-1.6,1.9c0,0-0.4,0-1-0.1c-0.6-0.1-1.6-0.4-2.7-1
						c-1.1-0.6-2.5-1.4-4-2.6c-1.5-1.2-3.1-2.7-5-4.6c0,0,0.2-0.3,0.5-0.8c0.3-0.5,0.6-1.1,0.9-1.7c0.3-0.6,0.5-1.3,0.7-1.8
						c0.1-0.1,0.1-0.2,0.1-0.3c0-0.1,0.1-0.2,0.1-0.3c0-0.1,0.1-0.2,0.1-0.2s0.4,0.3,1.1,0.7c0.7,0.4,1.7,1,3,1.5
						c1.3,0.5,2.8,1.1,4.6,1.4C1084.2,550.5,1086.4,550.6,1088.6,550z"/>
				</g>
				<g id="XMLID_479_">
					<path id="XMLID_480_" class="st1" d="M1081.7,561.3c0,0-0.1,0.3-0.3,0.7c-0.1,0.2-0.3,0.5-0.4,0.9c-0.2,0.3-0.4,0.7-0.7,1.1
						c-0.6,0.8-1.3,1.7-2.4,2.6c-0.5,0.4-1.1,0.9-1.8,1.3c-0.7,0.4-1.4,0.8-2.2,1.1c0,0-0.3-0.1-0.9-0.5c-0.6-0.4-1.3-0.9-2.2-1.9
						c-0.9-0.9-1.8-2.2-2.8-3.9c-1-1.6-2-3.7-3-6.1c0,0,0.1-0.1,0.2-0.1c0.1-0.1,0.3-0.2,0.5-0.4c0.4-0.4,1-0.8,1.5-1.3
						c0.5-0.5,1-1,1.4-1.4c0.3-0.4,0.5-0.7,0.5-0.7s0.3,0.4,0.8,1c0.5,0.6,1.2,1.5,2.2,2.5c1,1,2.2,2,3.8,3c0.8,0.5,1.7,0.9,2.6,1.3
						C1079.4,560.9,1080.5,561.1,1081.7,561.3z"/>
				</g>
				<g id="XMLID_477_">
					<path id="XMLID_478_" class="st1" d="M1071.1,569.3c0,0-0.2,0.2-0.6,0.6c-0.2,0.2-0.4,0.4-0.7,0.6c-0.2,0.1-0.3,0.2-0.5,0.4
						c-0.2,0.1-0.4,0.2-0.6,0.4c-0.4,0.2-0.9,0.5-1.4,0.8c-0.5,0.2-1.1,0.6-1.8,0.7c-1.3,0.4-2.9,0.8-4.6,0.8c0,0-1.1-1-2-3.3
						c-0.5-1.2-0.9-2.7-1.2-4.6c-0.3-1.9-0.5-4.1-0.6-6.7c0,0,0.1,0,0.2-0.1c0.2,0,0.4-0.1,0.6-0.2c0.3-0.1,0.6-0.2,0.9-0.3
						c0.2-0.1,0.3-0.1,0.5-0.2c0.2-0.1,0.3-0.1,0.5-0.2c0.3-0.1,0.6-0.3,1-0.4c0.2-0.1,0.3-0.1,0.4-0.2c0.1-0.1,0.3-0.1,0.4-0.2
						c0.5-0.3,0.8-0.4,0.8-0.4s0.1,0.4,0.3,1.2c0.2,0.8,0.6,1.8,1.2,3.1c0.6,1.3,1.3,2.7,2.5,4.2
						C1067.6,566.7,1069,568.1,1071.1,569.3z"/>
				</g>
				<g id="XMLID_475_">
					<path id="XMLID_476_" class="st1" d="M1058.3,572.9c0,0-1,0.5-2.9,1c-0.5,0.1-1,0.2-1.6,0.2c-0.6,0-1.2,0.1-1.9,0
						c-0.7,0-1.4-0.1-2.2-0.3c-0.8-0.2-1.6-0.3-2.4-0.6c0,0-0.6-1.3-0.6-3.9c0-1.3,0.1-2.8,0.5-4.7c0.4-1.9,1-4,1.9-6.5
						c0,0,0.4,0,0.9,0.1c0.5,0.1,1.3,0,2,0c0.4,0,0.7,0,1,0c0.3,0,0.6-0.1,0.9-0.1c0.5-0.1,0.9-0.1,0.9-0.1s-0.1,0.4-0.1,1.2
						c-0.1,0.8-0.1,1.9,0,3.3c0.1,1.4,0.3,3.1,0.8,4.8C1056,569.2,1056.8,571.1,1058.3,572.9z"/>
				</g>
				<g id="XMLID_473_">
					<path id="XMLID_474_" class="st1" d="M1045.1,571.7c0,0-0.3,0-0.8,0.1c-0.5,0-1.3-0.1-2.2-0.2c-0.5-0.1-1-0.2-1.6-0.3
						c-0.6-0.2-1.2-0.4-1.8-0.7c-0.3-0.1-0.6-0.3-1-0.4c-0.2-0.1-0.3-0.2-0.5-0.3c-0.2-0.1-0.3-0.2-0.5-0.3c-0.7-0.4-1.3-0.9-2-1.4
						c0,0,0-0.4,0.1-1c0.1-0.7,0.3-1.6,0.8-2.8c0.5-1.2,1.2-2.6,2.2-4.2c1-1.6,2.4-3.4,4.1-5.4c0,0,0.3,0.2,0.8,0.4
						c0.5,0.2,1.2,0.5,1.8,0.8c0.3,0.2,0.7,0.2,1,0.3c0.3,0.1,0.6,0.2,0.9,0.3c0.3,0.1,0.5,0.1,0.6,0.2c0.2,0,0.2,0,0.2,0
						s-0.2,0.4-0.6,1.1c-0.3,0.7-0.8,1.8-1.2,3.1c-0.4,1.3-0.8,2.9-1,4.7c-0.1,0.9-0.1,1.9,0,2.9c0.1,0.5,0.1,1.1,0.2,1.6
						C1044.8,570.6,1045,571.2,1045.1,571.7z"/>
				</g>
				<g id="XMLID_471_">
					<path id="XMLID_472_" class="st1" d="M1033.3,565.8c0,0-0.3-0.1-0.8-0.2c-0.2-0.1-0.6-0.2-0.9-0.4c-0.3-0.2-0.7-0.4-1.1-0.6
						c-0.8-0.5-1.8-1.2-2.8-2.2c-0.5-0.5-1-1-1.5-1.6c-0.5-0.6-0.9-1.3-1.3-2.1c0,0,0.1-0.3,0.4-0.9c0.3-0.6,0.8-1.4,1.7-2.3
						c0.9-1,2-2,3.6-3.1c1.5-1.1,3.5-2.3,5.8-3.5c0,0,0.1,0.1,0.2,0.2c0.1,0.1,0.2,0.3,0.4,0.5c0.4,0.4,0.9,0.9,1.4,1.4
						c0.6,0.4,1.1,0.9,1.5,1.2c0.2,0.2,0.4,0.3,0.5,0.4c0.1,0.1,0.2,0.1,0.2,0.1s-0.3,0.3-0.9,0.8c-0.6,0.6-1.4,1.4-2.3,2.4
						c-0.9,1.1-1.8,2.4-2.6,4.1c-0.4,0.8-0.8,1.7-1,2.8C1033.5,563.6,1033.3,564.6,1033.3,565.8z"/>
				</g>
				<g id="XMLID_469_">
					<path id="XMLID_470_" class="st1" d="M1024.3,556c0,0-0.2-0.2-0.6-0.5c-0.4-0.4-1-0.9-1.5-1.7c-0.3-0.4-0.6-0.8-0.9-1.3
						c-0.3-0.5-0.6-1.1-0.9-1.7c-0.5-1.3-1.1-2.8-1.3-4.5c0,0,0.9-1.1,3.1-2.3c1.1-0.6,2.6-1.1,4.5-1.6c1.9-0.5,4.1-0.9,6.7-1.2
						c0,0,0,0.1,0.1,0.2c0.1,0.1,0.2,0.4,0.3,0.6c0.1,0.2,0.2,0.5,0.4,0.8c0.1,0.3,0.3,0.6,0.5,0.9c0.4,0.6,0.7,1.2,1,1.7
						c0.3,0.4,0.5,0.7,0.5,0.7s-0.4,0.1-1.2,0.5c-0.7,0.3-1.8,0.8-3,1.5c-1.2,0.7-2.6,1.6-3.9,2.9
						C1026.6,552.3,1025.3,553.8,1024.3,556z"/>
				</g>
				<g id="XMLID_467_">
					<path id="XMLID_468_" class="st1" d="M1019.5,543.6c0,0-0.6-0.9-1.2-2.8c-0.2-0.9-0.5-2.1-0.6-3.5c-0.1-0.7,0-1.4,0.1-2.2
						c0-0.4,0.1-0.8,0.1-1.2c0.1-0.4,0.1-0.8,0.2-1.2c0,0,1.3-0.7,3.8-1c1.3-0.1,2.8-0.1,4.7,0.1c1.9,0.2,4.1,0.7,6.7,1.3
						c0,0,0,0.4,0,0.9c0,0.3,0,0.6,0,0.9c0,0.3,0.1,0.7,0.1,1.1c0,0.4,0.1,0.7,0.1,1c0.1,0.3,0.1,0.6,0.2,0.9
						c0.1,0.5,0.2,0.9,0.2,0.9s-0.5,0-1.2,0c-0.8,0-1.9,0.1-3.3,0.3c-1.4,0.2-3,0.6-4.7,1.2C1023,540.9,1021.3,542,1019.5,543.6z"/>
				</g>
				<g id="XMLID_465_">
					<path id="XMLID_466_" class="st1" d="M1019.5,530.4c0,0-0.1-0.3-0.1-0.8c0-0.5-0.1-1.3,0-2.2c0-0.5,0.1-1,0.2-1.6
						c0.1-0.6,0.3-1.2,0.5-1.9c0.4-1.3,1.1-2.7,2.1-4.2c0,0,0.3-0.1,1,0c0.7,0,1.7,0.1,2.9,0.5c1.2,0.3,2.7,0.9,4.4,1.8
						c1.7,0.9,3.6,2.1,5.7,3.6c0,0-0.1,0.3-0.3,0.8c-0.2,0.5-0.4,1.2-0.6,1.9c-0.1,0.3-0.2,0.7-0.2,1c-0.1,0.3-0.1,0.6-0.2,0.9
						c0,0.3-0.1,0.5-0.1,0.6c0,0.2,0,0.2,0,0.2s-0.4-0.2-1.2-0.5c-0.8-0.3-1.8-0.6-3.2-0.9c-1.4-0.3-3-0.6-4.8-0.5
						c-0.9,0-1.9,0.1-2.9,0.3C1021.7,529.6,1020.6,529.9,1019.5,530.4z"/>
				</g>
				<g id="XMLID_463_">
					<path id="XMLID_464_" class="st1" d="M1024.3,518c0,0,0-0.3,0.2-0.8c0.1-0.5,0.4-1.2,0.8-2.1c0.2-0.4,0.5-0.9,0.8-1.4
						c0.3-0.5,0.7-1,1.1-1.5c0.4-0.5,0.9-1.1,1.5-1.6c0.6-0.5,1.2-1,2-1.5c0,0,0.3,0.1,1,0.3c0.6,0.2,1.5,0.7,2.5,1.5
						c1,0.8,2.2,1.8,3.5,3.3c1.3,1.4,2.6,3.2,4,5.4c0,0-0.1,0.1-0.2,0.2c-0.1,0.1-0.3,0.3-0.5,0.5c-0.3,0.4-0.8,1-1.2,1.5
						c-0.4,0.6-0.8,1.2-1.1,1.6c-0.2,0.2-0.2,0.4-0.3,0.6c-0.1,0.1-0.1,0.2-0.1,0.2s-0.3-0.3-0.9-0.8c-0.6-0.5-1.5-1.2-2.6-2
						c-1.2-0.8-2.6-1.6-4.3-2.2c-0.9-0.3-1.8-0.6-2.8-0.8C1026.6,518,1025.5,518,1024.3,518z"/>
				</g>
				<g id="XMLID_461_">
					<path id="XMLID_462_" class="st1" d="M1033.3,508.2c0,0,0.1-0.2,0.4-0.7c0.3-0.4,0.8-1,1.5-1.7c0.4-0.3,0.8-0.7,1.2-1
						c0.2-0.2,0.5-0.4,0.7-0.5c0.3-0.2,0.6-0.3,0.9-0.5c0.6-0.3,1.3-0.7,2-1c0.4-0.2,0.7-0.3,1.1-0.4c0.4-0.1,0.8-0.2,1.2-0.3
						c0,0,1.2,0.8,2.6,2.9c0.7,1.1,1.4,2.5,2,4.3c0.7,1.8,1.2,4,1.8,6.5c0,0-0.1,0-0.2,0.1c-0.1,0-0.3,0.2-0.6,0.3
						c-0.2,0.1-0.5,0.3-0.8,0.5c-0.3,0.2-0.6,0.3-0.9,0.5c-0.6,0.4-1.2,0.8-1.6,1.1c-0.4,0.3-0.7,0.6-0.7,0.6s-0.2-0.4-0.6-1.1
						c-0.4-0.7-0.9-1.7-1.7-2.8c-0.8-1.1-1.8-2.4-3.2-3.6c-0.7-0.6-1.5-1.2-2.4-1.7C1035.4,509.1,1034.4,508.6,1033.3,508.2z"/>
				</g>
				<g id="XMLID_459_">
					<path id="XMLID_460_" class="st1" d="M1045.1,502.3c0,0,0.2-0.2,0.7-0.5c0.4-0.3,1.1-0.7,2-1c0.9-0.3,2.1-0.7,3.4-0.9
						c0.7-0.1,1.4-0.1,2.2-0.1c0.8,0,1.6,0,2.5,0.2c0,0,0.9,1.2,1.3,3.7c0.2,1.2,0.4,2.8,0.4,4.7c0,1.9-0.3,4.1-0.7,6.7
						c0,0-0.4,0-0.9,0.1c-0.3,0-0.6,0.1-0.9,0.1c-0.3,0.1-0.7,0.1-1,0.2c-0.3,0.1-0.7,0.1-1,0.2c-0.3,0-0.6,0.2-0.9,0.3
						c-0.5,0.2-0.8,0.3-0.8,0.3s0-0.5-0.1-1.2c-0.1-0.8-0.3-1.9-0.6-3.3c-0.3-1.4-0.8-2.9-1.7-4.6
						C1048.1,505.5,1047,503.9,1045.1,502.3z"/>
				</g>
				<g id="XMLID_457_">
					<path id="XMLID_458_" class="st1" d="M1058.3,501.1c0,0,0.1,0,0.2-0.1c0.1,0,0.3-0.1,0.6-0.1c0.5-0.1,1.3-0.2,2.2-0.2
						c1-0.1,2.2,0.1,3.5,0.4c0.3,0.1,0.7,0.2,1,0.3c0.4,0.1,0.7,0.2,1.1,0.4c0.7,0.3,1.5,0.6,2.3,1c0,0,0.1,0.3,0.1,1
						c0,0.7,0,1.7-0.2,2.9c-0.2,1.3-0.7,2.8-1.4,4.5c-0.7,1.8-1.8,3.8-3.1,6c0,0-0.3-0.1-0.9-0.3c-0.3-0.1-0.6-0.1-0.9-0.2
						c-0.3-0.1-0.7-0.1-1-0.2c-0.2,0-0.3-0.1-0.5-0.1c-0.2,0-0.3,0-0.5,0c-0.3,0-0.6-0.1-0.9-0.1c-0.3,0-0.5,0-0.6-0.1
						c-0.2,0-0.2,0-0.2,0c0,0,0.1-0.4,0.3-1.2c0.2-0.8,0.5-1.9,0.6-3.3c0.2-1.4,0.3-3,0.1-4.8C1060,505.2,1059.5,503.2,1058.3,501.1
						z"/>
				</g>
				<g id="XMLID_455_">
					<path id="XMLID_456_" class="st1" d="M1071.1,504.7c0,0,0.3,0,0.8,0.1c0.5,0.1,1.2,0.3,2.2,0.6c0.5,0.2,1,0.4,1.5,0.6
						c0.5,0.3,1.1,0.6,1.6,1c0.6,0.4,1.2,0.8,1.7,1.3c0.6,0.5,1.1,1.1,1.7,1.8c0,0-0.1,1.4-1.5,3.6c-0.7,1.1-1.6,2.4-2.9,3.7
						c-1.3,1.4-3,2.9-5,4.5c0,0-0.3-0.2-0.7-0.6c-0.5-0.3-1.1-0.7-1.7-1.1c-0.6-0.3-1.3-0.7-1.7-0.9c-0.2-0.1-0.4-0.2-0.6-0.3
						c-0.1-0.1-0.2-0.1-0.2-0.1s0.3-0.4,0.8-1c0.5-0.6,1.1-1.6,1.8-2.8c0.7-1.2,1.4-2.7,1.8-4.5
						C1071.1,509.1,1071.4,507,1071.1,504.7z"/>
				</g>
				<g id="XMLID_453_">
					<path id="XMLID_454_" class="st1" d="M1081.7,512.7c0,0,0.3,0.1,0.7,0.4c0.2,0.1,0.5,0.3,0.8,0.5c0.3,0.2,0.6,0.5,1,0.8
						c0.4,0.3,0.7,0.7,1.1,1.1c0.2,0.2,0.4,0.4,0.6,0.7c0.2,0.3,0.4,0.5,0.6,0.8c0.4,0.6,0.8,1.2,1.1,1.9c0.4,0.7,0.6,1.5,0.9,2.3
						c0,0-0.2,0.3-0.6,0.8c-0.4,0.5-1.1,1.2-2.1,2c-1,0.8-2.4,1.6-4.1,2.4c-1.7,0.8-3.8,1.6-6.3,2.4c0,0,0-0.1-0.1-0.2
						c0-0.1-0.1-0.2-0.1-0.2c-0.1-0.1-0.1-0.2-0.2-0.3c-0.3-0.4-0.7-1-1.1-1.6c-0.5-0.5-0.9-1.1-1.3-1.5c-0.4-0.4-0.6-0.6-0.6-0.6
						s0.4-0.2,1.1-0.7c0.7-0.4,1.6-1.1,2.7-2c1.1-0.9,2.2-2,3.3-3.5c0.5-0.7,1.1-1.6,1.5-2.5C1081,514.9,1081.4,513.9,1081.7,512.7z
						"/>
				</g>
				<g id="XMLID_451_">
					<path id="XMLID_452_" class="st1" d="M1088.6,524c0,0,0.2,0.2,0.5,0.6c0.2,0.2,0.3,0.5,0.6,0.8c0.2,0.3,0.5,0.7,0.7,1.1
						c0.4,0.9,0.9,2,1.2,3.3c0.1,0.7,0.3,1.4,0.3,2.2c0,0.4,0.1,0.8,0.1,1.2c0,0.4,0,0.8-0.1,1.3c0,0-1.1,1-3.5,1.7
						c-1.2,0.4-2.8,0.6-4.7,0.8c-1.9,0.1-4.1,0.1-6.8,0c0,0-0.1-0.4-0.2-0.9c-0.1-0.5-0.2-1.2-0.5-1.9c-0.2-0.7-0.4-1.4-0.6-1.8
						c-0.2-0.5-0.4-0.8-0.4-0.8s0.4-0.1,1.2-0.2c0.8-0.2,1.9-0.4,3.2-0.9c1.3-0.5,2.8-1.1,4.4-2.1
						C1085.8,527.3,1087.3,525.9,1088.6,524z"/>
				</g>
			</g>
		</g>
		<circle id="XMLID_447_" class="st6" cx="1054.4" cy="537.5" r="23.4"/>
		<circle id="XMLID_445_" class="st17" cx="1054.3" cy="537.7" r="19.2"/>
		<circle id="XMLID_444_" class="st13" cx="1054.4" cy="537.6" r="2.8"/>
	</g>
</g>
</svg>
