<?xml version="1.0" encoding="utf-8"?>
<!-- Generator: Adobe Illustrator 19.0.0, SVG Export Plug-In . SVG Version: 6.00 Build 0)  -->
<svg version="1.1" id="Layer_1" xmlns="http://www.w3.org/2000/svg" xmlns:xlink="http://www.w3.org/1999/xlink" x="0px" y="0px"
	 viewBox="0 0 1920 1080" style="enable-background:new 0 0 1920 1080;" xml:space="preserve">
<style type="text/css">
	.st0{fill:#AA3131;}
	.st1{fill:#E6E6E6;}
	.st2{fill:#382A47;}
	.st3{fill:#FFFFFF;}
	.st4{fill:#E74C47;}
</style>
<g id="XMLID_87_">
	<g id="XMLID_114_">
		<g id="XMLID_113_">
			<path id="XMLID_55_" class="st0" d="M1057.1,680.2c0,8.1-1,16-2.9,23.5c-6.7-27.1-24.8-49.7-48.8-62.6
				c5.5-11.5,10.6-24,14.6-37.4C1042.6,621.6,1057.1,649.2,1057.1,680.2z"/>
			<path id="XMLID_54_" class="st1" d="M1020,603.8c-4.1,13.4-9.1,25.9-14.6,37.4c-9.3-5-19.5-8.5-30.3-10.2
				c-2.5-23.7-12.1-42.6-15.2-48.2C982.6,582.8,1003.5,590.7,1020,603.8z"/>
			<path id="XMLID_53_" class="st2" d="M1009.5,455.5l-6.8-1.2c-13.5-2.3-28-3.5-43.2-3.5c-15.5,0-30.3,1.2-44,3.7l-6.8,1.2
				c1.6-3.8,3.4-7.5,5.1-11.1c13.8-2.4,29.3-3.8,45.7-3.8c16.1,0,31.3,1.3,44.9,3.7C1006.1,448,1007.8,451.7,1009.5,455.5z"/>
			<path id="XMLID_52_" class="st3" d="M1003.4,442.5c-0.6-1.3-1.3-2.5-1.9-3.8C1002.2,440,1002.8,441.3,1003.4,442.5z"/>
			<path id="XMLID_51_" class="st3" d="M1000.3,436.5c-0.6-1.1-1.1-2.1-1.7-3.2C999.2,434.3,999.8,435.4,1000.3,436.5z"/>
			<path id="XMLID_50_" class="st3" d="M997.6,431.5c-0.3-0.6-0.7-1.2-1-1.8C997,430.3,997.3,430.9,997.6,431.5z"/>
			<path id="XMLID_49_" class="st3" d="M994.7,426.2c-0.3-0.6-0.6-1.1-1-1.7C994,425.1,994.3,425.6,994.7,426.2z"/>
			<path id="XMLID_48_" class="st1" d="M1005.4,641.2c-5.5,11.6-11.5,22.1-17.3,31.2c-1.8-0.4-3.7-0.8-5.6-1.2v-9.4h-8.6
				c1.1-6.1,1.8-12.7,1.8-19.5c0-3.9-0.2-7.7-0.6-11.4C985.9,632.7,996.1,636.2,1005.4,641.2z"/>
			<path id="XMLID_47_" class="st3" d="M986.8,413.3c-0.3-0.5-0.6-1-1-1.5C986.2,412.3,986.5,412.8,986.8,413.3z"/>
			<path id="XMLID_46_" class="st3" d="M983.8,408.6c-0.6-0.9-1.1-1.7-1.7-2.5C982.7,407,983.2,407.8,983.8,408.6z"/>
			<path id="XMLID_45_" class="st2" d="M982.5,671.2v7.9h-12.9c0.9-2.9,1.8-6.1,2.6-9.4C975.8,670.1,979.2,670.5,982.5,671.2z"/>
			<path id="XMLID_44_" class="st1" d="M982.5,661.8v9.4c-3.3-0.6-6.7-1.1-10.2-1.5c0.6-2.5,1.2-5.2,1.7-7.9H982.5z"/>
			<path id="XMLID_43_" class="st3" d="M979,401.5c0.4,0.5,0.7,1,1.1,1.5C979.7,402.6,979.3,402,979,401.5z"/>
			<path id="XMLID_42_" class="st3" d="M977.6,399.6c0.5,0.6,0.9,1.3,1.4,1.9C978.5,400.9,978,400.3,977.6,399.6z"/>
			<path id="XMLID_39_" class="st4" d="M960.2,472.3c12.3,0,22.3,10,22.3,22.3c0,12.3-10,22.3-22.3,22.3c-12.3,0-22.3-10-22.3-22.3
				C938,482.2,947.9,472.3,960.2,472.3z M976.9,494.9c0-9.4-7.6-17-17-17c-9.4,0-17,7.6-17,17c0,9.4,7.6,17,17,17
				C969.3,511.8,976.9,504.2,976.9,494.9z"/>
			<path id="XMLID_38_" class="st3" d="M975.6,396.8c-0.8-1-1.5-2-2.2-3C974.1,394.8,974.8,395.8,975.6,396.8z"/>
			<path id="XMLID_37_" class="st0" d="M959.2,661.8h14.8c-0.5,2.7-1,5.4-1.7,7.9c-4.1-0.4-8.4-0.6-12.7-0.6c-0.1,0-0.2,0-0.4,0
				V661.8z"/>
			<path id="XMLID_36_" class="st2" d="M959.9,477.9c9.4,0,17,7.6,17,17c0,9.4-7.6,17-17,17c-9.4,0-17-7.6-17-17
				C943,485.5,950.5,477.9,959.9,477.9z"/>
			<path id="XMLID_35_" class="st3" d="M971.2,391c0.5,0.6,0.9,1.2,1.4,1.8C972.1,392.1,971.6,391.5,971.2,391z"/>
			<path id="XMLID_34_" class="st3" d="M969.6,388.9c0.4,0.6,0.9,1.1,1.4,1.8C970.5,390,970,389.4,969.6,388.9z"/>
			<path id="XMLID_33_" class="st0" d="M972.3,669.7c-0.8,3.3-1.7,6.4-2.6,9.4h-10.5v-10c0.1,0,0.2,0,0.4,0
				C963.9,669.1,968.1,669.3,972.3,669.7z"/>
			<path id="XMLID_32_" class="st0" d="M959.2,679.1h10.5c-4.2,13-9.2,22.1-10.5,24.2V679.1z"/>
			<path id="XMLID_31_" class="st0" d="M959.9,582.7c3.1,5.6,12.7,24.5,15.2,48.2c-5-0.8-10.2-1.2-15.5-1.2c-0.1,0-0.2,0-0.4,0v-47
				c0.1,0,0.2,0,0.4,0S959.8,582.7,959.9,582.7z"/>
			<path id="XMLID_30_" class="st3" d="M966.1,384.6c-0.4-0.5-0.8-1-1.2-1.4C965.3,383.6,965.7,384.1,966.1,384.6z"/>
			<path id="XMLID_29_" class="st0" d="M959.2,661.8v-32.1c0.1,0,0.2,0,0.4,0c5.3,0,10.5,0.4,15.5,1.2c0.4,3.7,0.6,7.5,0.6,11.4
				c0,6.8-0.7,13.3-1.8,19.5H959.2z"/>
			<path id="XMLID_28_" class="st3" d="M960.8,378.3c-0.1-0.1-0.2-0.3-0.3-0.4C960.6,378,960.7,378.1,960.8,378.3z"/>
			<path id="XMLID_27_" class="st3" d="M959.9,582.7c-0.1,0-0.2,0-0.4,0s-0.2,0-0.4,0v-1.3C959.4,581.8,959.6,582.2,959.9,582.7z"/>
			<path id="XMLID_26_" class="st4" d="M959.2,679.1v24.2c-0.2,0.3-0.3,0.5-0.3,0.5s-5.9-9.7-10.7-24.6H959.2z"/>
			<path id="XMLID_25_" class="st4" d="M959.2,669.1v10h-11c-0.9-2.9-1.8-6-2.6-9.2C950,669.4,954.5,669.1,959.2,669.1z"/>
			<path id="XMLID_24_" class="st4" d="M959.2,661.8v7.3c-4.7,0-9.2,0.3-13.6,0.8c-0.6-2.6-1.2-5.3-1.7-8H959.2z"/>
			<path id="XMLID_23_" class="st4" d="M959.2,629.7v32.1h-15.3c-1.1-6.1-1.8-12.7-1.8-19.5c0-3.8,0.2-7.6,0.6-11.2
				C948.1,630.2,953.6,629.7,959.2,629.7z"/>
			<path id="XMLID_22_" class="st4" d="M959.2,582.7v47c-5.6,0-11.1,0.5-16.5,1.5c2.5-23.8,12.1-42.8,15.2-48.4
				C958.3,582.7,958.8,582.7,959.2,582.7z"/>
			<path id="XMLID_21_" class="st3" d="M959.2,581.5v1.3c-0.4,0-0.8,0-1.3,0c0.6-1.1,1-1.7,1-1.7S959,581.2,959.2,581.5L959.2,581.5
				z"/>
			<path id="XMLID_20_" class="st3" d="M959.2,376.5C959.2,376.5,959.2,376.5,959.2,376.5C959.2,376.5,959.2,376.5,959.2,376.5z"/>
			<path id="XMLID_19_" class="st0" d="M959.5,440.8l-0.4-64.5c0,0,0,0,0.1,0.1c0,0,0,0,0.1,0.1c0.2,0.2,0.6,0.7,1.2,1.4
				c0.1,0.1,0.2,0.2,0.3,0.4c1,1.1,2.4,2.8,4.1,4.9c0.4,0.5,0.8,0.9,1.2,1.4c1,1.3,2.2,2.7,3.4,4.3c0.4,0.6,0.9,1.1,1.4,1.8
				c0.1,0.1,0.2,0.2,0.3,0.3c0.4,0.6,0.9,1.2,1.4,1.8c0.3,0.3,0.5,0.7,0.8,1.1c0.7,1,1.5,2,2.2,3c0.6,0.9,1.3,1.8,2,2.8
				c0.5,0.6,0.9,1.3,1.4,1.9c0.3,0.5,0.7,1,1.1,1.5c0.7,1,1.4,2,2.1,3.1c0.6,0.8,1.1,1.7,1.7,2.5c0.7,1,1.4,2.1,2.1,3.2
				c0.3,0.5,0.6,1,1,1.5c2.3,3.5,4.5,7.3,6.8,11.2c0.3,0.6,0.7,1.1,1,1.7c0.7,1.1,1.3,2.3,2,3.5c0.3,0.6,0.6,1.2,1,1.8
				c0.3,0.6,0.7,1.2,1,1.8c0.6,1,1.1,2.1,1.7,3.2c0.4,0.8,0.8,1.5,1.2,2.3c0.6,1.2,1.3,2.5,1.9,3.8c0.3,0.6,0.6,1.3,1,1.9
				C990.8,442.1,975.6,440.8,959.5,440.8z"/>
			<path id="XMLID_18_" class="st4" d="M959.1,376.4l0.4,64.5c-16.4,0-31.9,1.4-45.7,3.8c1.6-3.2,3.2-6.4,4.8-9.4
				c0.3-0.6,0.6-1.2,0.9-1.7c3.6-6.7,7.3-12.9,10.8-18.5c0.3-0.5,0.6-1,1-1.5c0.6-1,1.3-2,1.9-3c0.3-0.5,0.6-1,1-1.4
				c0.6-1,1.3-1.9,1.9-2.8c0.5-0.8,1.1-1.6,1.6-2.4c0.7-1,1.4-2,2.1-3c0.9-1.2,1.7-2.4,2.6-3.6c2.9-4.1,5.6-7.6,8-10.5
				c0.2-0.3,0.4-0.5,0.6-0.7c1.2-1.5,2.3-2.8,3.3-4c0.4-0.5,0.8-0.9,1.1-1.3c1-1.2,1.9-2.2,2.5-2.9c0.1-0.1,0.2-0.2,0.3-0.3
				c0.4-0.5,0.7-0.8,0.8-0.9C959,376.5,959,376.5,959.1,376.4C959.1,376.4,959.1,376.4,959.1,376.4z"/>
			<path id="XMLID_17_" class="st3" d="M958.9,376.5C959,376.5,959,376.5,958.9,376.5C959,376.5,959,376.5,958.9,376.5z"/>
			<path id="XMLID_16_" class="st3" d="M958.1,377.5c-0.1,0.1-0.2,0.2-0.3,0.3C957.9,377.7,958,377.6,958.1,377.5z"/>
			<path id="XMLID_15_" class="st3" d="M955.2,380.8c-0.3,0.4-0.7,0.8-1.1,1.3C954.5,381.6,954.9,381.2,955.2,380.8z"/>
			<path id="XMLID_14_" class="st3" d="M950.9,386c-0.2,0.2-0.4,0.5-0.6,0.7C950.5,386.5,950.7,386.3,950.9,386z"/>
			<path id="XMLID_13_" class="st3" d="M939.8,400.8c0.9-1.2,1.7-2.4,2.6-3.6C941.5,398.4,940.6,399.6,939.8,400.8z"/>
			<path id="XMLID_12_" class="st2" d="M948.2,679.1h-12.5v-7.7c3.2-0.6,6.5-1.1,9.9-1.5C946.4,673.1,947.3,676.2,948.2,679.1z"/>
			<path id="XMLID_11_" class="st1" d="M935.7,661.8h8.2c0.5,2.8,1.1,5.5,1.7,8c-3.4,0.4-6.7,0.9-9.9,1.5V661.8z"/>
			<path id="XMLID_10_" class="st1" d="M913,641.5c9.1-5,19.2-8.5,29.8-10.4c-0.4,3.6-0.6,7.4-0.6,11.2c0,6.8,0.7,13.3,1.8,19.5
				h-8.2v9.5c-1.9,0.4-3.7,0.8-5.5,1.2C924.5,663.5,918.5,653.1,913,641.5z"/>
			<path id="XMLID_9_" class="st3" d="M937.7,403.8c-0.5,0.8-1.1,1.6-1.6,2.4C936.6,405.4,937.1,404.6,937.7,403.8z"/>
			<path id="XMLID_8_" class="st3" d="M934.2,409c-0.3,0.5-0.6,1-1,1.4C933.5,410,933.8,409.5,934.2,409z"/>
			<path id="XMLID_7_" class="st3" d="M931.3,413.4c-0.3,0.5-0.6,1-1,1.5C930.7,414.4,931,413.9,931.3,413.4z"/>
			<path id="XMLID_6_" class="st3" d="M919.5,433.5c-0.3,0.6-0.6,1.2-0.9,1.7C918.9,434.6,919.2,434,919.5,433.5z"/>
			<path id="XMLID_5_" class="st1" d="M898.3,604.3c16.3-13.2,37-21.2,59.6-21.6c-3.1,5.7-12.7,24.6-15.2,48.4
				c-10.6,1.8-20.6,5.4-29.8,10.4C907.5,630.1,902.4,617.7,898.3,604.3z"/>
			<path id="XMLID_2_" class="st1" d="M957.9,582.7c-22.5,0.4-43.2,8.4-59.6,21.6c-5.8-18.8-9.5-39.2-9.5-60.5
				c0-28.9,6.9-56.2,16.3-79.9c1.1-2.8,2.3-5.5,3.4-8.3l6.8-1.2c13.7-2.4,28.5-3.7,44-3.7c15.2,0,29.7,1.2,43.2,3.5l6.8,1.2
				c1.1,2.6,2.3,5.3,3.3,8c9.5,23.9,16.5,51.2,16.5,80.4c0,21.1-3.7,41.3-9.3,59.9c-16.5-13.1-37.4-21-60.1-21
				c-0.3-0.5-0.5-1-0.7-1.3v0c-0.2-0.3-0.3-0.5-0.3-0.5S958.5,581.6,957.9,582.7z M982.5,494.5c0-12.3-10-22.3-22.3-22.3
				c-12.3,0-22.3,10-22.3,22.3c0,12.3,10,22.3,22.3,22.3C972.5,516.8,982.5,506.8,982.5,494.5z"/>
			<path id="XMLID_1_" class="st4" d="M913,641.5c-23.7,12.9-41.4,35.4-48.1,62.2c-1.9-7.5-2.9-15.4-2.9-23.5
				c0-30.7,14.2-58,36.3-75.9C902.4,617.7,907.5,630.1,913,641.5z"/>
		</g>
		<g id="XMLID_127_">
		</g>
	</g>
</g>
</svg>
