<?xml version="1.0" encoding="utf-8"?>
<!-- Generator: Adobe Illustrator 19.0.0, SVG Export Plug-In . SVG Version: 6.00 Build 0)  -->
<svg version="1.1" id="Layer_1" xmlns="http://www.w3.org/2000/svg" xmlns:xlink="http://www.w3.org/1999/xlink" x="0px" y="0px"
	 viewBox="0 0 1920 1080" style="enable-background:new 0 0 1920 1080;" xml:space="preserve">
<style type="text/css">
	.st0{fill:#FFD82A;}
	.st1{fill:#00D499;}
	.st2{fill:#D8D8DB;}
	.st3{fill:#00AA84;}
	.st4{fill:#A1A199;}
	.st5{fill:#D0D0CC;}
	.st6{fill:#333333;}
	.st7{fill:#D49500;}
	.st8{fill:#4D4D4D;}
	.st9{fill:#F2F2F2;}
	.st10{fill:#CCCCCC;}
	.st11{fill:#E6E6E6;}
	.st12{fill:#006837;}
	.st13{fill:#FFFFFF;}
	.st14{clip-path:url(#SVGID_2_);}
	.st15{fill:none;}
	.st16{clip-path:url(#SVGID_4_);}
	.st17{fill:#FF653E;}
</style>
<g id="XMLID_344_">
	<rect id="XMLID_3_" x="1064" y="600.3" class="st0" width="22.8" height="7.5"/>
	<polygon id="XMLID_7_" class="st1" points="1087,592.7 1087,469.4 855,469.4 855,593.4 905,593.4 905,600.4 1037,600.4 1037,593.4 
		1064,593.4 1064,600.4 1087,600.4 	"/>
	<rect id="XMLID_4_" x="905.1" y="600.3" class="st0" width="131.9" height="7.5"/>
	<polygon id="XMLID_9_" class="st2" points="846.7,453.4 831,453.4 831,462.4 847,462.4 847,624.4 855,624.4 855,462 855,453.4 	"/>
	<rect id="XMLID_2_" x="855.4" y="469.1" class="st3" width="6.6" height="123.8"/>
	<rect id="XMLID_5_" x="843.6" y="487.1" class="st4" width="3.2" height="39.2"/>
	<rect id="XMLID_6_" x="843.6" y="548.1" class="st4" width="3.2" height="23.4"/>
	<rect id="XMLID_8_" x="840.5" y="487.1" class="st5" width="3.2" height="39.2"/>
	<rect id="XMLID_10_" x="840.5" y="548.1" class="st5" width="3.2" height="23.4"/>
	<rect id="XMLID_11_" x="838" y="540.9" class="st6" width="8.8" height="3.5"/>
	<rect id="XMLID_12_" x="838" y="574.4" class="st6" width="8.8" height="3.5"/>
	<rect id="XMLID_13_" x="908.8" y="600.3" class="st7" width="2.4" height="4.7"/>
	<rect id="XMLID_14_" x="914.6" y="600.3" class="st7" width="2.4" height="4.7"/>
	<rect id="XMLID_15_" x="920.4" y="600.3" class="st7" width="2.4" height="4.7"/>
	<rect id="XMLID_17_" x="926.2" y="600.3" class="st7" width="2.4" height="4.7"/>
	<rect id="XMLID_16_" x="931.9" y="600.3" class="st7" width="2.4" height="4.7"/>
	<rect id="XMLID_18_" x="937.7" y="600.3" class="st7" width="2.4" height="4.7"/>
	<rect id="XMLID_20_" x="943.5" y="600.3" class="st7" width="2.4" height="4.7"/>
	<rect id="XMLID_19_" x="949.3" y="600.3" class="st7" width="2.4" height="4.7"/>
	<rect id="XMLID_21_" x="955.1" y="600.3" class="st7" width="2.4" height="4.7"/>
	<rect id="XMLID_23_" x="960.8" y="600.3" class="st7" width="2.4" height="4.7"/>
	<rect id="XMLID_22_" x="966.6" y="600.3" class="st7" width="2.4" height="4.7"/>
	<rect id="XMLID_24_" x="972.4" y="600.3" class="st7" width="2.4" height="4.7"/>
	<rect id="XMLID_26_" x="978.2" y="600.3" class="st7" width="2.4" height="4.7"/>
	<rect id="XMLID_25_" x="983.9" y="600.3" class="st7" width="2.4" height="4.7"/>
	<rect id="XMLID_27_" x="989.7" y="600.3" class="st7" width="2.4" height="4.7"/>
	<rect id="XMLID_29_" x="995.5" y="600.3" class="st7" width="2.4" height="4.7"/>
	<rect id="XMLID_28_" x="1001.3" y="600.3" class="st7" width="2.4" height="4.7"/>
	<rect id="XMLID_30_" x="1007.1" y="600.3" class="st7" width="2.4" height="4.7"/>
	<rect id="XMLID_32_" x="1012.8" y="600.3" class="st7" width="2.4" height="4.7"/>
	<rect id="XMLID_31_" x="1018.6" y="600.3" class="st7" width="2.4" height="4.7"/>
	<rect id="XMLID_33_" x="1024.4" y="600.3" class="st7" width="2.4" height="4.7"/>
	<rect id="XMLID_35_" x="1030.2" y="600.3" class="st7" width="2.4" height="4.7"/>
	<rect id="XMLID_37_" x="1065.6" y="600.6" class="st7" width="2.4" height="4.7"/>
	<rect id="XMLID_36_" x="1071.3" y="600.6" class="st7" width="2.4" height="4.7"/>
	<rect id="XMLID_34_" x="1077.1" y="600.6" class="st7" width="2.4" height="4.7"/>
	<rect id="XMLID_38_" x="1082.9" y="600.6" class="st7" width="2.4" height="4.7"/>
	<g id="XMLID_54_">
		<rect id="XMLID_40_" x="874.6" y="494.9" class="st6" width="17.5" height="26.1"/>
		<rect id="XMLID_41_" x="878.5" y="499" class="st8" width="10.2" height="18"/>
		<rect id="XMLID_42_" x="892.2" y="499" class="st9" width="5.1" height="3"/>
		<rect id="XMLID_43_" x="892.2" y="506.1" class="st9" width="5.1" height="3"/>
		<rect id="XMLID_44_" x="892.2" y="513.3" class="st9" width="5.1" height="3"/>
		<rect id="XMLID_45_" x="869.6" y="499" class="st9" width="5.1" height="3"/>
		<rect id="XMLID_46_" x="869.6" y="506.1" class="st9" width="5.1" height="3"/>
		<rect id="XMLID_47_" x="869.6" y="513.3" class="st9" width="5.1" height="3"/>
	</g>
	<g id="XMLID_39_">
		<rect id="XMLID_53_" x="874.8" y="531.7" class="st6" width="17.5" height="26.1"/>
		<rect id="XMLID_52_" x="878.6" y="535.8" class="st8" width="10.2" height="18"/>
		<rect id="XMLID_51_" x="892.3" y="535.8" class="st9" width="5.1" height="3"/>
		<rect id="XMLID_50_" x="892.3" y="542.9" class="st9" width="5.1" height="3"/>
		<rect id="XMLID_49_" x="892.3" y="550.1" class="st9" width="5.1" height="3"/>
		<rect id="XMLID_48_" x="869.7" y="535.8" class="st9" width="5.1" height="3"/>
		<rect id="XMLID_55_" x="869.7" y="542.9" class="st9" width="5.1" height="3"/>
		<rect id="XMLID_56_" x="869.7" y="550.1" class="st9" width="5.1" height="3"/>
	</g>
	<g id="XMLID_57_">
		<rect id="XMLID_58_" x="907.6" y="479" class="st0" width="18.5" height="54.8"/>
		<circle id="XMLID_59_" class="st7" cx="921.2" cy="486.5" r="2.9"/>
		<circle id="XMLID_60_" class="st7" cx="921.2" cy="494.6" r="2.9"/>
		<circle id="XMLID_61_" class="st7" cx="921.2" cy="502.7" r="2.9"/>
		<circle id="XMLID_63_" class="st7" cx="921.2" cy="510.8" r="2.9"/>
		<circle id="XMLID_65_" class="st7" cx="921.2" cy="518.9" r="2.9"/>
		<circle id="XMLID_67_" class="st7" cx="921.2" cy="527.1" r="2.9"/>
		<circle id="XMLID_68_" class="st7" cx="912.6" cy="486.5" r="2.9"/>
		<circle id="XMLID_66_" class="st7" cx="912.6" cy="494.6" r="2.9"/>
		<circle id="XMLID_64_" class="st7" cx="912.6" cy="502.7" r="2.9"/>
		<circle id="XMLID_62_" class="st7" cx="912.6" cy="510.8" r="2.9"/>
		<circle id="XMLID_69_" class="st7" cx="912.6" cy="518.9" r="2.9"/>
		<circle id="XMLID_70_" class="st7" cx="912.6" cy="527.1" r="2.9"/>
	</g>
	<g id="XMLID_71_">
		<rect id="XMLID_72_" x="934.7" y="479" class="st9" width="32.3" height="13.5"/>
		<g id="XMLID_73_">
			<rect id="XMLID_74_" x="938.5" y="481.1" class="st10" width="10" height="9.3"/>
			<rect id="XMLID_75_" x="953.2" y="481.1" class="st10" width="10" height="9.3"/>
		</g>
	</g>
	<rect id="XMLID_76_" x="907.3" y="545" class="st6" width="33.8" height="17.1"/>
	<rect id="XMLID_77_" x="909.9" y="547.7" class="st8" width="28.5" height="11.7"/>
	<rect id="XMLID_78_" x="911.2" y="553" class="st6" width="13" height="1.9"/>
	<rect id="XMLID_79_" x="927.8" y="553" class="st6" width="8.7" height="1.9"/>
	<g id="XMLID_80_">
		<circle id="XMLID_81_" class="st11" cx="938.9" cy="576.6" r="6.8"/>
		<path id="XMLID_82_" class="st10" d="M934.2,571.6c2.7-2.7,7-2.7,9.7,0c2.7,2.7,2.7,7,0,9.7"/>
	</g>
	<g id="XMLID_83_">
		<circle id="XMLID_84_" class="st11" cx="955.1" cy="576.6" r="6.8"/>
		<path id="XMLID_85_" class="st10" d="M950.4,571.6c2.7-2.7,7-2.7,9.7,0c2.7,2.7,2.7,7,0,9.7"/>
	</g>
	<g id="XMLID_90_">
		<rect id="XMLID_98_" x="1058" y="481.6" class="st6" width="17.5" height="26.1"/>
		<rect id="XMLID_97_" x="1061.8" y="485.7" class="st8" width="10.2" height="18"/>
		<rect id="XMLID_96_" x="1075.5" y="485.7" class="st9" width="5.1" height="3"/>
		<rect id="XMLID_95_" x="1075.5" y="492.9" class="st9" width="5.1" height="3"/>
		<rect id="XMLID_94_" x="1075.5" y="500.1" class="st9" width="5.1" height="3"/>
		<rect id="XMLID_93_" x="1052.9" y="485.7" class="st9" width="5.1" height="3"/>
		<rect id="XMLID_92_" x="1052.9" y="492.9" class="st9" width="5.1" height="3"/>
		<rect id="XMLID_91_" x="1052.9" y="500.1" class="st9" width="5.1" height="3"/>
	</g>
	<g id="XMLID_99_">
		<rect id="XMLID_107_" x="1058" y="515.3" class="st6" width="17.5" height="26.1"/>
		<rect id="XMLID_106_" x="1061.8" y="519.4" class="st8" width="10.2" height="18"/>
		<rect id="XMLID_105_" x="1075.5" y="519.4" class="st9" width="5.1" height="3"/>
		<rect id="XMLID_104_" x="1075.5" y="526.6" class="st9" width="5.1" height="3"/>
		<rect id="XMLID_103_" x="1075.5" y="533.8" class="st9" width="5.1" height="3"/>
		<rect id="XMLID_102_" x="1052.9" y="519.4" class="st9" width="5.1" height="3"/>
		<rect id="XMLID_101_" x="1052.9" y="526.6" class="st9" width="5.1" height="3"/>
		<rect id="XMLID_100_" x="1052.9" y="533.8" class="st9" width="5.1" height="3"/>
	</g>
	<g id="XMLID_124_">
		<rect id="XMLID_108_" x="1042.5" y="574.4" class="st6" width="38.4" height="9.8"/>
		<rect id="XMLID_109_" x="1045.1" y="576.6" class="st8" width="33" height="5.4"/>
		<rect id="XMLID_110_" x="1074.6" y="570.5" class="st9" width="2.5" height="3.9"/>
		<rect id="XMLID_111_" x="1069.9" y="570.5" class="st9" width="2.5" height="3.9"/>
		<rect id="XMLID_112_" x="1065.2" y="570.5" class="st9" width="2.5" height="3.9"/>
		<rect id="XMLID_113_" x="1060.4" y="570.5" class="st9" width="2.5" height="3.9"/>
		<rect id="XMLID_114_" x="1055.7" y="570.5" class="st9" width="2.5" height="3.9"/>
		<rect id="XMLID_115_" x="1050.9" y="570.5" class="st9" width="2.5" height="3.9"/>
		<rect id="XMLID_116_" x="1046.2" y="570.5" class="st9" width="2.5" height="3.9"/>
		<rect id="XMLID_123_" x="1074.6" y="584.2" class="st9" width="2.5" height="3.9"/>
		<rect id="XMLID_122_" x="1069.9" y="584.2" class="st9" width="2.5" height="3.9"/>
		<rect id="XMLID_121_" x="1065.1" y="584.2" class="st9" width="2.5" height="3.9"/>
		<rect id="XMLID_120_" x="1060.4" y="584.2" class="st9" width="2.5" height="3.9"/>
		<rect id="XMLID_119_" x="1055.6" y="584.2" class="st9" width="2.5" height="3.9"/>
		<rect id="XMLID_118_" x="1050.9" y="584.2" class="st9" width="2.5" height="3.9"/>
		<rect id="XMLID_117_" x="1046.1" y="584.2" class="st9" width="2.5" height="3.9"/>
	</g>
	<g id="XMLID_241_">
		<circle id="XMLID_87_" class="st12" cx="1003.4" cy="535" r="44.8"/>
		<circle id="XMLID_88_" class="st13" cx="1003.4" cy="535" r="41.5"/>
		<circle id="XMLID_89_" class="st6" cx="1003.4" cy="535.1" r="38.6"/>
		<circle id="XMLID_212_" class="st6" cx="1003.4" cy="535.1" r="38.6"/>
		<g id="XMLID_125_">
			<g>
				<defs>
					<circle id="SVGID_1_" cx="1003.5" cy="535" r="35"/>
				</defs>
				<clipPath id="SVGID_2_">
					<use xlink:href="#SVGID_1_"  style="overflow:visible;"/>
				</clipPath>
				<g id="XMLID_127_" class="st14">
					<g id="XMLID_239_">
						<path id="XMLID_240_" class="st0" d="M1040.1,534.4c0,0,0.4,1,0.7,3c0.2,1.9,0,4.8-1.3,8c0,0-0.3,0.1-1,0.2
							c-0.7,0.1-1.6,0.2-2.9,0.1c-1.3-0.1-2.8-0.4-4.6-1s-3.9-1.4-6.3-2.5c0,0,0.1-0.4,0.2-0.9c0-0.1,0.1-0.3,0.1-0.4
							c0-0.2,0-0.3,0-0.5c0-0.3,0.1-0.7,0.1-1c0.1-0.7,0-1.4,0-1.9s0-0.9,0-0.9s0.4,0.1,1.2,0.2c0.8,0.1,1.9,0.3,3.3,0.3
							c1.4,0.1,3,0,4.8-0.4C1036.1,536.4,1038.1,535.7,1040.1,534.4z"/>
					</g>
					<g id="XMLID_237_">
						<path id="XMLID_238_" class="st0" d="M1037.6,547.4c0,0,0,0.3,0,0.8s-0.2,1.3-0.4,2.2c-0.1,0.5-0.3,1-0.5,1.5
							c-0.2,0.5-0.5,1.1-0.9,1.7c-0.3,0.6-0.7,1.3-1.2,1.9c-0.5,0.6-1,1.2-1.6,1.9c0,0-0.4,0-1-0.1s-1.6-0.4-2.7-1
							c-1.1-0.6-2.5-1.4-4-2.6c-1.5-1.2-3.1-2.7-5-4.6c0,0,0.2-0.3,0.5-0.8c0.3-0.5,0.6-1.1,0.9-1.7c0.3-0.6,0.5-1.3,0.7-1.8
							c0.1-0.1,0.1-0.2,0.1-0.3s0.1-0.2,0.1-0.3s0.1-0.2,0.1-0.2s0.4,0.3,1.1,0.7c0.7,0.4,1.7,1,3,1.5s2.8,1.1,4.6,1.4
							C1033.2,547.9,1035.4,548,1037.6,547.4z"/>
					</g>
					<g id="XMLID_235_">
						<path id="XMLID_236_" class="st0" d="M1030.7,558.7c0,0-0.1,0.3-0.3,0.7c-0.1,0.2-0.3,0.5-0.4,0.9c-0.2,0.3-0.4,0.7-0.7,1.1
							c-0.6,0.8-1.3,1.7-2.4,2.6c-0.5,0.4-1.1,0.9-1.8,1.3c-0.7,0.4-1.4,0.8-2.2,1.1c0,0-0.3-0.1-0.9-0.5s-1.3-0.9-2.2-1.9
							c-0.9-0.9-1.8-2.2-2.8-3.9c-1-1.6-2-3.7-3-6.1c0,0,0.1-0.1,0.2-0.1c0.1-0.1,0.3-0.2,0.5-0.4c0.4-0.4,1-0.8,1.5-1.3
							s1-1,1.4-1.4c0.3-0.4,0.5-0.7,0.5-0.7s0.3,0.4,0.8,1s1.2,1.5,2.2,2.5s2.2,2,3.8,3c0.8,0.5,1.7,0.9,2.6,1.3
							C1028.4,558.2,1029.5,558.5,1030.7,558.7z"/>
					</g>
					<g id="XMLID_233_">
						<path id="XMLID_234_" class="st0" d="M1020.1,566.7c0,0-0.2,0.2-0.6,0.6c-0.2,0.2-0.4,0.4-0.7,0.6c-0.2,0.1-0.3,0.2-0.5,0.4
							c-0.2,0.1-0.4,0.2-0.6,0.4c-0.4,0.2-0.9,0.5-1.4,0.8s-1.1,0.6-1.8,0.7c-1.3,0.4-2.9,0.8-4.6,0.8c0,0-1.1-1-2-3.3
							c-0.5-1.2-0.9-2.7-1.2-4.6c-0.3-1.9-0.5-4.1-0.6-6.7c0,0,0.1,0,0.2-0.1c0.2,0,0.4-0.1,0.6-0.2c0.3-0.1,0.6-0.2,0.9-0.3
							c0.2-0.1,0.3-0.1,0.5-0.2c0.2-0.1,0.3-0.1,0.5-0.2c0.3-0.1,0.6-0.3,1-0.4c0.2-0.1,0.3-0.1,0.4-0.2c0.1-0.1,0.3-0.1,0.4-0.2
							c0.5-0.3,0.8-0.4,0.8-0.4s0.1,0.4,0.3,1.2c0.2,0.8,0.6,1.8,1.2,3.1c0.6,1.3,1.3,2.7,2.5,4.2
							C1016.6,564.1,1018,565.5,1020.1,566.7z"/>
					</g>
					<g id="XMLID_231_">
						<path id="XMLID_232_" class="st0" d="M1007.3,570.3c0,0-1,0.5-2.9,1c-0.5,0.1-1,0.2-1.6,0.2c-0.6,0-1.2,0.1-1.9,0
							c-0.7,0-1.4-0.1-2.2-0.3s-1.6-0.3-2.4-0.6c0,0-0.6-1.3-0.6-3.9c0-1.3,0.1-2.8,0.5-4.7s1-4,1.9-6.5c0,0,0.4,0,0.9,0.1
							s1.3,0,2,0c0.4,0,0.7,0,1,0s0.6-0.1,0.9-0.1c0.5-0.1,0.9-0.1,0.9-0.1s-0.1,0.4-0.1,1.2c-0.1,0.8-0.1,1.9,0,3.3
							c0.1,1.4,0.3,3.1,0.8,4.8C1005,566.6,1005.8,568.5,1007.3,570.3z"/>
					</g>
					<g id="XMLID_229_">
						<path id="XMLID_230_" class="st0" d="M994.1,569.1c0,0-0.3,0-0.8,0.1c-0.5,0-1.3-0.1-2.2-0.2c-0.5-0.1-1-0.2-1.6-0.3
							c-0.6-0.2-1.2-0.4-1.8-0.7c-0.3-0.1-0.6-0.3-1-0.4c-0.2-0.1-0.3-0.2-0.5-0.3s-0.3-0.2-0.5-0.3c-0.7-0.4-1.3-0.9-2-1.4
							c0,0,0-0.4,0.1-1c0.1-0.7,0.3-1.6,0.8-2.8s1.2-2.6,2.2-4.2c1-1.6,2.4-3.4,4.1-5.4c0,0,0.3,0.2,0.8,0.4s1.2,0.5,1.8,0.8
							c0.3,0.2,0.7,0.2,1,0.3c0.3,0.1,0.6,0.2,0.9,0.3s0.5,0.1,0.6,0.2c0.2,0,0.2,0,0.2,0s-0.2,0.4-0.6,1.1
							c-0.3,0.7-0.8,1.8-1.2,3.1c-0.4,1.3-0.8,2.9-1,4.7c-0.1,0.9-0.1,1.9,0,2.9c0.1,0.5,0.1,1.1,0.2,1.6
							C993.8,568,994,568.5,994.1,569.1z"/>
					</g>
					<g id="XMLID_227_">
						<path id="XMLID_228_" class="st0" d="M982.3,563.2c0,0-0.3-0.1-0.8-0.2c-0.2-0.1-0.6-0.2-0.9-0.4c-0.3-0.2-0.7-0.4-1.1-0.6
							c-0.8-0.5-1.8-1.2-2.8-2.2c-0.5-0.5-1-1-1.5-1.6s-0.9-1.3-1.3-2.1c0,0,0.1-0.3,0.4-0.9c0.3-0.6,0.8-1.4,1.7-2.3
							c0.9-1,2-2,3.6-3.1c1.5-1.1,3.5-2.3,5.8-3.5c0,0,0.1,0.1,0.2,0.2c0.1,0.1,0.2,0.3,0.4,0.5c0.4,0.4,0.9,0.9,1.4,1.4
							c0.6,0.4,1.1,0.9,1.5,1.2c0.2,0.2,0.4,0.3,0.5,0.4c0.1,0.1,0.2,0.1,0.2,0.1s-0.3,0.3-0.9,0.8c-0.6,0.6-1.4,1.4-2.3,2.4
							c-0.9,1.1-1.8,2.4-2.6,4.1c-0.4,0.8-0.8,1.7-1,2.8C982.5,560.9,982.3,562,982.3,563.2z"/>
					</g>
					<g id="XMLID_225_">
						<path id="XMLID_226_" class="st0" d="M973.3,553.4c0,0-0.2-0.2-0.6-0.5c-0.4-0.4-1-0.9-1.5-1.7c-0.3-0.4-0.6-0.8-0.9-1.3
							s-0.6-1.1-0.9-1.7c-0.5-1.3-1.1-2.8-1.3-4.5c0,0,0.9-1.1,3.1-2.3c1.1-0.6,2.6-1.1,4.5-1.6s4.1-0.9,6.7-1.2c0,0,0,0.1,0.1,0.2
							c0.1,0.1,0.2,0.4,0.3,0.6c0.1,0.2,0.2,0.5,0.4,0.8c0.1,0.3,0.3,0.6,0.5,0.9c0.4,0.6,0.7,1.2,1,1.7c0.3,0.4,0.5,0.7,0.5,0.7
							s-0.4,0.1-1.2,0.5c-0.7,0.3-1.8,0.8-3,1.5c-1.2,0.7-2.6,1.6-3.9,2.9C975.6,549.6,974.3,551.2,973.3,553.4z"/>
					</g>
					<g id="XMLID_223_">
						<path id="XMLID_224_" class="st0" d="M968.5,541c0,0-0.6-0.9-1.2-2.8c-0.2-0.9-0.5-2.1-0.6-3.5c-0.1-0.7,0-1.4,0.1-2.2
							c0-0.4,0.1-0.8,0.1-1.2c0.1-0.4,0.1-0.8,0.2-1.2c0,0,1.3-0.7,3.8-1c1.3-0.1,2.8-0.1,4.7,0.1c1.9,0.2,4.1,0.7,6.7,1.3
							c0,0,0,0.4,0,0.9c0,0.3,0,0.6,0,0.9c0,0.3,0.1,0.7,0.1,1.1c0,0.4,0.1,0.7,0.1,1c0.1,0.3,0.1,0.6,0.2,0.9
							c0.1,0.5,0.2,0.9,0.2,0.9s-0.5,0-1.2,0c-0.8,0-1.9,0.1-3.3,0.3s-3,0.6-4.7,1.2C972,538.3,970.3,539.3,968.5,541z"/>
					</g>
					<g id="XMLID_221_">
						<path id="XMLID_222_" class="st0" d="M968.5,527.8c0,0-0.1-0.3-0.1-0.8s-0.1-1.3,0-2.2c0-0.5,0.1-1,0.2-1.6
							c0.1-0.6,0.3-1.2,0.5-1.9c0.4-1.3,1.1-2.7,2.1-4.2c0,0,0.3-0.1,1,0c0.7,0,1.7,0.1,2.9,0.5c1.2,0.3,2.7,0.9,4.4,1.8
							c1.7,0.9,3.6,2.1,5.7,3.6c0,0-0.1,0.3-0.3,0.8s-0.4,1.2-0.6,1.9c-0.1,0.3-0.2,0.7-0.2,1c-0.1,0.3-0.1,0.6-0.2,0.9
							c0,0.3-0.1,0.5-0.1,0.6c0,0.2,0,0.2,0,0.2s-0.4-0.2-1.2-0.5s-1.8-0.6-3.2-0.9c-1.4-0.3-3-0.6-4.8-0.5c-0.9,0-1.9,0.1-2.9,0.3
							C970.7,527,969.6,527.3,968.5,527.8z"/>
					</g>
					<g id="XMLID_219_">
						<path id="XMLID_220_" class="st0" d="M973.3,515.4c0,0,0-0.3,0.2-0.8c0.1-0.5,0.4-1.2,0.8-2.1c0.2-0.4,0.5-0.9,0.8-1.4
							c0.3-0.5,0.7-1,1.1-1.5c0.4-0.5,0.9-1.1,1.5-1.6s1.2-1,2-1.5c0,0,0.3,0.1,1,0.3c0.6,0.2,1.5,0.7,2.5,1.5s2.2,1.8,3.5,3.3
							c1.3,1.4,2.6,3.2,4,5.4c0,0-0.1,0.1-0.2,0.2c-0.1,0.1-0.3,0.3-0.5,0.5c-0.3,0.4-0.8,1-1.2,1.5c-0.4,0.6-0.8,1.2-1.1,1.6
							c-0.2,0.2-0.2,0.4-0.3,0.6c-0.1,0.1-0.1,0.2-0.1,0.2s-0.3-0.3-0.9-0.8c-0.6-0.5-1.5-1.2-2.6-2c-1.2-0.8-2.6-1.6-4.3-2.2
							c-0.9-0.3-1.8-0.6-2.8-0.8C975.6,515.4,974.5,515.3,973.3,515.4z"/>
					</g>
					<g id="XMLID_217_">
						<path id="XMLID_218_" class="st0" d="M982.3,505.6c0,0,0.1-0.2,0.4-0.7c0.3-0.4,0.8-1,1.5-1.7c0.4-0.3,0.8-0.7,1.2-1
							c0.2-0.2,0.5-0.4,0.7-0.5c0.3-0.2,0.6-0.3,0.9-0.5c0.6-0.3,1.3-0.7,2-1c0.4-0.2,0.7-0.3,1.1-0.4c0.4-0.1,0.8-0.2,1.2-0.3
							c0,0,1.2,0.8,2.6,2.9c0.7,1.1,1.4,2.5,2,4.3c0.7,1.8,1.2,4,1.8,6.5c0,0-0.1,0-0.2,0.1c-0.1,0-0.3,0.2-0.6,0.3
							c-0.2,0.1-0.5,0.3-0.8,0.5c-0.3,0.2-0.6,0.3-0.9,0.5c-0.6,0.4-1.2,0.8-1.6,1.1c-0.4,0.3-0.7,0.6-0.7,0.6s-0.2-0.4-0.6-1.1
							c-0.4-0.7-0.9-1.7-1.7-2.8c-0.8-1.1-1.8-2.4-3.2-3.6c-0.7-0.6-1.5-1.2-2.4-1.7C984.4,506.5,983.4,506,982.3,505.6z"/>
					</g>
					<g id="XMLID_215_">
						<path id="XMLID_216_" class="st0" d="M994.1,499.7c0,0,0.2-0.2,0.7-0.5c0.4-0.3,1.1-0.7,2-1c0.9-0.3,2.1-0.7,3.4-0.9
							c0.7-0.1,1.4-0.1,2.2-0.1c0.8,0,1.6,0,2.5,0.2c0,0,0.9,1.2,1.3,3.7c0.2,1.2,0.4,2.8,0.4,4.7s-0.3,4.1-0.7,6.7
							c0,0-0.4,0-0.9,0.1c-0.3,0-0.6,0.1-0.9,0.1c-0.3,0.1-0.7,0.1-1,0.2c-0.3,0.1-0.7,0.1-1,0.2c-0.3,0-0.6,0.2-0.9,0.3
							c-0.5,0.2-0.8,0.3-0.8,0.3s0-0.5-0.1-1.2c-0.1-0.8-0.3-1.9-0.6-3.3c-0.3-1.4-0.8-2.9-1.7-4.6
							C997.1,502.9,996,501.2,994.1,499.7z"/>
					</g>
					<g id="XMLID_210_">
						<path id="XMLID_214_" class="st0" d="M1007.3,498.5c0,0,0.1,0,0.2-0.1c0.1,0,0.3-0.1,0.6-0.1c0.5-0.1,1.3-0.2,2.2-0.2
							c1-0.1,2.2,0.1,3.5,0.4c0.3,0.1,0.7,0.2,1,0.3c0.4,0.1,0.7,0.2,1.1,0.4c0.7,0.3,1.5,0.6,2.3,1c0,0,0.1,0.3,0.1,1
							s0,1.7-0.2,2.9c-0.2,1.3-0.7,2.8-1.4,4.5c-0.7,1.8-1.8,3.8-3.1,6c0,0-0.3-0.1-0.9-0.3c-0.3-0.1-0.6-0.1-0.9-0.2
							c-0.3-0.1-0.7-0.1-1-0.2c-0.2,0-0.3-0.1-0.5-0.1c-0.2,0-0.3,0-0.5,0c-0.3,0-0.6-0.1-0.9-0.1s-0.5,0-0.6-0.1
							c-0.2,0-0.2,0-0.2,0s0.1-0.4,0.3-1.2c0.2-0.8,0.5-1.9,0.6-3.3c0.2-1.4,0.3-3,0.1-4.8C1009,502.6,1008.5,500.5,1007.3,498.5z"
							/>
					</g>
					<g id="XMLID_208_">
						<path id="XMLID_209_" class="st0" d="M1020.1,502.1c0,0,0.3,0,0.8,0.1s1.2,0.3,2.2,0.6c0.5,0.2,1,0.4,1.5,0.6
							c0.5,0.3,1.1,0.6,1.6,1c0.6,0.4,1.2,0.8,1.7,1.3c0.6,0.5,1.1,1.1,1.7,1.8c0,0-0.1,1.4-1.5,3.6c-0.7,1.1-1.6,2.4-2.9,3.7
							c-1.3,1.4-3,2.9-5,4.5c0,0-0.3-0.2-0.7-0.6c-0.5-0.3-1.1-0.7-1.7-1.1c-0.6-0.3-1.3-0.7-1.7-0.9c-0.2-0.1-0.4-0.2-0.6-0.3
							c-0.1-0.1-0.2-0.1-0.2-0.1s0.3-0.4,0.8-1s1.1-1.6,1.8-2.8s1.4-2.7,1.8-4.5C1020.1,506.5,1020.4,504.4,1020.1,502.1z"/>
					</g>
					<g id="XMLID_203_">
						<path id="XMLID_207_" class="st0" d="M1030.7,510.1c0,0,0.3,0.1,0.7,0.4c0.2,0.1,0.5,0.3,0.8,0.5c0.3,0.2,0.6,0.5,1,0.8
							c0.4,0.3,0.7,0.7,1.1,1.1c0.2,0.2,0.4,0.4,0.6,0.7c0.2,0.3,0.4,0.5,0.6,0.8c0.4,0.6,0.8,1.2,1.1,1.9c0.4,0.7,0.6,1.5,0.9,2.3
							c0,0-0.2,0.3-0.6,0.8s-1.1,1.2-2.1,2s-2.4,1.6-4.1,2.4c-1.7,0.8-3.8,1.6-6.3,2.4c0,0,0-0.1-0.1-0.2c0-0.1-0.1-0.2-0.1-0.2
							c-0.1-0.1-0.1-0.2-0.2-0.3c-0.3-0.4-0.7-1-1.1-1.6c-0.5-0.5-0.9-1.1-1.3-1.5s-0.6-0.6-0.6-0.6s0.4-0.2,1.1-0.7
							c0.7-0.4,1.6-1.1,2.7-2c1.1-0.9,2.2-2,3.3-3.5c0.5-0.7,1.1-1.6,1.5-2.5C1030,512.3,1030.4,511.2,1030.7,510.1z"/>
					</g>
					<g id="XMLID_201_">
						<path id="XMLID_202_" class="st0" d="M1037.6,521.4c0,0,0.2,0.2,0.5,0.6c0.2,0.2,0.3,0.5,0.6,0.8c0.2,0.3,0.5,0.7,0.7,1.1
							c0.4,0.9,0.9,2,1.2,3.3c0.1,0.7,0.3,1.4,0.3,2.2c0,0.4,0.1,0.8,0.1,1.2s0,0.8-0.1,1.3c0,0-1.1,1-3.5,1.7
							c-1.2,0.4-2.8,0.6-4.7,0.8c-1.9,0.1-4.1,0.1-6.8,0c0,0-0.1-0.4-0.2-0.9c-0.1-0.5-0.2-1.2-0.5-1.9c-0.2-0.7-0.4-1.4-0.6-1.8
							c-0.2-0.5-0.4-0.8-0.4-0.8s0.4-0.1,1.2-0.2c0.8-0.2,1.9-0.4,3.2-0.9c1.3-0.5,2.8-1.1,4.4-2.1
							C1034.8,524.6,1036.3,523.3,1037.6,521.4z"/>
					</g>
				</g>
			</g>
		</g>
		<circle id="XMLID_128_" class="st15" cx="1003.3" cy="535" r="23.1"/>
		<g id="XMLID_129_">
			<g>
				<defs>
					<circle id="SVGID_3_" cx="1003.5" cy="535" r="35"/>
				</defs>
				<clipPath id="SVGID_4_">
					<use xlink:href="#SVGID_3_"  style="overflow:visible;"/>
				</clipPath>
				<g id="XMLID_140_" class="st16">
					<g id="XMLID_200_">
						<path id="XMLID_211_" class="st0" d="M1040.1,534.4c0,0,0.4,1,0.7,3c0.2,1.9,0,4.8-1.3,8c0,0-0.3,0.1-1,0.2
							c-0.7,0.1-1.6,0.2-2.9,0.1c-1.3-0.1-2.8-0.4-4.6-1s-3.9-1.4-6.3-2.5c0,0,0.1-0.4,0.2-0.9c0-0.1,0.1-0.3,0.1-0.4
							c0-0.2,0-0.3,0-0.5c0-0.3,0.1-0.7,0.1-1c0.1-0.7,0-1.4,0-1.9s0-0.9,0-0.9s0.4,0.1,1.2,0.2c0.8,0.1,1.9,0.3,3.3,0.3
							c1.4,0.1,3,0,4.8-0.4C1036.1,536.4,1038.1,535.7,1040.1,534.4z"/>
					</g>
					<g id="XMLID_195_">
						<path id="XMLID_196_" class="st0" d="M1037.6,547.4c0,0,0,0.3,0,0.8s-0.2,1.3-0.4,2.2c-0.1,0.5-0.3,1-0.5,1.5
							c-0.2,0.5-0.5,1.1-0.9,1.7c-0.3,0.6-0.7,1.3-1.2,1.9c-0.5,0.6-1,1.2-1.6,1.9c0,0-0.4,0-1-0.1s-1.6-0.4-2.7-1
							c-1.1-0.6-2.5-1.4-4-2.6c-1.5-1.2-3.1-2.7-5-4.6c0,0,0.2-0.3,0.5-0.8c0.3-0.5,0.6-1.1,0.9-1.7c0.3-0.6,0.5-1.3,0.7-1.8
							c0.1-0.1,0.1-0.2,0.1-0.3s0.1-0.2,0.1-0.3s0.1-0.2,0.1-0.2s0.4,0.3,1.1,0.7c0.7,0.4,1.7,1,3,1.5s2.8,1.1,4.6,1.4
							C1033.2,547.9,1035.4,548,1037.6,547.4z"/>
					</g>
					<g id="XMLID_193_">
						<path id="XMLID_194_" class="st0" d="M1030.7,558.7c0,0-0.1,0.3-0.3,0.7c-0.1,0.2-0.3,0.5-0.4,0.9c-0.2,0.3-0.4,0.7-0.7,1.1
							c-0.6,0.8-1.3,1.7-2.4,2.6c-0.5,0.4-1.1,0.9-1.8,1.3c-0.7,0.4-1.4,0.8-2.2,1.1c0,0-0.3-0.1-0.9-0.5s-1.3-0.9-2.2-1.9
							c-0.9-0.9-1.8-2.2-2.8-3.9c-1-1.6-2-3.7-3-6.1c0,0,0.1-0.1,0.2-0.1c0.1-0.1,0.3-0.2,0.5-0.4c0.4-0.4,1-0.8,1.5-1.3
							s1-1,1.4-1.4c0.3-0.4,0.5-0.7,0.5-0.7s0.3,0.4,0.8,1s1.2,1.5,2.2,2.5s2.2,2,3.8,3c0.8,0.5,1.7,0.9,2.6,1.3
							C1028.4,558.2,1029.5,558.5,1030.7,558.7z"/>
					</g>
					<g id="XMLID_185_">
						<path id="XMLID_186_" class="st0" d="M1020.1,566.7c0,0-0.2,0.2-0.6,0.6c-0.2,0.2-0.4,0.4-0.7,0.6c-0.2,0.1-0.3,0.2-0.5,0.4
							c-0.2,0.1-0.4,0.2-0.6,0.4c-0.4,0.2-0.9,0.5-1.4,0.8s-1.1,0.6-1.8,0.7c-1.3,0.4-2.9,0.8-4.6,0.8c0,0-1.1-1-2-3.3
							c-0.5-1.2-0.9-2.7-1.2-4.6c-0.3-1.9-0.5-4.1-0.6-6.7c0,0,0.1,0,0.2-0.1c0.2,0,0.4-0.1,0.6-0.2c0.3-0.1,0.6-0.2,0.9-0.3
							c0.2-0.1,0.3-0.1,0.5-0.2c0.2-0.1,0.3-0.1,0.5-0.2c0.3-0.1,0.6-0.3,1-0.4c0.2-0.1,0.3-0.1,0.4-0.2c0.1-0.1,0.3-0.1,0.4-0.2
							c0.5-0.3,0.8-0.4,0.8-0.4s0.1,0.4,0.3,1.2c0.2,0.8,0.6,1.8,1.2,3.1c0.6,1.3,1.3,2.7,2.5,4.2
							C1016.6,564.1,1018,565.5,1020.1,566.7z"/>
					</g>
					<g id="XMLID_183_">
						<path id="XMLID_184_" class="st0" d="M1007.3,570.3c0,0-1,0.5-2.9,1c-0.5,0.1-1,0.2-1.6,0.2c-0.6,0-1.2,0.1-1.9,0
							c-0.7,0-1.4-0.1-2.2-0.3s-1.6-0.3-2.4-0.6c0,0-0.6-1.3-0.6-3.9c0-1.3,0.1-2.8,0.5-4.7s1-4,1.9-6.5c0,0,0.4,0,0.9,0.1
							s1.3,0,2,0c0.4,0,0.7,0,1,0s0.6-0.1,0.9-0.1c0.5-0.1,0.9-0.1,0.9-0.1s-0.1,0.4-0.1,1.2c-0.1,0.8-0.1,1.9,0,3.3
							c0.1,1.4,0.3,3.1,0.8,4.8C1005,566.6,1005.8,568.5,1007.3,570.3z"/>
					</g>
					<g id="XMLID_181_">
						<path id="XMLID_182_" class="st0" d="M994.1,569.1c0,0-0.3,0-0.8,0.1c-0.5,0-1.3-0.1-2.2-0.2c-0.5-0.1-1-0.2-1.6-0.3
							c-0.6-0.2-1.2-0.4-1.8-0.7c-0.3-0.1-0.6-0.3-1-0.4c-0.2-0.1-0.3-0.2-0.5-0.3s-0.3-0.2-0.5-0.3c-0.7-0.4-1.3-0.9-2-1.4
							c0,0,0-0.4,0.1-1c0.1-0.7,0.3-1.6,0.8-2.8s1.2-2.6,2.2-4.2c1-1.6,2.4-3.4,4.1-5.4c0,0,0.3,0.2,0.8,0.4s1.2,0.5,1.8,0.8
							c0.3,0.2,0.7,0.2,1,0.3c0.3,0.1,0.6,0.2,0.9,0.3s0.5,0.1,0.6,0.2c0.2,0,0.2,0,0.2,0s-0.2,0.4-0.6,1.1
							c-0.3,0.7-0.8,1.8-1.2,3.1c-0.4,1.3-0.8,2.9-1,4.7c-0.1,0.9-0.1,1.9,0,2.9c0.1,0.5,0.1,1.1,0.2,1.6
							C993.8,568,994,568.5,994.1,569.1z"/>
					</g>
					<g id="XMLID_179_">
						<path id="XMLID_180_" class="st0" d="M982.3,563.2c0,0-0.3-0.1-0.8-0.2c-0.2-0.1-0.6-0.2-0.9-0.4c-0.3-0.2-0.7-0.4-1.1-0.6
							c-0.8-0.5-1.8-1.2-2.8-2.2c-0.5-0.5-1-1-1.5-1.6s-0.9-1.3-1.3-2.1c0,0,0.1-0.3,0.4-0.9c0.3-0.6,0.8-1.4,1.7-2.3
							c0.9-1,2-2,3.6-3.1c1.5-1.1,3.5-2.3,5.8-3.5c0,0,0.1,0.1,0.2,0.2c0.1,0.1,0.2,0.3,0.4,0.5c0.4,0.4,0.9,0.9,1.4,1.4
							c0.6,0.4,1.1,0.9,1.5,1.2c0.2,0.2,0.4,0.3,0.5,0.4c0.1,0.1,0.2,0.1,0.2,0.1s-0.3,0.3-0.9,0.8c-0.6,0.6-1.4,1.4-2.3,2.4
							c-0.9,1.1-1.8,2.4-2.6,4.1c-0.4,0.8-0.8,1.7-1,2.8C982.5,560.9,982.3,562,982.3,563.2z"/>
					</g>
					<g id="XMLID_177_">
						<path id="XMLID_178_" class="st0" d="M973.3,553.4c0,0-0.2-0.2-0.6-0.5c-0.4-0.4-1-0.9-1.5-1.7c-0.3-0.4-0.6-0.8-0.9-1.3
							s-0.6-1.1-0.9-1.7c-0.5-1.3-1.1-2.8-1.3-4.5c0,0,0.9-1.1,3.1-2.3c1.1-0.6,2.6-1.1,4.5-1.6s4.1-0.9,6.7-1.2c0,0,0,0.1,0.1,0.2
							c0.1,0.1,0.2,0.4,0.3,0.6c0.1,0.2,0.2,0.5,0.4,0.8c0.1,0.3,0.3,0.6,0.5,0.9c0.4,0.6,0.7,1.2,1,1.7c0.3,0.4,0.5,0.7,0.5,0.7
							s-0.4,0.1-1.2,0.5c-0.7,0.3-1.8,0.8-3,1.5c-1.2,0.7-2.6,1.6-3.9,2.9C975.6,549.6,974.3,551.2,973.3,553.4z"/>
					</g>
					<g id="XMLID_175_">
						<path id="XMLID_176_" class="st0" d="M968.5,541c0,0-0.6-0.9-1.2-2.8c-0.2-0.9-0.5-2.1-0.6-3.5c-0.1-0.7,0-1.4,0.1-2.2
							c0-0.4,0.1-0.8,0.1-1.2c0.1-0.4,0.1-0.8,0.2-1.2c0,0,1.3-0.7,3.8-1c1.3-0.1,2.8-0.1,4.7,0.1c1.9,0.2,4.1,0.7,6.7,1.3
							c0,0,0,0.4,0,0.9c0,0.3,0,0.6,0,0.9c0,0.3,0.1,0.7,0.1,1.1c0,0.4,0.1,0.7,0.1,1c0.1,0.3,0.1,0.6,0.2,0.9
							c0.1,0.5,0.2,0.9,0.2,0.9s-0.5,0-1.2,0c-0.8,0-1.9,0.1-3.3,0.3s-3,0.6-4.7,1.2C972,538.3,970.3,539.3,968.5,541z"/>
					</g>
					<g id="XMLID_173_">
						<path id="XMLID_174_" class="st0" d="M968.5,527.8c0,0-0.1-0.3-0.1-0.8s-0.1-1.3,0-2.2c0-0.5,0.1-1,0.2-1.6
							c0.1-0.6,0.3-1.2,0.5-1.9c0.4-1.3,1.1-2.7,2.1-4.2c0,0,0.3-0.1,1,0c0.7,0,1.7,0.1,2.9,0.5c1.2,0.3,2.7,0.9,4.4,1.8
							c1.7,0.9,3.6,2.1,5.7,3.6c0,0-0.1,0.3-0.3,0.8s-0.4,1.2-0.6,1.9c-0.1,0.3-0.2,0.7-0.2,1c-0.1,0.3-0.1,0.6-0.2,0.9
							c0,0.3-0.1,0.5-0.1,0.6c0,0.2,0,0.2,0,0.2s-0.4-0.2-1.2-0.5s-1.8-0.6-3.2-0.9c-1.4-0.3-3-0.6-4.8-0.5c-0.9,0-1.9,0.1-2.9,0.3
							C970.7,527,969.6,527.3,968.5,527.8z"/>
					</g>
					<g id="XMLID_171_">
						<path id="XMLID_172_" class="st0" d="M973.3,515.4c0,0,0-0.3,0.2-0.8c0.1-0.5,0.4-1.2,0.8-2.1c0.2-0.4,0.5-0.9,0.8-1.4
							c0.3-0.5,0.7-1,1.1-1.5c0.4-0.5,0.9-1.1,1.5-1.6s1.2-1,2-1.5c0,0,0.3,0.1,1,0.3c0.6,0.2,1.5,0.7,2.5,1.5s2.2,1.8,3.5,3.3
							c1.3,1.4,2.6,3.2,4,5.4c0,0-0.1,0.1-0.2,0.2c-0.1,0.1-0.3,0.3-0.5,0.5c-0.3,0.4-0.8,1-1.2,1.5c-0.4,0.6-0.8,1.2-1.1,1.6
							c-0.2,0.2-0.2,0.4-0.3,0.6c-0.1,0.1-0.1,0.2-0.1,0.2s-0.3-0.3-0.9-0.8c-0.6-0.5-1.5-1.2-2.6-2c-1.2-0.8-2.6-1.6-4.3-2.2
							c-0.9-0.3-1.8-0.6-2.8-0.8C975.6,515.4,974.5,515.3,973.3,515.4z"/>
					</g>
					<g id="XMLID_169_">
						<path id="XMLID_170_" class="st0" d="M982.3,505.6c0,0,0.1-0.2,0.4-0.7c0.3-0.4,0.8-1,1.5-1.7c0.4-0.3,0.8-0.7,1.2-1
							c0.2-0.2,0.5-0.4,0.7-0.5c0.3-0.2,0.6-0.3,0.9-0.5c0.6-0.3,1.3-0.7,2-1c0.4-0.2,0.7-0.3,1.1-0.4c0.4-0.1,0.8-0.2,1.2-0.3
							c0,0,1.2,0.8,2.6,2.9c0.7,1.1,1.4,2.5,2,4.3c0.7,1.8,1.2,4,1.8,6.5c0,0-0.1,0-0.2,0.1c-0.1,0-0.3,0.2-0.6,0.3
							c-0.2,0.1-0.5,0.3-0.8,0.5c-0.3,0.2-0.6,0.3-0.9,0.5c-0.6,0.4-1.2,0.8-1.6,1.1c-0.4,0.3-0.7,0.6-0.7,0.6s-0.2-0.4-0.6-1.1
							c-0.4-0.7-0.9-1.7-1.7-2.8c-0.8-1.1-1.8-2.4-3.2-3.6c-0.7-0.6-1.5-1.2-2.4-1.7C984.4,506.5,983.4,506,982.3,505.6z"/>
					</g>
					<g id="XMLID_167_">
						<path id="XMLID_168_" class="st0" d="M994.1,499.7c0,0,0.2-0.2,0.7-0.5c0.4-0.3,1.1-0.7,2-1c0.9-0.3,2.1-0.7,3.4-0.9
							c0.7-0.1,1.4-0.1,2.2-0.1c0.8,0,1.6,0,2.5,0.2c0,0,0.9,1.2,1.3,3.7c0.2,1.2,0.4,2.8,0.4,4.7s-0.3,4.1-0.7,6.7
							c0,0-0.4,0-0.9,0.1c-0.3,0-0.6,0.1-0.9,0.1c-0.3,0.1-0.7,0.1-1,0.2c-0.3,0.1-0.7,0.1-1,0.2c-0.3,0-0.6,0.2-0.9,0.3
							c-0.5,0.2-0.8,0.3-0.8,0.3s0-0.5-0.1-1.2c-0.1-0.8-0.3-1.9-0.6-3.3c-0.3-1.4-0.8-2.9-1.7-4.6
							C997.1,502.9,996,501.2,994.1,499.7z"/>
					</g>
					<g id="XMLID_165_">
						<path id="XMLID_166_" class="st0" d="M1007.3,498.5c0,0,0.1,0,0.2-0.1c0.1,0,0.3-0.1,0.6-0.1c0.5-0.1,1.3-0.2,2.2-0.2
							c1-0.1,2.2,0.1,3.5,0.4c0.3,0.1,0.7,0.2,1,0.3c0.4,0.1,0.7,0.2,1.1,0.4c0.7,0.3,1.5,0.6,2.3,1c0,0,0.1,0.3,0.1,1
							s0,1.7-0.2,2.9c-0.2,1.3-0.7,2.8-1.4,4.5c-0.7,1.8-1.8,3.8-3.1,6c0,0-0.3-0.1-0.9-0.3c-0.3-0.1-0.6-0.1-0.9-0.2
							c-0.3-0.1-0.7-0.1-1-0.2c-0.2,0-0.3-0.1-0.5-0.1c-0.2,0-0.3,0-0.5,0c-0.3,0-0.6-0.1-0.9-0.1s-0.5,0-0.6-0.1
							c-0.2,0-0.2,0-0.2,0s0.1-0.4,0.3-1.2c0.2-0.8,0.5-1.9,0.6-3.3c0.2-1.4,0.3-3,0.1-4.8C1009,502.6,1008.5,500.5,1007.3,498.5z"
							/>
					</g>
					<g id="XMLID_159_">
						<path id="XMLID_160_" class="st0" d="M1020.1,502.1c0,0,0.3,0,0.8,0.1s1.2,0.3,2.2,0.6c0.5,0.2,1,0.4,1.5,0.6
							c0.5,0.3,1.1,0.6,1.6,1c0.6,0.4,1.2,0.8,1.7,1.3c0.6,0.5,1.1,1.1,1.7,1.8c0,0-0.1,1.4-1.5,3.6c-0.7,1.1-1.6,2.4-2.9,3.7
							c-1.3,1.4-3,2.9-5,4.5c0,0-0.3-0.2-0.7-0.6c-0.5-0.3-1.1-0.7-1.7-1.1c-0.6-0.3-1.3-0.7-1.7-0.9c-0.2-0.1-0.4-0.2-0.6-0.3
							c-0.1-0.1-0.2-0.1-0.2-0.1s0.3-0.4,0.8-1s1.1-1.6,1.8-2.8s1.4-2.7,1.8-4.5C1020.1,506.5,1020.4,504.4,1020.1,502.1z"/>
					</g>
					<g id="XMLID_157_">
						<path id="XMLID_158_" class="st0" d="M1030.7,510.1c0,0,0.3,0.1,0.7,0.4c0.2,0.1,0.5,0.3,0.8,0.5c0.3,0.2,0.6,0.5,1,0.8
							c0.4,0.3,0.7,0.7,1.1,1.1c0.2,0.2,0.4,0.4,0.6,0.7c0.2,0.3,0.4,0.5,0.6,0.8c0.4,0.6,0.8,1.2,1.1,1.9c0.4,0.7,0.6,1.5,0.9,2.3
							c0,0-0.2,0.3-0.6,0.8s-1.1,1.2-2.1,2s-2.4,1.6-4.1,2.4c-1.7,0.8-3.8,1.6-6.3,2.4c0,0,0-0.1-0.1-0.2c0-0.1-0.1-0.2-0.1-0.2
							c-0.1-0.1-0.1-0.2-0.2-0.3c-0.3-0.4-0.7-1-1.1-1.6c-0.5-0.5-0.9-1.1-1.3-1.5s-0.6-0.6-0.6-0.6s0.4-0.2,1.1-0.7
							c0.7-0.4,1.6-1.1,2.7-2c1.1-0.9,2.2-2,3.3-3.5c0.5-0.7,1.1-1.6,1.5-2.5C1030,512.3,1030.4,511.2,1030.7,510.1z"/>
					</g>
					<g id="XMLID_141_">
						<path id="XMLID_156_" class="st0" d="M1037.6,521.4c0,0,0.2,0.2,0.5,0.6c0.2,0.2,0.3,0.5,0.6,0.8c0.2,0.3,0.5,0.7,0.7,1.1
							c0.4,0.9,0.9,2,1.2,3.3c0.1,0.7,0.3,1.4,0.3,2.2c0,0.4,0.1,0.8,0.1,1.2s0,0.8-0.1,1.3c0,0-1.1,1-3.5,1.7
							c-1.2,0.4-2.8,0.6-4.7,0.8c-1.9,0.1-4.1,0.1-6.8,0c0,0-0.1-0.4-0.2-0.9c-0.1-0.5-0.2-1.2-0.5-1.9c-0.2-0.7-0.4-1.4-0.6-1.8
							c-0.2-0.5-0.4-0.8-0.4-0.8s0.4-0.1,1.2-0.2c0.8-0.2,1.9-0.4,3.2-0.9c1.3-0.5,2.8-1.1,4.4-2.1
							C1034.8,524.6,1036.3,523.3,1037.6,521.4z"/>
					</g>
				</g>
			</g>
		</g>
		<circle id="XMLID_213_" class="st6" cx="1003.4" cy="534.9" r="23.4"/>
		<circle id="XMLID_131_" class="st17" cx="1003.3" cy="535.1" r="19.2"/>
		<circle id="XMLID_134_" class="st13" cx="1003.4" cy="534.9" r="2.8"/>
	</g>
</g>
</svg>
