<?xml version="1.0" encoding="utf-8"?>
<!-- Generator: Adobe Illustrator 19.0.0, SVG Export Plug-In . SVG Version: 6.00 Build 0)  -->
<svg version="1.1" id="Layer_1" xmlns="http://www.w3.org/2000/svg" xmlns:xlink="http://www.w3.org/1999/xlink" x="0px" y="0px"
	 viewBox="0 0 1920 1080" style="enable-background:new 0 0 1920 1080;" xml:space="preserve">
<style type="text/css">
	.st0{fill:#FFD82A;}
	.st1{fill:#00D499;}
	.st2{fill:#D8D8DB;}
	.st3{fill:#00AA84;}
	.st4{fill:#A1A199;}
	.st5{fill:#D0D0CC;}
	.st6{fill:#333333;}
	.st7{fill:#D49500;}
	.st8{fill:#4D4D4D;}
	.st9{fill:#F2F2F2;}
	.st10{fill:#CCCCCC;}
	.st11{fill:#E6E6E6;}
	.st12{fill:#006837;}
	.st13{fill:#FFFFFF;}
	.st14{clip-path:url(#XMLID_86_);}
	.st15{fill:none;}
	.st16{clip-path:url(#XMLID_132_);}
	.st17{fill:#FF653E;}
</style>
<g id="XMLID_344_">
	<rect id="XMLID_3_" x="1065" y="601.9" class="st0" width="22.8" height="7.5"/>
	<polygon id="XMLID_7_" class="st1" points="1088,594.3 1088,471 856,471 856,595 906,595 906,602 1038,602 1038,595 1065,595 
		1065,602 1088,602 1088,594.3 	"/>
	<rect id="XMLID_4_" x="906.1" y="601.9" class="st0" width="131.9" height="7.5"/>
	<polygon id="XMLID_9_" class="st2" points="847.7,455 832,455 832,464 848,464 848,626 856,626 856,463.6 856,455 	"/>
	<rect id="XMLID_2_" x="856.4" y="470.7" class="st3" width="6.6" height="123.8"/>
	<rect id="XMLID_5_" x="844.6" y="488.8" class="st4" width="3.2" height="39.2"/>
	<rect id="XMLID_6_" x="844.6" y="549.7" class="st4" width="3.2" height="23.4"/>
	<rect id="XMLID_8_" x="841.5" y="488.8" class="st5" width="3.2" height="39.2"/>
	<rect id="XMLID_10_" x="841.5" y="549.7" class="st5" width="3.2" height="23.4"/>
	<rect id="XMLID_11_" x="839" y="542.5" class="st6" width="8.8" height="3.5"/>
	<rect id="XMLID_12_" x="839" y="576.1" class="st6" width="8.8" height="3.5"/>
	<rect id="XMLID_13_" x="909.8" y="601.9" class="st7" width="2.4" height="4.7"/>
	<rect id="XMLID_14_" x="915.6" y="601.9" class="st7" width="2.4" height="4.7"/>
	<rect id="XMLID_15_" x="921.4" y="601.9" class="st7" width="2.4" height="4.7"/>
	<rect id="XMLID_17_" x="927.2" y="601.9" class="st7" width="2.4" height="4.7"/>
	<rect id="XMLID_16_" x="932.9" y="601.9" class="st7" width="2.4" height="4.7"/>
	<rect id="XMLID_18_" x="938.7" y="601.9" class="st7" width="2.4" height="4.7"/>
	<rect id="XMLID_20_" x="944.5" y="601.9" class="st7" width="2.4" height="4.7"/>
	<rect id="XMLID_19_" x="950.3" y="601.9" class="st7" width="2.4" height="4.7"/>
	<rect id="XMLID_21_" x="956.1" y="601.9" class="st7" width="2.4" height="4.7"/>
	<rect id="XMLID_23_" x="961.8" y="601.9" class="st7" width="2.4" height="4.7"/>
	<rect id="XMLID_22_" x="967.6" y="601.9" class="st7" width="2.4" height="4.7"/>
	<rect id="XMLID_24_" x="973.4" y="601.9" class="st7" width="2.4" height="4.7"/>
	<rect id="XMLID_26_" x="979.2" y="601.9" class="st7" width="2.4" height="4.7"/>
	<rect id="XMLID_25_" x="984.9" y="601.9" class="st7" width="2.4" height="4.7"/>
	<rect id="XMLID_27_" x="990.7" y="601.9" class="st7" width="2.4" height="4.7"/>
	<rect id="XMLID_29_" x="996.5" y="601.9" class="st7" width="2.4" height="4.7"/>
	<rect id="XMLID_28_" x="1002.3" y="601.9" class="st7" width="2.4" height="4.7"/>
	<rect id="XMLID_30_" x="1008.1" y="601.9" class="st7" width="2.4" height="4.7"/>
	<rect id="XMLID_32_" x="1013.8" y="601.9" class="st7" width="2.4" height="4.7"/>
	<rect id="XMLID_31_" x="1019.6" y="601.9" class="st7" width="2.4" height="4.7"/>
	<rect id="XMLID_33_" x="1025.4" y="601.9" class="st7" width="2.4" height="4.7"/>
	<rect id="XMLID_35_" x="1031.2" y="601.9" class="st7" width="2.4" height="4.7"/>
	<rect id="XMLID_37_" x="1066.6" y="602.2" class="st7" width="2.4" height="4.7"/>
	<rect id="XMLID_36_" x="1072.3" y="602.2" class="st7" width="2.4" height="4.7"/>
	<rect id="XMLID_34_" x="1078.1" y="602.2" class="st7" width="2.4" height="4.7"/>
	<rect id="XMLID_38_" x="1083.9" y="602.2" class="st7" width="2.4" height="4.7"/>
	<g id="XMLID_54_">
		<rect id="XMLID_40_" x="875.6" y="496.5" class="st6" width="17.5" height="26.1"/>
		<rect id="XMLID_41_" x="879.5" y="500.6" class="st8" width="10.2" height="18"/>
		<rect id="XMLID_42_" x="893.2" y="500.6" class="st9" width="5.1" height="3"/>
		<rect id="XMLID_43_" x="893.2" y="507.8" class="st9" width="5.1" height="3"/>
		<rect id="XMLID_44_" x="893.2" y="515" class="st9" width="5.1" height="3"/>
		<rect id="XMLID_45_" x="870.6" y="500.6" class="st9" width="5.1" height="3"/>
		<rect id="XMLID_46_" x="870.6" y="507.8" class="st9" width="5.1" height="3"/>
		<rect id="XMLID_47_" x="870.6" y="515" class="st9" width="5.1" height="3"/>
	</g>
	<g id="XMLID_39_">
		<rect id="XMLID_53_" x="875.8" y="533.3" class="st6" width="17.5" height="26.1"/>
		<rect id="XMLID_52_" x="879.6" y="537.4" class="st8" width="10.2" height="18"/>
		<rect id="XMLID_51_" x="893.3" y="537.4" class="st9" width="5.1" height="3"/>
		<rect id="XMLID_50_" x="893.3" y="544.6" class="st9" width="5.1" height="3"/>
		<rect id="XMLID_49_" x="893.3" y="551.8" class="st9" width="5.1" height="3"/>
		<rect id="XMLID_48_" x="870.7" y="537.4" class="st9" width="5.1" height="3"/>
		<rect id="XMLID_55_" x="870.7" y="544.6" class="st9" width="5.1" height="3"/>
		<rect id="XMLID_56_" x="870.7" y="551.8" class="st9" width="5.1" height="3"/>
	</g>
	<g id="XMLID_57_">
		<rect id="XMLID_58_" x="908.6" y="480.6" class="st0" width="18.5" height="54.8"/>
		<circle id="XMLID_59_" class="st7" cx="922.2" cy="488.1" r="2.9"/>
		<circle id="XMLID_60_" class="st7" cx="922.2" cy="496.2" r="2.9"/>
		<circle id="XMLID_61_" class="st7" cx="922.2" cy="504.3" r="2.9"/>
		<circle id="XMLID_63_" class="st7" cx="922.2" cy="512.5" r="2.9"/>
		<circle id="XMLID_65_" class="st7" cx="922.2" cy="520.6" r="2.9"/>
		<circle id="XMLID_67_" class="st7" cx="922.2" cy="528.7" r="2.9"/>
		<circle id="XMLID_68_" class="st7" cx="913.6" cy="488.1" r="2.9"/>
		<circle id="XMLID_66_" class="st7" cx="913.6" cy="496.2" r="2.9"/>
		<circle id="XMLID_64_" class="st7" cx="913.6" cy="504.3" r="2.9"/>
		<circle id="XMLID_62_" class="st7" cx="913.6" cy="512.5" r="2.9"/>
		<circle id="XMLID_69_" class="st7" cx="913.6" cy="520.6" r="2.9"/>
		<circle id="XMLID_70_" class="st7" cx="913.6" cy="528.7" r="2.9"/>
	</g>
	<g id="XMLID_71_">
		<rect id="XMLID_72_" x="935.7" y="480.6" class="st9" width="32.3" height="13.5"/>
		<g id="XMLID_73_">
			<rect id="XMLID_74_" x="939.5" y="482.7" class="st10" width="10" height="9.3"/>
			<rect id="XMLID_75_" x="954.2" y="482.7" class="st10" width="10" height="9.3"/>
		</g>
	</g>
	<rect id="XMLID_76_" x="908.3" y="546.6" class="st6" width="33.8" height="17.1"/>
	<rect id="XMLID_77_" x="910.9" y="549.3" class="st8" width="28.5" height="11.7"/>
	<rect id="XMLID_78_" x="912.2" y="554.6" class="st6" width="13" height="1.9"/>
	<rect id="XMLID_79_" x="928.8" y="554.6" class="st6" width="8.7" height="1.9"/>
	<g id="XMLID_80_">
		<circle id="XMLID_81_" class="st11" cx="939.9" cy="578.2" r="6.8"/>
		<path id="XMLID_82_" class="st10" d="M935.2,573.2c2.7-2.7,7-2.7,9.7,0s2.7,7,0,9.7"/>
	</g>
	<g id="XMLID_83_">
		<circle id="XMLID_84_" class="st11" cx="956.1" cy="578.2" r="6.8"/>
		<path id="XMLID_85_" class="st10" d="M951.4,573.2c2.7-2.7,7-2.7,9.7,0s2.7,7,0,9.7"/>
	</g>
	<g id="XMLID_90_">
		<rect id="XMLID_98_" x="1059" y="483.3" class="st6" width="17.5" height="26.1"/>
		<rect id="XMLID_97_" x="1062.8" y="487.3" class="st8" width="10.2" height="18"/>
		<rect id="XMLID_96_" x="1076.5" y="487.3" class="st9" width="5.1" height="3"/>
		<rect id="XMLID_95_" x="1076.5" y="494.5" class="st9" width="5.1" height="3"/>
		<rect id="XMLID_94_" x="1076.5" y="501.7" class="st9" width="5.1" height="3"/>
		<rect id="XMLID_93_" x="1053.9" y="487.3" class="st9" width="5.1" height="3"/>
		<rect id="XMLID_92_" x="1053.9" y="494.5" class="st9" width="5.1" height="3"/>
		<rect id="XMLID_91_" x="1053.9" y="501.7" class="st9" width="5.1" height="3"/>
	</g>
	<g id="XMLID_99_">
		<rect id="XMLID_107_" x="1059" y="517" class="st6" width="17.5" height="26.1"/>
		<rect id="XMLID_106_" x="1062.8" y="521" class="st8" width="10.2" height="18"/>
		<rect id="XMLID_105_" x="1076.5" y="521" class="st9" width="5.1" height="3"/>
		<rect id="XMLID_104_" x="1076.5" y="528.2" class="st9" width="5.1" height="3"/>
		<rect id="XMLID_103_" x="1076.5" y="535.4" class="st9" width="5.1" height="3"/>
		<rect id="XMLID_102_" x="1053.9" y="521" class="st9" width="5.1" height="3"/>
		<rect id="XMLID_101_" x="1053.9" y="528.2" class="st9" width="5.1" height="3"/>
		<rect id="XMLID_100_" x="1053.9" y="535.4" class="st9" width="5.1" height="3"/>
	</g>
	<g id="XMLID_124_">
		<rect id="XMLID_108_" x="1043.5" y="576.1" class="st6" width="38.4" height="9.8"/>
		<rect id="XMLID_109_" x="1046.1" y="578.3" class="st8" width="33" height="5.4"/>
		<rect id="XMLID_110_" x="1075.6" y="572.2" class="st9" width="2.5" height="3.9"/>
		<rect id="XMLID_111_" x="1070.9" y="572.2" class="st9" width="2.5" height="3.9"/>
		<rect id="XMLID_112_" x="1066.2" y="572.2" class="st9" width="2.5" height="3.9"/>
		<rect id="XMLID_113_" x="1061.4" y="572.2" class="st9" width="2.5" height="3.9"/>
		<rect id="XMLID_114_" x="1056.7" y="572.2" class="st9" width="2.5" height="3.9"/>
		<rect id="XMLID_115_" x="1051.9" y="572.2" class="st9" width="2.5" height="3.9"/>
		<rect id="XMLID_116_" x="1047.2" y="572.2" class="st9" width="2.5" height="3.9"/>
		<rect id="XMLID_123_" x="1075.6" y="585.9" class="st9" width="2.5" height="3.9"/>
		<rect id="XMLID_122_" x="1070.9" y="585.9" class="st9" width="2.5" height="3.9"/>
		<rect id="XMLID_121_" x="1066.1" y="585.9" class="st9" width="2.5" height="3.9"/>
		<rect id="XMLID_120_" x="1061.4" y="585.9" class="st9" width="2.5" height="3.9"/>
		<rect id="XMLID_119_" x="1056.6" y="585.9" class="st9" width="2.5" height="3.9"/>
		<rect id="XMLID_118_" x="1051.9" y="585.9" class="st9" width="2.5" height="3.9"/>
		<rect id="XMLID_117_" x="1047.1" y="585.9" class="st9" width="2.5" height="3.9"/>
	</g>
	<g id="XMLID_241_">
		<circle id="XMLID_87_" class="st12" cx="1004.4" cy="536.6" r="44.8"/>
		<circle id="XMLID_88_" class="st13" cx="1004.4" cy="536.6" r="41.5"/>
		<circle id="XMLID_89_" class="st6" cx="1004.4" cy="536.7" r="38.6"/>
		<circle id="XMLID_212_" class="st6" cx="1004.4" cy="536.7" r="38.6"/>
		<g id="XMLID_125_">
			<defs>
				<circle id="XMLID_126_" cx="1004.5" cy="536.7" r="35"/>
			</defs>
			<clipPath id="XMLID_86_">
				<use xlink:href="#XMLID_126_"  style="overflow:visible;"/>
			</clipPath>
			<g id="XMLID_127_" class="st14">
				<g id="XMLID_239_">
					<path id="XMLID_240_" class="st0" d="M1041.1,536c0,0,0.4,1,0.7,3c0.2,1.9,0,4.8-1.3,8c0,0-0.3,0.1-1,0.2
						c-0.7,0.1-1.6,0.2-2.9,0.1c-1.3-0.1-2.8-0.4-4.6-1c-1.8-0.6-3.9-1.4-6.3-2.5c0,0,0.1-0.4,0.2-0.9c0-0.1,0.1-0.3,0.1-0.4
						c0-0.2,0-0.3,0-0.5c0-0.3,0.1-0.7,0.1-1c0.1-0.7,0-1.4,0-1.9c0-0.5,0-0.9,0-0.9s0.4,0.1,1.2,0.2c0.8,0.1,1.9,0.3,3.3,0.3
						c1.4,0.1,3,0,4.8-0.4C1037.1,538,1039.1,537.3,1041.1,536z"/>
				</g>
				<g id="XMLID_237_">
					<path id="XMLID_238_" class="st0" d="M1038.6,549c0,0,0,0.3,0,0.8c0,0.5-0.2,1.3-0.4,2.2c-0.1,0.5-0.3,1-0.5,1.5
						c-0.2,0.5-0.5,1.1-0.9,1.7c-0.3,0.6-0.7,1.3-1.2,1.9c-0.5,0.6-1,1.2-1.6,1.9c0,0-0.4,0-1-0.1c-0.6-0.1-1.6-0.4-2.7-1
						c-1.1-0.6-2.5-1.4-4-2.6c-1.5-1.2-3.1-2.7-5-4.6c0,0,0.2-0.3,0.5-0.8c0.3-0.5,0.6-1.1,0.9-1.7c0.3-0.6,0.5-1.3,0.7-1.8
						c0.1-0.1,0.1-0.2,0.1-0.3c0-0.1,0.1-0.2,0.1-0.3c0-0.1,0.1-0.2,0.1-0.2s0.4,0.3,1.1,0.7c0.7,0.4,1.7,1,3,1.5
						c1.3,0.5,2.8,1.1,4.6,1.4C1034.2,549.5,1036.4,549.6,1038.6,549z"/>
				</g>
				<g id="XMLID_235_">
					<path id="XMLID_236_" class="st0" d="M1031.7,560.3c0,0-0.1,0.3-0.3,0.7c-0.1,0.2-0.3,0.5-0.4,0.9c-0.2,0.3-0.4,0.7-0.7,1.1
						c-0.6,0.8-1.3,1.7-2.4,2.6c-0.5,0.4-1.1,0.9-1.8,1.3c-0.7,0.4-1.4,0.8-2.2,1.1c0,0-0.3-0.1-0.9-0.5c-0.6-0.4-1.3-0.9-2.2-1.9
						c-0.9-0.9-1.8-2.2-2.8-3.9c-1-1.6-2-3.7-3-6.1c0,0,0.1-0.1,0.2-0.1c0.1-0.1,0.3-0.2,0.5-0.4c0.4-0.4,1-0.8,1.5-1.3
						c0.5-0.5,1-1,1.4-1.4c0.3-0.4,0.5-0.7,0.5-0.7s0.3,0.4,0.8,1c0.5,0.6,1.2,1.5,2.2,2.5c1,1,2.2,2,3.8,3c0.8,0.5,1.7,0.9,2.6,1.3
						C1029.4,559.9,1030.5,560.1,1031.7,560.3z"/>
				</g>
				<g id="XMLID_233_">
					<path id="XMLID_234_" class="st0" d="M1021.1,568.3c0,0-0.2,0.2-0.6,0.6c-0.2,0.2-0.4,0.4-0.7,0.6c-0.2,0.1-0.3,0.2-0.5,0.4
						c-0.2,0.1-0.4,0.2-0.6,0.4c-0.4,0.2-0.9,0.5-1.4,0.8c-0.5,0.2-1.1,0.6-1.8,0.7c-1.3,0.4-2.9,0.8-4.6,0.8c0,0-1.1-1-2-3.3
						c-0.5-1.2-0.9-2.7-1.2-4.6c-0.3-1.9-0.5-4.1-0.6-6.7c0,0,0.1,0,0.2-0.1c0.2,0,0.4-0.1,0.6-0.2c0.3-0.1,0.6-0.2,0.9-0.3
						c0.2-0.1,0.3-0.1,0.5-0.2c0.2-0.1,0.3-0.1,0.5-0.2c0.3-0.1,0.6-0.3,1-0.4c0.2-0.1,0.3-0.1,0.4-0.2c0.1-0.1,0.3-0.1,0.4-0.2
						c0.5-0.3,0.8-0.4,0.8-0.4s0.1,0.4,0.3,1.2c0.2,0.8,0.6,1.8,1.2,3.1c0.6,1.3,1.3,2.7,2.5,4.2
						C1017.6,565.7,1019,567.1,1021.1,568.3z"/>
				</g>
				<g id="XMLID_231_">
					<path id="XMLID_232_" class="st0" d="M1008.3,571.9c0,0-1,0.5-2.9,1c-0.5,0.1-1,0.2-1.6,0.2c-0.6,0-1.2,0.1-1.9,0
						c-0.7,0-1.4-0.1-2.2-0.3c-0.8-0.2-1.6-0.3-2.4-0.6c0,0-0.6-1.3-0.6-3.9c0-1.3,0.1-2.8,0.5-4.7c0.4-1.9,1-4,1.9-6.5
						c0,0,0.4,0,0.9,0.1c0.5,0.1,1.3,0,2,0c0.4,0,0.7,0,1,0c0.3,0,0.6-0.1,0.9-0.1c0.5-0.1,0.9-0.1,0.9-0.1s-0.1,0.4-0.1,1.2
						c-0.1,0.8-0.1,1.9,0,3.3c0.1,1.4,0.3,3.1,0.8,4.8C1006,568.2,1006.8,570.1,1008.3,571.9z"/>
				</g>
				<g id="XMLID_229_">
					<path id="XMLID_230_" class="st0" d="M995.1,570.7c0,0-0.3,0-0.8,0.1c-0.5,0-1.3-0.1-2.2-0.2c-0.5-0.1-1-0.2-1.6-0.3
						c-0.6-0.2-1.2-0.4-1.8-0.7c-0.3-0.1-0.6-0.3-1-0.4c-0.2-0.1-0.3-0.2-0.5-0.3c-0.2-0.1-0.3-0.2-0.5-0.3c-0.7-0.4-1.3-0.9-2-1.4
						c0,0,0-0.4,0.1-1c0.1-0.7,0.3-1.6,0.8-2.8c0.5-1.2,1.2-2.6,2.2-4.2c1-1.6,2.4-3.4,4.1-5.4c0,0,0.3,0.2,0.8,0.4
						c0.5,0.2,1.2,0.5,1.8,0.8c0.3,0.2,0.7,0.2,1,0.3c0.3,0.1,0.6,0.2,0.9,0.3c0.3,0.1,0.5,0.1,0.6,0.2c0.2,0,0.2,0,0.2,0
						s-0.2,0.4-0.6,1.1c-0.3,0.7-0.8,1.8-1.2,3.1c-0.4,1.3-0.8,2.9-1,4.7c-0.1,0.9-0.1,1.9,0,2.9c0.1,0.5,0.1,1.1,0.2,1.6
						C994.8,569.6,995,570.2,995.1,570.7z"/>
				</g>
				<g id="XMLID_227_">
					<path id="XMLID_228_" class="st0" d="M983.3,564.8c0,0-0.3-0.1-0.8-0.2c-0.2-0.1-0.6-0.2-0.9-0.4c-0.3-0.2-0.7-0.4-1.1-0.6
						c-0.8-0.5-1.8-1.2-2.8-2.2c-0.5-0.5-1-1-1.5-1.6c-0.5-0.6-0.9-1.3-1.3-2.1c0,0,0.1-0.3,0.4-0.9c0.3-0.6,0.8-1.4,1.7-2.3
						c0.9-1,2-2,3.6-3.1c1.5-1.1,3.5-2.3,5.8-3.5c0,0,0.1,0.1,0.2,0.2c0.1,0.1,0.2,0.3,0.4,0.5c0.4,0.4,0.9,0.9,1.4,1.4
						c0.6,0.4,1.1,0.9,1.5,1.2c0.2,0.2,0.4,0.3,0.5,0.4c0.1,0.1,0.2,0.1,0.2,0.1s-0.3,0.3-0.9,0.8c-0.6,0.6-1.4,1.4-2.3,2.4
						c-0.9,1.1-1.8,2.4-2.6,4.1c-0.4,0.8-0.8,1.7-1,2.8C983.5,562.6,983.3,563.6,983.3,564.8z"/>
				</g>
				<g id="XMLID_225_">
					<path id="XMLID_226_" class="st0" d="M974.3,555c0,0-0.2-0.2-0.6-0.5c-0.4-0.4-1-0.9-1.5-1.7c-0.3-0.4-0.6-0.8-0.9-1.3
						c-0.3-0.5-0.6-1.1-0.9-1.7c-0.5-1.3-1.1-2.8-1.3-4.5c0,0,0.9-1.1,3.1-2.3c1.1-0.6,2.6-1.1,4.5-1.6c1.9-0.5,4.1-0.9,6.7-1.2
						c0,0,0,0.1,0.1,0.2c0.1,0.1,0.2,0.4,0.3,0.6c0.1,0.2,0.2,0.5,0.4,0.8c0.1,0.3,0.3,0.6,0.5,0.9c0.4,0.6,0.7,1.2,1,1.7
						c0.3,0.4,0.5,0.7,0.5,0.7s-0.4,0.1-1.2,0.5c-0.7,0.3-1.8,0.8-3,1.5c-1.2,0.7-2.6,1.6-3.9,2.9
						C976.6,551.3,975.3,552.8,974.3,555z"/>
				</g>
				<g id="XMLID_223_">
					<path id="XMLID_224_" class="st0" d="M969.5,542.6c0,0-0.6-0.9-1.2-2.8c-0.2-0.9-0.5-2.1-0.6-3.5c-0.1-0.7,0-1.4,0.1-2.2
						c0-0.4,0.1-0.8,0.1-1.2c0.1-0.4,0.1-0.8,0.2-1.2c0,0,1.3-0.7,3.8-1c1.3-0.1,2.8-0.1,4.7,0.1c1.9,0.2,4.1,0.7,6.7,1.3
						c0,0,0,0.4,0,0.9c0,0.3,0,0.6,0,0.9c0,0.3,0.1,0.7,0.1,1.1c0,0.4,0.1,0.7,0.1,1c0.1,0.3,0.1,0.6,0.2,0.9
						c0.1,0.5,0.2,0.9,0.2,0.9s-0.5,0-1.2,0c-0.8,0-1.9,0.1-3.3,0.3c-1.4,0.2-3,0.6-4.7,1.2C973,539.9,971.3,541,969.5,542.6z"/>
				</g>
				<g id="XMLID_221_">
					<path id="XMLID_222_" class="st0" d="M969.5,529.4c0,0-0.1-0.3-0.1-0.8c0-0.5-0.1-1.3,0-2.2c0-0.5,0.1-1,0.2-1.6
						c0.1-0.6,0.3-1.2,0.5-1.9c0.4-1.3,1.1-2.7,2.1-4.2c0,0,0.3-0.1,1,0c0.7,0,1.7,0.1,2.9,0.5c1.2,0.3,2.7,0.9,4.4,1.8
						c1.7,0.9,3.6,2.1,5.7,3.6c0,0-0.1,0.3-0.3,0.8c-0.2,0.5-0.4,1.2-0.6,1.9c-0.1,0.3-0.2,0.7-0.2,1c-0.1,0.3-0.1,0.6-0.2,0.9
						c0,0.3-0.1,0.5-0.1,0.6c0,0.2,0,0.2,0,0.2s-0.4-0.2-1.2-0.5c-0.8-0.3-1.8-0.6-3.2-0.9c-1.4-0.3-3-0.6-4.8-0.5
						c-0.9,0-1.9,0.1-2.9,0.3C971.7,528.6,970.6,528.9,969.5,529.4z"/>
				</g>
				<g id="XMLID_219_">
					<path id="XMLID_220_" class="st0" d="M974.3,517c0,0,0-0.3,0.2-0.8c0.1-0.5,0.4-1.2,0.8-2.1c0.2-0.4,0.5-0.9,0.8-1.4
						c0.3-0.5,0.7-1,1.1-1.5c0.4-0.5,0.9-1.1,1.5-1.6c0.6-0.5,1.2-1,2-1.5c0,0,0.3,0.1,1,0.3c0.6,0.2,1.5,0.7,2.5,1.5
						c1,0.8,2.2,1.8,3.5,3.3c1.3,1.4,2.6,3.2,4,5.4c0,0-0.1,0.1-0.2,0.2c-0.1,0.1-0.3,0.3-0.5,0.5c-0.3,0.4-0.8,1-1.2,1.5
						c-0.4,0.6-0.8,1.2-1.1,1.6c-0.2,0.2-0.2,0.4-0.3,0.6c-0.1,0.1-0.1,0.2-0.1,0.2s-0.3-0.3-0.9-0.8c-0.6-0.5-1.5-1.2-2.6-2
						c-1.2-0.8-2.6-1.6-4.3-2.2c-0.9-0.3-1.8-0.6-2.8-0.8C976.6,517,975.5,517,974.3,517z"/>
				</g>
				<g id="XMLID_217_">
					<path id="XMLID_218_" class="st0" d="M983.3,507.2c0,0,0.1-0.2,0.4-0.7c0.3-0.4,0.8-1,1.5-1.7c0.4-0.3,0.8-0.7,1.2-1
						c0.2-0.2,0.5-0.4,0.7-0.5c0.3-0.2,0.6-0.3,0.9-0.5c0.6-0.3,1.3-0.7,2-1c0.4-0.2,0.7-0.3,1.1-0.4c0.4-0.1,0.8-0.2,1.2-0.3
						c0,0,1.2,0.8,2.6,2.9c0.7,1.1,1.4,2.5,2,4.3c0.7,1.8,1.2,4,1.8,6.5c0,0-0.1,0-0.2,0.1c-0.1,0-0.3,0.2-0.6,0.3
						c-0.2,0.1-0.5,0.3-0.8,0.5c-0.3,0.2-0.6,0.3-0.9,0.5c-0.6,0.4-1.2,0.8-1.6,1.1c-0.4,0.3-0.7,0.6-0.7,0.6s-0.2-0.4-0.6-1.1
						c-0.4-0.7-0.9-1.7-1.7-2.8c-0.8-1.1-1.8-2.4-3.2-3.6c-0.7-0.6-1.5-1.2-2.4-1.7C985.4,508.1,984.4,507.6,983.3,507.2z"/>
				</g>
				<g id="XMLID_215_">
					<path id="XMLID_216_" class="st0" d="M995.1,501.3c0,0,0.2-0.2,0.7-0.5c0.4-0.3,1.1-0.7,2-1c0.9-0.3,2.1-0.7,3.4-0.9
						c0.7-0.1,1.4-0.1,2.2-0.1c0.8,0,1.6,0,2.5,0.2c0,0,0.9,1.2,1.3,3.7c0.2,1.2,0.4,2.8,0.4,4.7c0,1.9-0.3,4.1-0.7,6.7
						c0,0-0.4,0-0.9,0.1c-0.3,0-0.6,0.1-0.9,0.1c-0.3,0.1-0.7,0.1-1,0.2c-0.3,0.1-0.7,0.1-1,0.2c-0.3,0-0.6,0.2-0.9,0.3
						c-0.5,0.2-0.8,0.3-0.8,0.3s0-0.5-0.1-1.2c-0.1-0.8-0.3-1.9-0.6-3.3c-0.3-1.4-0.8-2.9-1.7-4.6
						C998.1,504.5,997,502.9,995.1,501.3z"/>
				</g>
				<g id="XMLID_210_">
					<path id="XMLID_214_" class="st0" d="M1008.3,500.1c0,0,0.1,0,0.2-0.1c0.1,0,0.3-0.1,0.6-0.1c0.5-0.1,1.3-0.2,2.2-0.2
						c1-0.1,2.2,0.1,3.5,0.4c0.3,0.1,0.7,0.2,1,0.3c0.4,0.1,0.7,0.2,1.1,0.4c0.7,0.3,1.5,0.6,2.3,1c0,0,0.1,0.3,0.1,1
						c0,0.7,0,1.7-0.2,2.9c-0.2,1.3-0.7,2.8-1.4,4.5c-0.7,1.8-1.8,3.8-3.1,6c0,0-0.3-0.1-0.9-0.3c-0.3-0.1-0.6-0.1-0.9-0.2
						c-0.3-0.1-0.7-0.1-1-0.2c-0.2,0-0.3-0.1-0.5-0.1c-0.2,0-0.3,0-0.5,0c-0.3,0-0.6-0.1-0.9-0.1c-0.3,0-0.5,0-0.6-0.1
						c-0.2,0-0.2,0-0.2,0c0,0,0.1-0.4,0.3-1.2c0.2-0.8,0.5-1.9,0.6-3.3c0.2-1.4,0.3-3,0.1-4.8C1010,504.2,1009.5,502.2,1008.3,500.1
						z"/>
				</g>
				<g id="XMLID_208_">
					<path id="XMLID_209_" class="st0" d="M1021.1,503.7c0,0,0.3,0,0.8,0.1c0.5,0.1,1.2,0.3,2.2,0.6c0.5,0.2,1,0.4,1.5,0.6
						c0.5,0.3,1.1,0.6,1.6,1c0.6,0.4,1.2,0.8,1.7,1.3c0.6,0.5,1.1,1.1,1.7,1.8c0,0-0.1,1.4-1.5,3.6c-0.7,1.1-1.6,2.4-2.9,3.7
						c-1.3,1.4-3,2.9-5,4.5c0,0-0.3-0.2-0.7-0.6c-0.5-0.3-1.1-0.7-1.7-1.1c-0.6-0.3-1.3-0.7-1.7-0.9c-0.2-0.1-0.4-0.2-0.6-0.3
						c-0.1-0.1-0.2-0.1-0.2-0.1s0.3-0.4,0.8-1c0.5-0.6,1.1-1.6,1.8-2.8c0.7-1.2,1.4-2.7,1.8-4.5
						C1021.1,508.1,1021.4,506,1021.1,503.7z"/>
				</g>
				<g id="XMLID_203_">
					<path id="XMLID_207_" class="st0" d="M1031.7,511.7c0,0,0.3,0.1,0.7,0.4c0.2,0.1,0.5,0.3,0.8,0.5c0.3,0.2,0.6,0.5,1,0.8
						c0.4,0.3,0.7,0.7,1.1,1.1c0.2,0.2,0.4,0.4,0.6,0.7c0.2,0.3,0.4,0.5,0.6,0.8c0.4,0.6,0.8,1.2,1.1,1.9c0.4,0.7,0.6,1.5,0.9,2.3
						c0,0-0.2,0.3-0.6,0.8c-0.4,0.5-1.1,1.2-2.1,2c-1,0.8-2.4,1.6-4.1,2.4c-1.7,0.8-3.8,1.6-6.3,2.4c0,0,0-0.1-0.1-0.2
						c0-0.1-0.1-0.2-0.1-0.2c-0.1-0.1-0.1-0.2-0.2-0.3c-0.3-0.4-0.7-1-1.1-1.6c-0.5-0.5-0.9-1.1-1.3-1.5c-0.4-0.4-0.6-0.6-0.6-0.6
						s0.4-0.2,1.1-0.7c0.7-0.4,1.6-1.1,2.7-2c1.1-0.9,2.2-2,3.3-3.5c0.5-0.7,1.1-1.6,1.5-2.5C1031,513.9,1031.4,512.9,1031.7,511.7z
						"/>
				</g>
				<g id="XMLID_201_">
					<path id="XMLID_202_" class="st0" d="M1038.6,523c0,0,0.2,0.2,0.5,0.6c0.2,0.2,0.3,0.5,0.6,0.8c0.2,0.3,0.5,0.7,0.7,1.1
						c0.4,0.9,0.9,2,1.2,3.3c0.1,0.7,0.3,1.4,0.3,2.2c0,0.4,0.1,0.8,0.1,1.2c0,0.4,0,0.8-0.1,1.3c0,0-1.1,1-3.5,1.7
						c-1.2,0.4-2.8,0.6-4.7,0.8c-1.9,0.1-4.1,0.1-6.8,0c0,0-0.1-0.4-0.2-0.9c-0.1-0.5-0.2-1.2-0.5-1.9c-0.2-0.7-0.4-1.4-0.6-1.8
						c-0.2-0.5-0.4-0.8-0.4-0.8s0.4-0.1,1.2-0.2c0.8-0.2,1.9-0.4,3.2-0.9c1.3-0.5,2.8-1.1,4.4-2.1
						C1035.8,526.3,1037.3,524.9,1038.6,523z"/>
				</g>
			</g>
		</g>
		<circle id="XMLID_128_" class="st15" cx="1004.3" cy="536.7" r="23.1"/>
		<g id="XMLID_129_">
			<defs>
				<circle id="XMLID_130_" cx="1004.5" cy="536.7" r="35"/>
			</defs>
			<clipPath id="XMLID_132_">
				<use xlink:href="#XMLID_130_"  style="overflow:visible;"/>
			</clipPath>
			<g id="XMLID_140_" class="st16">
				<g id="XMLID_200_">
					<path id="XMLID_211_" class="st0" d="M1041.1,536c0,0,0.4,1,0.7,3c0.2,1.9,0,4.8-1.3,8c0,0-0.3,0.1-1,0.2
						c-0.7,0.1-1.6,0.2-2.9,0.1c-1.3-0.1-2.8-0.4-4.6-1c-1.8-0.6-3.9-1.4-6.3-2.5c0,0,0.1-0.4,0.2-0.9c0-0.1,0.1-0.3,0.1-0.4
						c0-0.2,0-0.3,0-0.5c0-0.3,0.1-0.7,0.1-1c0.1-0.7,0-1.4,0-1.9c0-0.5,0-0.9,0-0.9s0.4,0.1,1.2,0.2c0.8,0.1,1.9,0.3,3.3,0.3
						c1.4,0.1,3,0,4.8-0.4C1037.1,538,1039.1,537.3,1041.1,536z"/>
				</g>
				<g id="XMLID_195_">
					<path id="XMLID_196_" class="st0" d="M1038.6,549c0,0,0,0.3,0,0.8c0,0.5-0.2,1.3-0.4,2.2c-0.1,0.5-0.3,1-0.5,1.5
						c-0.2,0.5-0.5,1.1-0.9,1.7c-0.3,0.6-0.7,1.3-1.2,1.9c-0.5,0.6-1,1.2-1.6,1.9c0,0-0.4,0-1-0.1c-0.6-0.1-1.6-0.4-2.7-1
						c-1.1-0.6-2.5-1.4-4-2.6c-1.5-1.2-3.1-2.7-5-4.6c0,0,0.2-0.3,0.5-0.8c0.3-0.5,0.6-1.1,0.9-1.7c0.3-0.6,0.5-1.3,0.7-1.8
						c0.1-0.1,0.1-0.2,0.1-0.3c0-0.1,0.1-0.2,0.1-0.3c0-0.1,0.1-0.2,0.1-0.2s0.4,0.3,1.1,0.7c0.7,0.4,1.7,1,3,1.5
						c1.3,0.5,2.8,1.1,4.6,1.4C1034.2,549.5,1036.4,549.6,1038.6,549z"/>
				</g>
				<g id="XMLID_193_">
					<path id="XMLID_194_" class="st0" d="M1031.7,560.3c0,0-0.1,0.3-0.3,0.7c-0.1,0.2-0.3,0.5-0.4,0.9c-0.2,0.3-0.4,0.7-0.7,1.1
						c-0.6,0.8-1.3,1.7-2.4,2.6c-0.5,0.4-1.1,0.9-1.8,1.3c-0.7,0.4-1.4,0.8-2.2,1.1c0,0-0.3-0.1-0.9-0.5c-0.6-0.4-1.3-0.9-2.2-1.9
						c-0.9-0.9-1.8-2.2-2.8-3.9c-1-1.6-2-3.7-3-6.1c0,0,0.1-0.1,0.2-0.1c0.1-0.1,0.3-0.2,0.5-0.4c0.4-0.4,1-0.8,1.5-1.3
						c0.5-0.5,1-1,1.4-1.4c0.3-0.4,0.5-0.7,0.5-0.7s0.3,0.4,0.8,1c0.5,0.6,1.2,1.5,2.2,2.5c1,1,2.2,2,3.8,3c0.8,0.5,1.7,0.9,2.6,1.3
						C1029.4,559.9,1030.5,560.1,1031.7,560.3z"/>
				</g>
				<g id="XMLID_185_">
					<path id="XMLID_186_" class="st0" d="M1021.1,568.3c0,0-0.2,0.2-0.6,0.6c-0.2,0.2-0.4,0.4-0.7,0.6c-0.2,0.1-0.3,0.2-0.5,0.4
						c-0.2,0.1-0.4,0.2-0.6,0.4c-0.4,0.2-0.9,0.5-1.4,0.8c-0.5,0.2-1.1,0.6-1.8,0.7c-1.3,0.4-2.9,0.8-4.6,0.8c0,0-1.1-1-2-3.3
						c-0.5-1.2-0.9-2.7-1.2-4.6c-0.3-1.9-0.5-4.1-0.6-6.7c0,0,0.1,0,0.2-0.1c0.2,0,0.4-0.1,0.6-0.2c0.3-0.1,0.6-0.2,0.9-0.3
						c0.2-0.1,0.3-0.1,0.5-0.2c0.2-0.1,0.3-0.1,0.5-0.2c0.3-0.1,0.6-0.3,1-0.4c0.2-0.1,0.3-0.1,0.4-0.2c0.1-0.1,0.3-0.1,0.4-0.2
						c0.5-0.3,0.8-0.4,0.8-0.4s0.1,0.4,0.3,1.2c0.2,0.8,0.6,1.8,1.2,3.1c0.6,1.3,1.3,2.7,2.5,4.2
						C1017.6,565.7,1019,567.1,1021.1,568.3z"/>
				</g>
				<g id="XMLID_183_">
					<path id="XMLID_184_" class="st0" d="M1008.3,571.9c0,0-1,0.5-2.9,1c-0.5,0.1-1,0.2-1.6,0.2c-0.6,0-1.2,0.1-1.9,0
						c-0.7,0-1.4-0.1-2.2-0.3c-0.8-0.2-1.6-0.3-2.4-0.6c0,0-0.6-1.3-0.6-3.9c0-1.3,0.1-2.8,0.5-4.7c0.4-1.9,1-4,1.9-6.5
						c0,0,0.4,0,0.9,0.1c0.5,0.1,1.3,0,2,0c0.4,0,0.7,0,1,0c0.3,0,0.6-0.1,0.9-0.1c0.5-0.1,0.9-0.1,0.9-0.1s-0.1,0.4-0.1,1.2
						c-0.1,0.8-0.1,1.9,0,3.3c0.1,1.4,0.3,3.1,0.8,4.8C1006,568.2,1006.8,570.1,1008.3,571.9z"/>
				</g>
				<g id="XMLID_181_">
					<path id="XMLID_182_" class="st0" d="M995.1,570.7c0,0-0.3,0-0.8,0.1c-0.5,0-1.3-0.1-2.2-0.2c-0.5-0.1-1-0.2-1.6-0.3
						c-0.6-0.2-1.2-0.4-1.8-0.7c-0.3-0.1-0.6-0.3-1-0.4c-0.2-0.1-0.3-0.2-0.5-0.3c-0.2-0.1-0.3-0.2-0.5-0.3c-0.7-0.4-1.3-0.9-2-1.4
						c0,0,0-0.4,0.1-1c0.1-0.7,0.3-1.6,0.8-2.8c0.5-1.2,1.2-2.6,2.2-4.2c1-1.6,2.4-3.4,4.1-5.4c0,0,0.3,0.2,0.8,0.4
						c0.5,0.2,1.2,0.5,1.8,0.8c0.3,0.2,0.7,0.2,1,0.3c0.3,0.1,0.6,0.2,0.9,0.3c0.3,0.1,0.5,0.1,0.6,0.2c0.2,0,0.2,0,0.2,0
						s-0.2,0.4-0.6,1.1c-0.3,0.7-0.8,1.8-1.2,3.1c-0.4,1.3-0.8,2.9-1,4.7c-0.1,0.9-0.1,1.9,0,2.9c0.1,0.5,0.1,1.1,0.2,1.6
						C994.8,569.6,995,570.2,995.1,570.7z"/>
				</g>
				<g id="XMLID_179_">
					<path id="XMLID_180_" class="st0" d="M983.3,564.8c0,0-0.3-0.1-0.8-0.2c-0.2-0.1-0.6-0.2-0.9-0.4c-0.3-0.2-0.7-0.4-1.1-0.6
						c-0.8-0.5-1.8-1.2-2.8-2.2c-0.5-0.5-1-1-1.5-1.6c-0.5-0.6-0.9-1.3-1.3-2.1c0,0,0.1-0.3,0.4-0.9c0.3-0.6,0.8-1.4,1.7-2.3
						c0.9-1,2-2,3.6-3.1c1.5-1.1,3.5-2.3,5.8-3.5c0,0,0.1,0.1,0.2,0.2c0.1,0.1,0.2,0.3,0.4,0.5c0.4,0.4,0.9,0.9,1.4,1.4
						c0.6,0.4,1.1,0.9,1.5,1.2c0.2,0.2,0.4,0.3,0.5,0.4c0.1,0.1,0.2,0.1,0.2,0.1s-0.3,0.3-0.9,0.8c-0.6,0.6-1.4,1.4-2.3,2.4
						c-0.9,1.1-1.8,2.4-2.6,4.1c-0.4,0.8-0.8,1.7-1,2.8C983.5,562.6,983.3,563.6,983.3,564.8z"/>
				</g>
				<g id="XMLID_177_">
					<path id="XMLID_178_" class="st0" d="M974.3,555c0,0-0.2-0.2-0.6-0.5c-0.4-0.4-1-0.9-1.5-1.7c-0.3-0.4-0.6-0.8-0.9-1.3
						c-0.3-0.5-0.6-1.1-0.9-1.7c-0.5-1.3-1.1-2.8-1.3-4.5c0,0,0.9-1.1,3.1-2.3c1.1-0.6,2.6-1.1,4.5-1.6c1.9-0.5,4.1-0.9,6.7-1.2
						c0,0,0,0.1,0.1,0.2c0.1,0.1,0.2,0.4,0.3,0.6c0.1,0.2,0.2,0.5,0.4,0.8c0.1,0.3,0.3,0.6,0.5,0.9c0.4,0.6,0.7,1.2,1,1.7
						c0.3,0.4,0.5,0.7,0.5,0.7s-0.4,0.1-1.2,0.5c-0.7,0.3-1.8,0.8-3,1.5c-1.2,0.7-2.6,1.6-3.9,2.9
						C976.6,551.3,975.3,552.8,974.3,555z"/>
				</g>
				<g id="XMLID_175_">
					<path id="XMLID_176_" class="st0" d="M969.5,542.6c0,0-0.6-0.9-1.2-2.8c-0.2-0.9-0.5-2.1-0.6-3.5c-0.1-0.7,0-1.4,0.1-2.2
						c0-0.4,0.1-0.8,0.1-1.2c0.1-0.4,0.1-0.8,0.2-1.2c0,0,1.3-0.7,3.8-1c1.3-0.1,2.8-0.1,4.7,0.1c1.9,0.2,4.1,0.7,6.7,1.3
						c0,0,0,0.4,0,0.9c0,0.3,0,0.6,0,0.9c0,0.3,0.1,0.7,0.1,1.1c0,0.4,0.1,0.7,0.1,1c0.1,0.3,0.1,0.6,0.2,0.9
						c0.1,0.5,0.2,0.9,0.2,0.9s-0.5,0-1.2,0c-0.8,0-1.9,0.1-3.3,0.3c-1.4,0.2-3,0.6-4.7,1.2C973,539.9,971.3,541,969.5,542.6z"/>
				</g>
				<g id="XMLID_173_">
					<path id="XMLID_174_" class="st0" d="M969.5,529.4c0,0-0.1-0.3-0.1-0.8c0-0.5-0.1-1.3,0-2.2c0-0.5,0.1-1,0.2-1.6
						c0.1-0.6,0.3-1.2,0.5-1.9c0.4-1.3,1.1-2.7,2.1-4.2c0,0,0.3-0.1,1,0c0.7,0,1.7,0.1,2.9,0.5c1.2,0.3,2.7,0.9,4.4,1.8
						c1.7,0.9,3.6,2.1,5.7,3.6c0,0-0.1,0.3-0.3,0.8c-0.2,0.5-0.4,1.2-0.6,1.9c-0.1,0.3-0.2,0.7-0.2,1c-0.1,0.3-0.1,0.6-0.2,0.9
						c0,0.3-0.1,0.5-0.1,0.6c0,0.2,0,0.2,0,0.2s-0.4-0.2-1.2-0.5c-0.8-0.3-1.8-0.6-3.2-0.9c-1.4-0.3-3-0.6-4.8-0.5
						c-0.9,0-1.9,0.1-2.9,0.3C971.7,528.6,970.6,528.9,969.5,529.4z"/>
				</g>
				<g id="XMLID_171_">
					<path id="XMLID_172_" class="st0" d="M974.3,517c0,0,0-0.3,0.2-0.8c0.1-0.5,0.4-1.2,0.8-2.1c0.2-0.4,0.5-0.9,0.8-1.4
						c0.3-0.5,0.7-1,1.1-1.5c0.4-0.5,0.9-1.1,1.5-1.6c0.6-0.5,1.2-1,2-1.5c0,0,0.3,0.1,1,0.3c0.6,0.2,1.5,0.7,2.5,1.5
						c1,0.8,2.2,1.8,3.5,3.3c1.3,1.4,2.6,3.2,4,5.4c0,0-0.1,0.1-0.2,0.2c-0.1,0.1-0.3,0.3-0.5,0.5c-0.3,0.4-0.8,1-1.2,1.5
						c-0.4,0.6-0.8,1.2-1.1,1.6c-0.2,0.2-0.2,0.4-0.3,0.6c-0.1,0.1-0.1,0.2-0.1,0.2s-0.3-0.3-0.9-0.8c-0.6-0.5-1.5-1.2-2.6-2
						c-1.2-0.8-2.6-1.6-4.3-2.2c-0.9-0.3-1.8-0.6-2.8-0.8C976.6,517,975.5,517,974.3,517z"/>
				</g>
				<g id="XMLID_169_">
					<path id="XMLID_170_" class="st0" d="M983.3,507.2c0,0,0.1-0.2,0.4-0.7c0.3-0.4,0.8-1,1.5-1.7c0.4-0.3,0.8-0.7,1.2-1
						c0.2-0.2,0.5-0.4,0.7-0.5c0.3-0.2,0.6-0.3,0.9-0.5c0.6-0.3,1.3-0.7,2-1c0.4-0.2,0.7-0.3,1.1-0.4c0.4-0.1,0.8-0.2,1.2-0.3
						c0,0,1.2,0.8,2.6,2.9c0.7,1.1,1.4,2.5,2,4.3c0.7,1.8,1.2,4,1.8,6.5c0,0-0.1,0-0.2,0.1c-0.1,0-0.3,0.2-0.6,0.3
						c-0.2,0.1-0.5,0.3-0.8,0.5c-0.3,0.2-0.6,0.3-0.9,0.5c-0.6,0.4-1.2,0.8-1.6,1.1c-0.4,0.3-0.7,0.6-0.7,0.6s-0.2-0.4-0.6-1.1
						c-0.4-0.7-0.9-1.7-1.7-2.8c-0.8-1.1-1.8-2.4-3.2-3.6c-0.7-0.6-1.5-1.2-2.4-1.7C985.4,508.1,984.4,507.6,983.3,507.2z"/>
				</g>
				<g id="XMLID_167_">
					<path id="XMLID_168_" class="st0" d="M995.1,501.3c0,0,0.2-0.2,0.7-0.5c0.4-0.3,1.1-0.7,2-1c0.9-0.3,2.1-0.7,3.4-0.9
						c0.7-0.1,1.4-0.1,2.2-0.1c0.8,0,1.6,0,2.5,0.2c0,0,0.9,1.2,1.3,3.7c0.2,1.2,0.4,2.8,0.4,4.7c0,1.9-0.3,4.1-0.7,6.7
						c0,0-0.4,0-0.9,0.1c-0.3,0-0.6,0.1-0.9,0.1c-0.3,0.1-0.7,0.1-1,0.2c-0.3,0.1-0.7,0.1-1,0.2c-0.3,0-0.6,0.2-0.9,0.3
						c-0.5,0.2-0.8,0.3-0.8,0.3s0-0.5-0.1-1.2c-0.1-0.8-0.3-1.9-0.6-3.3c-0.3-1.4-0.8-2.9-1.7-4.6
						C998.1,504.5,997,502.9,995.1,501.3z"/>
				</g>
				<g id="XMLID_165_">
					<path id="XMLID_166_" class="st0" d="M1008.3,500.1c0,0,0.1,0,0.2-0.1c0.1,0,0.3-0.1,0.6-0.1c0.5-0.1,1.3-0.2,2.2-0.2
						c1-0.1,2.2,0.1,3.5,0.4c0.3,0.1,0.7,0.2,1,0.3c0.4,0.1,0.7,0.2,1.1,0.4c0.7,0.3,1.5,0.6,2.3,1c0,0,0.1,0.3,0.1,1
						c0,0.7,0,1.7-0.2,2.9c-0.2,1.3-0.7,2.8-1.4,4.5c-0.7,1.8-1.8,3.8-3.1,6c0,0-0.3-0.1-0.9-0.3c-0.3-0.1-0.6-0.1-0.9-0.2
						c-0.3-0.1-0.7-0.1-1-0.2c-0.2,0-0.3-0.1-0.5-0.1c-0.2,0-0.3,0-0.5,0c-0.3,0-0.6-0.1-0.9-0.1c-0.3,0-0.5,0-0.6-0.1
						c-0.2,0-0.2,0-0.2,0c0,0,0.1-0.4,0.3-1.2c0.2-0.8,0.5-1.9,0.6-3.3c0.2-1.4,0.3-3,0.1-4.8C1010,504.2,1009.5,502.2,1008.3,500.1
						z"/>
				</g>
				<g id="XMLID_159_">
					<path id="XMLID_160_" class="st0" d="M1021.1,503.7c0,0,0.3,0,0.8,0.1c0.5,0.1,1.2,0.3,2.2,0.6c0.5,0.2,1,0.4,1.5,0.6
						c0.5,0.3,1.1,0.6,1.6,1c0.6,0.4,1.2,0.8,1.7,1.3c0.6,0.5,1.1,1.1,1.7,1.8c0,0-0.1,1.4-1.5,3.6c-0.7,1.1-1.6,2.4-2.9,3.7
						c-1.3,1.4-3,2.9-5,4.5c0,0-0.3-0.2-0.7-0.6c-0.5-0.3-1.1-0.7-1.7-1.1c-0.6-0.3-1.3-0.7-1.7-0.9c-0.2-0.1-0.4-0.2-0.6-0.3
						c-0.1-0.1-0.2-0.1-0.2-0.1s0.3-0.4,0.8-1c0.5-0.6,1.1-1.6,1.8-2.8c0.7-1.2,1.4-2.7,1.8-4.5
						C1021.1,508.1,1021.4,506,1021.1,503.7z"/>
				</g>
				<g id="XMLID_157_">
					<path id="XMLID_158_" class="st0" d="M1031.7,511.7c0,0,0.3,0.1,0.7,0.4c0.2,0.1,0.5,0.3,0.8,0.5c0.3,0.2,0.6,0.5,1,0.8
						c0.4,0.3,0.7,0.7,1.1,1.1c0.2,0.2,0.4,0.4,0.6,0.7c0.2,0.3,0.4,0.5,0.6,0.8c0.4,0.6,0.8,1.2,1.1,1.9c0.4,0.7,0.6,1.5,0.9,2.3
						c0,0-0.2,0.3-0.6,0.8c-0.4,0.5-1.1,1.2-2.1,2c-1,0.8-2.4,1.6-4.1,2.4c-1.7,0.8-3.8,1.6-6.3,2.4c0,0,0-0.1-0.1-0.2
						c0-0.1-0.1-0.2-0.1-0.2c-0.1-0.1-0.1-0.2-0.2-0.3c-0.3-0.4-0.7-1-1.1-1.6c-0.5-0.5-0.9-1.1-1.3-1.5c-0.4-0.4-0.6-0.6-0.6-0.6
						s0.4-0.2,1.1-0.7c0.7-0.4,1.6-1.1,2.7-2c1.1-0.9,2.2-2,3.3-3.5c0.5-0.7,1.1-1.6,1.5-2.5C1031,513.9,1031.4,512.9,1031.7,511.7z
						"/>
				</g>
				<g id="XMLID_141_">
					<path id="XMLID_156_" class="st0" d="M1038.6,523c0,0,0.2,0.2,0.5,0.6c0.2,0.2,0.3,0.5,0.6,0.8c0.2,0.3,0.5,0.7,0.7,1.1
						c0.4,0.9,0.9,2,1.2,3.3c0.1,0.7,0.3,1.4,0.3,2.2c0,0.4,0.1,0.8,0.1,1.2c0,0.4,0,0.8-0.1,1.3c0,0-1.1,1-3.5,1.7
						c-1.2,0.4-2.8,0.6-4.7,0.8c-1.9,0.1-4.1,0.1-6.8,0c0,0-0.1-0.4-0.2-0.9c-0.1-0.5-0.2-1.2-0.5-1.9c-0.2-0.7-0.4-1.4-0.6-1.8
						c-0.2-0.5-0.4-0.8-0.4-0.8s0.4-0.1,1.2-0.2c0.8-0.2,1.9-0.4,3.2-0.9c1.3-0.5,2.8-1.1,4.4-2.1
						C1035.8,526.3,1037.3,524.9,1038.6,523z"/>
				</g>
			</g>
		</g>
		<circle id="XMLID_213_" class="st6" cx="1004.4" cy="536.5" r="23.4"/>
		<circle id="XMLID_131_" class="st17" cx="1004.3" cy="536.7" r="19.2"/>
		<circle id="XMLID_134_" class="st13" cx="1004.4" cy="536.6" r="2.8"/>
	</g>
</g>
</svg>
