<?xml version="1.0" encoding="utf-8"?>
<!-- Generator: Adobe Illustrator 19.0.0, SVG Export Plug-In . SVG Version: 6.00 Build 0)  -->
<svg version="1.1" id="Layer_1" xmlns="http://www.w3.org/2000/svg" xmlns:xlink="http://www.w3.org/1999/xlink" x="0px" y="0px"
	 viewBox="0 0 1920 1080" style="enable-background:new 0 0 1920 1080;" xml:space="preserve">
<style type="text/css">
	.st0{fill:#00D499;}
	.st1{fill:#FFD82A;}
	.st2{fill:#D8D8DB;}
	.st3{fill:#00AA84;}
	.st4{fill:#A1A199;}
	.st5{fill:#D0D0CC;}
	.st6{fill:#333333;}
	.st7{fill:#D49500;}
	.st8{fill:#4D4D4D;}
	.st9{fill:#F2F2F2;}
	.st10{fill:#CCCCCC;}
	.st11{fill:#E6E6E6;}
	.st12{fill:#006837;}
	.st13{fill:#FFFFFF;}
	.st14{clip-path:url(#XMLID_2_);}
	.st15{fill:none;}
	.st16{clip-path:url(#XMLID_3_);}
	.st17{fill:#FF653E;}
	.st18{clip-path:url(#XMLID_4_);}
	.st19{clip-path:url(#XMLID_5_);}
	.st20{clip-path:url(#XMLID_6_);}
	.st21{clip-path:url(#XMLID_7_);}
</style>
<polygon id="XMLID_797_" class="st0" points="1044,471 812,471 812,595 862,595 862,602 994,602 994,595 1021,595 1021,602 
	1044,602 1044,602 1132,602 1132,471 "/>
<rect id="XMLID_796_" x="1021" y="601.9" class="st1" width="22.8" height="7.5"/>
<rect id="XMLID_795_" x="862.1" y="601.9" class="st1" width="131.9" height="7.5"/>
<polygon id="XMLID_794_" class="st2" points="803.7,455 788,455 788,464 804,464 804,626 812,626 812,463.6 812,455 "/>
<rect id="XMLID_793_" x="812.4" y="470.7" class="st3" width="6.6" height="123.8"/>
<rect id="XMLID_792_" x="800.6" y="488.8" class="st4" width="3.2" height="39.2"/>
<rect id="XMLID_791_" x="800.6" y="549.7" class="st4" width="3.2" height="23.4"/>
<rect id="XMLID_790_" x="797.5" y="488.8" class="st5" width="3.2" height="39.2"/>
<rect id="XMLID_789_" x="797.5" y="549.7" class="st5" width="3.2" height="23.4"/>
<rect id="XMLID_788_" x="795" y="542.5" class="st6" width="8.8" height="3.5"/>
<rect id="XMLID_787_" x="795" y="576.1" class="st6" width="8.8" height="3.5"/>
<rect id="XMLID_786_" x="865.8" y="601.9" class="st7" width="2.4" height="4.7"/>
<rect id="XMLID_785_" x="871.6" y="601.9" class="st7" width="2.4" height="4.7"/>
<rect id="XMLID_784_" x="877.4" y="601.9" class="st7" width="2.4" height="4.7"/>
<rect id="XMLID_783_" x="883.2" y="601.9" class="st7" width="2.4" height="4.7"/>
<rect id="XMLID_782_" x="888.9" y="601.9" class="st7" width="2.4" height="4.7"/>
<rect id="XMLID_781_" x="894.7" y="601.9" class="st7" width="2.4" height="4.7"/>
<rect id="XMLID_780_" x="900.5" y="601.9" class="st7" width="2.4" height="4.7"/>
<rect id="XMLID_779_" x="906.3" y="601.9" class="st7" width="2.4" height="4.7"/>
<rect id="XMLID_778_" x="912.1" y="601.9" class="st7" width="2.4" height="4.7"/>
<rect id="XMLID_777_" x="917.8" y="601.9" class="st7" width="2.4" height="4.7"/>
<rect id="XMLID_776_" x="923.6" y="601.9" class="st7" width="2.4" height="4.7"/>
<rect id="XMLID_775_" x="929.4" y="601.9" class="st7" width="2.4" height="4.7"/>
<rect id="XMLID_774_" x="935.2" y="601.9" class="st7" width="2.4" height="4.7"/>
<rect id="XMLID_773_" x="940.9" y="601.9" class="st7" width="2.4" height="4.7"/>
<rect id="XMLID_772_" x="946.7" y="601.9" class="st7" width="2.4" height="4.7"/>
<rect id="XMLID_771_" x="952.5" y="601.9" class="st7" width="2.4" height="4.7"/>
<rect id="XMLID_770_" x="958.3" y="601.9" class="st7" width="2.4" height="4.7"/>
<rect id="XMLID_769_" x="964.1" y="601.9" class="st7" width="2.4" height="4.7"/>
<rect id="XMLID_768_" x="969.8" y="601.9" class="st7" width="2.4" height="4.7"/>
<rect id="XMLID_767_" x="975.6" y="601.9" class="st7" width="2.4" height="4.7"/>
<rect id="XMLID_766_" x="981.4" y="601.9" class="st7" width="2.4" height="4.7"/>
<rect id="XMLID_765_" x="987.2" y="601.9" class="st7" width="2.4" height="4.7"/>
<rect id="XMLID_764_" x="1022.6" y="602.2" class="st7" width="2.4" height="4.7"/>
<rect id="XMLID_763_" x="1028.3" y="602.2" class="st7" width="2.4" height="4.7"/>
<rect id="XMLID_762_" x="1034.1" y="602.2" class="st7" width="2.4" height="4.7"/>
<rect id="XMLID_761_" x="1039.9" y="602.2" class="st7" width="2.4" height="4.7"/>
<g id="XMLID_752_">
	<rect id="XMLID_760_" x="909.1" y="475.7" class="st6" width="17.5" height="26.1"/>
	<rect id="XMLID_759_" x="912.9" y="479.8" class="st8" width="10.2" height="18"/>
	<rect id="XMLID_758_" x="926.6" y="479.8" class="st9" width="5.1" height="3"/>
	<rect id="XMLID_757_" x="926.6" y="487" class="st9" width="5.1" height="3"/>
	<rect id="XMLID_756_" x="926.6" y="494.2" class="st9" width="5.1" height="3"/>
	<rect id="XMLID_755_" x="904" y="479.8" class="st9" width="5.1" height="3"/>
	<rect id="XMLID_754_" x="904" y="487" class="st9" width="5.1" height="3"/>
	<rect id="XMLID_753_" x="904" y="494.2" class="st9" width="5.1" height="3"/>
</g>
<g id="XMLID_743_">
	<rect id="XMLID_751_" x="1007.6" y="475.7" class="st6" width="17.5" height="26.1"/>
	<rect id="XMLID_750_" x="1011.4" y="479.8" class="st8" width="10.2" height="18"/>
	<rect id="XMLID_749_" x="1025.1" y="479.8" class="st9" width="5.1" height="3"/>
	<rect id="XMLID_748_" x="1025.1" y="487" class="st9" width="5.1" height="3"/>
	<rect id="XMLID_747_" x="1025.1" y="494.1" class="st9" width="5.1" height="3"/>
	<rect id="XMLID_746_" x="1002.5" y="479.8" class="st9" width="5.1" height="3"/>
	<rect id="XMLID_745_" x="1002.5" y="487" class="st9" width="5.1" height="3"/>
	<rect id="XMLID_744_" x="1002.5" y="494.1" class="st9" width="5.1" height="3"/>
</g>
<g id="XMLID_729_">
	<rect id="XMLID_742_" x="843.5" y="475.8" class="st1" width="43.3" height="14.6"/>
	<circle id="XMLID_741_" class="st7" cx="880.9" cy="486.5" r="2.3"/>
	<circle id="XMLID_740_" class="st7" cx="874.5" cy="486.5" r="2.3"/>
	<circle id="XMLID_739_" class="st7" cx="868" cy="486.5" r="2.3"/>
	<circle id="XMLID_738_" class="st7" cx="861.6" cy="486.5" r="2.3"/>
	<circle id="XMLID_737_" class="st7" cx="855.2" cy="486.5" r="2.3"/>
	<circle id="XMLID_736_" class="st7" cx="848.8" cy="486.5" r="2.3"/>
	<circle id="XMLID_735_" class="st7" cx="880.9" cy="479.7" r="2.3"/>
	<circle id="XMLID_734_" class="st7" cx="874.5" cy="479.7" r="2.3"/>
	<circle id="XMLID_733_" class="st7" cx="868" cy="479.7" r="2.3"/>
	<circle id="XMLID_732_" class="st7" cx="861.6" cy="479.7" r="2.3"/>
	<circle id="XMLID_731_" class="st7" cx="855.2" cy="479.7" r="2.3"/>
	<circle id="XMLID_730_" class="st7" cx="848.8" cy="479.7" r="2.3"/>
</g>
<g id="XMLID_724_">
	<rect id="XMLID_728_" x="951.3" y="475.2" class="st9" width="32.3" height="13.5"/>
	<g id="XMLID_725_">
		<rect id="XMLID_727_" x="955.1" y="477.3" class="st10" width="10" height="9.3"/>
		<rect id="XMLID_726_" x="969.8" y="477.3" class="st10" width="10" height="9.3"/>
	</g>
</g>
<rect id="XMLID_723_" x="997.1" y="574.8" class="st6" width="33.8" height="17.1"/>
<rect id="XMLID_722_" x="999.8" y="577.5" class="st8" width="28.5" height="11.7"/>
<rect id="XMLID_721_" x="1001" y="582.8" class="st6" width="13" height="1.9"/>
<rect id="XMLID_720_" x="1017.6" y="582.8" class="st6" width="8.7" height="1.9"/>
<g id="XMLID_717_">
	<circle id="XMLID_719_" class="st11" cx="913.9" cy="585.2" r="6.8"/>
	<path id="XMLID_718_" class="st10" d="M909.2,580.2c2.7-2.7,7-2.7,9.7,0s2.7,7,0,9.7"/>
</g>
<g id="XMLID_714_">
	<circle id="XMLID_716_" class="st11" cx="930.1" cy="585.2" r="6.8"/>
	<path id="XMLID_715_" class="st10" d="M925.4,580.2c2.7-2.7,7-2.7,9.7,0s2.7,7,0,9.7"/>
</g>
<g id="XMLID_705_">
	<rect id="XMLID_713_" x="1102.6" y="481.1" class="st6" width="17.5" height="26.1"/>
	<rect id="XMLID_712_" x="1106.4" y="485.2" class="st8" width="10.2" height="18"/>
	<rect id="XMLID_711_" x="1120.1" y="485.2" class="st9" width="5.1" height="3"/>
	<rect id="XMLID_710_" x="1120.1" y="492.4" class="st9" width="5.1" height="3"/>
	<rect id="XMLID_709_" x="1120.1" y="499.6" class="st9" width="5.1" height="3"/>
	<rect id="XMLID_708_" x="1097.5" y="485.2" class="st9" width="5.1" height="3"/>
	<rect id="XMLID_707_" x="1097.5" y="492.4" class="st9" width="5.1" height="3"/>
	<rect id="XMLID_706_" x="1097.5" y="499.6" class="st9" width="5.1" height="3"/>
</g>
<g id="XMLID_688_">
	<rect id="XMLID_704_" x="1086.2" y="578.5" class="st6" width="38.4" height="9.8"/>
	<rect id="XMLID_703_" x="1088.9" y="580.7" class="st8" width="33" height="5.4"/>
	<rect id="XMLID_702_" x="1118.4" y="574.6" class="st9" width="2.5" height="3.9"/>
	<rect id="XMLID_701_" x="1113.7" y="574.6" class="st9" width="2.5" height="3.9"/>
	<rect id="XMLID_700_" x="1108.9" y="574.6" class="st9" width="2.5" height="3.9"/>
	<rect id="XMLID_699_" x="1104.2" y="574.6" class="st9" width="2.5" height="3.9"/>
	<rect id="XMLID_698_" x="1099.4" y="574.6" class="st9" width="2.5" height="3.9"/>
	<rect id="XMLID_697_" x="1094.7" y="574.6" class="st9" width="2.5" height="3.9"/>
	<rect id="XMLID_696_" x="1089.9" y="574.6" class="st9" width="2.5" height="3.9"/>
	<rect id="XMLID_695_" x="1118.4" y="588.3" class="st9" width="2.5" height="3.9"/>
	<rect id="XMLID_694_" x="1113.6" y="588.3" class="st9" width="2.5" height="3.9"/>
	<rect id="XMLID_693_" x="1108.9" y="588.3" class="st9" width="2.5" height="3.9"/>
	<rect id="XMLID_692_" x="1104.1" y="588.3" class="st9" width="2.5" height="3.9"/>
	<rect id="XMLID_691_" x="1099.4" y="588.3" class="st9" width="2.5" height="3.9"/>
	<rect id="XMLID_690_" x="1094.6" y="588.3" class="st9" width="2.5" height="3.9"/>
	<rect id="XMLID_689_" x="1089.9" y="588.3" class="st9" width="2.5" height="3.9"/>
</g>
<g id="XMLID_605_">
	<circle id="XMLID_687_" class="st12" cx="967.4" cy="537.3" r="44.8"/>
	<circle id="XMLID_686_" class="st13" cx="967.4" cy="537.3" r="41.5"/>
	<circle id="XMLID_685_" class="st6" cx="967.4" cy="537.4" r="38.6"/>
	<circle id="XMLID_684_" class="st6" cx="967.4" cy="537.4" r="38.6"/>
	<g id="XMLID_647_">
		<defs>
			<circle id="XMLID_648_" cx="967.5" cy="537.3" r="35"/>
		</defs>
		<clipPath id="XMLID_2_">
			<use xlink:href="#XMLID_648_"  style="overflow:visible;"/>
		</clipPath>
		<g id="XMLID_649_" class="st14">
			<g id="XMLID_682_">
				<path id="XMLID_683_" class="st1" d="M1004.1,536.7c0,0,0.4,1,0.7,3c0.2,1.9,0,4.8-1.3,8c0,0-0.3,0.1-1,0.2
					c-0.7,0.1-1.6,0.2-2.9,0.1c-1.3-0.1-2.8-0.4-4.6-1c-1.8-0.6-3.9-1.4-6.3-2.5c0,0,0.1-0.4,0.2-0.9c0-0.1,0.1-0.3,0.1-0.4
					c0-0.2,0-0.3,0-0.5c0-0.3,0.1-0.7,0.1-1c0.1-0.7,0-1.4,0-1.9c0-0.5,0-0.9,0-0.9s0.4,0.1,1.2,0.2c0.8,0.1,1.9,0.3,3.3,0.3
					c1.4,0.1,3,0,4.8-0.4C1000.1,538.7,1002.1,538,1004.1,536.7z"/>
			</g>
			<g id="XMLID_680_">
				<path id="XMLID_681_" class="st1" d="M1001.6,549.7c0,0,0,0.3,0,0.8c0,0.5-0.2,1.3-0.4,2.2c-0.1,0.5-0.3,1-0.5,1.5
					c-0.2,0.5-0.5,1.1-0.9,1.7c-0.3,0.6-0.7,1.3-1.2,1.9c-0.5,0.6-1,1.2-1.6,1.9c0,0-0.4,0-1-0.1c-0.6-0.1-1.6-0.4-2.7-1
					c-1.1-0.6-2.5-1.4-4-2.6c-1.5-1.2-3.1-2.7-5-4.6c0,0,0.2-0.3,0.5-0.8c0.3-0.5,0.6-1.1,0.9-1.7c0.3-0.6,0.5-1.3,0.7-1.8
					c0.1-0.1,0.1-0.2,0.1-0.3c0-0.1,0.1-0.2,0.1-0.3c0-0.1,0.1-0.2,0.1-0.2s0.4,0.3,1.1,0.7c0.7,0.4,1.7,1,3,1.5
					c1.3,0.5,2.8,1.1,4.6,1.4C997.2,550.2,999.4,550.3,1001.6,549.7z"/>
			</g>
			<g id="XMLID_678_">
				<path id="XMLID_679_" class="st1" d="M994.7,561c0,0-0.1,0.3-0.3,0.7c-0.1,0.2-0.3,0.5-0.4,0.9c-0.2,0.3-0.4,0.7-0.7,1.1
					c-0.6,0.8-1.3,1.7-2.4,2.6c-0.5,0.4-1.1,0.9-1.8,1.3c-0.7,0.4-1.4,0.8-2.2,1.1c0,0-0.3-0.1-0.9-0.5c-0.6-0.4-1.3-0.9-2.2-1.9
					c-0.9-0.9-1.8-2.2-2.8-3.9c-1-1.6-2-3.7-3-6.1c0,0,0.1-0.1,0.2-0.1c0.1-0.1,0.3-0.2,0.5-0.4c0.4-0.4,1-0.8,1.5-1.3
					c0.5-0.5,1-1,1.4-1.4c0.3-0.4,0.5-0.7,0.5-0.7s0.3,0.4,0.8,1c0.5,0.6,1.2,1.5,2.2,2.5c1,1,2.2,2,3.8,3c0.8,0.5,1.7,0.9,2.6,1.3
					C992.4,560.5,993.5,560.8,994.7,561z"/>
			</g>
			<g id="XMLID_676_">
				<path id="XMLID_677_" class="st1" d="M984.1,569c0,0-0.2,0.2-0.6,0.6c-0.2,0.2-0.4,0.4-0.7,0.6c-0.2,0.1-0.3,0.2-0.5,0.4
					c-0.2,0.1-0.4,0.2-0.6,0.4c-0.4,0.2-0.9,0.5-1.4,0.8c-0.5,0.3-1.1,0.6-1.8,0.7c-1.3,0.4-2.9,0.8-4.6,0.8c0,0-1.1-1-2-3.3
					c-0.5-1.2-0.9-2.7-1.2-4.6c-0.3-1.9-0.5-4.1-0.6-6.7c0,0,0.1,0,0.2-0.1c0.2,0,0.4-0.1,0.6-0.2c0.3-0.1,0.6-0.2,0.9-0.3
					c0.2-0.1,0.3-0.1,0.5-0.2c0.2-0.1,0.3-0.1,0.5-0.2c0.3-0.1,0.6-0.3,1-0.4c0.2-0.1,0.3-0.1,0.4-0.2c0.1-0.1,0.3-0.1,0.4-0.2
					c0.5-0.3,0.8-0.4,0.8-0.4s0.1,0.4,0.3,1.2c0.2,0.8,0.6,1.8,1.2,3.1c0.6,1.3,1.3,2.7,2.5,4.2C980.6,566.4,982,567.8,984.1,569z"
					/>
			</g>
			<g id="XMLID_674_">
				<path id="XMLID_675_" class="st1" d="M971.3,572.6c0,0-1,0.5-2.9,1c-0.5,0.1-1,0.2-1.6,0.2c-0.6,0-1.2,0.1-1.9,0
					c-0.7,0-1.4-0.1-2.2-0.3c-0.8-0.2-1.6-0.3-2.4-0.6c0,0-0.6-1.3-0.6-3.9c0-1.3,0.1-2.8,0.5-4.7c0.4-1.9,1-4,1.9-6.5
					c0,0,0.4,0,0.9,0.1c0.5,0.1,1.3,0,2,0c0.4,0,0.7,0,1,0c0.3,0,0.6-0.1,0.9-0.1c0.5-0.1,0.9-0.1,0.9-0.1s-0.1,0.4-0.1,1.2
					c-0.1,0.8-0.1,1.9,0,3.3c0.1,1.4,0.3,3.1,0.8,4.8C969,568.9,969.8,570.7,971.3,572.6z"/>
			</g>
			<g id="XMLID_672_">
				<path id="XMLID_673_" class="st1" d="M958.1,571.4c0,0-0.3,0-0.8,0.1c-0.5,0-1.3-0.1-2.2-0.2c-0.5-0.1-1-0.2-1.6-0.3
					c-0.6-0.2-1.2-0.4-1.8-0.7c-0.3-0.1-0.6-0.3-1-0.4c-0.2-0.1-0.3-0.2-0.5-0.3c-0.2-0.1-0.3-0.2-0.5-0.3c-0.7-0.4-1.3-0.9-2-1.4
					c0,0,0-0.4,0.1-1c0.1-0.7,0.3-1.6,0.8-2.8c0.5-1.2,1.2-2.6,2.2-4.2c1-1.6,2.4-3.4,4.1-5.4c0,0,0.3,0.2,0.8,0.4
					c0.5,0.2,1.2,0.5,1.8,0.8c0.3,0.2,0.7,0.2,1,0.3c0.3,0.1,0.6,0.2,0.9,0.3c0.3,0.1,0.5,0.1,0.6,0.2c0.2,0,0.2,0,0.2,0
					s-0.2,0.4-0.6,1.1c-0.3,0.7-0.8,1.8-1.2,3.1c-0.4,1.3-0.8,2.9-1,4.7c-0.1,0.9-0.1,1.9,0,2.9c0.1,0.5,0.1,1.1,0.2,1.6
					C957.8,570.3,958,570.8,958.1,571.4z"/>
			</g>
			<g id="XMLID_670_">
				<path id="XMLID_671_" class="st1" d="M946.3,565.5c0,0-0.3-0.1-0.8-0.2c-0.2-0.1-0.6-0.2-0.9-0.4c-0.3-0.2-0.7-0.4-1.1-0.6
					c-0.8-0.5-1.8-1.2-2.8-2.2c-0.5-0.5-1-1-1.5-1.6c-0.5-0.6-0.9-1.3-1.3-2.1c0,0,0.1-0.3,0.4-0.9c0.3-0.6,0.8-1.4,1.7-2.3
					c0.9-1,2-2,3.6-3.1c1.5-1.1,3.5-2.3,5.8-3.5c0,0,0.1,0.1,0.2,0.2c0.1,0.1,0.2,0.3,0.4,0.5c0.4,0.4,0.9,0.9,1.4,1.4
					c0.6,0.4,1.1,0.9,1.5,1.2c0.2,0.2,0.4,0.3,0.5,0.4c0.1,0.1,0.2,0.1,0.2,0.1s-0.3,0.3-0.9,0.8c-0.6,0.6-1.4,1.4-2.3,2.4
					c-0.9,1.1-1.8,2.4-2.6,4.1c-0.4,0.8-0.8,1.7-1,2.8C946.5,563.2,946.3,564.3,946.3,565.5z"/>
			</g>
			<g id="XMLID_668_">
				<path id="XMLID_669_" class="st1" d="M937.3,555.7c0,0-0.2-0.2-0.6-0.5c-0.4-0.4-1-0.9-1.5-1.7c-0.3-0.4-0.6-0.8-0.9-1.3
					c-0.3-0.5-0.6-1.1-0.9-1.7c-0.5-1.3-1.1-2.8-1.3-4.5c0,0,0.9-1.1,3.1-2.3c1.1-0.6,2.6-1.1,4.5-1.6c1.9-0.5,4.1-0.9,6.7-1.2
					c0,0,0,0.1,0.1,0.2c0.1,0.1,0.2,0.4,0.3,0.6c0.1,0.2,0.2,0.5,0.4,0.8c0.1,0.3,0.3,0.6,0.5,0.9c0.4,0.6,0.7,1.2,1,1.7
					c0.3,0.4,0.5,0.7,0.5,0.7s-0.4,0.1-1.2,0.5c-0.7,0.3-1.8,0.8-3,1.5c-1.2,0.7-2.6,1.6-3.9,2.9
					C939.6,551.9,938.3,553.5,937.3,555.7z"/>
			</g>
			<g id="XMLID_666_">
				<path id="XMLID_667_" class="st1" d="M932.5,543.3c0,0-0.6-0.9-1.2-2.8c-0.2-0.9-0.5-2.1-0.6-3.5c-0.1-0.7,0-1.4,0.1-2.2
					c0-0.4,0.1-0.8,0.1-1.2c0.1-0.4,0.1-0.8,0.2-1.2c0,0,1.3-0.7,3.8-1c1.3-0.1,2.8-0.1,4.7,0.1c1.9,0.2,4.1,0.7,6.7,1.3
					c0,0,0,0.4,0,0.9c0,0.3,0,0.6,0,0.9c0,0.3,0.1,0.7,0.1,1.1c0,0.4,0.1,0.7,0.1,1c0.1,0.3,0.1,0.6,0.2,0.9
					c0.1,0.5,0.2,0.9,0.2,0.9s-0.5,0-1.2,0c-0.8,0-1.9,0.1-3.3,0.3c-1.4,0.2-3,0.6-4.7,1.2C936,540.6,934.3,541.6,932.5,543.3z"/>
			</g>
			<g id="XMLID_664_">
				<path id="XMLID_665_" class="st1" d="M932.5,530.1c0,0-0.1-0.3-0.1-0.8c0-0.5-0.1-1.3,0-2.2c0-0.5,0.1-1,0.2-1.6
					c0.1-0.6,0.3-1.2,0.5-1.9c0.4-1.3,1.1-2.7,2.1-4.2c0,0,0.3-0.1,1,0c0.7,0,1.7,0.1,2.9,0.5c1.2,0.3,2.7,0.9,4.4,1.8
					c1.7,0.9,3.6,2.1,5.7,3.6c0,0-0.1,0.3-0.3,0.8c-0.2,0.5-0.4,1.2-0.6,1.9c-0.1,0.3-0.2,0.7-0.2,1c-0.1,0.3-0.1,0.6-0.2,0.9
					c0,0.3-0.1,0.5-0.1,0.6c0,0.2,0,0.2,0,0.2s-0.4-0.2-1.2-0.5c-0.8-0.3-1.8-0.6-3.2-0.9c-1.4-0.3-3-0.6-4.8-0.5
					c-0.9,0-1.9,0.1-2.9,0.3C934.7,529.3,933.6,529.6,932.5,530.1z"/>
			</g>
			<g id="XMLID_662_">
				<path id="XMLID_663_" class="st1" d="M937.3,517.7c0,0,0-0.3,0.2-0.8c0.1-0.5,0.4-1.2,0.8-2.1c0.2-0.4,0.5-0.9,0.8-1.4
					c0.3-0.5,0.7-1,1.1-1.5c0.4-0.5,0.9-1.1,1.5-1.6c0.6-0.5,1.2-1,2-1.5c0,0,0.3,0.1,1,0.3c0.6,0.2,1.5,0.7,2.5,1.5
					c1,0.8,2.2,1.8,3.5,3.3c1.3,1.4,2.6,3.2,4,5.4c0,0-0.1,0.1-0.2,0.2c-0.1,0.1-0.3,0.3-0.5,0.5c-0.3,0.4-0.8,1-1.2,1.5
					c-0.4,0.6-0.8,1.2-1.1,1.6c-0.2,0.2-0.2,0.4-0.3,0.6c-0.1,0.1-0.1,0.2-0.1,0.2s-0.3-0.3-0.9-0.8c-0.6-0.5-1.5-1.2-2.6-2
					c-1.2-0.8-2.6-1.6-4.3-2.2c-0.9-0.3-1.8-0.6-2.8-0.8C939.6,517.7,938.5,517.6,937.3,517.7z"/>
			</g>
			<g id="XMLID_660_">
				<path id="XMLID_661_" class="st1" d="M946.3,507.9c0,0,0.1-0.2,0.4-0.7c0.3-0.4,0.8-1,1.5-1.7c0.4-0.3,0.8-0.7,1.2-1
					c0.2-0.2,0.5-0.4,0.7-0.5c0.3-0.2,0.6-0.3,0.9-0.5c0.6-0.3,1.3-0.7,2-1c0.4-0.2,0.7-0.3,1.1-0.4c0.4-0.1,0.8-0.2,1.2-0.3
					c0,0,1.2,0.8,2.6,2.9c0.7,1.1,1.4,2.5,2,4.3c0.7,1.8,1.2,4,1.8,6.5c0,0-0.1,0-0.2,0.1c-0.1,0-0.3,0.2-0.6,0.3
					c-0.2,0.1-0.5,0.3-0.8,0.5c-0.3,0.2-0.6,0.3-0.9,0.5c-0.6,0.4-1.2,0.8-1.6,1.1c-0.4,0.3-0.7,0.6-0.7,0.6s-0.2-0.4-0.6-1.1
					c-0.4-0.7-0.9-1.7-1.7-2.8c-0.8-1.1-1.8-2.4-3.2-3.6c-0.7-0.6-1.5-1.2-2.4-1.7C948.4,508.8,947.4,508.3,946.3,507.9z"/>
			</g>
			<g id="XMLID_658_">
				<path id="XMLID_659_" class="st1" d="M958.1,502c0,0,0.2-0.2,0.7-0.5c0.4-0.3,1.1-0.7,2-1c0.9-0.3,2.1-0.7,3.4-0.9
					c0.7-0.1,1.4-0.1,2.2-0.1c0.8,0,1.6,0,2.5,0.2c0,0,0.9,1.2,1.3,3.7c0.2,1.2,0.4,2.8,0.4,4.7c0,1.9-0.3,4.1-0.7,6.7
					c0,0-0.4,0-0.9,0.1c-0.3,0-0.6,0.1-0.9,0.1c-0.3,0.1-0.7,0.1-1,0.2c-0.3,0.1-0.7,0.1-1,0.2c-0.3,0-0.6,0.2-0.9,0.3
					c-0.5,0.2-0.8,0.3-0.8,0.3s0-0.5-0.1-1.2c-0.1-0.8-0.3-1.9-0.6-3.3c-0.3-1.4-0.8-2.9-1.7-4.6C961.1,505.2,960,503.5,958.1,502z"
					/>
			</g>
			<g id="XMLID_656_">
				<path id="XMLID_657_" class="st1" d="M971.3,500.8c0,0,0.1,0,0.2-0.1c0.1,0,0.3-0.1,0.6-0.1c0.5-0.1,1.3-0.2,2.2-0.2
					c1-0.1,2.2,0.1,3.5,0.4c0.3,0.1,0.7,0.2,1,0.3c0.4,0.1,0.7,0.2,1.1,0.4c0.7,0.3,1.5,0.6,2.3,1c0,0,0.1,0.3,0.1,1
					c0,0.7,0,1.7-0.2,2.9c-0.2,1.3-0.7,2.8-1.4,4.5c-0.7,1.8-1.8,3.8-3.1,6c0,0-0.3-0.1-0.9-0.3c-0.3-0.1-0.6-0.1-0.9-0.2
					c-0.3-0.1-0.7-0.1-1-0.2c-0.2,0-0.3-0.1-0.5-0.1c-0.2,0-0.3,0-0.5,0c-0.3,0-0.6-0.1-0.9-0.1c-0.3,0-0.5,0-0.6-0.1
					c-0.2,0-0.2,0-0.2,0c0,0,0.1-0.4,0.3-1.2c0.2-0.8,0.5-1.9,0.6-3.3c0.2-1.4,0.3-3,0.1-4.8C973,504.9,972.5,502.8,971.3,500.8z"/>
			</g>
			<g id="XMLID_654_">
				<path id="XMLID_655_" class="st1" d="M984.1,504.4c0,0,0.3,0,0.8,0.1c0.5,0.1,1.2,0.3,2.2,0.6c0.5,0.2,1,0.4,1.5,0.6
					c0.5,0.3,1.1,0.6,1.6,1c0.6,0.4,1.2,0.8,1.7,1.3c0.6,0.5,1.1,1.1,1.7,1.8c0,0-0.1,1.4-1.5,3.6c-0.7,1.1-1.6,2.4-2.9,3.7
					c-1.3,1.4-3,2.9-5,4.5c0,0-0.3-0.2-0.7-0.6c-0.5-0.3-1.1-0.7-1.7-1.1c-0.6-0.3-1.3-0.7-1.7-0.9c-0.2-0.1-0.4-0.2-0.6-0.3
					c-0.1-0.1-0.2-0.1-0.2-0.1s0.3-0.4,0.8-1c0.5-0.6,1.1-1.6,1.8-2.8c0.7-1.2,1.4-2.7,1.8-4.5C984.1,508.8,984.4,506.7,984.1,504.4
					z"/>
			</g>
			<g id="XMLID_652_">
				<path id="XMLID_653_" class="st1" d="M994.7,512.4c0,0,0.3,0.1,0.7,0.4c0.2,0.1,0.5,0.3,0.8,0.5c0.3,0.2,0.6,0.5,1,0.8
					c0.4,0.3,0.7,0.7,1.1,1.1c0.2,0.2,0.4,0.4,0.6,0.7c0.2,0.3,0.4,0.5,0.6,0.8c0.4,0.6,0.8,1.2,1.1,1.9c0.4,0.7,0.6,1.5,0.9,2.3
					c0,0-0.2,0.3-0.6,0.8c-0.4,0.5-1.1,1.2-2.1,2c-1,0.8-2.4,1.6-4.1,2.4c-1.7,0.8-3.8,1.6-6.3,2.4c0,0,0-0.1-0.1-0.2
					c0-0.1-0.1-0.2-0.1-0.2c-0.1-0.1-0.1-0.2-0.2-0.3c-0.3-0.4-0.7-1-1.1-1.6c-0.5-0.5-0.9-1.1-1.3-1.5c-0.4-0.4-0.6-0.6-0.6-0.6
					s0.4-0.2,1.1-0.7c0.7-0.4,1.6-1.1,2.7-2c1.1-0.9,2.2-2,3.3-3.5c0.5-0.7,1.1-1.6,1.5-2.5C994,514.6,994.4,513.5,994.7,512.4z"/>
			</g>
			<g id="XMLID_650_">
				<path id="XMLID_651_" class="st1" d="M1001.6,523.6c0,0,0.2,0.2,0.5,0.6c0.2,0.2,0.3,0.5,0.6,0.8c0.2,0.3,0.5,0.7,0.7,1.1
					c0.4,0.9,0.9,2,1.2,3.3c0.1,0.7,0.3,1.4,0.3,2.2c0,0.4,0.1,0.8,0.1,1.2c0,0.4,0,0.8-0.1,1.3c0,0-1.1,1-3.5,1.7
					c-1.2,0.4-2.8,0.6-4.7,0.8c-1.9,0.1-4.1,0.1-6.8,0c0,0-0.1-0.4-0.2-0.9c-0.1-0.5-0.2-1.2-0.5-1.9c-0.2-0.7-0.4-1.4-0.6-1.8
					c-0.2-0.5-0.4-0.8-0.4-0.8s0.4-0.1,1.2-0.2c0.8-0.2,1.9-0.4,3.2-0.9c1.3-0.5,2.8-1.1,4.4-2.1
					C998.8,526.9,1000.3,525.6,1001.6,523.6z"/>
			</g>
		</g>
	</g>
	<circle id="XMLID_646_" class="st15" cx="967.3" cy="537.3" r="23.1"/>
	<g id="XMLID_609_">
		<defs>
			<circle id="XMLID_610_" cx="967.5" cy="537.3" r="35"/>
		</defs>
		<clipPath id="XMLID_3_">
			<use xlink:href="#XMLID_610_"  style="overflow:visible;"/>
		</clipPath>
		<g id="XMLID_611_" class="st16">
			<g id="XMLID_644_">
				<path id="XMLID_645_" class="st1" d="M1004.1,536.7c0,0,0.4,1,0.7,3c0.2,1.9,0,4.8-1.3,8c0,0-0.3,0.1-1,0.2
					c-0.7,0.1-1.6,0.2-2.9,0.1c-1.3-0.1-2.8-0.4-4.6-1c-1.8-0.6-3.9-1.4-6.3-2.5c0,0,0.1-0.4,0.2-0.9c0-0.1,0.1-0.3,0.1-0.4
					c0-0.2,0-0.3,0-0.5c0-0.3,0.1-0.7,0.1-1c0.1-0.7,0-1.4,0-1.9c0-0.5,0-0.9,0-0.9s0.4,0.1,1.2,0.2c0.8,0.1,1.9,0.3,3.3,0.3
					c1.4,0.1,3,0,4.8-0.4C1000.1,538.7,1002.1,538,1004.1,536.7z"/>
			</g>
			<g id="XMLID_642_">
				<path id="XMLID_643_" class="st1" d="M1001.6,549.7c0,0,0,0.3,0,0.8c0,0.5-0.2,1.3-0.4,2.2c-0.1,0.5-0.3,1-0.5,1.5
					c-0.2,0.5-0.5,1.1-0.9,1.7c-0.3,0.6-0.7,1.3-1.2,1.9c-0.5,0.6-1,1.2-1.6,1.9c0,0-0.4,0-1-0.1c-0.6-0.1-1.6-0.4-2.7-1
					c-1.1-0.6-2.5-1.4-4-2.6c-1.5-1.2-3.1-2.7-5-4.6c0,0,0.2-0.3,0.5-0.8c0.3-0.5,0.6-1.1,0.9-1.7c0.3-0.6,0.5-1.3,0.7-1.8
					c0.1-0.1,0.1-0.2,0.1-0.3c0-0.1,0.1-0.2,0.1-0.3c0-0.1,0.1-0.2,0.1-0.2s0.4,0.3,1.1,0.7c0.7,0.4,1.7,1,3,1.5
					c1.3,0.5,2.8,1.1,4.6,1.4C997.2,550.2,999.4,550.3,1001.6,549.7z"/>
			</g>
			<g id="XMLID_640_">
				<path id="XMLID_641_" class="st1" d="M994.7,561c0,0-0.1,0.3-0.3,0.7c-0.1,0.2-0.3,0.5-0.4,0.9c-0.2,0.3-0.4,0.7-0.7,1.1
					c-0.6,0.8-1.3,1.7-2.4,2.6c-0.5,0.4-1.1,0.9-1.8,1.3c-0.7,0.4-1.4,0.8-2.2,1.1c0,0-0.3-0.1-0.9-0.5c-0.6-0.4-1.3-0.9-2.2-1.9
					c-0.9-0.9-1.8-2.2-2.8-3.9c-1-1.6-2-3.7-3-6.1c0,0,0.1-0.1,0.2-0.1c0.1-0.1,0.3-0.2,0.5-0.4c0.4-0.4,1-0.8,1.5-1.3
					c0.5-0.5,1-1,1.4-1.4c0.3-0.4,0.5-0.7,0.5-0.7s0.3,0.4,0.8,1c0.5,0.6,1.2,1.5,2.2,2.5c1,1,2.2,2,3.8,3c0.8,0.5,1.7,0.9,2.6,1.3
					C992.4,560.5,993.5,560.8,994.7,561z"/>
			</g>
			<g id="XMLID_638_">
				<path id="XMLID_639_" class="st1" d="M984.1,569c0,0-0.2,0.2-0.6,0.6c-0.2,0.2-0.4,0.4-0.7,0.6c-0.2,0.1-0.3,0.2-0.5,0.4
					c-0.2,0.1-0.4,0.2-0.6,0.4c-0.4,0.2-0.9,0.5-1.4,0.8c-0.5,0.3-1.1,0.6-1.8,0.7c-1.3,0.4-2.9,0.8-4.6,0.8c0,0-1.1-1-2-3.3
					c-0.5-1.2-0.9-2.7-1.2-4.6c-0.3-1.9-0.5-4.1-0.6-6.7c0,0,0.1,0,0.2-0.1c0.2,0,0.4-0.1,0.6-0.2c0.3-0.1,0.6-0.2,0.9-0.3
					c0.2-0.1,0.3-0.1,0.5-0.2c0.2-0.1,0.3-0.1,0.5-0.2c0.3-0.1,0.6-0.3,1-0.4c0.2-0.1,0.3-0.1,0.4-0.2c0.1-0.1,0.3-0.1,0.4-0.2
					c0.5-0.3,0.8-0.4,0.8-0.4s0.1,0.4,0.3,1.2c0.2,0.8,0.6,1.8,1.2,3.1c0.6,1.3,1.3,2.7,2.5,4.2C980.6,566.4,982,567.8,984.1,569z"
					/>
			</g>
			<g id="XMLID_636_">
				<path id="XMLID_637_" class="st1" d="M971.3,572.6c0,0-1,0.5-2.9,1c-0.5,0.1-1,0.2-1.6,0.2c-0.6,0-1.2,0.1-1.9,0
					c-0.7,0-1.4-0.1-2.2-0.3c-0.8-0.2-1.6-0.3-2.4-0.6c0,0-0.6-1.3-0.6-3.9c0-1.3,0.1-2.8,0.5-4.7c0.4-1.9,1-4,1.9-6.5
					c0,0,0.4,0,0.9,0.1c0.5,0.1,1.3,0,2,0c0.4,0,0.7,0,1,0c0.3,0,0.6-0.1,0.9-0.1c0.5-0.1,0.9-0.1,0.9-0.1s-0.1,0.4-0.1,1.2
					c-0.1,0.8-0.1,1.9,0,3.3c0.1,1.4,0.3,3.1,0.8,4.8C969,568.9,969.8,570.7,971.3,572.6z"/>
			</g>
			<g id="XMLID_634_">
				<path id="XMLID_635_" class="st1" d="M958.1,571.4c0,0-0.3,0-0.8,0.1c-0.5,0-1.3-0.1-2.2-0.2c-0.5-0.1-1-0.2-1.6-0.3
					c-0.6-0.2-1.2-0.4-1.8-0.7c-0.3-0.1-0.6-0.3-1-0.4c-0.2-0.1-0.3-0.2-0.5-0.3c-0.2-0.1-0.3-0.2-0.5-0.3c-0.7-0.4-1.3-0.9-2-1.4
					c0,0,0-0.4,0.1-1c0.1-0.7,0.3-1.6,0.8-2.8c0.5-1.2,1.2-2.6,2.2-4.2c1-1.6,2.4-3.4,4.1-5.4c0,0,0.3,0.2,0.8,0.4
					c0.5,0.2,1.2,0.5,1.8,0.8c0.3,0.2,0.7,0.2,1,0.3c0.3,0.1,0.6,0.2,0.9,0.3c0.3,0.1,0.5,0.1,0.6,0.2c0.2,0,0.2,0,0.2,0
					s-0.2,0.4-0.6,1.1c-0.3,0.7-0.8,1.8-1.2,3.1c-0.4,1.3-0.8,2.9-1,4.7c-0.1,0.9-0.1,1.9,0,2.9c0.1,0.5,0.1,1.1,0.2,1.6
					C957.8,570.3,958,570.8,958.1,571.4z"/>
			</g>
			<g id="XMLID_632_">
				<path id="XMLID_633_" class="st1" d="M946.3,565.5c0,0-0.3-0.1-0.8-0.2c-0.2-0.1-0.6-0.2-0.9-0.4c-0.3-0.2-0.7-0.4-1.1-0.6
					c-0.8-0.5-1.8-1.2-2.8-2.2c-0.5-0.5-1-1-1.5-1.6c-0.5-0.6-0.9-1.3-1.3-2.1c0,0,0.1-0.3,0.4-0.9c0.3-0.6,0.8-1.4,1.7-2.3
					c0.9-1,2-2,3.6-3.1c1.5-1.1,3.5-2.3,5.8-3.5c0,0,0.1,0.1,0.2,0.2c0.1,0.1,0.2,0.3,0.4,0.5c0.4,0.4,0.9,0.9,1.4,1.4
					c0.6,0.4,1.1,0.9,1.5,1.2c0.2,0.2,0.4,0.3,0.5,0.4c0.1,0.1,0.2,0.1,0.2,0.1s-0.3,0.3-0.9,0.8c-0.6,0.6-1.4,1.4-2.3,2.4
					c-0.9,1.1-1.8,2.4-2.6,4.1c-0.4,0.8-0.8,1.7-1,2.8C946.5,563.2,946.3,564.3,946.3,565.5z"/>
			</g>
			<g id="XMLID_630_">
				<path id="XMLID_631_" class="st1" d="M937.3,555.7c0,0-0.2-0.2-0.6-0.5c-0.4-0.4-1-0.9-1.5-1.7c-0.3-0.4-0.6-0.8-0.9-1.3
					c-0.3-0.5-0.6-1.1-0.9-1.7c-0.5-1.3-1.1-2.8-1.3-4.5c0,0,0.9-1.1,3.1-2.3c1.1-0.6,2.6-1.1,4.5-1.6c1.9-0.5,4.1-0.9,6.7-1.2
					c0,0,0,0.1,0.1,0.2c0.1,0.1,0.2,0.4,0.3,0.6c0.1,0.2,0.2,0.5,0.4,0.8c0.1,0.3,0.3,0.6,0.5,0.9c0.4,0.6,0.7,1.2,1,1.7
					c0.3,0.4,0.5,0.7,0.5,0.7s-0.4,0.1-1.2,0.5c-0.7,0.3-1.8,0.8-3,1.5c-1.2,0.7-2.6,1.6-3.9,2.9
					C939.6,551.9,938.3,553.5,937.3,555.7z"/>
			</g>
			<g id="XMLID_628_">
				<path id="XMLID_629_" class="st1" d="M932.5,543.3c0,0-0.6-0.9-1.2-2.8c-0.2-0.9-0.5-2.1-0.6-3.5c-0.1-0.7,0-1.4,0.1-2.2
					c0-0.4,0.1-0.8,0.1-1.2c0.1-0.4,0.1-0.8,0.2-1.2c0,0,1.3-0.7,3.8-1c1.3-0.1,2.8-0.1,4.7,0.1c1.9,0.2,4.1,0.7,6.7,1.3
					c0,0,0,0.4,0,0.9c0,0.3,0,0.6,0,0.9c0,0.3,0.1,0.7,0.1,1.1c0,0.4,0.1,0.7,0.1,1c0.1,0.3,0.1,0.6,0.2,0.9
					c0.1,0.5,0.2,0.9,0.2,0.9s-0.5,0-1.2,0c-0.8,0-1.9,0.1-3.3,0.3c-1.4,0.2-3,0.6-4.7,1.2C936,540.6,934.3,541.6,932.5,543.3z"/>
			</g>
			<g id="XMLID_626_">
				<path id="XMLID_627_" class="st1" d="M932.5,530.1c0,0-0.1-0.3-0.1-0.8c0-0.5-0.1-1.3,0-2.2c0-0.5,0.1-1,0.2-1.6
					c0.1-0.6,0.3-1.2,0.5-1.9c0.4-1.3,1.1-2.7,2.1-4.2c0,0,0.3-0.1,1,0c0.7,0,1.7,0.1,2.9,0.5c1.2,0.3,2.7,0.9,4.4,1.8
					c1.7,0.9,3.6,2.1,5.7,3.6c0,0-0.1,0.3-0.3,0.8c-0.2,0.5-0.4,1.2-0.6,1.9c-0.1,0.3-0.2,0.7-0.2,1c-0.1,0.3-0.1,0.6-0.2,0.9
					c0,0.3-0.1,0.5-0.1,0.6c0,0.2,0,0.2,0,0.2s-0.4-0.2-1.2-0.5c-0.8-0.3-1.8-0.6-3.2-0.9c-1.4-0.3-3-0.6-4.8-0.5
					c-0.9,0-1.9,0.1-2.9,0.3C934.7,529.3,933.6,529.6,932.5,530.1z"/>
			</g>
			<g id="XMLID_624_">
				<path id="XMLID_625_" class="st1" d="M937.3,517.7c0,0,0-0.3,0.2-0.8c0.1-0.5,0.4-1.2,0.8-2.1c0.2-0.4,0.5-0.9,0.8-1.4
					c0.3-0.5,0.7-1,1.1-1.5c0.4-0.5,0.9-1.1,1.5-1.6c0.6-0.5,1.2-1,2-1.5c0,0,0.3,0.1,1,0.3c0.6,0.2,1.5,0.7,2.5,1.5
					c1,0.8,2.2,1.8,3.5,3.3c1.3,1.4,2.6,3.2,4,5.4c0,0-0.1,0.1-0.2,0.2c-0.1,0.1-0.3,0.3-0.5,0.5c-0.3,0.4-0.8,1-1.2,1.5
					c-0.4,0.6-0.8,1.2-1.1,1.6c-0.2,0.2-0.2,0.4-0.3,0.6c-0.1,0.1-0.1,0.2-0.1,0.2s-0.3-0.3-0.9-0.8c-0.6-0.5-1.5-1.2-2.6-2
					c-1.2-0.8-2.6-1.6-4.3-2.2c-0.9-0.3-1.8-0.6-2.8-0.8C939.6,517.7,938.5,517.6,937.3,517.7z"/>
			</g>
			<g id="XMLID_622_">
				<path id="XMLID_623_" class="st1" d="M946.3,507.9c0,0,0.1-0.2,0.4-0.7c0.3-0.4,0.8-1,1.5-1.7c0.4-0.3,0.8-0.7,1.2-1
					c0.2-0.2,0.5-0.4,0.7-0.5c0.3-0.2,0.6-0.3,0.9-0.5c0.6-0.3,1.3-0.7,2-1c0.4-0.2,0.7-0.3,1.1-0.4c0.4-0.1,0.8-0.2,1.2-0.3
					c0,0,1.2,0.8,2.6,2.9c0.7,1.1,1.4,2.5,2,4.3c0.7,1.8,1.2,4,1.8,6.5c0,0-0.1,0-0.2,0.1c-0.1,0-0.3,0.2-0.6,0.3
					c-0.2,0.1-0.5,0.3-0.8,0.5c-0.3,0.2-0.6,0.3-0.9,0.5c-0.6,0.4-1.2,0.8-1.6,1.1c-0.4,0.3-0.7,0.6-0.7,0.6s-0.2-0.4-0.6-1.1
					c-0.4-0.7-0.9-1.7-1.7-2.8c-0.8-1.1-1.8-2.4-3.2-3.6c-0.7-0.6-1.5-1.2-2.4-1.7C948.4,508.8,947.4,508.3,946.3,507.9z"/>
			</g>
			<g id="XMLID_620_">
				<path id="XMLID_621_" class="st1" d="M958.1,502c0,0,0.2-0.2,0.7-0.5c0.4-0.3,1.1-0.7,2-1c0.9-0.3,2.1-0.7,3.4-0.9
					c0.7-0.1,1.4-0.1,2.2-0.1c0.8,0,1.6,0,2.5,0.2c0,0,0.9,1.2,1.3,3.7c0.2,1.2,0.4,2.8,0.4,4.7c0,1.9-0.3,4.1-0.7,6.7
					c0,0-0.4,0-0.9,0.1c-0.3,0-0.6,0.1-0.9,0.1c-0.3,0.1-0.7,0.1-1,0.2c-0.3,0.1-0.7,0.1-1,0.2c-0.3,0-0.6,0.2-0.9,0.3
					c-0.5,0.2-0.8,0.3-0.8,0.3s0-0.5-0.1-1.2c-0.1-0.8-0.3-1.9-0.6-3.3c-0.3-1.4-0.8-2.9-1.7-4.6C961.1,505.2,960,503.5,958.1,502z"
					/>
			</g>
			<g id="XMLID_618_">
				<path id="XMLID_619_" class="st1" d="M971.3,500.8c0,0,0.1,0,0.2-0.1c0.1,0,0.3-0.1,0.6-0.1c0.5-0.1,1.3-0.2,2.2-0.2
					c1-0.1,2.2,0.1,3.5,0.4c0.3,0.1,0.7,0.2,1,0.3c0.4,0.1,0.7,0.2,1.1,0.4c0.7,0.3,1.5,0.6,2.3,1c0,0,0.1,0.3,0.1,1
					c0,0.7,0,1.7-0.2,2.9c-0.2,1.3-0.7,2.8-1.4,4.5c-0.7,1.8-1.8,3.8-3.1,6c0,0-0.3-0.1-0.9-0.3c-0.3-0.1-0.6-0.1-0.9-0.2
					c-0.3-0.1-0.7-0.1-1-0.2c-0.2,0-0.3-0.1-0.5-0.1c-0.2,0-0.3,0-0.5,0c-0.3,0-0.6-0.1-0.9-0.1c-0.3,0-0.5,0-0.6-0.1
					c-0.2,0-0.2,0-0.2,0c0,0,0.1-0.4,0.3-1.2c0.2-0.8,0.5-1.9,0.6-3.3c0.2-1.4,0.3-3,0.1-4.8C973,504.9,972.5,502.8,971.3,500.8z"/>
			</g>
			<g id="XMLID_616_">
				<path id="XMLID_617_" class="st1" d="M984.1,504.4c0,0,0.3,0,0.8,0.1c0.5,0.1,1.2,0.3,2.2,0.6c0.5,0.2,1,0.4,1.5,0.6
					c0.5,0.3,1.1,0.6,1.6,1c0.6,0.4,1.2,0.8,1.7,1.3c0.6,0.5,1.1,1.1,1.7,1.8c0,0-0.1,1.4-1.5,3.6c-0.7,1.1-1.6,2.4-2.9,3.7
					c-1.3,1.4-3,2.9-5,4.5c0,0-0.3-0.2-0.7-0.6c-0.5-0.3-1.1-0.7-1.7-1.1c-0.6-0.3-1.3-0.7-1.7-0.9c-0.2-0.1-0.4-0.2-0.6-0.3
					c-0.1-0.1-0.2-0.1-0.2-0.1s0.3-0.4,0.8-1c0.5-0.6,1.1-1.6,1.8-2.8c0.7-1.2,1.4-2.7,1.8-4.5C984.1,508.8,984.4,506.7,984.1,504.4
					z"/>
			</g>
			<g id="XMLID_614_">
				<path id="XMLID_615_" class="st1" d="M994.7,512.4c0,0,0.3,0.1,0.7,0.4c0.2,0.1,0.5,0.3,0.8,0.5c0.3,0.2,0.6,0.5,1,0.8
					c0.4,0.3,0.7,0.7,1.1,1.1c0.2,0.2,0.4,0.4,0.6,0.7c0.2,0.3,0.4,0.5,0.6,0.8c0.4,0.6,0.8,1.2,1.1,1.9c0.4,0.7,0.6,1.5,0.9,2.3
					c0,0-0.2,0.3-0.6,0.8c-0.4,0.5-1.1,1.2-2.1,2c-1,0.8-2.4,1.6-4.1,2.4c-1.7,0.8-3.8,1.6-6.3,2.4c0,0,0-0.1-0.1-0.2
					c0-0.1-0.1-0.2-0.1-0.2c-0.1-0.1-0.1-0.2-0.2-0.3c-0.3-0.4-0.7-1-1.1-1.6c-0.5-0.5-0.9-1.1-1.3-1.5c-0.4-0.4-0.6-0.6-0.6-0.6
					s0.4-0.2,1.1-0.7c0.7-0.4,1.6-1.1,2.7-2c1.1-0.9,2.2-2,3.3-3.5c0.5-0.7,1.1-1.6,1.5-2.5C994,514.6,994.4,513.5,994.7,512.4z"/>
			</g>
			<g id="XMLID_612_">
				<path id="XMLID_613_" class="st1" d="M1001.6,523.6c0,0,0.2,0.2,0.5,0.6c0.2,0.2,0.3,0.5,0.6,0.8c0.2,0.3,0.5,0.7,0.7,1.1
					c0.4,0.9,0.9,2,1.2,3.3c0.1,0.7,0.3,1.4,0.3,2.2c0,0.4,0.1,0.8,0.1,1.2c0,0.4,0,0.8-0.1,1.3c0,0-1.1,1-3.5,1.7
					c-1.2,0.4-2.8,0.6-4.7,0.8c-1.9,0.1-4.1,0.1-6.8,0c0,0-0.1-0.4-0.2-0.9c-0.1-0.5-0.2-1.2-0.5-1.9c-0.2-0.7-0.4-1.4-0.6-1.8
					c-0.2-0.5-0.4-0.8-0.4-0.8s0.4-0.1,1.2-0.2c0.8-0.2,1.9-0.4,3.2-0.9c1.3-0.5,2.8-1.1,4.4-2.1
					C998.8,526.9,1000.3,525.6,1001.6,523.6z"/>
			</g>
		</g>
	</g>
	<circle id="XMLID_608_" class="st6" cx="967.4" cy="537.2" r="23.4"/>
	<circle id="XMLID_607_" class="st17" cx="967.3" cy="537.4" r="19.2"/>
	<circle id="XMLID_606_" class="st13" cx="967.4" cy="537.2" r="2.8"/>
</g>
<g id="XMLID_346_">
	<circle id="XMLID_604_" class="st12" cx="1061.4" cy="537.6" r="44.8"/>
	<circle id="XMLID_603_" class="st13" cx="1061.4" cy="537.6" r="41.5"/>
	<circle id="XMLID_602_" class="st6" cx="1061.4" cy="537.7" r="38.6"/>
	<circle id="XMLID_601_" class="st6" cx="1061.4" cy="537.7" r="38.6"/>
	<g id="XMLID_564_">
		<defs>
			<circle id="XMLID_565_" cx="1061.5" cy="537.7" r="35"/>
		</defs>
		<clipPath id="XMLID_4_">
			<use xlink:href="#XMLID_565_"  style="overflow:visible;"/>
		</clipPath>
		<g id="XMLID_566_" class="st18">
			<g id="XMLID_599_">
				<path id="XMLID_600_" class="st1" d="M1098.1,537c0,0,0.4,1,0.7,3c0.2,1.9,0,4.8-1.3,8c0,0-0.3,0.1-1,0.2
					c-0.7,0.1-1.6,0.2-2.9,0.1c-1.3-0.1-2.8-0.4-4.6-1c-1.8-0.6-3.9-1.4-6.3-2.5c0,0,0.1-0.4,0.2-0.9c0-0.1,0.1-0.3,0.1-0.4
					c0-0.2,0-0.3,0-0.5c0-0.3,0.1-0.7,0.1-1c0.1-0.7,0-1.4,0-1.9c0-0.5,0-0.9,0-0.9s0.4,0.1,1.2,0.2c0.8,0.1,1.9,0.3,3.3,0.3
					c1.4,0.1,3,0,4.8-0.4C1094.1,539,1096.1,538.3,1098.1,537z"/>
			</g>
			<g id="XMLID_597_">
				<path id="XMLID_598_" class="st1" d="M1095.6,550c0,0,0,0.3,0,0.8c0,0.5-0.2,1.3-0.4,2.2c-0.1,0.5-0.3,1-0.5,1.5
					c-0.2,0.5-0.5,1.1-0.9,1.7c-0.3,0.6-0.7,1.3-1.2,1.9c-0.5,0.6-1,1.2-1.6,1.9c0,0-0.4,0-1-0.1c-0.6-0.1-1.6-0.4-2.7-1
					c-1.1-0.6-2.5-1.4-4-2.6c-1.5-1.2-3.1-2.7-5-4.6c0,0,0.2-0.3,0.5-0.8c0.3-0.5,0.6-1.1,0.9-1.7c0.3-0.6,0.5-1.3,0.7-1.8
					c0.1-0.1,0.1-0.2,0.1-0.3c0-0.1,0.1-0.2,0.1-0.3c0-0.1,0.1-0.2,0.1-0.2s0.4,0.3,1.1,0.7c0.7,0.4,1.7,1,3,1.5
					c1.3,0.5,2.8,1.1,4.6,1.4C1091.2,550.5,1093.4,550.6,1095.6,550z"/>
			</g>
			<g id="XMLID_595_">
				<path id="XMLID_596_" class="st1" d="M1088.7,561.3c0,0-0.1,0.3-0.3,0.7c-0.1,0.2-0.3,0.5-0.4,0.9c-0.2,0.3-0.4,0.7-0.7,1.1
					c-0.6,0.8-1.3,1.7-2.4,2.6c-0.5,0.4-1.1,0.9-1.8,1.3c-0.7,0.4-1.4,0.8-2.2,1.1c0,0-0.3-0.1-0.9-0.5c-0.6-0.4-1.3-0.9-2.2-1.9
					c-0.9-0.9-1.8-2.2-2.8-3.9c-1-1.6-2-3.7-3-6.1c0,0,0.1-0.1,0.2-0.1c0.1-0.1,0.3-0.2,0.5-0.4c0.4-0.4,1-0.8,1.5-1.3
					c0.5-0.5,1-1,1.4-1.4c0.3-0.4,0.5-0.7,0.5-0.7s0.3,0.4,0.8,1c0.5,0.6,1.2,1.5,2.2,2.5c1,1,2.2,2,3.8,3c0.8,0.5,1.7,0.9,2.6,1.3
					C1086.4,560.9,1087.5,561.1,1088.7,561.3z"/>
			</g>
			<g id="XMLID_593_">
				<path id="XMLID_594_" class="st1" d="M1078.1,569.3c0,0-0.2,0.2-0.6,0.6c-0.2,0.2-0.4,0.4-0.7,0.6c-0.2,0.1-0.3,0.2-0.5,0.4
					c-0.2,0.1-0.4,0.2-0.6,0.4c-0.4,0.2-0.9,0.5-1.4,0.8c-0.5,0.2-1.1,0.6-1.8,0.7c-1.3,0.4-2.9,0.8-4.6,0.8c0,0-1.1-1-2-3.3
					c-0.5-1.2-0.9-2.7-1.2-4.6c-0.3-1.9-0.5-4.1-0.6-6.7c0,0,0.1,0,0.2-0.1c0.2,0,0.4-0.1,0.6-0.2c0.3-0.1,0.6-0.2,0.9-0.3
					c0.2-0.1,0.3-0.1,0.5-0.2c0.2-0.1,0.3-0.1,0.5-0.2c0.3-0.1,0.6-0.3,1-0.4c0.2-0.1,0.3-0.1,0.4-0.2c0.1-0.1,0.3-0.1,0.4-0.2
					c0.5-0.3,0.8-0.4,0.8-0.4s0.1,0.4,0.3,1.2c0.2,0.8,0.6,1.8,1.2,3.1c0.6,1.3,1.3,2.7,2.5,4.2
					C1074.6,566.7,1076,568.1,1078.1,569.3z"/>
			</g>
			<g id="XMLID_591_">
				<path id="XMLID_592_" class="st1" d="M1065.3,572.9c0,0-1,0.5-2.9,1c-0.5,0.1-1,0.2-1.6,0.2c-0.6,0-1.2,0.1-1.9,0
					c-0.7,0-1.4-0.1-2.2-0.3c-0.8-0.2-1.6-0.3-2.4-0.6c0,0-0.6-1.3-0.6-3.9c0-1.3,0.1-2.8,0.5-4.7c0.4-1.9,1-4,1.9-6.5
					c0,0,0.4,0,0.9,0.1c0.5,0.1,1.3,0,2,0c0.4,0,0.7,0,1,0c0.3,0,0.6-0.1,0.9-0.1c0.5-0.1,0.9-0.1,0.9-0.1s-0.1,0.4-0.1,1.2
					c-0.1,0.8-0.1,1.9,0,3.3c0.1,1.4,0.3,3.1,0.8,4.8C1063,569.2,1063.8,571.1,1065.3,572.9z"/>
			</g>
			<g id="XMLID_589_">
				<path id="XMLID_590_" class="st1" d="M1052.1,571.7c0,0-0.3,0-0.8,0.1c-0.5,0-1.3-0.1-2.2-0.2c-0.5-0.1-1-0.2-1.6-0.3
					c-0.6-0.2-1.2-0.4-1.8-0.7c-0.3-0.1-0.6-0.3-1-0.4c-0.2-0.1-0.3-0.2-0.5-0.3c-0.2-0.1-0.3-0.2-0.5-0.3c-0.7-0.4-1.3-0.9-2-1.4
					c0,0,0-0.4,0.1-1c0.1-0.7,0.3-1.6,0.8-2.8c0.5-1.2,1.2-2.6,2.2-4.2c1-1.6,2.4-3.4,4.1-5.4c0,0,0.3,0.2,0.8,0.4
					c0.5,0.2,1.2,0.5,1.8,0.8c0.3,0.2,0.7,0.2,1,0.3c0.3,0.1,0.6,0.2,0.9,0.3c0.3,0.1,0.5,0.1,0.6,0.2c0.2,0,0.2,0,0.2,0
					s-0.2,0.4-0.6,1.1c-0.3,0.7-0.8,1.8-1.2,3.1c-0.4,1.3-0.8,2.9-1,4.7c-0.1,0.9-0.1,1.9,0,2.9c0.1,0.5,0.1,1.1,0.2,1.6
					C1051.8,570.6,1052,571.2,1052.1,571.7z"/>
			</g>
			<g id="XMLID_587_">
				<path id="XMLID_588_" class="st1" d="M1040.3,565.8c0,0-0.3-0.1-0.8-0.2c-0.2-0.1-0.6-0.2-0.9-0.4c-0.3-0.2-0.7-0.4-1.1-0.6
					c-0.8-0.5-1.8-1.2-2.8-2.2c-0.5-0.5-1-1-1.5-1.6c-0.5-0.6-0.9-1.3-1.3-2.1c0,0,0.1-0.3,0.4-0.9c0.3-0.6,0.8-1.4,1.7-2.3
					c0.9-1,2-2,3.6-3.1c1.5-1.1,3.5-2.3,5.8-3.5c0,0,0.1,0.1,0.2,0.2c0.1,0.1,0.2,0.3,0.4,0.5c0.4,0.4,0.9,0.9,1.4,1.4
					c0.6,0.4,1.1,0.9,1.5,1.2c0.2,0.2,0.4,0.3,0.5,0.4c0.1,0.1,0.2,0.1,0.2,0.1s-0.3,0.3-0.9,0.8c-0.6,0.6-1.4,1.4-2.3,2.4
					c-0.9,1.1-1.8,2.4-2.6,4.1c-0.4,0.8-0.8,1.7-1,2.8C1040.5,563.6,1040.3,564.6,1040.3,565.8z"/>
			</g>
			<g id="XMLID_585_">
				<path id="XMLID_586_" class="st1" d="M1031.3,556c0,0-0.2-0.2-0.6-0.5c-0.4-0.4-1-0.9-1.5-1.7c-0.3-0.4-0.6-0.8-0.9-1.3
					c-0.3-0.5-0.6-1.1-0.9-1.7c-0.5-1.3-1.1-2.8-1.3-4.5c0,0,0.9-1.1,3.1-2.3c1.1-0.6,2.6-1.1,4.5-1.6c1.9-0.5,4.1-0.9,6.7-1.2
					c0,0,0,0.1,0.1,0.2c0.1,0.1,0.2,0.4,0.3,0.6c0.1,0.2,0.2,0.5,0.4,0.8c0.1,0.3,0.3,0.6,0.5,0.9c0.4,0.6,0.7,1.2,1,1.7
					c0.3,0.4,0.5,0.7,0.5,0.7s-0.4,0.1-1.2,0.5c-0.7,0.3-1.8,0.8-3,1.5c-1.2,0.7-2.6,1.6-3.9,2.9
					C1033.6,552.3,1032.3,553.8,1031.3,556z"/>
			</g>
			<g id="XMLID_583_">
				<path id="XMLID_584_" class="st1" d="M1026.5,543.6c0,0-0.6-0.9-1.2-2.8c-0.2-0.9-0.5-2.1-0.6-3.5c-0.1-0.7,0-1.4,0.1-2.2
					c0-0.4,0.1-0.8,0.1-1.2c0.1-0.4,0.1-0.8,0.2-1.2c0,0,1.3-0.7,3.8-1c1.3-0.1,2.8-0.1,4.7,0.1c1.9,0.2,4.1,0.7,6.7,1.3
					c0,0,0,0.4,0,0.9c0,0.3,0,0.6,0,0.9c0,0.3,0.1,0.7,0.1,1.1c0,0.4,0.1,0.7,0.1,1c0.1,0.3,0.1,0.6,0.2,0.9
					c0.1,0.5,0.2,0.9,0.2,0.9s-0.5,0-1.2,0c-0.8,0-1.9,0.1-3.3,0.3c-1.4,0.2-3,0.6-4.7,1.2C1030,540.9,1028.3,542,1026.5,543.6z"/>
			</g>
			<g id="XMLID_581_">
				<path id="XMLID_582_" class="st1" d="M1026.5,530.4c0,0-0.1-0.3-0.1-0.8c0-0.5-0.1-1.3,0-2.2c0-0.5,0.1-1,0.2-1.6
					c0.1-0.6,0.3-1.2,0.5-1.9c0.4-1.3,1.1-2.7,2.1-4.2c0,0,0.3-0.1,1,0c0.7,0,1.7,0.1,2.9,0.5c1.2,0.3,2.7,0.9,4.4,1.8
					c1.7,0.9,3.6,2.1,5.7,3.6c0,0-0.1,0.3-0.3,0.8c-0.2,0.5-0.4,1.2-0.6,1.9c-0.1,0.3-0.2,0.7-0.2,1c-0.1,0.3-0.1,0.6-0.2,0.9
					c0,0.3-0.1,0.5-0.1,0.6c0,0.2,0,0.2,0,0.2s-0.4-0.2-1.2-0.5c-0.8-0.3-1.8-0.6-3.2-0.9c-1.4-0.3-3-0.6-4.8-0.5
					c-0.9,0-1.9,0.1-2.9,0.3C1028.7,529.6,1027.6,529.9,1026.5,530.4z"/>
			</g>
			<g id="XMLID_579_">
				<path id="XMLID_580_" class="st1" d="M1031.3,518c0,0,0-0.3,0.2-0.8c0.1-0.5,0.4-1.2,0.8-2.1c0.2-0.4,0.5-0.9,0.8-1.4
					c0.3-0.5,0.7-1,1.1-1.5c0.4-0.5,0.9-1.1,1.5-1.6c0.6-0.5,1.2-1,2-1.5c0,0,0.3,0.1,1,0.3c0.6,0.2,1.5,0.7,2.5,1.5
					c1,0.8,2.2,1.8,3.5,3.3c1.3,1.4,2.6,3.2,4,5.4c0,0-0.1,0.1-0.2,0.2c-0.1,0.1-0.3,0.3-0.5,0.5c-0.3,0.4-0.8,1-1.2,1.5
					c-0.4,0.6-0.8,1.2-1.1,1.6c-0.2,0.2-0.2,0.4-0.3,0.6c-0.1,0.1-0.1,0.2-0.1,0.2s-0.3-0.3-0.9-0.8c-0.6-0.5-1.5-1.2-2.6-2
					c-1.2-0.8-2.6-1.6-4.3-2.2c-0.9-0.3-1.8-0.6-2.8-0.8C1033.6,518,1032.5,518,1031.3,518z"/>
			</g>
			<g id="XMLID_577_">
				<path id="XMLID_578_" class="st1" d="M1040.3,508.2c0,0,0.1-0.2,0.4-0.7c0.3-0.4,0.8-1,1.5-1.7c0.4-0.3,0.8-0.7,1.2-1
					c0.2-0.2,0.5-0.4,0.7-0.5c0.3-0.2,0.6-0.3,0.9-0.5c0.6-0.3,1.3-0.7,2-1c0.4-0.2,0.7-0.3,1.1-0.4c0.4-0.1,0.8-0.2,1.2-0.3
					c0,0,1.2,0.8,2.6,2.9c0.7,1.1,1.4,2.5,2,4.3c0.7,1.8,1.2,4,1.8,6.5c0,0-0.1,0-0.2,0.1c-0.1,0-0.3,0.2-0.6,0.3
					c-0.2,0.1-0.5,0.3-0.8,0.5c-0.3,0.2-0.6,0.3-0.9,0.5c-0.6,0.4-1.2,0.8-1.6,1.1c-0.4,0.3-0.7,0.6-0.7,0.6s-0.2-0.4-0.6-1.1
					c-0.4-0.7-0.9-1.7-1.7-2.8c-0.8-1.1-1.8-2.4-3.2-3.6c-0.7-0.6-1.5-1.2-2.4-1.7C1042.4,509.1,1041.4,508.6,1040.3,508.2z"/>
			</g>
			<g id="XMLID_575_">
				<path id="XMLID_576_" class="st1" d="M1052.1,502.3c0,0,0.2-0.2,0.7-0.5c0.4-0.3,1.1-0.7,2-1c0.9-0.3,2.1-0.7,3.4-0.9
					c0.7-0.1,1.4-0.1,2.2-0.1c0.8,0,1.6,0,2.5,0.2c0,0,0.9,1.2,1.3,3.7c0.2,1.2,0.4,2.8,0.4,4.7c0,1.9-0.3,4.1-0.7,6.7
					c0,0-0.4,0-0.9,0.1c-0.3,0-0.6,0.1-0.9,0.1c-0.3,0.1-0.7,0.1-1,0.2c-0.3,0.1-0.7,0.1-1,0.2c-0.3,0-0.6,0.2-0.9,0.3
					c-0.5,0.2-0.8,0.3-0.8,0.3s0-0.5-0.1-1.2c-0.1-0.8-0.3-1.9-0.6-3.3c-0.3-1.4-0.8-2.9-1.7-4.6
					C1055.1,505.5,1054,503.9,1052.1,502.3z"/>
			</g>
			<g id="XMLID_573_">
				<path id="XMLID_574_" class="st1" d="M1065.3,501.1c0,0,0.1,0,0.2-0.1c0.1,0,0.3-0.1,0.6-0.1c0.5-0.1,1.3-0.2,2.2-0.2
					c1-0.1,2.2,0.1,3.5,0.4c0.3,0.1,0.7,0.2,1,0.3c0.4,0.1,0.7,0.2,1.1,0.4c0.7,0.3,1.5,0.6,2.3,1c0,0,0.1,0.3,0.1,1
					c0,0.7,0,1.7-0.2,2.9c-0.2,1.3-0.7,2.8-1.4,4.5c-0.7,1.8-1.8,3.8-3.1,6c0,0-0.3-0.1-0.9-0.3c-0.3-0.1-0.6-0.1-0.9-0.2
					c-0.3-0.1-0.7-0.1-1-0.2c-0.2,0-0.3-0.1-0.5-0.1c-0.2,0-0.3,0-0.5,0c-0.3,0-0.6-0.1-0.9-0.1c-0.3,0-0.5,0-0.6-0.1
					c-0.2,0-0.2,0-0.2,0c0,0,0.1-0.4,0.3-1.2c0.2-0.8,0.5-1.9,0.6-3.3c0.2-1.4,0.3-3,0.1-4.8C1067,505.2,1066.5,503.2,1065.3,501.1z
					"/>
			</g>
			<g id="XMLID_571_">
				<path id="XMLID_572_" class="st1" d="M1078.1,504.7c0,0,0.3,0,0.8,0.1c0.5,0.1,1.2,0.3,2.2,0.6c0.5,0.2,1,0.4,1.5,0.6
					c0.5,0.3,1.1,0.6,1.6,1c0.6,0.4,1.2,0.8,1.7,1.3c0.6,0.5,1.1,1.1,1.7,1.8c0,0-0.1,1.4-1.5,3.6c-0.7,1.1-1.6,2.4-2.9,3.7
					c-1.3,1.4-3,2.9-5,4.5c0,0-0.3-0.2-0.7-0.6c-0.5-0.3-1.1-0.7-1.7-1.1c-0.6-0.3-1.3-0.7-1.7-0.9c-0.2-0.1-0.4-0.2-0.6-0.3
					c-0.1-0.1-0.2-0.1-0.2-0.1s0.3-0.4,0.8-1c0.5-0.6,1.1-1.6,1.8-2.8c0.7-1.2,1.4-2.7,1.8-4.5
					C1078.1,509.1,1078.4,507,1078.1,504.7z"/>
			</g>
			<g id="XMLID_569_">
				<path id="XMLID_570_" class="st1" d="M1088.7,512.7c0,0,0.3,0.1,0.7,0.4c0.2,0.1,0.5,0.3,0.8,0.5c0.3,0.2,0.6,0.5,1,0.8
					c0.4,0.3,0.7,0.7,1.1,1.1c0.2,0.2,0.4,0.4,0.6,0.7c0.2,0.3,0.4,0.5,0.6,0.8c0.4,0.6,0.8,1.2,1.1,1.9c0.4,0.7,0.6,1.5,0.9,2.3
					c0,0-0.2,0.3-0.6,0.8c-0.4,0.5-1.1,1.2-2.1,2c-1,0.8-2.4,1.6-4.1,2.4c-1.7,0.8-3.8,1.6-6.3,2.4c0,0,0-0.1-0.1-0.2
					c0-0.1-0.1-0.2-0.1-0.2c-0.1-0.1-0.1-0.2-0.2-0.3c-0.3-0.4-0.7-1-1.1-1.6c-0.5-0.5-0.9-1.1-1.3-1.5c-0.4-0.4-0.6-0.6-0.6-0.6
					s0.4-0.2,1.1-0.7c0.7-0.4,1.6-1.1,2.7-2c1.1-0.9,2.2-2,3.3-3.5c0.5-0.7,1.1-1.6,1.5-2.5C1088,514.9,1088.4,513.9,1088.7,512.7z"
					/>
			</g>
			<g id="XMLID_567_">
				<path id="XMLID_568_" class="st1" d="M1095.6,524c0,0,0.2,0.2,0.5,0.6c0.2,0.2,0.3,0.5,0.6,0.8c0.2,0.3,0.5,0.7,0.7,1.1
					c0.4,0.9,0.9,2,1.2,3.3c0.1,0.7,0.3,1.4,0.3,2.2c0,0.4,0.1,0.8,0.1,1.2c0,0.4,0,0.8-0.1,1.3c0,0-1.1,1-3.5,1.7
					c-1.2,0.4-2.8,0.6-4.7,0.8c-1.9,0.1-4.1,0.1-6.8,0c0,0-0.1-0.4-0.2-0.9c-0.1-0.5-0.2-1.2-0.5-1.9c-0.2-0.7-0.4-1.4-0.6-1.8
					c-0.2-0.5-0.4-0.8-0.4-0.8s0.4-0.1,1.2-0.2c0.8-0.2,1.9-0.4,3.2-0.9c1.3-0.5,2.8-1.1,4.4-2.1
					C1092.8,527.3,1094.3,525.9,1095.6,524z"/>
			</g>
		</g>
	</g>
	<circle id="XMLID_563_" class="st15" cx="1061.3" cy="537.7" r="23.1"/>
	<g id="XMLID_350_">
		<defs>
			<circle id="XMLID_527_" cx="1061.5" cy="537.7" r="35"/>
		</defs>
		<clipPath id="XMLID_5_">
			<use xlink:href="#XMLID_527_"  style="overflow:visible;"/>
		</clipPath>
		<g id="XMLID_528_" class="st19">
			<g id="XMLID_561_">
				<path id="XMLID_562_" class="st1" d="M1098.1,537c0,0,0.4,1,0.7,3c0.2,1.9,0,4.8-1.3,8c0,0-0.3,0.1-1,0.2
					c-0.7,0.1-1.6,0.2-2.9,0.1c-1.3-0.1-2.8-0.4-4.6-1c-1.8-0.6-3.9-1.4-6.3-2.5c0,0,0.1-0.4,0.2-0.9c0-0.1,0.1-0.3,0.1-0.4
					c0-0.2,0-0.3,0-0.5c0-0.3,0.1-0.7,0.1-1c0.1-0.7,0-1.4,0-1.9c0-0.5,0-0.9,0-0.9s0.4,0.1,1.2,0.2c0.8,0.1,1.9,0.3,3.3,0.3
					c1.4,0.1,3,0,4.8-0.4C1094.1,539,1096.1,538.3,1098.1,537z"/>
			</g>
			<g id="XMLID_559_">
				<path id="XMLID_560_" class="st1" d="M1095.6,550c0,0,0,0.3,0,0.8c0,0.5-0.2,1.3-0.4,2.2c-0.1,0.5-0.3,1-0.5,1.5
					c-0.2,0.5-0.5,1.1-0.9,1.7c-0.3,0.6-0.7,1.3-1.2,1.9c-0.5,0.6-1,1.2-1.6,1.9c0,0-0.4,0-1-0.1c-0.6-0.1-1.6-0.4-2.7-1
					c-1.1-0.6-2.5-1.4-4-2.6c-1.5-1.2-3.1-2.7-5-4.6c0,0,0.2-0.3,0.5-0.8c0.3-0.5,0.6-1.1,0.9-1.7c0.3-0.6,0.5-1.3,0.7-1.8
					c0.1-0.1,0.1-0.2,0.1-0.3c0-0.1,0.1-0.2,0.1-0.3c0-0.1,0.1-0.2,0.1-0.2s0.4,0.3,1.1,0.7c0.7,0.4,1.7,1,3,1.5
					c1.3,0.5,2.8,1.1,4.6,1.4C1091.2,550.5,1093.4,550.6,1095.6,550z"/>
			</g>
			<g id="XMLID_557_">
				<path id="XMLID_558_" class="st1" d="M1088.7,561.3c0,0-0.1,0.3-0.3,0.7c-0.1,0.2-0.3,0.5-0.4,0.9c-0.2,0.3-0.4,0.7-0.7,1.1
					c-0.6,0.8-1.3,1.7-2.4,2.6c-0.5,0.4-1.1,0.9-1.8,1.3c-0.7,0.4-1.4,0.8-2.2,1.1c0,0-0.3-0.1-0.9-0.5c-0.6-0.4-1.3-0.9-2.2-1.9
					c-0.9-0.9-1.8-2.2-2.8-3.9c-1-1.6-2-3.7-3-6.1c0,0,0.1-0.1,0.2-0.1c0.1-0.1,0.3-0.2,0.5-0.4c0.4-0.4,1-0.8,1.5-1.3
					c0.5-0.5,1-1,1.4-1.4c0.3-0.4,0.5-0.7,0.5-0.7s0.3,0.4,0.8,1c0.5,0.6,1.2,1.5,2.2,2.5c1,1,2.2,2,3.8,3c0.8,0.5,1.7,0.9,2.6,1.3
					C1086.4,560.9,1087.5,561.1,1088.7,561.3z"/>
			</g>
			<g id="XMLID_555_">
				<path id="XMLID_556_" class="st1" d="M1078.1,569.3c0,0-0.2,0.2-0.6,0.6c-0.2,0.2-0.4,0.4-0.7,0.6c-0.2,0.1-0.3,0.2-0.5,0.4
					c-0.2,0.1-0.4,0.2-0.6,0.4c-0.4,0.2-0.9,0.5-1.4,0.8c-0.5,0.2-1.1,0.6-1.8,0.7c-1.3,0.4-2.9,0.8-4.6,0.8c0,0-1.1-1-2-3.3
					c-0.5-1.2-0.9-2.7-1.2-4.6c-0.3-1.9-0.5-4.1-0.6-6.7c0,0,0.1,0,0.2-0.1c0.2,0,0.4-0.1,0.6-0.2c0.3-0.1,0.6-0.2,0.9-0.3
					c0.2-0.1,0.3-0.1,0.5-0.2c0.2-0.1,0.3-0.1,0.5-0.2c0.3-0.1,0.6-0.3,1-0.4c0.2-0.1,0.3-0.1,0.4-0.2c0.1-0.1,0.3-0.1,0.4-0.2
					c0.5-0.3,0.8-0.4,0.8-0.4s0.1,0.4,0.3,1.2c0.2,0.8,0.6,1.8,1.2,3.1c0.6,1.3,1.3,2.7,2.5,4.2
					C1074.6,566.7,1076,568.1,1078.1,569.3z"/>
			</g>
			<g id="XMLID_553_">
				<path id="XMLID_554_" class="st1" d="M1065.3,572.9c0,0-1,0.5-2.9,1c-0.5,0.1-1,0.2-1.6,0.2c-0.6,0-1.2,0.1-1.9,0
					c-0.7,0-1.4-0.1-2.2-0.3c-0.8-0.2-1.6-0.3-2.4-0.6c0,0-0.6-1.3-0.6-3.9c0-1.3,0.1-2.8,0.5-4.7c0.4-1.9,1-4,1.9-6.5
					c0,0,0.4,0,0.9,0.1c0.5,0.1,1.3,0,2,0c0.4,0,0.7,0,1,0c0.3,0,0.6-0.1,0.9-0.1c0.5-0.1,0.9-0.1,0.9-0.1s-0.1,0.4-0.1,1.2
					c-0.1,0.8-0.1,1.9,0,3.3c0.1,1.4,0.3,3.1,0.8,4.8C1063,569.2,1063.8,571.1,1065.3,572.9z"/>
			</g>
			<g id="XMLID_551_">
				<path id="XMLID_552_" class="st1" d="M1052.1,571.7c0,0-0.3,0-0.8,0.1c-0.5,0-1.3-0.1-2.2-0.2c-0.5-0.1-1-0.2-1.6-0.3
					c-0.6-0.2-1.2-0.4-1.8-0.7c-0.3-0.1-0.6-0.3-1-0.4c-0.2-0.1-0.3-0.2-0.5-0.3c-0.2-0.1-0.3-0.2-0.5-0.3c-0.7-0.4-1.3-0.9-2-1.4
					c0,0,0-0.4,0.1-1c0.1-0.7,0.3-1.6,0.8-2.8c0.5-1.2,1.2-2.6,2.2-4.2c1-1.6,2.4-3.4,4.1-5.4c0,0,0.3,0.2,0.8,0.4
					c0.5,0.2,1.2,0.5,1.8,0.8c0.3,0.2,0.7,0.2,1,0.3c0.3,0.1,0.6,0.2,0.9,0.3c0.3,0.1,0.5,0.1,0.6,0.2c0.2,0,0.2,0,0.2,0
					s-0.2,0.4-0.6,1.1c-0.3,0.7-0.8,1.8-1.2,3.1c-0.4,1.3-0.8,2.9-1,4.7c-0.1,0.9-0.1,1.9,0,2.9c0.1,0.5,0.1,1.1,0.2,1.6
					C1051.8,570.6,1052,571.2,1052.1,571.7z"/>
			</g>
			<g id="XMLID_549_">
				<path id="XMLID_550_" class="st1" d="M1040.3,565.8c0,0-0.3-0.1-0.8-0.2c-0.2-0.1-0.6-0.2-0.9-0.4c-0.3-0.2-0.7-0.4-1.1-0.6
					c-0.8-0.5-1.8-1.2-2.8-2.2c-0.5-0.5-1-1-1.5-1.6c-0.5-0.6-0.9-1.3-1.3-2.1c0,0,0.1-0.3,0.4-0.9c0.3-0.6,0.8-1.4,1.7-2.3
					c0.9-1,2-2,3.6-3.1c1.5-1.1,3.5-2.3,5.8-3.5c0,0,0.1,0.1,0.2,0.2c0.1,0.1,0.2,0.3,0.4,0.5c0.4,0.4,0.9,0.9,1.4,1.4
					c0.6,0.4,1.1,0.9,1.5,1.2c0.2,0.2,0.4,0.3,0.5,0.4c0.1,0.1,0.2,0.1,0.2,0.1s-0.3,0.3-0.9,0.8c-0.6,0.6-1.4,1.4-2.3,2.4
					c-0.9,1.1-1.8,2.4-2.6,4.1c-0.4,0.8-0.8,1.7-1,2.8C1040.5,563.6,1040.3,564.6,1040.3,565.8z"/>
			</g>
			<g id="XMLID_547_">
				<path id="XMLID_548_" class="st1" d="M1031.3,556c0,0-0.2-0.2-0.6-0.5c-0.4-0.4-1-0.9-1.5-1.7c-0.3-0.4-0.6-0.8-0.9-1.3
					c-0.3-0.5-0.6-1.1-0.9-1.7c-0.5-1.3-1.1-2.8-1.3-4.5c0,0,0.9-1.1,3.1-2.3c1.1-0.6,2.6-1.1,4.5-1.6c1.9-0.5,4.1-0.9,6.7-1.2
					c0,0,0,0.1,0.1,0.2c0.1,0.1,0.2,0.4,0.3,0.6c0.1,0.2,0.2,0.5,0.4,0.8c0.1,0.3,0.3,0.6,0.5,0.9c0.4,0.6,0.7,1.2,1,1.7
					c0.3,0.4,0.5,0.7,0.5,0.7s-0.4,0.1-1.2,0.5c-0.7,0.3-1.8,0.8-3,1.5c-1.2,0.7-2.6,1.6-3.9,2.9
					C1033.6,552.3,1032.3,553.8,1031.3,556z"/>
			</g>
			<g id="XMLID_545_">
				<path id="XMLID_546_" class="st1" d="M1026.5,543.6c0,0-0.6-0.9-1.2-2.8c-0.2-0.9-0.5-2.1-0.6-3.5c-0.1-0.7,0-1.4,0.1-2.2
					c0-0.4,0.1-0.8,0.1-1.2c0.1-0.4,0.1-0.8,0.2-1.2c0,0,1.3-0.7,3.8-1c1.3-0.1,2.8-0.1,4.7,0.1c1.9,0.2,4.1,0.7,6.7,1.3
					c0,0,0,0.4,0,0.9c0,0.3,0,0.6,0,0.9c0,0.3,0.1,0.7,0.1,1.1c0,0.4,0.1,0.7,0.1,1c0.1,0.3,0.1,0.6,0.2,0.9
					c0.1,0.5,0.2,0.9,0.2,0.9s-0.5,0-1.2,0c-0.8,0-1.9,0.1-3.3,0.3c-1.4,0.2-3,0.6-4.7,1.2C1030,540.9,1028.3,542,1026.5,543.6z"/>
			</g>
			<g id="XMLID_543_">
				<path id="XMLID_544_" class="st1" d="M1026.5,530.4c0,0-0.1-0.3-0.1-0.8c0-0.5-0.1-1.3,0-2.2c0-0.5,0.1-1,0.2-1.6
					c0.1-0.6,0.3-1.2,0.5-1.9c0.4-1.3,1.1-2.7,2.1-4.2c0,0,0.3-0.1,1,0c0.7,0,1.7,0.1,2.9,0.5c1.2,0.3,2.7,0.9,4.4,1.8
					c1.7,0.9,3.6,2.1,5.7,3.6c0,0-0.1,0.3-0.3,0.8c-0.2,0.5-0.4,1.2-0.6,1.9c-0.1,0.3-0.2,0.7-0.2,1c-0.1,0.3-0.1,0.6-0.2,0.9
					c0,0.3-0.1,0.5-0.1,0.6c0,0.2,0,0.2,0,0.2s-0.4-0.2-1.2-0.5c-0.8-0.3-1.8-0.6-3.2-0.9c-1.4-0.3-3-0.6-4.8-0.5
					c-0.9,0-1.9,0.1-2.9,0.3C1028.7,529.6,1027.6,529.9,1026.5,530.4z"/>
			</g>
			<g id="XMLID_541_">
				<path id="XMLID_542_" class="st1" d="M1031.3,518c0,0,0-0.3,0.2-0.8c0.1-0.5,0.4-1.2,0.8-2.1c0.2-0.4,0.5-0.9,0.8-1.4
					c0.3-0.5,0.7-1,1.1-1.5c0.4-0.5,0.9-1.1,1.5-1.6c0.6-0.5,1.2-1,2-1.5c0,0,0.3,0.1,1,0.3c0.6,0.2,1.5,0.7,2.5,1.5
					c1,0.8,2.2,1.8,3.5,3.3c1.3,1.4,2.6,3.2,4,5.4c0,0-0.1,0.1-0.2,0.2c-0.1,0.1-0.3,0.3-0.5,0.5c-0.3,0.4-0.8,1-1.2,1.5
					c-0.4,0.6-0.8,1.2-1.1,1.6c-0.2,0.2-0.2,0.4-0.3,0.6c-0.1,0.1-0.1,0.2-0.1,0.2s-0.3-0.3-0.9-0.8c-0.6-0.5-1.5-1.2-2.6-2
					c-1.2-0.8-2.6-1.6-4.3-2.2c-0.9-0.3-1.8-0.6-2.8-0.8C1033.6,518,1032.5,518,1031.3,518z"/>
			</g>
			<g id="XMLID_539_">
				<path id="XMLID_540_" class="st1" d="M1040.3,508.2c0,0,0.1-0.2,0.4-0.7c0.3-0.4,0.8-1,1.5-1.7c0.4-0.3,0.8-0.7,1.2-1
					c0.2-0.2,0.5-0.4,0.7-0.5c0.3-0.2,0.6-0.3,0.9-0.5c0.6-0.3,1.3-0.7,2-1c0.4-0.2,0.7-0.3,1.1-0.4c0.4-0.1,0.8-0.2,1.2-0.3
					c0,0,1.2,0.8,2.6,2.9c0.7,1.1,1.4,2.5,2,4.3c0.7,1.8,1.2,4,1.8,6.5c0,0-0.1,0-0.2,0.1c-0.1,0-0.3,0.2-0.6,0.3
					c-0.2,0.1-0.5,0.3-0.8,0.5c-0.3,0.2-0.6,0.3-0.9,0.5c-0.6,0.4-1.2,0.8-1.6,1.1c-0.4,0.3-0.7,0.6-0.7,0.6s-0.2-0.4-0.6-1.1
					c-0.4-0.7-0.9-1.7-1.7-2.8c-0.8-1.1-1.8-2.4-3.2-3.6c-0.7-0.6-1.5-1.2-2.4-1.7C1042.4,509.1,1041.4,508.6,1040.3,508.2z"/>
			</g>
			<g id="XMLID_537_">
				<path id="XMLID_538_" class="st1" d="M1052.1,502.3c0,0,0.2-0.2,0.7-0.5c0.4-0.3,1.1-0.7,2-1c0.9-0.3,2.1-0.7,3.4-0.9
					c0.7-0.1,1.4-0.1,2.2-0.1c0.8,0,1.6,0,2.5,0.2c0,0,0.9,1.2,1.3,3.7c0.2,1.2,0.4,2.8,0.4,4.7c0,1.9-0.3,4.1-0.7,6.7
					c0,0-0.4,0-0.9,0.1c-0.3,0-0.6,0.1-0.9,0.1c-0.3,0.1-0.7,0.1-1,0.2c-0.3,0.1-0.7,0.1-1,0.2c-0.3,0-0.6,0.2-0.9,0.3
					c-0.5,0.2-0.8,0.3-0.8,0.3s0-0.5-0.1-1.2c-0.1-0.8-0.3-1.9-0.6-3.3c-0.3-1.4-0.8-2.9-1.7-4.6
					C1055.1,505.5,1054,503.9,1052.1,502.3z"/>
			</g>
			<g id="XMLID_535_">
				<path id="XMLID_536_" class="st1" d="M1065.3,501.1c0,0,0.1,0,0.2-0.1c0.1,0,0.3-0.1,0.6-0.1c0.5-0.1,1.3-0.2,2.2-0.2
					c1-0.1,2.2,0.1,3.5,0.4c0.3,0.1,0.7,0.2,1,0.3c0.4,0.1,0.7,0.2,1.1,0.4c0.7,0.3,1.5,0.6,2.3,1c0,0,0.1,0.3,0.1,1
					c0,0.7,0,1.7-0.2,2.9c-0.2,1.3-0.7,2.8-1.4,4.5c-0.7,1.8-1.8,3.8-3.1,6c0,0-0.3-0.1-0.9-0.3c-0.3-0.1-0.6-0.1-0.9-0.2
					c-0.3-0.1-0.7-0.1-1-0.2c-0.2,0-0.3-0.1-0.5-0.1c-0.2,0-0.3,0-0.5,0c-0.3,0-0.6-0.1-0.9-0.1c-0.3,0-0.5,0-0.6-0.1
					c-0.2,0-0.2,0-0.2,0c0,0,0.1-0.4,0.3-1.2c0.2-0.8,0.5-1.9,0.6-3.3c0.2-1.4,0.3-3,0.1-4.8C1067,505.2,1066.5,503.2,1065.3,501.1z
					"/>
			</g>
			<g id="XMLID_533_">
				<path id="XMLID_534_" class="st1" d="M1078.1,504.7c0,0,0.3,0,0.8,0.1c0.5,0.1,1.2,0.3,2.2,0.6c0.5,0.2,1,0.4,1.5,0.6
					c0.5,0.3,1.1,0.6,1.6,1c0.6,0.4,1.2,0.8,1.7,1.3c0.6,0.5,1.1,1.1,1.7,1.8c0,0-0.1,1.4-1.5,3.6c-0.7,1.1-1.6,2.4-2.9,3.7
					c-1.3,1.4-3,2.9-5,4.5c0,0-0.3-0.2-0.7-0.6c-0.5-0.3-1.1-0.7-1.7-1.1c-0.6-0.3-1.3-0.7-1.7-0.9c-0.2-0.1-0.4-0.2-0.6-0.3
					c-0.1-0.1-0.2-0.1-0.2-0.1s0.3-0.4,0.8-1c0.5-0.6,1.1-1.6,1.8-2.8c0.7-1.2,1.4-2.7,1.8-4.5
					C1078.1,509.1,1078.4,507,1078.1,504.7z"/>
			</g>
			<g id="XMLID_531_">
				<path id="XMLID_532_" class="st1" d="M1088.7,512.7c0,0,0.3,0.1,0.7,0.4c0.2,0.1,0.5,0.3,0.8,0.5c0.3,0.2,0.6,0.5,1,0.8
					c0.4,0.3,0.7,0.7,1.1,1.1c0.2,0.2,0.4,0.4,0.6,0.7c0.2,0.3,0.4,0.5,0.6,0.8c0.4,0.6,0.8,1.2,1.1,1.9c0.4,0.7,0.6,1.5,0.9,2.3
					c0,0-0.2,0.3-0.6,0.8c-0.4,0.5-1.1,1.2-2.1,2c-1,0.8-2.4,1.6-4.1,2.4c-1.7,0.8-3.8,1.6-6.3,2.4c0,0,0-0.1-0.1-0.2
					c0-0.1-0.1-0.2-0.1-0.2c-0.1-0.1-0.1-0.2-0.2-0.3c-0.3-0.4-0.7-1-1.1-1.6c-0.5-0.5-0.9-1.1-1.3-1.5c-0.4-0.4-0.6-0.6-0.6-0.6
					s0.4-0.2,1.1-0.7c0.7-0.4,1.6-1.1,2.7-2c1.1-0.9,2.2-2,3.3-3.5c0.5-0.7,1.1-1.6,1.5-2.5C1088,514.9,1088.4,513.9,1088.7,512.7z"
					/>
			</g>
			<g id="XMLID_529_">
				<path id="XMLID_530_" class="st1" d="M1095.6,524c0,0,0.2,0.2,0.5,0.6c0.2,0.2,0.3,0.5,0.6,0.8c0.2,0.3,0.5,0.7,0.7,1.1
					c0.4,0.9,0.9,2,1.2,3.3c0.1,0.7,0.3,1.4,0.3,2.2c0,0.4,0.1,0.8,0.1,1.2c0,0.4,0,0.8-0.1,1.3c0,0-1.1,1-3.5,1.7
					c-1.2,0.4-2.8,0.6-4.7,0.8c-1.9,0.1-4.1,0.1-6.8,0c0,0-0.1-0.4-0.2-0.9c-0.1-0.5-0.2-1.2-0.5-1.9c-0.2-0.7-0.4-1.4-0.6-1.8
					c-0.2-0.5-0.4-0.8-0.4-0.8s0.4-0.1,1.2-0.2c0.8-0.2,1.9-0.4,3.2-0.9c1.3-0.5,2.8-1.1,4.4-2.1
					C1092.8,527.3,1094.3,525.9,1095.6,524z"/>
			</g>
		</g>
	</g>
	<circle id="XMLID_349_" class="st6" cx="1061.4" cy="537.5" r="23.4"/>
	<circle id="XMLID_348_" class="st17" cx="1061.3" cy="537.7" r="19.2"/>
	<circle id="XMLID_347_" class="st13" cx="1061.4" cy="537.6" r="2.8"/>
</g>
<g id="XMLID_345_">
	<circle id="XMLID_879_" class="st12" cx="872.4" cy="537.6" r="44.8"/>
	<circle id="XMLID_878_" class="st13" cx="872.4" cy="537.6" r="41.5"/>
	<circle id="XMLID_877_" class="st6" cx="872.4" cy="537.7" r="38.6"/>
	<circle id="XMLID_876_" class="st6" cx="872.4" cy="537.7" r="38.6"/>
	<g id="XMLID_839_">
		<defs>
			<circle id="XMLID_840_" cx="872.5" cy="537.7" r="35"/>
		</defs>
		<clipPath id="XMLID_6_">
			<use xlink:href="#XMLID_840_"  style="overflow:visible;"/>
		</clipPath>
		<g id="XMLID_841_" class="st20">
			<g id="XMLID_874_">
				<path id="XMLID_875_" class="st1" d="M909.1,537c0,0,0.4,1,0.7,3c0.2,1.9,0,4.8-1.3,8c0,0-0.3,0.1-1,0.2
					c-0.7,0.1-1.6,0.2-2.9,0.1c-1.3-0.1-2.8-0.4-4.6-1c-1.8-0.6-3.9-1.4-6.3-2.5c0,0,0.1-0.4,0.2-0.9c0-0.1,0.1-0.3,0.1-0.4
					c0-0.2,0-0.3,0-0.5c0-0.3,0.1-0.7,0.1-1c0.1-0.7,0-1.4,0-1.9c0-0.5,0-0.9,0-0.9s0.4,0.1,1.2,0.2c0.8,0.1,1.9,0.3,3.3,0.3
					c1.4,0.1,3,0,4.8-0.4C905.1,539,907.1,538.3,909.1,537z"/>
			</g>
			<g id="XMLID_872_">
				<path id="XMLID_873_" class="st1" d="M906.6,550c0,0,0,0.3,0,0.8c0,0.5-0.2,1.3-0.4,2.2c-0.1,0.5-0.3,1-0.5,1.5
					c-0.2,0.5-0.5,1.1-0.9,1.7c-0.3,0.6-0.7,1.3-1.2,1.9c-0.5,0.6-1,1.2-1.6,1.9c0,0-0.4,0-1-0.1c-0.6-0.1-1.6-0.4-2.7-1
					c-1.1-0.6-2.5-1.4-4-2.6c-1.5-1.2-3.1-2.7-5-4.6c0,0,0.2-0.3,0.5-0.8c0.3-0.5,0.6-1.1,0.9-1.7c0.3-0.6,0.5-1.3,0.7-1.8
					c0.1-0.1,0.1-0.2,0.1-0.3c0-0.1,0.1-0.2,0.1-0.3c0-0.1,0.1-0.2,0.1-0.2s0.4,0.3,1.1,0.7c0.7,0.4,1.7,1,3,1.5
					c1.3,0.5,2.8,1.1,4.6,1.4C902.2,550.5,904.4,550.6,906.6,550z"/>
			</g>
			<g id="XMLID_870_">
				<path id="XMLID_871_" class="st1" d="M899.7,561.3c0,0-0.1,0.3-0.3,0.7c-0.1,0.2-0.3,0.5-0.4,0.9c-0.2,0.3-0.4,0.7-0.7,1.1
					c-0.6,0.8-1.3,1.7-2.4,2.6c-0.5,0.4-1.1,0.9-1.8,1.3c-0.7,0.4-1.4,0.8-2.2,1.1c0,0-0.3-0.1-0.9-0.5c-0.6-0.4-1.3-0.9-2.2-1.9
					c-0.9-0.9-1.8-2.2-2.8-3.9c-1-1.6-2-3.7-3-6.1c0,0,0.1-0.1,0.2-0.1c0.1-0.1,0.3-0.2,0.5-0.4c0.4-0.4,1-0.8,1.5-1.3
					c0.5-0.5,1-1,1.4-1.4c0.3-0.4,0.5-0.7,0.5-0.7s0.3,0.4,0.8,1c0.5,0.6,1.2,1.5,2.2,2.5c1,1,2.2,2,3.8,3c0.8,0.5,1.7,0.9,2.6,1.3
					C897.4,560.9,898.5,561.1,899.7,561.3z"/>
			</g>
			<g id="XMLID_868_">
				<path id="XMLID_869_" class="st1" d="M889.1,569.3c0,0-0.2,0.2-0.6,0.6c-0.2,0.2-0.4,0.4-0.7,0.6c-0.2,0.1-0.3,0.2-0.5,0.4
					c-0.2,0.1-0.4,0.2-0.6,0.4c-0.4,0.2-0.9,0.5-1.4,0.8c-0.5,0.2-1.1,0.6-1.8,0.7c-1.3,0.4-2.9,0.8-4.6,0.8c0,0-1.1-1-2-3.3
					c-0.5-1.2-0.9-2.7-1.2-4.6c-0.3-1.9-0.5-4.1-0.6-6.7c0,0,0.1,0,0.2-0.1c0.2,0,0.4-0.1,0.6-0.2c0.3-0.1,0.6-0.2,0.9-0.3
					c0.2-0.1,0.3-0.1,0.5-0.2c0.2-0.1,0.3-0.1,0.5-0.2c0.3-0.1,0.6-0.3,1-0.4c0.2-0.1,0.3-0.1,0.4-0.2c0.1-0.1,0.3-0.1,0.4-0.2
					c0.5-0.3,0.8-0.4,0.8-0.4s0.1,0.4,0.3,1.2c0.2,0.8,0.6,1.8,1.2,3.1c0.6,1.3,1.3,2.7,2.5,4.2C885.6,566.7,887,568.1,889.1,569.3z
					"/>
			</g>
			<g id="XMLID_866_">
				<path id="XMLID_867_" class="st1" d="M876.3,572.9c0,0-1,0.5-2.9,1c-0.5,0.1-1,0.2-1.6,0.2c-0.6,0-1.2,0.1-1.9,0
					c-0.7,0-1.4-0.1-2.2-0.3c-0.8-0.2-1.6-0.3-2.4-0.6c0,0-0.6-1.3-0.6-3.9c0-1.3,0.1-2.8,0.5-4.7c0.4-1.9,1-4,1.9-6.5
					c0,0,0.4,0,0.9,0.1c0.5,0.1,1.3,0,2,0c0.4,0,0.7,0,1,0c0.3,0,0.6-0.1,0.9-0.1c0.5-0.1,0.9-0.1,0.9-0.1s-0.1,0.4-0.1,1.2
					c-0.1,0.8-0.1,1.9,0,3.3c0.1,1.4,0.3,3.1,0.8,4.8C874,569.2,874.8,571.1,876.3,572.9z"/>
			</g>
			<g id="XMLID_864_">
				<path id="XMLID_865_" class="st1" d="M863.1,571.7c0,0-0.3,0-0.8,0.1c-0.5,0-1.3-0.1-2.2-0.2c-0.5-0.1-1-0.2-1.6-0.3
					c-0.6-0.2-1.2-0.4-1.8-0.7c-0.3-0.1-0.6-0.3-1-0.4c-0.2-0.1-0.3-0.2-0.5-0.3c-0.2-0.1-0.3-0.2-0.5-0.3c-0.7-0.4-1.3-0.9-2-1.4
					c0,0,0-0.4,0.1-1c0.1-0.7,0.3-1.6,0.8-2.8c0.5-1.2,1.2-2.6,2.2-4.2c1-1.6,2.4-3.4,4.1-5.4c0,0,0.3,0.2,0.8,0.4
					c0.5,0.2,1.2,0.5,1.8,0.8c0.3,0.2,0.7,0.2,1,0.3c0.3,0.1,0.6,0.2,0.9,0.3c0.3,0.1,0.5,0.1,0.6,0.2c0.2,0,0.2,0,0.2,0
					s-0.2,0.4-0.6,1.1c-0.3,0.7-0.8,1.8-1.2,3.1c-0.4,1.3-0.8,2.9-1,4.7c-0.1,0.9-0.1,1.9,0,2.9c0.1,0.5,0.1,1.1,0.2,1.6
					C862.8,570.6,863,571.2,863.1,571.7z"/>
			</g>
			<g id="XMLID_862_">
				<path id="XMLID_863_" class="st1" d="M851.3,565.8c0,0-0.3-0.1-0.8-0.2c-0.2-0.1-0.6-0.2-0.9-0.4c-0.3-0.2-0.7-0.4-1.1-0.6
					c-0.8-0.5-1.8-1.2-2.8-2.2c-0.5-0.5-1-1-1.5-1.6c-0.5-0.6-0.9-1.3-1.3-2.1c0,0,0.1-0.3,0.4-0.9c0.3-0.6,0.8-1.4,1.7-2.3
					c0.9-1,2-2,3.6-3.1c1.5-1.1,3.5-2.3,5.8-3.5c0,0,0.1,0.1,0.2,0.2c0.1,0.1,0.2,0.3,0.4,0.5c0.4,0.4,0.9,0.9,1.4,1.4
					c0.6,0.4,1.1,0.9,1.5,1.2c0.2,0.2,0.4,0.3,0.5,0.4c0.1,0.1,0.2,0.1,0.2,0.1s-0.3,0.3-0.9,0.8c-0.6,0.6-1.4,1.4-2.3,2.4
					c-0.9,1.1-1.8,2.4-2.6,4.1c-0.4,0.8-0.8,1.7-1,2.8C851.5,563.6,851.3,564.6,851.3,565.8z"/>
			</g>
			<g id="XMLID_860_">
				<path id="XMLID_861_" class="st1" d="M842.3,556c0,0-0.2-0.2-0.6-0.5c-0.4-0.4-1-0.9-1.5-1.7c-0.3-0.4-0.6-0.8-0.9-1.3
					c-0.3-0.5-0.6-1.1-0.9-1.7c-0.5-1.3-1.1-2.8-1.3-4.5c0,0,0.9-1.1,3.1-2.3c1.1-0.6,2.6-1.1,4.5-1.6c1.9-0.5,4.1-0.9,6.7-1.2
					c0,0,0,0.1,0.1,0.2c0.1,0.1,0.2,0.4,0.3,0.6c0.1,0.2,0.2,0.5,0.4,0.8c0.1,0.3,0.3,0.6,0.5,0.9c0.4,0.6,0.7,1.2,1,1.7
					c0.3,0.4,0.5,0.7,0.5,0.7s-0.4,0.1-1.2,0.5c-0.7,0.3-1.8,0.8-3,1.5c-1.2,0.7-2.6,1.6-3.9,2.9C844.6,552.3,843.3,553.8,842.3,556
					z"/>
			</g>
			<g id="XMLID_858_">
				<path id="XMLID_859_" class="st1" d="M837.5,543.6c0,0-0.6-0.9-1.2-2.8c-0.2-0.9-0.5-2.1-0.6-3.5c-0.1-0.7,0-1.4,0.1-2.2
					c0-0.4,0.1-0.8,0.1-1.2c0.1-0.4,0.1-0.8,0.2-1.2c0,0,1.3-0.7,3.8-1c1.3-0.1,2.8-0.1,4.7,0.1c1.9,0.2,4.1,0.7,6.7,1.3
					c0,0,0,0.4,0,0.9c0,0.3,0,0.6,0,0.9c0,0.3,0.1,0.7,0.1,1.1c0,0.4,0.1,0.7,0.1,1c0.1,0.3,0.1,0.6,0.2,0.9
					c0.1,0.5,0.2,0.9,0.2,0.9s-0.5,0-1.2,0c-0.8,0-1.9,0.1-3.3,0.3c-1.4,0.2-3,0.6-4.7,1.2C841,540.9,839.3,542,837.5,543.6z"/>
			</g>
			<g id="XMLID_856_">
				<path id="XMLID_857_" class="st1" d="M837.5,530.4c0,0-0.1-0.3-0.1-0.8c0-0.5-0.1-1.3,0-2.2c0-0.5,0.1-1,0.2-1.6
					c0.1-0.6,0.3-1.2,0.5-1.9c0.4-1.3,1.1-2.7,2.1-4.2c0,0,0.3-0.1,1,0c0.7,0,1.7,0.1,2.9,0.5c1.2,0.3,2.7,0.9,4.4,1.8
					c1.7,0.9,3.6,2.1,5.7,3.6c0,0-0.1,0.3-0.3,0.8c-0.2,0.5-0.4,1.2-0.6,1.9c-0.1,0.3-0.2,0.7-0.2,1c-0.1,0.3-0.1,0.6-0.2,0.9
					c0,0.3-0.1,0.5-0.1,0.6c0,0.2,0,0.2,0,0.2s-0.4-0.2-1.2-0.5c-0.8-0.3-1.8-0.6-3.2-0.9c-1.4-0.3-3-0.6-4.8-0.5
					c-0.9,0-1.9,0.1-2.9,0.3C839.7,529.6,838.6,529.9,837.5,530.4z"/>
			</g>
			<g id="XMLID_854_">
				<path id="XMLID_855_" class="st1" d="M842.3,518c0,0,0-0.3,0.2-0.8c0.1-0.5,0.4-1.2,0.8-2.1c0.2-0.4,0.5-0.9,0.8-1.4
					c0.3-0.5,0.7-1,1.1-1.5c0.4-0.5,0.9-1.1,1.5-1.6c0.6-0.5,1.2-1,2-1.5c0,0,0.3,0.1,1,0.3c0.6,0.2,1.5,0.7,2.5,1.5
					c1,0.8,2.2,1.8,3.5,3.3c1.3,1.4,2.6,3.2,4,5.4c0,0-0.1,0.1-0.2,0.2c-0.1,0.1-0.3,0.3-0.5,0.5c-0.3,0.4-0.8,1-1.2,1.5
					c-0.4,0.6-0.8,1.2-1.1,1.6c-0.2,0.2-0.2,0.4-0.3,0.6c-0.1,0.1-0.1,0.2-0.1,0.2s-0.3-0.3-0.9-0.8c-0.6-0.5-1.5-1.2-2.6-2
					c-1.2-0.8-2.6-1.6-4.3-2.2c-0.9-0.3-1.8-0.6-2.8-0.8C844.6,518,843.5,518,842.3,518z"/>
			</g>
			<g id="XMLID_852_">
				<path id="XMLID_853_" class="st1" d="M851.3,508.2c0,0,0.1-0.2,0.4-0.7c0.3-0.4,0.8-1,1.5-1.7c0.4-0.3,0.8-0.7,1.2-1
					c0.2-0.2,0.5-0.4,0.7-0.5c0.3-0.2,0.6-0.3,0.9-0.5c0.6-0.3,1.3-0.7,2-1c0.4-0.2,0.7-0.3,1.1-0.4c0.4-0.1,0.8-0.2,1.2-0.3
					c0,0,1.2,0.8,2.6,2.9c0.7,1.1,1.4,2.5,2,4.3c0.7,1.8,1.2,4,1.8,6.5c0,0-0.1,0-0.2,0.1c-0.1,0-0.3,0.2-0.6,0.3
					c-0.2,0.1-0.5,0.3-0.8,0.5c-0.3,0.2-0.6,0.3-0.9,0.5c-0.6,0.4-1.2,0.8-1.6,1.1c-0.4,0.3-0.7,0.6-0.7,0.6s-0.2-0.4-0.6-1.1
					c-0.4-0.7-0.9-1.7-1.7-2.8c-0.8-1.1-1.8-2.4-3.2-3.6c-0.7-0.6-1.5-1.2-2.4-1.7C853.4,509.1,852.4,508.6,851.3,508.2z"/>
			</g>
			<g id="XMLID_850_">
				<path id="XMLID_851_" class="st1" d="M863.1,502.3c0,0,0.2-0.2,0.7-0.5c0.4-0.3,1.1-0.7,2-1c0.9-0.3,2.1-0.7,3.4-0.9
					c0.7-0.1,1.4-0.1,2.2-0.1c0.8,0,1.6,0,2.5,0.2c0,0,0.9,1.2,1.3,3.7c0.2,1.2,0.4,2.8,0.4,4.7c0,1.9-0.3,4.1-0.7,6.7
					c0,0-0.4,0-0.9,0.1c-0.3,0-0.6,0.1-0.9,0.1c-0.3,0.1-0.7,0.1-1,0.2c-0.3,0.1-0.7,0.1-1,0.2c-0.3,0-0.6,0.2-0.9,0.3
					c-0.5,0.2-0.8,0.3-0.8,0.3s0-0.5-0.1-1.2c-0.1-0.8-0.3-1.9-0.6-3.3c-0.3-1.4-0.8-2.9-1.7-4.6C866.1,505.5,865,503.9,863.1,502.3
					z"/>
			</g>
			<g id="XMLID_848_">
				<path id="XMLID_849_" class="st1" d="M876.3,501.1c0,0,0.1,0,0.2-0.1c0.1,0,0.3-0.1,0.6-0.1c0.5-0.1,1.3-0.2,2.2-0.2
					c1-0.1,2.2,0.1,3.5,0.4c0.3,0.1,0.7,0.2,1,0.3c0.4,0.1,0.7,0.2,1.1,0.4c0.7,0.3,1.5,0.6,2.3,1c0,0,0.1,0.3,0.1,1
					c0,0.7,0,1.7-0.2,2.9c-0.2,1.3-0.7,2.8-1.4,4.5c-0.7,1.8-1.8,3.8-3.1,6c0,0-0.3-0.1-0.9-0.3c-0.3-0.1-0.6-0.1-0.9-0.2
					c-0.3-0.1-0.7-0.1-1-0.2c-0.2,0-0.3-0.1-0.5-0.1c-0.2,0-0.3,0-0.5,0c-0.3,0-0.6-0.1-0.9-0.1c-0.3,0-0.5,0-0.6-0.1
					c-0.2,0-0.2,0-0.2,0c0,0,0.1-0.4,0.3-1.2c0.2-0.8,0.5-1.9,0.6-3.3c0.2-1.4,0.3-3,0.1-4.8C878,505.2,877.5,503.2,876.3,501.1z"/>
			</g>
			<g id="XMLID_846_">
				<path id="XMLID_847_" class="st1" d="M889.1,504.7c0,0,0.3,0,0.8,0.1c0.5,0.1,1.2,0.3,2.2,0.6c0.5,0.2,1,0.4,1.5,0.6
					c0.5,0.3,1.1,0.6,1.6,1c0.6,0.4,1.2,0.8,1.7,1.3c0.6,0.5,1.1,1.1,1.7,1.8c0,0-0.1,1.4-1.5,3.6c-0.7,1.1-1.6,2.4-2.9,3.7
					c-1.3,1.4-3,2.9-5,4.5c0,0-0.3-0.2-0.7-0.6c-0.5-0.3-1.1-0.7-1.7-1.1c-0.6-0.3-1.3-0.7-1.7-0.9c-0.2-0.1-0.4-0.2-0.6-0.3
					c-0.1-0.1-0.2-0.1-0.2-0.1s0.3-0.4,0.8-1c0.5-0.6,1.1-1.6,1.8-2.8c0.7-1.2,1.4-2.7,1.8-4.5C889.1,509.1,889.4,507,889.1,504.7z"
					/>
			</g>
			<g id="XMLID_844_">
				<path id="XMLID_845_" class="st1" d="M899.7,512.7c0,0,0.3,0.1,0.7,0.4c0.2,0.1,0.5,0.3,0.8,0.5c0.3,0.2,0.6,0.5,1,0.8
					c0.4,0.3,0.7,0.7,1.1,1.1c0.2,0.2,0.4,0.4,0.6,0.7c0.2,0.3,0.4,0.5,0.6,0.8c0.4,0.6,0.8,1.2,1.1,1.9c0.4,0.7,0.6,1.5,0.9,2.3
					c0,0-0.2,0.3-0.6,0.8c-0.4,0.5-1.1,1.2-2.1,2c-1,0.8-2.4,1.6-4.1,2.4c-1.7,0.8-3.8,1.6-6.3,2.4c0,0,0-0.1-0.1-0.2
					c0-0.1-0.1-0.2-0.1-0.2c-0.1-0.1-0.1-0.2-0.2-0.3c-0.3-0.4-0.7-1-1.1-1.6c-0.5-0.5-0.9-1.1-1.3-1.5c-0.4-0.4-0.6-0.6-0.6-0.6
					s0.4-0.2,1.1-0.7c0.7-0.4,1.6-1.1,2.7-2c1.1-0.9,2.2-2,3.3-3.5c0.5-0.7,1.1-1.6,1.5-2.5C899,514.9,899.4,513.9,899.7,512.7z"/>
			</g>
			<g id="XMLID_842_">
				<path id="XMLID_843_" class="st1" d="M906.6,524c0,0,0.2,0.2,0.5,0.6c0.2,0.2,0.3,0.5,0.6,0.8c0.2,0.3,0.5,0.7,0.7,1.1
					c0.4,0.9,0.9,2,1.2,3.3c0.1,0.7,0.3,1.4,0.3,2.2c0,0.4,0.1,0.8,0.1,1.2c0,0.4,0,0.8-0.1,1.3c0,0-1.1,1-3.5,1.7
					c-1.2,0.4-2.8,0.6-4.7,0.8c-1.9,0.1-4.1,0.1-6.8,0c0,0-0.1-0.4-0.2-0.9c-0.1-0.5-0.2-1.2-0.5-1.9c-0.2-0.7-0.4-1.4-0.6-1.8
					c-0.2-0.5-0.4-0.8-0.4-0.8s0.4-0.1,1.2-0.2c0.8-0.2,1.9-0.4,3.2-0.9c1.3-0.5,2.8-1.1,4.4-2.1C903.8,527.3,905.3,525.9,906.6,524
					z"/>
			</g>
		</g>
	</g>
	<circle id="XMLID_838_" class="st15" cx="872.3" cy="537.7" r="23.1"/>
	<g id="XMLID_801_">
		<defs>
			<circle id="XMLID_802_" cx="872.5" cy="537.7" r="35"/>
		</defs>
		<clipPath id="XMLID_7_">
			<use xlink:href="#XMLID_802_"  style="overflow:visible;"/>
		</clipPath>
		<g id="XMLID_803_" class="st21">
			<g id="XMLID_836_">
				<path id="XMLID_837_" class="st1" d="M909.1,537c0,0,0.4,1,0.7,3c0.2,1.9,0,4.8-1.3,8c0,0-0.3,0.1-1,0.2
					c-0.7,0.1-1.6,0.2-2.9,0.1c-1.3-0.1-2.8-0.4-4.6-1c-1.8-0.6-3.9-1.4-6.3-2.5c0,0,0.1-0.4,0.2-0.9c0-0.1,0.1-0.3,0.1-0.4
					c0-0.2,0-0.3,0-0.5c0-0.3,0.1-0.7,0.1-1c0.1-0.7,0-1.4,0-1.9c0-0.5,0-0.9,0-0.9s0.4,0.1,1.2,0.2c0.8,0.1,1.9,0.3,3.3,0.3
					c1.4,0.1,3,0,4.8-0.4C905.1,539,907.1,538.3,909.1,537z"/>
			</g>
			<g id="XMLID_834_">
				<path id="XMLID_835_" class="st1" d="M906.6,550c0,0,0,0.3,0,0.8c0,0.5-0.2,1.3-0.4,2.2c-0.1,0.5-0.3,1-0.5,1.5
					c-0.2,0.5-0.5,1.1-0.9,1.7c-0.3,0.6-0.7,1.3-1.2,1.9c-0.5,0.6-1,1.2-1.6,1.9c0,0-0.4,0-1-0.1c-0.6-0.1-1.6-0.4-2.7-1
					c-1.1-0.6-2.5-1.4-4-2.6c-1.5-1.2-3.1-2.7-5-4.6c0,0,0.2-0.3,0.5-0.8c0.3-0.5,0.6-1.1,0.9-1.7c0.3-0.6,0.5-1.3,0.7-1.8
					c0.1-0.1,0.1-0.2,0.1-0.3c0-0.1,0.1-0.2,0.1-0.3c0-0.1,0.1-0.2,0.1-0.2s0.4,0.3,1.1,0.7c0.7,0.4,1.7,1,3,1.5
					c1.3,0.5,2.8,1.1,4.6,1.4C902.2,550.5,904.4,550.6,906.6,550z"/>
			</g>
			<g id="XMLID_832_">
				<path id="XMLID_833_" class="st1" d="M899.7,561.3c0,0-0.1,0.3-0.3,0.7c-0.1,0.2-0.3,0.5-0.4,0.9c-0.2,0.3-0.4,0.7-0.7,1.1
					c-0.6,0.8-1.3,1.7-2.4,2.6c-0.5,0.4-1.1,0.9-1.8,1.3c-0.7,0.4-1.4,0.8-2.2,1.1c0,0-0.3-0.1-0.9-0.5c-0.6-0.4-1.3-0.9-2.2-1.9
					c-0.9-0.9-1.8-2.2-2.8-3.9c-1-1.6-2-3.7-3-6.1c0,0,0.1-0.1,0.2-0.1c0.1-0.1,0.3-0.2,0.5-0.4c0.4-0.4,1-0.8,1.5-1.3
					c0.5-0.5,1-1,1.4-1.4c0.3-0.4,0.5-0.7,0.5-0.7s0.3,0.4,0.8,1c0.5,0.6,1.2,1.5,2.2,2.5c1,1,2.2,2,3.8,3c0.8,0.5,1.7,0.9,2.6,1.3
					C897.4,560.9,898.5,561.1,899.7,561.3z"/>
			</g>
			<g id="XMLID_830_">
				<path id="XMLID_831_" class="st1" d="M889.1,569.3c0,0-0.2,0.2-0.6,0.6c-0.2,0.2-0.4,0.4-0.7,0.6c-0.2,0.1-0.3,0.2-0.5,0.4
					c-0.2,0.1-0.4,0.2-0.6,0.4c-0.4,0.2-0.9,0.5-1.4,0.8c-0.5,0.2-1.1,0.6-1.8,0.7c-1.3,0.4-2.9,0.8-4.6,0.8c0,0-1.1-1-2-3.3
					c-0.5-1.2-0.9-2.7-1.2-4.6c-0.3-1.9-0.5-4.1-0.6-6.7c0,0,0.1,0,0.2-0.1c0.2,0,0.4-0.1,0.6-0.2c0.3-0.1,0.6-0.2,0.9-0.3
					c0.2-0.1,0.3-0.1,0.5-0.2c0.2-0.1,0.3-0.1,0.5-0.2c0.3-0.1,0.6-0.3,1-0.4c0.2-0.1,0.3-0.1,0.4-0.2c0.1-0.1,0.3-0.1,0.4-0.2
					c0.5-0.3,0.8-0.4,0.8-0.4s0.1,0.4,0.3,1.2c0.2,0.8,0.6,1.8,1.2,3.1c0.6,1.3,1.3,2.7,2.5,4.2C885.6,566.7,887,568.1,889.1,569.3z
					"/>
			</g>
			<g id="XMLID_828_">
				<path id="XMLID_829_" class="st1" d="M876.3,572.9c0,0-1,0.5-2.9,1c-0.5,0.1-1,0.2-1.6,0.2c-0.6,0-1.2,0.1-1.9,0
					c-0.7,0-1.4-0.1-2.2-0.3c-0.8-0.2-1.6-0.3-2.4-0.6c0,0-0.6-1.3-0.6-3.9c0-1.3,0.1-2.8,0.5-4.7c0.4-1.9,1-4,1.9-6.5
					c0,0,0.4,0,0.9,0.1c0.5,0.1,1.3,0,2,0c0.4,0,0.7,0,1,0c0.3,0,0.6-0.1,0.9-0.1c0.5-0.1,0.9-0.1,0.9-0.1s-0.1,0.4-0.1,1.2
					c-0.1,0.8-0.1,1.9,0,3.3c0.1,1.4,0.3,3.1,0.8,4.8C874,569.2,874.8,571.1,876.3,572.9z"/>
			</g>
			<g id="XMLID_826_">
				<path id="XMLID_827_" class="st1" d="M863.1,571.7c0,0-0.3,0-0.8,0.1c-0.5,0-1.3-0.1-2.2-0.2c-0.5-0.1-1-0.2-1.6-0.3
					c-0.6-0.2-1.2-0.4-1.8-0.7c-0.3-0.1-0.6-0.3-1-0.4c-0.2-0.1-0.3-0.2-0.5-0.3c-0.2-0.1-0.3-0.2-0.5-0.3c-0.7-0.4-1.3-0.9-2-1.4
					c0,0,0-0.4,0.1-1c0.1-0.7,0.3-1.6,0.8-2.8c0.5-1.2,1.2-2.6,2.2-4.2c1-1.6,2.4-3.4,4.1-5.4c0,0,0.3,0.2,0.8,0.4
					c0.5,0.2,1.2,0.5,1.8,0.8c0.3,0.2,0.7,0.2,1,0.3c0.3,0.1,0.6,0.2,0.9,0.3c0.3,0.1,0.5,0.1,0.6,0.2c0.2,0,0.2,0,0.2,0
					s-0.2,0.4-0.6,1.1c-0.3,0.7-0.8,1.8-1.2,3.1c-0.4,1.3-0.8,2.9-1,4.7c-0.1,0.9-0.1,1.9,0,2.9c0.1,0.5,0.1,1.1,0.2,1.6
					C862.8,570.6,863,571.2,863.1,571.7z"/>
			</g>
			<g id="XMLID_824_">
				<path id="XMLID_825_" class="st1" d="M851.3,565.8c0,0-0.3-0.1-0.8-0.2c-0.2-0.1-0.6-0.2-0.9-0.4c-0.3-0.2-0.7-0.4-1.1-0.6
					c-0.8-0.5-1.8-1.2-2.8-2.2c-0.5-0.5-1-1-1.5-1.6c-0.5-0.6-0.9-1.3-1.3-2.1c0,0,0.1-0.3,0.4-0.9c0.3-0.6,0.8-1.4,1.7-2.3
					c0.9-1,2-2,3.6-3.1c1.5-1.1,3.5-2.3,5.8-3.5c0,0,0.1,0.1,0.2,0.2c0.1,0.1,0.2,0.3,0.4,0.5c0.4,0.4,0.9,0.9,1.4,1.4
					c0.6,0.4,1.1,0.9,1.5,1.2c0.2,0.2,0.4,0.3,0.5,0.4c0.1,0.1,0.2,0.1,0.2,0.1s-0.3,0.3-0.9,0.8c-0.6,0.6-1.4,1.4-2.3,2.4
					c-0.9,1.1-1.8,2.4-2.6,4.1c-0.4,0.8-0.8,1.7-1,2.8C851.5,563.6,851.3,564.6,851.3,565.8z"/>
			</g>
			<g id="XMLID_822_">
				<path id="XMLID_823_" class="st1" d="M842.3,556c0,0-0.2-0.2-0.6-0.5c-0.4-0.4-1-0.9-1.5-1.7c-0.3-0.4-0.6-0.8-0.9-1.3
					c-0.3-0.5-0.6-1.1-0.9-1.7c-0.5-1.3-1.1-2.8-1.3-4.5c0,0,0.9-1.1,3.1-2.3c1.1-0.6,2.6-1.1,4.5-1.6c1.9-0.5,4.1-0.9,6.7-1.2
					c0,0,0,0.1,0.1,0.2c0.1,0.1,0.2,0.4,0.3,0.6c0.1,0.2,0.2,0.5,0.4,0.8c0.1,0.3,0.3,0.6,0.5,0.9c0.4,0.6,0.7,1.2,1,1.7
					c0.3,0.4,0.5,0.7,0.5,0.7s-0.4,0.1-1.2,0.5c-0.7,0.3-1.8,0.8-3,1.5c-1.2,0.7-2.6,1.6-3.9,2.9C844.6,552.3,843.3,553.8,842.3,556
					z"/>
			</g>
			<g id="XMLID_820_">
				<path id="XMLID_821_" class="st1" d="M837.5,543.6c0,0-0.6-0.9-1.2-2.8c-0.2-0.9-0.5-2.1-0.6-3.5c-0.1-0.7,0-1.4,0.1-2.2
					c0-0.4,0.1-0.8,0.1-1.2c0.1-0.4,0.1-0.8,0.2-1.2c0,0,1.3-0.7,3.8-1c1.3-0.1,2.8-0.1,4.7,0.1c1.9,0.2,4.1,0.7,6.7,1.3
					c0,0,0,0.4,0,0.9c0,0.3,0,0.6,0,0.9c0,0.3,0.1,0.7,0.1,1.1c0,0.4,0.1,0.7,0.1,1c0.1,0.3,0.1,0.6,0.2,0.9
					c0.1,0.5,0.2,0.9,0.2,0.9s-0.5,0-1.2,0c-0.8,0-1.9,0.1-3.3,0.3c-1.4,0.2-3,0.6-4.7,1.2C841,540.9,839.3,542,837.5,543.6z"/>
			</g>
			<g id="XMLID_818_">
				<path id="XMLID_819_" class="st1" d="M837.5,530.4c0,0-0.1-0.3-0.1-0.8c0-0.5-0.1-1.3,0-2.2c0-0.5,0.1-1,0.2-1.6
					c0.1-0.6,0.3-1.2,0.5-1.9c0.4-1.3,1.1-2.7,2.1-4.2c0,0,0.3-0.1,1,0c0.7,0,1.7,0.1,2.9,0.5c1.2,0.3,2.7,0.9,4.4,1.8
					c1.7,0.9,3.6,2.1,5.7,3.6c0,0-0.1,0.3-0.3,0.8c-0.2,0.5-0.4,1.2-0.6,1.9c-0.1,0.3-0.2,0.7-0.2,1c-0.1,0.3-0.1,0.6-0.2,0.9
					c0,0.3-0.1,0.5-0.1,0.6c0,0.2,0,0.2,0,0.2s-0.4-0.2-1.2-0.5c-0.8-0.3-1.8-0.6-3.2-0.9c-1.4-0.3-3-0.6-4.8-0.5
					c-0.9,0-1.9,0.1-2.9,0.3C839.7,529.6,838.6,529.9,837.5,530.4z"/>
			</g>
			<g id="XMLID_816_">
				<path id="XMLID_817_" class="st1" d="M842.3,518c0,0,0-0.3,0.2-0.8c0.1-0.5,0.4-1.2,0.8-2.1c0.2-0.4,0.5-0.9,0.8-1.4
					c0.3-0.5,0.7-1,1.1-1.5c0.4-0.5,0.9-1.1,1.5-1.6c0.6-0.5,1.2-1,2-1.5c0,0,0.3,0.1,1,0.3c0.6,0.2,1.5,0.7,2.5,1.5
					c1,0.8,2.2,1.8,3.5,3.3c1.3,1.4,2.6,3.2,4,5.4c0,0-0.1,0.1-0.2,0.2c-0.1,0.1-0.3,0.3-0.5,0.5c-0.3,0.4-0.8,1-1.2,1.5
					c-0.4,0.6-0.8,1.2-1.1,1.6c-0.2,0.2-0.2,0.4-0.3,0.6c-0.1,0.1-0.1,0.2-0.1,0.2s-0.3-0.3-0.9-0.8c-0.6-0.5-1.5-1.2-2.6-2
					c-1.2-0.8-2.6-1.6-4.3-2.2c-0.9-0.3-1.8-0.6-2.8-0.8C844.6,518,843.5,518,842.3,518z"/>
			</g>
			<g id="XMLID_814_">
				<path id="XMLID_815_" class="st1" d="M851.3,508.2c0,0,0.1-0.2,0.4-0.7c0.3-0.4,0.8-1,1.5-1.7c0.4-0.3,0.8-0.7,1.2-1
					c0.2-0.2,0.5-0.4,0.7-0.5c0.3-0.2,0.6-0.3,0.9-0.5c0.6-0.3,1.3-0.7,2-1c0.4-0.2,0.7-0.3,1.1-0.4c0.4-0.1,0.8-0.2,1.2-0.3
					c0,0,1.2,0.8,2.6,2.9c0.7,1.1,1.4,2.5,2,4.3c0.7,1.8,1.2,4,1.8,6.5c0,0-0.1,0-0.2,0.1c-0.1,0-0.3,0.2-0.6,0.3
					c-0.2,0.1-0.5,0.3-0.8,0.5c-0.3,0.2-0.6,0.3-0.9,0.5c-0.6,0.4-1.2,0.8-1.6,1.1c-0.4,0.3-0.7,0.6-0.7,0.6s-0.2-0.4-0.6-1.1
					c-0.4-0.7-0.9-1.7-1.7-2.8c-0.8-1.1-1.8-2.4-3.2-3.6c-0.7-0.6-1.5-1.2-2.4-1.7C853.4,509.1,852.4,508.6,851.3,508.2z"/>
			</g>
			<g id="XMLID_812_">
				<path id="XMLID_813_" class="st1" d="M863.1,502.3c0,0,0.2-0.2,0.7-0.5c0.4-0.3,1.1-0.7,2-1c0.9-0.3,2.1-0.7,3.4-0.9
					c0.7-0.1,1.4-0.1,2.2-0.1c0.8,0,1.6,0,2.5,0.2c0,0,0.9,1.2,1.3,3.7c0.2,1.2,0.4,2.8,0.4,4.7c0,1.9-0.3,4.1-0.7,6.7
					c0,0-0.4,0-0.9,0.1c-0.3,0-0.6,0.1-0.9,0.1c-0.3,0.1-0.7,0.1-1,0.2c-0.3,0.1-0.7,0.1-1,0.2c-0.3,0-0.6,0.2-0.9,0.3
					c-0.5,0.2-0.8,0.3-0.8,0.3s0-0.5-0.1-1.2c-0.1-0.8-0.3-1.9-0.6-3.3c-0.3-1.4-0.8-2.9-1.7-4.6C866.1,505.5,865,503.9,863.1,502.3
					z"/>
			</g>
			<g id="XMLID_810_">
				<path id="XMLID_811_" class="st1" d="M876.3,501.1c0,0,0.1,0,0.2-0.1c0.1,0,0.3-0.1,0.6-0.1c0.5-0.1,1.3-0.2,2.2-0.2
					c1-0.1,2.2,0.1,3.5,0.4c0.3,0.1,0.7,0.2,1,0.3c0.4,0.1,0.7,0.2,1.1,0.4c0.7,0.3,1.5,0.6,2.3,1c0,0,0.1,0.3,0.1,1
					c0,0.7,0,1.7-0.2,2.9c-0.2,1.3-0.7,2.8-1.4,4.5c-0.7,1.8-1.8,3.8-3.1,6c0,0-0.3-0.1-0.9-0.3c-0.3-0.1-0.6-0.1-0.9-0.2
					c-0.3-0.1-0.7-0.1-1-0.2c-0.2,0-0.3-0.1-0.5-0.1c-0.2,0-0.3,0-0.5,0c-0.3,0-0.6-0.1-0.9-0.1c-0.3,0-0.5,0-0.6-0.1
					c-0.2,0-0.2,0-0.2,0c0,0,0.1-0.4,0.3-1.2c0.2-0.8,0.5-1.9,0.6-3.3c0.2-1.4,0.3-3,0.1-4.8C878,505.2,877.5,503.2,876.3,501.1z"/>
			</g>
			<g id="XMLID_808_">
				<path id="XMLID_809_" class="st1" d="M889.1,504.7c0,0,0.3,0,0.8,0.1c0.5,0.1,1.2,0.3,2.2,0.6c0.5,0.2,1,0.4,1.5,0.6
					c0.5,0.3,1.1,0.6,1.6,1c0.6,0.4,1.2,0.8,1.7,1.3c0.6,0.5,1.1,1.1,1.7,1.8c0,0-0.1,1.4-1.5,3.6c-0.7,1.1-1.6,2.4-2.9,3.7
					c-1.3,1.4-3,2.9-5,4.5c0,0-0.3-0.2-0.7-0.6c-0.5-0.3-1.1-0.7-1.7-1.1c-0.6-0.3-1.3-0.7-1.7-0.9c-0.2-0.1-0.4-0.2-0.6-0.3
					c-0.1-0.1-0.2-0.1-0.2-0.1s0.3-0.4,0.8-1c0.5-0.6,1.1-1.6,1.8-2.8c0.7-1.2,1.4-2.7,1.8-4.5C889.1,509.1,889.4,507,889.1,504.7z"
					/>
			</g>
			<g id="XMLID_806_">
				<path id="XMLID_807_" class="st1" d="M899.7,512.7c0,0,0.3,0.1,0.7,0.4c0.2,0.1,0.5,0.3,0.8,0.5c0.3,0.2,0.6,0.5,1,0.8
					c0.4,0.3,0.7,0.7,1.1,1.1c0.2,0.2,0.4,0.4,0.6,0.7c0.2,0.3,0.4,0.5,0.6,0.8c0.4,0.6,0.8,1.2,1.1,1.9c0.4,0.7,0.6,1.5,0.9,2.3
					c0,0-0.2,0.3-0.6,0.8c-0.4,0.5-1.1,1.2-2.1,2c-1,0.8-2.4,1.6-4.1,2.4c-1.7,0.8-3.8,1.6-6.3,2.4c0,0,0-0.1-0.1-0.2
					c0-0.1-0.1-0.2-0.1-0.2c-0.1-0.1-0.1-0.2-0.2-0.3c-0.3-0.4-0.7-1-1.1-1.6c-0.5-0.5-0.9-1.1-1.3-1.5c-0.4-0.4-0.6-0.6-0.6-0.6
					s0.4-0.2,1.1-0.7c0.7-0.4,1.6-1.1,2.7-2c1.1-0.9,2.2-2,3.3-3.5c0.5-0.7,1.1-1.6,1.5-2.5C899,514.9,899.4,513.9,899.7,512.7z"/>
			</g>
			<g id="XMLID_804_">
				<path id="XMLID_805_" class="st1" d="M906.6,524c0,0,0.2,0.2,0.5,0.6c0.2,0.2,0.3,0.5,0.6,0.8c0.2,0.3,0.5,0.7,0.7,1.1
					c0.4,0.9,0.9,2,1.2,3.3c0.1,0.7,0.3,1.4,0.3,2.2c0,0.4,0.1,0.8,0.1,1.2c0,0.4,0,0.8-0.1,1.3c0,0-1.1,1-3.5,1.7
					c-1.2,0.4-2.8,0.6-4.7,0.8c-1.9,0.1-4.1,0.1-6.8,0c0,0-0.1-0.4-0.2-0.9c-0.1-0.5-0.2-1.2-0.5-1.9c-0.2-0.7-0.4-1.4-0.6-1.8
					c-0.2-0.5-0.4-0.8-0.4-0.8s0.4-0.1,1.2-0.2c0.8-0.2,1.9-0.4,3.2-0.9c1.3-0.5,2.8-1.1,4.4-2.1C903.8,527.3,905.3,525.9,906.6,524
					z"/>
			</g>
		</g>
	</g>
	<circle id="XMLID_800_" class="st6" cx="872.4" cy="537.5" r="23.4"/>
	<circle id="XMLID_799_" class="st17" cx="872.3" cy="537.7" r="19.2"/>
	<circle id="XMLID_798_" class="st13" cx="872.4" cy="537.6" r="2.8"/>
</g>
</svg>
