<?xml version="1.0" encoding="utf-8"?>
<!-- Generator: Adobe Illustrator 19.0.0, SVG Export Plug-In . SVG Version: 6.00 Build 0)  -->
<svg version="1.1" id="Layer_1" xmlns="http://www.w3.org/2000/svg" xmlns:xlink="http://www.w3.org/1999/xlink" x="0px" y="0px"
	 viewBox="0 0 1920 1080" style="enable-background:new 0 0 1920 1080;" xml:space="preserve">
<style type="text/css">
	.st0{fill:#333333;}
	.st1{fill:#007C94;}
	.st2{fill:#666666;}
	.st3{fill:#7AC943;stroke:#000000;stroke-width:5;stroke-miterlimit:10;}
	.st4{fill:#7AC943;}
	.st5{fill:#FF432A;}
	.st6{fill:#333333;stroke:#000000;stroke-width:3;stroke-miterlimit:10;}
	.st7{fill:#333333;stroke:#1A1A1A;stroke-width:3;stroke-miterlimit:10;}
	.st8{fill:#FFFFFF;}
	.st9{fill:#999999;stroke:#000000;stroke-width:5;stroke-miterlimit:10;}
	.st10{fill:none;}
	.st11{font-family:'SnapITC-Regular';}
	.st12{font-size:180px;}
</style>
<rect id="XMLID_1_" x="681.8" y="134" class="st0" width="460.2" height="788.5"/>
<g id="XMLID_8_">
	<rect id="XMLID_2_" x="681.8" y="173.8" width="348.8" height="17.7"/>
	<rect id="XMLID_3_" x="1030.6" y="174" class="st1" width="111.4" height="17.6"/>
</g>
<g id="XMLID_9_">
	<rect id="XMLID_5_" x="681.8" y="207.3" width="348.8" height="17.7"/>
	<rect id="XMLID_4_" x="1030.6" y="207.5" class="st1" width="111.4" height="17.6"/>
</g>
<g id="XMLID_10_">
	<rect id="XMLID_7_" x="681.8" y="240.8" width="348.8" height="17.7"/>
	<rect id="XMLID_6_" x="1030.6" y="241" class="st1" width="111.4" height="17.6"/>
</g>
<path id="XMLID_11_" class="st2" d="M1028.8,508h69c6.6,0,12,5.4,12,12v352c0,6.6-5.4,12-12,12h-69c-6.6,0-12-5.4-12-12V520
	C1016.8,513.4,1022.2,508,1028.8,508z"/>
<circle id="XMLID_12_" class="st3" cx="1063.2" cy="560.2" r="31.8"/>
<g id="XMLID_16_">
	<g id="Layer_8_59_">
		<path id="XMLID_17_" d="M1081.4,562.2c0,10-8.2,18.2-18.2,18.2c-10,0-18.2-8.2-18.2-18.2c0-7.5,4.7-14.3,11.7-17
			c1.2-0.4,2.5,0.1,2.9,1.3c0.4,1.2-0.1,2.5-1.3,2.9c-5.2,2-8.8,7.1-8.8,12.8c0,7.5,6.1,13.7,13.7,13.7c7.5,0,13.7-6.1,13.7-13.7
			c0-5.5-3.3-10.4-8.3-12.6c-1.1-0.5-1.7-1.8-1.2-3c0.5-1.1,1.8-1.7,3-1.2C1077.1,548.3,1081.4,554.9,1081.4,562.2z M1063.4,560.5
			c1.2,0,2.3-1,2.3-2.3v-16c0-1.2-1-2.3-2.3-2.3c-1.2,0-2.3,1-2.3,2.3v16C1061.2,559.5,1062.2,560.5,1063.4,560.5z"/>
	</g>
</g>
<circle id="XMLID_15_" class="st4" cx="1045.3" cy="620.3" r="10.8"/>
<circle id="XMLID_18_" class="st5" cx="1081.3" cy="620.3" r="10.8"/>
<circle id="XMLID_19_" class="st6" cx="1045.3" cy="859.8" r="11.8"/>
<circle id="XMLID_20_" class="st6" cx="1081.3" cy="859.8" r="11.8"/>
<g id="XMLID_28_">
	<rect id="XMLID_21_" x="1033.5" y="649" class="st7" width="59.7" height="53"/>
	<rect id="XMLID_22_" x="1050.4" y="650.5" class="st8" width="12.1" height="49.9"/>
	<rect id="XMLID_23_" x="1079.9" y="650.5" class="st8" width="12.1" height="49.9"/>
</g>
<g id="XMLID_27_">
	<rect id="XMLID_26_" x="1033.5" y="709.5" class="st7" width="59.7" height="53"/>
	<rect id="XMLID_25_" x="1050.4" y="711" class="st8" width="12.1" height="49.9"/>
	<rect id="XMLID_24_" x="1079.9" y="711" class="st8" width="12.1" height="49.9"/>
</g>
<g id="XMLID_29_">
	<rect id="XMLID_32_" x="1033.5" y="770" class="st7" width="59.7" height="53"/>
	<rect id="XMLID_31_" x="1050.4" y="771.5" class="st8" width="12.1" height="49.9"/>
	<rect id="XMLID_30_" x="1079.9" y="771.5" class="st8" width="12.1" height="49.9"/>
</g>
<rect id="XMLID_33_" x="732.1" y="293.1" class="st9" width="359.9" height="67.5"/>
<circle id="XMLID_34_" class="st9" cx="1077.3" cy="390.7" r="14.7"/>
<circle id="XMLID_35_" class="st9" cx="1020.3" cy="390.7" r="14.7"/>
<circle id="XMLID_36_" class="st1" cx="841.9" cy="668.1" r="129.1"/>
<rect id="XMLID_52_" x="703.2" y="603.1" class="st10" width="376.7" height="293"/>
<text id="XMLID_38_" transform="matrix(1 0 0 1 703.2094 734.3011)" class="st0 st11 st12">DY</text>
</svg>
