<?xml version="1.0" encoding="utf-8"?>
<!-- Generator: Adobe Illustrator 19.0.0, SVG Export Plug-In . SVG Version: 6.00 Build 0)  -->
<svg version="1.1" id="Layer_1" xmlns="http://www.w3.org/2000/svg" xmlns:xlink="http://www.w3.org/1999/xlink" x="0px" y="0px"
	 viewBox="0 0 1920 1080" style="enable-background:new 0 0 1920 1080;" xml:space="preserve">
<style type="text/css">
	.st0{fill:#333333;}
	.st1{fill:#007C94;}
	.st2{fill:#666666;}
	.st3{fill:#7AC943;stroke:#000000;stroke-width:5;stroke-miterlimit:10;}
	.st4{fill:#7AC943;}
	.st5{fill:#FF432A;}
	.st6{fill:#333333;stroke:#000000;stroke-width:3;stroke-miterlimit:10;}
	.st7{fill:#333333;stroke:#1A1A1A;stroke-width:3;stroke-miterlimit:10;}
	.st8{fill:#FFFFFF;}
	.st9{fill:#999999;stroke:#000000;stroke-width:5;stroke-miterlimit:10;}
	.st10{fill:none;}
	.st11{font-family:'SnapITC-Regular';}
	.st12{font-size:180px;}
</style>
<rect id="XMLID_76_" x="701.8" y="135" class="st0" width="460.2" height="788.5"/>
<g id="XMLID_73_">
	<rect id="XMLID_75_" x="701.8" y="174.8" width="348.8" height="17.7"/>
	<rect id="XMLID_74_" x="1050.6" y="175" class="st1" width="111.4" height="17.6"/>
</g>
<g id="XMLID_70_">
	<rect id="XMLID_72_" x="701.8" y="208.3" width="348.8" height="17.7"/>
	<rect id="XMLID_71_" x="1050.6" y="208.5" class="st1" width="111.4" height="17.6"/>
</g>
<g id="XMLID_67_">
	<rect id="XMLID_69_" x="701.8" y="241.8" width="348.8" height="17.7"/>
	<rect id="XMLID_68_" x="1050.6" y="242" class="st1" width="111.4" height="17.6"/>
</g>
<path id="XMLID_66_" class="st2" d="M1048.8,509h69c6.6,0,12,5.4,12,12v352c0,6.6-5.4,12-12,12h-69c-6.6,0-12-5.4-12-12V521
	C1036.8,514.4,1042.2,509,1048.8,509z"/>
<circle id="XMLID_65_" class="st3" cx="1083.2" cy="561.2" r="31.8"/>
<g id="XMLID_61_">
	<g id="Layer_8_1_">
		<path id="XMLID_62_" d="M1101.4,563.2c0,10-8.2,18.2-18.2,18.2c-10,0-18.2-8.2-18.2-18.2c0-7.5,4.7-14.3,11.7-17
			c1.2-0.4,2.5,0.1,2.9,1.3c0.4,1.2-0.1,2.5-1.3,2.9c-5.2,2-8.8,7.1-8.8,12.8c0,7.5,6.1,13.7,13.7,13.7c7.5,0,13.7-6.1,13.7-13.7
			c0-5.5-3.3-10.4-8.3-12.6c-1.1-0.5-1.7-1.8-1.2-3c0.5-1.1,1.8-1.7,3-1.2C1097.1,549.3,1101.4,555.9,1101.4,563.2z M1083.4,561.5
			c1.2,0,2.3-1,2.3-2.3v-16c0-1.2-1-2.3-2.3-2.3c-1.2,0-2.3,1-2.3,2.3v16C1081.2,560.5,1082.2,561.5,1083.4,561.5z"/>
	</g>
</g>
<circle id="XMLID_60_" class="st4" cx="1065.3" cy="621.3" r="10.8"/>
<circle id="XMLID_59_" class="st5" cx="1101.3" cy="621.3" r="10.8"/>
<circle id="XMLID_58_" class="st6" cx="1065.3" cy="860.8" r="11.8"/>
<circle id="XMLID_57_" class="st6" cx="1101.3" cy="860.8" r="11.8"/>
<g id="XMLID_53_">
	<rect id="XMLID_56_" x="1053.5" y="650" class="st7" width="59.7" height="53"/>
	<rect id="XMLID_55_" x="1070.4" y="651.5" class="st8" width="12.1" height="49.9"/>
	<rect id="XMLID_54_" x="1099.9" y="651.5" class="st8" width="12.1" height="49.9"/>
</g>
<g id="XMLID_48_">
	<rect id="XMLID_51_" x="1053.5" y="710.5" class="st7" width="59.7" height="53"/>
	<rect id="XMLID_50_" x="1070.4" y="712" class="st8" width="12.1" height="49.9"/>
	<rect id="XMLID_49_" x="1099.9" y="712" class="st8" width="12.1" height="49.9"/>
</g>
<g id="XMLID_44_">
	<rect id="XMLID_47_" x="1053.5" y="771" class="st7" width="59.7" height="53"/>
	<rect id="XMLID_46_" x="1070.4" y="772.5" class="st8" width="12.1" height="49.9"/>
	<rect id="XMLID_45_" x="1099.9" y="772.5" class="st8" width="12.1" height="49.9"/>
</g>
<rect id="XMLID_43_" x="752.1" y="279.1" class="st9" width="359.9" height="67.5"/>
<circle id="XMLID_40_" class="st1" cx="861.9" cy="669.1" r="129.1"/>
<rect id="XMLID_18_" x="723.2" y="604.1" class="st10" width="376.7" height="293"/>
<text id="XMLID_39_" transform="matrix(1 0 0 1 723.2094 735.3011)" class="st0 st11 st12">DY</text>
<rect id="XMLID_79_" x="752.1" y="366.1" class="st9" width="359.9" height="67.5"/>
<circle id="XMLID_41_" class="st9" cx="1101.3" cy="462.7" r="14.7"/>
<circle id="XMLID_42_" class="st9" cx="1054.3" cy="462.7" r="14.7"/>
</svg>
