<?xml version="1.0" encoding="utf-8"?>
<!-- Generator: Adobe Illustrator 19.0.0, SVG Export Plug-In . SVG Version: 6.00 Build 0)  -->
<svg version="1.1" id="Layer_1" xmlns="http://www.w3.org/2000/svg" xmlns:xlink="http://www.w3.org/1999/xlink" x="0px" y="0px"
	 viewBox="0 0 1920 1080" style="enable-background:new 0 0 1920 1080;" xml:space="preserve">
<style type="text/css">
	.st0{fill:#333333;}
	.st1{fill:#007C94;}
	.st2{fill:#666666;}
	.st3{fill:#7AC943;stroke:#000000;stroke-width:5;stroke-miterlimit:10;}
	.st4{fill:#7AC943;}
	.st5{fill:#FF432A;}
	.st6{fill:#333333;stroke:#000000;stroke-width:3;stroke-miterlimit:10;}
	.st7{fill:#333333;stroke:#1A1A1A;stroke-width:3;stroke-miterlimit:10;}
	.st8{fill:#FFFFFF;}
	.st9{fill:#999999;stroke:#000000;stroke-width:5;stroke-miterlimit:10;}
	.st10{fill:none;}
	.st11{font-family:'SnapITC-Regular';}
	.st12{font-size:180px;}
</style>
<rect id="XMLID_116_" x="757.8" y="174" class="st0" width="460.2" height="788.5"/>
<g id="XMLID_113_">
	<rect id="XMLID_115_" x="757.8" y="197.8" width="348.8" height="17.7"/>
	<rect id="XMLID_114_" x="1106.6" y="198" class="st1" width="111.4" height="17.6"/>
</g>
<g id="XMLID_110_">
	<rect id="XMLID_112_" x="757.8" y="231.3" width="348.8" height="17.7"/>
	<rect id="XMLID_111_" x="1106.6" y="231.5" class="st1" width="111.4" height="17.6"/>
</g>
<g id="XMLID_107_">
	<rect id="XMLID_109_" x="758" y="922.8" width="348.8" height="17.7"/>
	<rect id="XMLID_108_" x="1106.7" y="922.9" class="st1" width="111.4" height="17.6"/>
</g>
<path id="XMLID_106_" class="st2" d="M1104.8,528h69c6.6,0,12,5.4,12,12v352c0,6.6-5.4,12-12,12h-69c-6.6,0-12-5.4-12-12V540
	C1092.8,533.4,1098.2,528,1104.8,528z"/>
<circle id="XMLID_105_" class="st3" cx="1139.2" cy="580.2" r="31.8"/>
<g id="XMLID_101_">
	<g id="Layer_8_2_">
		<path id="XMLID_102_" d="M1157.4,582.2c0,10-8.2,18.2-18.2,18.2c-10,0-18.2-8.2-18.2-18.2c0-7.5,4.7-14.3,11.7-17
			c1.2-0.4,2.5,0.1,2.9,1.3c0.4,1.2-0.1,2.5-1.3,2.9c-5.2,2-8.8,7.1-8.8,12.8c0,7.5,6.1,13.7,13.7,13.7c7.5,0,13.7-6.1,13.7-13.7
			c0-5.5-3.3-10.4-8.3-12.6c-1.1-0.5-1.7-1.8-1.2-3c0.5-1.1,1.8-1.7,3-1.2C1153.1,568.3,1157.4,574.9,1157.4,582.2z M1139.4,580.5
			c1.2,0,2.3-1,2.3-2.3v-16c0-1.2-1-2.3-2.3-2.3c-1.2,0-2.3,1-2.3,2.3v16C1137.2,579.5,1138.2,580.5,1139.4,580.5z"/>
	</g>
</g>
<circle id="XMLID_100_" class="st4" cx="1121.3" cy="640.3" r="10.8"/>
<circle id="XMLID_99_" class="st5" cx="1157.3" cy="640.3" r="10.8"/>
<circle id="XMLID_98_" class="st6" cx="1121.3" cy="879.8" r="11.8"/>
<circle id="XMLID_97_" class="st6" cx="1157.3" cy="879.8" r="11.8"/>
<g id="XMLID_93_">
	<rect id="XMLID_96_" x="1109.5" y="669" class="st7" width="59.7" height="53"/>
	<rect id="XMLID_95_" x="1126.4" y="670.5" class="st8" width="12.1" height="49.9"/>
	<rect id="XMLID_94_" x="1155.9" y="670.5" class="st8" width="12.1" height="49.9"/>
</g>
<g id="XMLID_89_">
	<rect id="XMLID_92_" x="1109.5" y="729.5" class="st7" width="59.7" height="53"/>
	<rect id="XMLID_91_" x="1126.4" y="731" class="st8" width="12.1" height="49.9"/>
	<rect id="XMLID_90_" x="1155.9" y="731" class="st8" width="12.1" height="49.9"/>
</g>
<g id="XMLID_85_">
	<rect id="XMLID_88_" x="1109.5" y="790" class="st7" width="59.7" height="53"/>
	<rect id="XMLID_87_" x="1126.4" y="791.5" class="st8" width="12.1" height="49.9"/>
	<rect id="XMLID_86_" x="1155.9" y="791.5" class="st8" width="12.1" height="49.9"/>
</g>
<rect id="XMLID_84_" x="807.9" y="269.8" class="st9" width="359.9" height="67.5"/>
<circle id="XMLID_83_" class="st1" cx="917.9" cy="708.1" r="129.1"/>
<rect id="XMLID_20_" x="779.2" y="643.1" class="st10" width="376.7" height="293"/>
<text id="XMLID_81_" transform="matrix(1 0 0 1 779.2094 774.3011)" class="st0 st11 st12">DY</text>
<rect id="XMLID_80_" x="807.9" y="354.6" class="st9" width="359.9" height="67.5"/>
<rect id="XMLID_77_" x="807.9" y="439.4" class="st9" width="359.9" height="67.5"/>
<circle id="XMLID_78_" class="st9" cx="819.3" cy="538.7" r="14.7"/>
<circle id="XMLID_117_" class="st9" cx="863.3" cy="538.7" r="14.7"/>
<circle id="XMLID_118_" class="st9" cx="907.3" cy="538.7" r="14.7"/>
</svg>
