<?xml version="1.0" encoding="utf-8"?>
<!-- Generator: Adobe Illustrator 19.0.0, SVG Export Plug-In . SVG Version: 6.00 Build 0)  -->
<svg version="1.1" id="Layer_1" xmlns="http://www.w3.org/2000/svg" xmlns:xlink="http://www.w3.org/1999/xlink" x="0px" y="0px"
	 viewBox="0 0 1920 1080" style="enable-background:new 0 0 1920 1080;" xml:space="preserve">
<style type="text/css">
	.st0{fill:#1F3147;}
	.st1{fill:#FFFFFF;}
	.st2{fill:none;stroke:#FFFFFF;stroke-width:5;stroke-miterlimit:10;}
	.st3{fill:none;stroke:#FFFFFF;stroke-width:6;stroke-miterlimit:10;}
	.st4{fill:none;stroke:#FFFFFF;stroke-width:13;stroke-miterlimit:10;}
	.st5{fill:none;stroke:#FFFFFF;stroke-width:8;stroke-miterlimit:10;}
	.st6{fill:none;stroke:#FFFFFF;stroke-width:4;stroke-miterlimit:10;}
</style>
<rect id="XMLID_101_" x="600.2" y="364.1" class="st0" width="796.5" height="455.8"/>
<g id="XMLID_102_">
	<path id="XMLID_100_" class="st1" d="M795.3,766.8H700c-15.6-15.6-24.4-24.4-40-40v-52.9h175.2v52.9
		C819.6,742.4,810.9,751.2,795.3,766.8z"/>
	<rect id="XMLID_99_" x="692.6" y="688.6" class="st0" width="16.8" height="27.4"/>
	<rect id="XMLID_98_" x="787.6" y="688.6" class="st0" width="16.8" height="27.4"/>
	<rect id="XMLID_97_" x="740.1" y="728.6" class="st0" width="16.8" height="27.4"/>
</g>
<rect id="XMLID_96_" x="1149" y="677" class="st1" width="187.3" height="76"/>
<rect id="XMLID_95_" x="1163" y="685.7" class="st0" width="157.3" height="59.3"/>
<circle id="XMLID_94_" class="st2" cx="1287.8" cy="714.8" r="17.8"/>
<rect id="XMLID_93_" x="1181" y="711" class="st1" width="47.5" height="10.7"/>
<g id="XMLID_117_">
	<line id="XMLID_66_" class="st3" x1="923" y1="684" x2="1070" y2="684"/>
	<line id="XMLID_65_" class="st3" x1="923" y1="701" x2="1070" y2="701"/>
	<line id="XMLID_64_" class="st3" x1="923" y1="719" x2="1070" y2="719"/>
	<line id="XMLID_63_" class="st3" x1="923" y1="736" x2="1070" y2="736"/>
	<line id="XMLID_62_" class="st3" x1="923" y1="753" x2="1070" y2="753"/>
</g>
<g id="XMLID_116_">
	<g id="XMLID_80_">
		<g id="XMLID_87_">
			<circle id="XMLID_92_" class="st4" cx="649.2" cy="402.2" r="8.1"/>
			<circle id="XMLID_91_" class="st4" cx="832.7" cy="402.2" r="8.1"/>
			<g id="XMLID_88_">
				<circle id="XMLID_90_" class="st4" cx="832.7" cy="578" r="8.1"/>
				<circle id="XMLID_89_" class="st4" cx="649.2" cy="578" r="8.1"/>
			</g>
		</g>
		<g id="XMLID_81_">
			<circle id="XMLID_86_" class="st4" cx="740.9" cy="490.1" r="97.8"/>
			<circle id="XMLID_85_" class="st4" cx="740.7" cy="490.1" r="82"/>
			<circle id="XMLID_84_" class="st5" cx="740.7" cy="490.1" r="67.9"/>
			<circle id="XMLID_83_" class="st3" cx="740.9" cy="490.1" r="47.9"/>
			<circle id="XMLID_82_" class="st6" cx="741" cy="490.1" r="35.7"/>
		</g>
	</g>
	<g id="XMLID_67_">
		<g id="XMLID_74_">
			<circle id="XMLID_79_" class="st4" cx="906.7" cy="402.2" r="8.1"/>
			<circle id="XMLID_78_" class="st4" cx="1090.2" cy="402.2" r="8.1"/>
			<g id="XMLID_75_">
				<circle id="XMLID_77_" class="st4" cx="1090.2" cy="578" r="8.1"/>
				<circle id="XMLID_76_" class="st4" cx="906.7" cy="578" r="8.1"/>
			</g>
		</g>
		<g id="XMLID_68_">
			<circle id="XMLID_73_" class="st4" cx="998.4" cy="490.1" r="97.8"/>
			<circle id="XMLID_72_" class="st4" cx="998.2" cy="490.1" r="82"/>
			<circle id="XMLID_71_" class="st5" cx="998.2" cy="490.1" r="67.9"/>
			<circle id="XMLID_70_" class="st3" cx="998.4" cy="490.1" r="47.9"/>
			<circle id="XMLID_69_" class="st6" cx="998.5" cy="490.1" r="35.7"/>
		</g>
	</g>
	<g id="XMLID_103_">
		<g id="XMLID_110_">
			<circle id="XMLID_115_" class="st4" cx="1164.2" cy="402.2" r="8.1"/>
			<circle id="XMLID_114_" class="st4" cx="1347.7" cy="402.2" r="8.1"/>
			<g id="XMLID_111_">
				<circle id="XMLID_113_" class="st4" cx="1347.7" cy="578" r="8.1"/>
				<circle id="XMLID_112_" class="st4" cx="1164.2" cy="578" r="8.1"/>
			</g>
		</g>
		<g id="XMLID_104_">
			<circle id="XMLID_109_" class="st4" cx="1255.9" cy="490.1" r="97.8"/>
			<circle id="XMLID_108_" class="st4" cx="1255.7" cy="490.1" r="82"/>
			<circle id="XMLID_107_" class="st5" cx="1255.7" cy="490.1" r="67.9"/>
			<circle id="XMLID_106_" class="st3" cx="1255.9" cy="490.1" r="47.9"/>
			<circle id="XMLID_105_" class="st6" cx="1256" cy="490.1" r="35.7"/>
		</g>
	</g>
</g>
</svg>
