<?xml version="1.0" encoding="utf-8"?>
<!-- Generator: Adobe Illustrator 19.0.0, SVG Export Plug-In . SVG Version: 6.00 Build 0)  -->
<svg version="1.1" id="Layer_1" xmlns="http://www.w3.org/2000/svg" xmlns:xlink="http://www.w3.org/1999/xlink" x="0px" y="0px"
	 viewBox="0 0 1920 1080" style="enable-background:new 0 0 1920 1080;" xml:space="preserve">
<style type="text/css">
	.st0{fill:#1F3147;}
	.st1{fill:#FFFFFF;}
	.st2{fill:none;stroke:#FFFFFF;stroke-width:5;stroke-miterlimit:10;}
	.st3{fill:none;stroke:#FFFFFF;stroke-width:13;stroke-miterlimit:10;}
	.st4{fill:none;stroke:#FFFFFF;stroke-width:8;stroke-miterlimit:10;}
	.st5{fill:none;stroke:#FFFFFF;stroke-width:6;stroke-miterlimit:10;}
	.st6{fill:none;stroke:#FFFFFF;stroke-width:4;stroke-miterlimit:10;}
</style>
<rect id="XMLID_1_" x="79.3" y="68.1" class="st0" width="796.5" height="455.8"/>
<path id="XMLID_2_" class="st1" d="M736.7,233.6h-95.2c-15.6-15.6-24.4-24.4-40-40v-52.9h175.2v52.9
	C761,209.2,752.3,217.9,736.7,233.6z"/>
<rect id="XMLID_3_" x="634" y="155.4" class="st0" width="16.8" height="27.4"/>
<rect id="XMLID_4_" x="729" y="155.4" class="st0" width="16.8" height="27.4"/>
<rect id="XMLID_5_" x="681.5" y="195.4" class="st0" width="16.8" height="27.4"/>
<rect id="XMLID_6_" x="602" y="368" class="st1" width="187.3" height="76"/>
<rect id="XMLID_7_" x="616" y="376.7" class="st0" width="157.3" height="59.3"/>
<circle id="XMLID_8_" class="st2" cx="740.8" cy="405.8" r="17.8"/>
<rect id="XMLID_9_" x="634" y="402" class="st1" width="47.5" height="10.7"/>
<g id="XMLID_15_">
	<circle id="XMLID_10_" class="st3" cx="136.6" cy="155.7" r="12.7"/>
	<circle id="XMLID_11_" class="st3" cx="422.6" cy="155.7" r="12.7"/>
	<g id="XMLID_14_">
		<circle id="XMLID_12_" class="st3" cx="422.6" cy="429.7" r="12.7"/>
		<circle id="XMLID_13_" class="st3" cx="136.6" cy="429.7" r="12.7"/>
	</g>
</g>
<g id="XMLID_21_">
	<circle id="XMLID_16_" class="st3" cx="279.6" cy="292.7" r="152.4"/>
	<circle id="XMLID_17_" class="st3" cx="279.2" cy="292.7" r="127.8"/>
	<circle id="XMLID_18_" class="st4" cx="279.2" cy="292.7" r="105.8"/>
	<circle id="XMLID_19_" class="st5" cx="279.6" cy="292.7" r="74.7"/>
	<circle id="XMLID_20_" class="st6" cx="279.7" cy="292.7" r="55.7"/>
</g>
<rect id="XMLID_42_" x="1006.3" y="59.1" class="st0" width="796.5" height="455.8"/>
<path id="XMLID_41_" class="st1" d="M1663.7,224.6h-95.2c-15.6-15.6-24.4-24.4-40-40v-52.9h175.2v52.9
	C1688,200.2,1679.3,208.9,1663.7,224.6z"/>
<rect id="XMLID_40_" x="1561" y="146.4" class="st0" width="16.8" height="27.4"/>
<rect id="XMLID_39_" x="1656" y="146.4" class="st0" width="16.8" height="27.4"/>
<rect id="XMLID_38_" x="1608.5" y="186.4" class="st0" width="16.8" height="27.4"/>
<rect id="XMLID_37_" x="1529" y="359" class="st1" width="187.3" height="76"/>
<rect id="XMLID_36_" x="1543" y="367.7" class="st0" width="157.3" height="59.3"/>
<circle id="XMLID_35_" class="st2" cx="1667.8" cy="396.8" r="17.8"/>
<rect id="XMLID_34_" x="1561" y="393" class="st1" width="47.5" height="10.7"/>
<g id="XMLID_43_">
	<g id="XMLID_28_">
		<circle id="XMLID_33_" class="st3" cx="1043.1" cy="107.2" r="8.1"/>
		<circle id="XMLID_32_" class="st3" cx="1226.6" cy="107.2" r="8.1"/>
		<g id="XMLID_29_">
			<circle id="XMLID_31_" class="st3" cx="1226.6" cy="283" r="8.1"/>
			<circle id="XMLID_30_" class="st3" cx="1043.1" cy="283" r="8.1"/>
		</g>
	</g>
	<g id="XMLID_22_">
		<circle id="XMLID_27_" class="st3" cx="1134.8" cy="195.1" r="97.8"/>
		<circle id="XMLID_26_" class="st3" cx="1134.5" cy="195.1" r="82"/>
		<circle id="XMLID_25_" class="st4" cx="1134.5" cy="195.1" r="67.9"/>
		<circle id="XMLID_24_" class="st5" cx="1134.8" cy="195.1" r="47.9"/>
		<circle id="XMLID_23_" class="st6" cx="1134.9" cy="195.1" r="35.7"/>
	</g>
</g>
<g id="XMLID_44_">
	<g id="XMLID_51_">
		<circle id="XMLID_56_" class="st3" cx="1279.1" cy="107.2" r="8.1"/>
		<circle id="XMLID_55_" class="st3" cx="1462.6" cy="107.2" r="8.1"/>
		<g id="XMLID_52_">
			<circle id="XMLID_54_" class="st3" cx="1462.6" cy="283" r="8.1"/>
			<circle id="XMLID_53_" class="st3" cx="1279.1" cy="283" r="8.1"/>
		</g>
	</g>
	<g id="XMLID_45_">
		<circle id="XMLID_50_" class="st3" cx="1370.8" cy="195.1" r="97.8"/>
		<circle id="XMLID_49_" class="st3" cx="1370.5" cy="195.1" r="82"/>
		<circle id="XMLID_48_" class="st4" cx="1370.5" cy="195.1" r="67.9"/>
		<circle id="XMLID_47_" class="st5" cx="1370.8" cy="195.1" r="47.9"/>
		<circle id="XMLID_46_" class="st6" cx="1370.9" cy="195.1" r="35.7"/>
	</g>
</g>
<line id="XMLID_57_" class="st5" x1="1075" y1="359" x2="1394" y2="359"/>
<line id="XMLID_58_" class="st5" x1="1075" y1="376" x2="1394" y2="376"/>
<line id="XMLID_59_" class="st5" x1="1075" y1="394" x2="1394" y2="394"/>
<line id="XMLID_60_" class="st5" x1="1075" y1="411" x2="1394" y2="411"/>
<line id="XMLID_61_" class="st5" x1="1075" y1="428" x2="1394" y2="428"/>
<rect id="XMLID_101_" x="385.2" y="593.1" class="st0" width="796.5" height="455.8"/>
<g id="XMLID_102_">
	<path id="XMLID_100_" class="st1" d="M580.3,995.8H485c-15.6-15.6-24.4-24.4-40-40v-52.9h175.2v52.9
		C604.6,971.4,595.9,980.2,580.3,995.8z"/>
	<rect id="XMLID_99_" x="477.6" y="917.6" class="st0" width="16.8" height="27.4"/>
	<rect id="XMLID_98_" x="572.6" y="917.6" class="st0" width="16.8" height="27.4"/>
	<rect id="XMLID_97_" x="525.1" y="957.6" class="st0" width="16.8" height="27.4"/>
</g>
<rect id="XMLID_96_" x="934" y="906" class="st1" width="187.3" height="76"/>
<rect id="XMLID_95_" x="948" y="914.7" class="st0" width="157.3" height="59.3"/>
<circle id="XMLID_94_" class="st2" cx="1072.8" cy="943.8" r="17.8"/>
<rect id="XMLID_93_" x="966" y="940" class="st1" width="47.5" height="10.7"/>
<g id="XMLID_117_">
	<line id="XMLID_66_" class="st5" x1="708" y1="913" x2="855" y2="913"/>
	<line id="XMLID_65_" class="st5" x1="708" y1="930" x2="855" y2="930"/>
	<line id="XMLID_64_" class="st5" x1="708" y1="948" x2="855" y2="948"/>
	<line id="XMLID_63_" class="st5" x1="708" y1="965" x2="855" y2="965"/>
	<line id="XMLID_62_" class="st5" x1="708" y1="982" x2="855" y2="982"/>
</g>
<g id="XMLID_116_">
	<g id="XMLID_80_">
		<g id="XMLID_87_">
			<circle id="XMLID_92_" class="st3" cx="434.2" cy="631.2" r="8.1"/>
			<circle id="XMLID_91_" class="st3" cx="617.7" cy="631.2" r="8.1"/>
			<g id="XMLID_88_">
				<circle id="XMLID_90_" class="st3" cx="617.7" cy="807" r="8.1"/>
				<circle id="XMLID_89_" class="st3" cx="434.2" cy="807" r="8.1"/>
			</g>
		</g>
		<g id="XMLID_81_">
			<circle id="XMLID_86_" class="st3" cx="525.9" cy="719.1" r="97.8"/>
			<circle id="XMLID_85_" class="st3" cx="525.7" cy="719.1" r="82"/>
			<circle id="XMLID_84_" class="st4" cx="525.7" cy="719.1" r="67.9"/>
			<circle id="XMLID_83_" class="st5" cx="525.9" cy="719.1" r="47.9"/>
			<circle id="XMLID_82_" class="st6" cx="526" cy="719.1" r="35.7"/>
		</g>
	</g>
	<g id="XMLID_67_">
		<g id="XMLID_74_">
			<circle id="XMLID_79_" class="st3" cx="691.7" cy="631.2" r="8.1"/>
			<circle id="XMLID_78_" class="st3" cx="875.2" cy="631.2" r="8.1"/>
			<g id="XMLID_75_">
				<circle id="XMLID_77_" class="st3" cx="875.2" cy="807" r="8.1"/>
				<circle id="XMLID_76_" class="st3" cx="691.7" cy="807" r="8.1"/>
			</g>
		</g>
		<g id="XMLID_68_">
			<circle id="XMLID_73_" class="st3" cx="783.4" cy="719.1" r="97.8"/>
			<circle id="XMLID_72_" class="st3" cx="783.2" cy="719.1" r="82"/>
			<circle id="XMLID_71_" class="st4" cx="783.2" cy="719.1" r="67.9"/>
			<circle id="XMLID_70_" class="st5" cx="783.4" cy="719.1" r="47.9"/>
			<circle id="XMLID_69_" class="st6" cx="783.5" cy="719.1" r="35.7"/>
		</g>
	</g>
	<g id="XMLID_103_">
		<g id="XMLID_110_">
			<circle id="XMLID_115_" class="st3" cx="949.2" cy="631.2" r="8.1"/>
			<circle id="XMLID_114_" class="st3" cx="1132.7" cy="631.2" r="8.1"/>
			<g id="XMLID_111_">
				<circle id="XMLID_113_" class="st3" cx="1132.7" cy="807" r="8.1"/>
				<circle id="XMLID_112_" class="st3" cx="949.2" cy="807" r="8.1"/>
			</g>
		</g>
		<g id="XMLID_104_">
			<circle id="XMLID_109_" class="st3" cx="1040.9" cy="719.1" r="97.8"/>
			<circle id="XMLID_108_" class="st3" cx="1040.7" cy="719.1" r="82"/>
			<circle id="XMLID_107_" class="st4" cx="1040.7" cy="719.1" r="67.9"/>
			<circle id="XMLID_106_" class="st5" cx="1040.9" cy="719.1" r="47.9"/>
			<circle id="XMLID_105_" class="st6" cx="1041" cy="719.1" r="35.7"/>
		</g>
	</g>
</g>
</svg>
