<?xml version="1.0" encoding="utf-8"?>
<!-- Generator: Adobe Illustrator 19.0.0, SVG Export Plug-In . SVG Version: 6.00 Build 0)  -->
<svg version="1.1" id="Layer_1" xmlns="http://www.w3.org/2000/svg" xmlns:xlink="http://www.w3.org/1999/xlink" x="0px" y="0px"
	 viewBox="0 0 1920 1080" style="enable-background:new 0 0 1920 1080;" xml:space="preserve">
<style type="text/css">
	.st0{fill:#1F3147;}
	.st1{fill:#FFFFFF;}
	.st2{fill:none;stroke:#FFFFFF;stroke-width:5;stroke-miterlimit:10;}
	.st3{fill:none;stroke:#FFFFFF;stroke-width:13;stroke-miterlimit:10;}
	.st4{fill:none;stroke:#FFFFFF;stroke-width:8;stroke-miterlimit:10;}
	.st5{fill:none;stroke:#FFFFFF;stroke-width:6;stroke-miterlimit:10;}
	.st6{fill:none;stroke:#FFFFFF;stroke-width:4;stroke-miterlimit:10;}
</style>
<rect id="XMLID_1_" x="570.3" y="273.1" class="st0" width="796.5" height="455.8"/>
<path id="XMLID_2_" class="st1" d="M1227.7,438.6h-95.2c-15.6-15.6-24.4-24.4-40-40v-52.9h175.2v52.9
	C1252,414.2,1243.3,422.9,1227.7,438.6z"/>
<rect id="XMLID_3_" x="1125" y="360.4" class="st0" width="16.8" height="27.4"/>
<rect id="XMLID_4_" x="1220" y="360.4" class="st0" width="16.8" height="27.4"/>
<rect id="XMLID_5_" x="1172.5" y="400.4" class="st0" width="16.8" height="27.4"/>
<rect id="XMLID_6_" x="1093" y="573" class="st1" width="187.3" height="76"/>
<rect id="XMLID_7_" x="1107" y="581.7" class="st0" width="157.3" height="59.3"/>
<circle id="XMLID_8_" class="st2" cx="1231.8" cy="610.8" r="17.8"/>
<rect id="XMLID_9_" x="1125" y="607" class="st1" width="47.5" height="10.7"/>
<g id="XMLID_15_">
	<circle id="XMLID_10_" class="st3" cx="627.6" cy="360.7" r="12.7"/>
	<circle id="XMLID_11_" class="st3" cx="913.6" cy="360.7" r="12.7"/>
	<g id="XMLID_14_">
		<circle id="XMLID_12_" class="st3" cx="913.6" cy="634.7" r="12.7"/>
		<circle id="XMLID_13_" class="st3" cx="627.6" cy="634.7" r="12.7"/>
	</g>
</g>
<g id="XMLID_21_">
	<circle id="XMLID_16_" class="st3" cx="770.6" cy="497.7" r="152.4"/>
	<circle id="XMLID_17_" class="st3" cx="770.2" cy="497.7" r="127.8"/>
	<circle id="XMLID_18_" class="st4" cx="770.2" cy="497.7" r="105.8"/>
	<circle id="XMLID_19_" class="st5" cx="770.6" cy="497.7" r="74.7"/>
	<circle id="XMLID_20_" class="st6" cx="770.7" cy="497.7" r="55.7"/>
</g>
</svg>
