<?xml version="1.0" encoding="utf-8"?>
<!-- Generator: Adobe Illustrator 19.0.0, SVG Export Plug-In . SVG Version: 6.00 Build 0)  -->
<svg version="1.1" id="Layer_1" xmlns="http://www.w3.org/2000/svg" xmlns:xlink="http://www.w3.org/1999/xlink" x="0px" y="0px"
	 viewBox="0 0 1920 1080" style="enable-background:new 0 0 1920 1080;" xml:space="preserve">
<style type="text/css">
	.st0{fill:#1F3147;}
	.st1{fill:#FFFFFF;}
	.st2{fill:none;stroke:#FFFFFF;stroke-width:5;stroke-miterlimit:10;}
	.st3{fill:none;stroke:#FFFFFF;stroke-width:13;stroke-miterlimit:10;}
	.st4{fill:none;stroke:#FFFFFF;stroke-width:8;stroke-miterlimit:10;}
	.st5{fill:none;stroke:#FFFFFF;stroke-width:6;stroke-miterlimit:10;}
	.st6{fill:none;stroke:#FFFFFF;stroke-width:4;stroke-miterlimit:10;}
</style>
<rect id="XMLID_42_" x="561.3" y="312.1" class="st0" width="796.5" height="455.8"/>
<path id="XMLID_41_" class="st1" d="M1218.7,477.6h-95.2c-15.6-15.6-24.4-24.4-40-40v-52.9h175.2v52.9
	C1243,453.2,1234.3,461.9,1218.7,477.6z"/>
<rect id="XMLID_40_" x="1116" y="399.4" class="st0" width="16.8" height="27.4"/>
<rect id="XMLID_39_" x="1211" y="399.4" class="st0" width="16.8" height="27.4"/>
<rect id="XMLID_38_" x="1163.5" y="439.4" class="st0" width="16.8" height="27.4"/>
<rect id="XMLID_37_" x="1084" y="612" class="st1" width="187.3" height="76"/>
<rect id="XMLID_36_" x="1098" y="620.7" class="st0" width="157.3" height="59.3"/>
<circle id="XMLID_35_" class="st2" cx="1222.8" cy="649.8" r="17.8"/>
<rect id="XMLID_34_" x="1116" y="646" class="st1" width="47.5" height="10.7"/>
<g id="XMLID_43_">
	<g id="XMLID_28_">
		<circle id="XMLID_33_" class="st3" cx="598.1" cy="360.2" r="8.1"/>
		<circle id="XMLID_32_" class="st3" cx="781.6" cy="360.2" r="8.1"/>
		<g id="XMLID_29_">
			<circle id="XMLID_31_" class="st3" cx="781.6" cy="536" r="8.1"/>
			<circle id="XMLID_30_" class="st3" cx="598.1" cy="536" r="8.1"/>
		</g>
	</g>
	<g id="XMLID_22_">
		<circle id="XMLID_27_" class="st3" cx="689.8" cy="448.1" r="97.8"/>
		<circle id="XMLID_26_" class="st3" cx="689.5" cy="448.1" r="82"/>
		<circle id="XMLID_25_" class="st4" cx="689.5" cy="448.1" r="67.9"/>
		<circle id="XMLID_24_" class="st5" cx="689.8" cy="448.1" r="47.9"/>
		<circle id="XMLID_23_" class="st6" cx="689.9" cy="448.1" r="35.7"/>
	</g>
</g>
<g id="XMLID_44_">
	<g id="XMLID_51_">
		<circle id="XMLID_56_" class="st3" cx="834.1" cy="360.2" r="8.1"/>
		<circle id="XMLID_55_" class="st3" cx="1017.6" cy="360.2" r="8.1"/>
		<g id="XMLID_52_">
			<circle id="XMLID_54_" class="st3" cx="1017.6" cy="536" r="8.1"/>
			<circle id="XMLID_53_" class="st3" cx="834.1" cy="536" r="8.1"/>
		</g>
	</g>
	<g id="XMLID_45_">
		<circle id="XMLID_50_" class="st3" cx="925.8" cy="448.1" r="97.8"/>
		<circle id="XMLID_49_" class="st3" cx="925.5" cy="448.1" r="82"/>
		<circle id="XMLID_48_" class="st4" cx="925.5" cy="448.1" r="67.9"/>
		<circle id="XMLID_47_" class="st5" cx="925.8" cy="448.1" r="47.9"/>
		<circle id="XMLID_46_" class="st6" cx="925.9" cy="448.1" r="35.7"/>
	</g>
</g>
<line id="XMLID_57_" class="st5" x1="630" y1="612" x2="949" y2="612"/>
<line id="XMLID_58_" class="st5" x1="630" y1="629" x2="949" y2="629"/>
<line id="XMLID_59_" class="st5" x1="630" y1="647" x2="949" y2="647"/>
<line id="XMLID_60_" class="st5" x1="630" y1="664" x2="949" y2="664"/>
<line id="XMLID_61_" class="st5" x1="630" y1="681" x2="949" y2="681"/>
</svg>
