<?xml version="1.0" encoding="utf-8"?>
<!-- Generator: Adobe Illustrator 19.0.0, SVG Export Plug-In . SVG Version: 6.00 Build 0)  -->
<svg version="1.1" id="Layer_1" xmlns="http://www.w3.org/2000/svg" xmlns:xlink="http://www.w3.org/1999/xlink" x="0px" y="0px"
	 viewBox="0 0 1920 1080" style="enable-background:new 0 0 1920 1080;" xml:space="preserve">
<style type="text/css">
	.st0{fill:#F6F7C9;}
	.st1{display:none;fill:none;}
	.st2{fill:#15002A;}
	.st3{fill:#AA3131;}
	.st4{fill:#E6E6E6;}
	.st5{fill:#382A47;}
	.st6{fill:#FFFFFF;}
	.st7{fill:#E74C47;}
	.st8{clip-path:url(#XMLID_69_);}
</style>
<symbol  id="New_Symbol" viewBox="-18 -18 36 35.9">
	<path id="XMLID_375_" class="st0" d="M18,0c0-9.9-8-18-18-18s-18,8-18,18s8,18,18,18S18,9.9,18,0z"/>
	<polygon id="XMLID_376_" class="st1" points="-18,17 18,17 18,-17 -18,-17 	"/>
</symbol>
<circle id="XMLID_212_" class="st2" cx="960.1" cy="617.8" r="156.8"/>
<g id="XMLID_385_">
	<path id="XMLID_71_" class="st0" d="M998,712.6c-26.3,3.8-50.8,3.8-77,0c8-41.6,20.3-82,21.7-124.6c11.2,0,22.4,0,33.6,0
		C977.7,630.6,990.1,671,998,712.6z"/>
</g>
<g id="XMLID_213_">
	<g id="XMLID_214_">
		<g id="XMLID_317_">
			<path id="XMLID_67_" class="st3" d="M1057.6,601.2c0,8.1-1,16-2.8,23.5c-6.7-27.1-24.8-49.7-48.8-62.6
				c5.5-11.5,10.6-24,14.6-37.4C1043.2,542.6,1057.6,570.2,1057.6,601.2z"/>
			<path id="XMLID_64_" class="st4" d="M1013.4,384.5c9.5,23.9,16.5,51.2,16.5,80.4c0,21.1-3.7,41.3-9.3,59.9
				c-16.5-13.1-37.4-20.9-60.1-21c-0.3-0.5-0.5-1-0.7-1.3v0c-0.2-0.3-0.3-0.5-0.3-0.5s-0.4,0.6-1,1.7c-22.5,0.4-43.2,8.4-59.6,21.6
				c-5.8-18.8-9.5-39.1-9.5-60.5c0-28.9,6.9-56.2,16.3-79.9c1.1-2.8,2.3-5.5,3.4-8.3l6.8-1.2c13.7-2.4,28.5-3.7,44-3.7
				c15.2,0,29.7,1.2,43.2,3.5l6.8,1.2C1011.2,379.1,1012.3,381.8,1013.4,384.5z M983.1,415.5c0-12.3-10-22.3-22.3-22.3
				c-12.3,0-22.3,10-22.3,22.3s10,22.3,22.3,22.3C973.1,437.8,983.1,427.8,983.1,415.5z"/>
			<path id="XMLID_63_" class="st4" d="M1020.6,524.7c-4.1,13.4-9.1,25.9-14.6,37.4c-9.3-5-19.5-8.5-30.3-10.2
				c-2.5-23.7-12.1-42.6-15.2-48.2C983.2,503.8,1004.1,511.6,1020.6,524.7z"/>
			<path id="XMLID_62_" class="st5" d="M1010.1,376.5l-6.8-1.2c-13.5-2.3-28-3.5-43.2-3.5c-15.5,0-30.3,1.2-44,3.7l-6.8,1.2
				c1.6-3.8,3.4-7.5,5.1-11.1c13.8-2.4,29.3-3.8,45.7-3.8c16.1,0,31.3,1.3,44.9,3.7C1006.7,369,1008.4,372.7,1010.1,376.5z"/>
			<path id="XMLID_61_" class="st6" d="M1004,363.5c-0.6-1.3-1.3-2.5-1.9-3.8C1002.7,361,1003.4,362.2,1004,363.5z"/>
			<path id="XMLID_60_" class="st6" d="M1000.9,357.4c-0.6-1.1-1.1-2.1-1.7-3.2C999.8,355.3,1000.3,356.4,1000.9,357.4z"/>
			<path id="XMLID_59_" class="st6" d="M998.2,352.4c-0.3-0.6-0.7-1.2-1-1.8C997.5,351.2,997.9,351.8,998.2,352.4z"/>
			<path id="XMLID_58_" class="st6" d="M995.2,347.2c-0.3-0.6-0.7-1.1-1-1.7C994.6,346,994.9,346.6,995.2,347.2z"/>
			<path id="XMLID_57_" class="st4" d="M1006,562.1c-5.6,11.6-11.5,22.1-17.3,31.2c-1.8-0.4-3.7-0.8-5.6-1.2v-9.4h-8.6
				c1.1-6.1,1.8-12.6,1.8-19.5c0-3.9-0.2-7.7-0.6-11.4C986.5,553.6,996.7,557.1,1006,562.1z"/>
			<path id="XMLID_56_" class="st6" d="M987.4,334.3c-0.3-0.5-0.6-1-1-1.5C986.8,333.3,987.1,333.8,987.4,334.3z"/>
			<path id="XMLID_55_" class="st6" d="M984.4,329.6c-0.6-0.9-1.1-1.7-1.7-2.5C983.2,327.9,983.8,328.8,984.4,329.6z"/>
			<path id="XMLID_54_" class="st5" d="M983.1,592.1v7.9h-12.9c0.9-2.9,1.8-6.1,2.6-9.4C976.4,591,979.8,591.5,983.1,592.1z"/>
			<path id="XMLID_53_" class="st4" d="M983.1,582.8v9.4c-3.3-0.6-6.7-1.1-10.2-1.4c0.6-2.5,1.2-5.2,1.7-7.9H983.1z"/>
			<path id="XMLID_52_" class="st6" d="M979.5,322.5c0.4,0.5,0.7,1,1.1,1.5C980.2,323.5,979.9,323,979.5,322.5z"/>
			<path id="XMLID_51_" class="st6" d="M978.2,320.6c0.4,0.6,0.9,1.3,1.4,1.9C979.1,321.9,978.6,321.2,978.2,320.6z"/>
			<path id="XMLID_48_" class="st7" d="M960.8,393.2c12.3,0,22.3,10,22.3,22.3s-10,22.3-22.3,22.3c-12.3,0-22.3-10-22.3-22.3
				S948.5,393.2,960.8,393.2z M977.4,415.8c0-9.4-7.6-17-17-17c-9.4,0-17,7.6-17,17c0,9.4,7.6,16.9,17,16.9
				C969.9,432.8,977.4,425.2,977.4,415.8z"/>
			<path id="XMLID_47_" class="st6" d="M976.2,317.8c-0.8-1-1.5-2-2.2-3C974.7,315.8,975.4,316.8,976.2,317.8z"/>
			<path id="XMLID_46_" class="st3" d="M959.8,582.8h14.8c-0.5,2.7-1,5.4-1.7,7.9c-4.1-0.4-8.4-0.6-12.7-0.6c-0.1,0-0.2,0-0.4,0
				V582.8z"/>
			<path id="XMLID_45_" class="st5" d="M960.5,398.9c9.4,0,17,7.6,17,17c0,9.4-7.6,16.9-17,16.9c-9.4,0-17-7.6-17-16.9
				C943.5,406.5,951.1,398.9,960.5,398.9z"/>
			<path id="XMLID_44_" class="st6" d="M971.8,311.9c0.5,0.6,0.9,1.2,1.4,1.8C972.7,313.1,972.2,312.5,971.8,311.9z"/>
			<path id="XMLID_43_" class="st6" d="M970.1,309.8c0.4,0.6,0.9,1.1,1.4,1.8C971,311,970.6,310.4,970.1,309.8z"/>
			<path id="XMLID_42_" class="st3" d="M972.9,590.7c-0.8,3.3-1.7,6.4-2.6,9.4h-10.5v-10c0.1,0,0.2,0,0.4,0
				C964.5,590.1,968.7,590.3,972.9,590.7z"/>
			<path id="XMLID_41_" class="st3" d="M959.8,600.1h10.5c-4.2,13-9.2,22.1-10.5,24.2V600.1z"/>
			<path id="XMLID_40_" class="st3" d="M960.5,503.7c3.1,5.6,12.7,24.5,15.2,48.2c-5.1-0.8-10.2-1.2-15.5-1.2c-0.1,0-0.2,0-0.4,0
				v-47c0.1,0,0.2,0,0.4,0S960.4,503.7,960.5,503.7z"/>
			<path id="XMLID_39_" class="st6" d="M966.7,305.5c-0.4-0.5-0.8-1-1.2-1.5C965.9,304.6,966.3,305,966.7,305.5z"/>
			<path id="XMLID_38_" class="st3" d="M959.8,582.8v-32.1c0.1,0,0.2,0,0.4,0c5.3,0,10.5,0.4,15.5,1.2c0.4,3.7,0.6,7.5,0.6,11.4
				c0,6.8-0.7,13.3-1.8,19.5H959.8z"/>
			<path id="XMLID_37_" class="st6" d="M961.4,299.2c-0.1-0.1-0.2-0.3-0.3-0.4C961.2,299,961.3,299.1,961.4,299.2z"/>
			<path id="XMLID_36_" class="st6" d="M960.5,503.7c-0.1,0-0.2,0-0.4,0s-0.2,0-0.4,0v-1.3C959.9,502.7,960.2,503.1,960.5,503.7z"/>
			<path id="XMLID_35_" class="st7" d="M959.8,600.1v24.2c-0.2,0.3-0.3,0.5-0.3,0.5s-5.9-9.7-10.7-24.6H959.8z"/>
			<path id="XMLID_34_" class="st7" d="M959.8,590.1v10h-11c-0.9-2.9-1.8-6-2.6-9.2C950.6,590.3,955.1,590.1,959.8,590.1z"/>
			<path id="XMLID_33_" class="st7" d="M959.8,582.8v7.3c-4.7,0-9.2,0.3-13.6,0.8c-0.6-2.6-1.2-5.3-1.7-8H959.8z"/>
			<path id="XMLID_32_" class="st7" d="M959.8,550.7v32.1h-15.3c-1.1-6.1-1.8-12.6-1.8-19.5c0-3.8,0.2-7.6,0.6-11.2
				C948.7,551.2,954.2,550.7,959.8,550.7z"/>
			<path id="XMLID_31_" class="st7" d="M959.8,503.7v47c-5.6,0-11.1,0.5-16.5,1.4c2.5-23.8,12.1-42.8,15.2-48.4
				C958.9,503.7,959.3,503.7,959.8,503.7z"/>
			<path id="XMLID_30_" class="st6" d="M959.8,502.4v1.3c-0.4,0-0.8,0-1.3,0c0.6-1.1,1-1.7,1-1.7S959.6,502.1,959.8,502.4
				L959.8,502.4z"/>
			<path id="XMLID_29_" class="st6" d="M959.8,297.4C959.8,297.4,959.8,297.5,959.8,297.4C959.8,297.5,959.8,297.4,959.8,297.4z"/>
			<path id="XMLID_28_" class="st3" d="M959.8,297.4C959.8,297.4,959.8,297.5,959.8,297.4c0.3,0.3,0.7,0.8,1.3,1.5
				c0.1,0.1,0.2,0.2,0.3,0.4c1,1.1,2.4,2.8,4.1,4.9c0.4,0.5,0.8,1,1.2,1.5c1,1.3,2.2,2.7,3.4,4.3c0.4,0.6,0.9,1.1,1.4,1.8
				c0.1,0.1,0.2,0.2,0.3,0.3c0.4,0.6,0.9,1.2,1.4,1.8c0.3,0.3,0.5,0.7,0.8,1.1c0.7,1,1.5,2,2.2,3c0.6,0.9,1.3,1.8,2,2.8
				c0.5,0.6,0.9,1.3,1.4,1.9c0.3,0.5,0.7,1,1.1,1.5c0.7,1,1.4,2,2.1,3c0.6,0.8,1.1,1.7,1.7,2.5c0.7,1,1.4,2.1,2.1,3.2
				c0.3,0.5,0.6,1,1,1.5c2.3,3.5,4.5,7.3,6.8,11.2c0.3,0.6,0.7,1.1,1,1.7c0.7,1.1,1.3,2.3,2,3.5c0.3,0.6,0.6,1.2,1,1.8
				c0.3,0.6,0.7,1.2,1,1.8c0.6,1,1.1,2.1,1.7,3.2c0.4,0.8,0.8,1.5,1.2,2.3c0.6,1.2,1.3,2.5,1.9,3.8c0.3,0.6,0.6,1.3,1,1.9
				c-13.6-2.4-28.8-3.7-44.9-3.7L959.8,297.4C959.7,297.3,959.7,297.4,959.8,297.4z"/>
			<path id="XMLID_27_" class="st7" d="M959.7,297.3l0.4,64.4c-16.4,0-31.9,1.4-45.7,3.8c1.6-3.2,3.2-6.4,4.8-9.4
				c0.3-0.6,0.6-1.2,0.9-1.7c3.6-6.7,7.3-12.9,10.8-18.5c0.3-0.5,0.6-1,1-1.5c0.6-1,1.3-2,1.9-3c0.3-0.5,0.6-1,1-1.4
				c0.6-1,1.3-1.9,1.9-2.8c0.5-0.8,1.1-1.6,1.6-2.4c0.7-1,1.4-2,2.1-3c0.9-1.2,1.7-2.4,2.6-3.6c2.9-4,5.6-7.6,8-10.5
				c0.2-0.3,0.4-0.5,0.6-0.7c1.2-1.5,2.3-2.8,3.3-4c0.4-0.5,0.8-0.9,1.1-1.3c1-1.2,1.9-2.2,2.5-2.9c0.1-0.1,0.2-0.2,0.3-0.3
				c0.4-0.5,0.7-0.8,0.9-0.9C959.5,297.5,959.6,297.4,959.7,297.3C959.6,297.4,959.7,297.3,959.7,297.3z"/>
			<path id="XMLID_26_" class="st6" d="M959.5,297.5C959.5,297.5,959.6,297.4,959.5,297.5C959.6,297.4,959.5,297.5,959.5,297.5z"/>
			<path id="XMLID_25_" class="st6" d="M958.7,298.4c-0.1,0.1-0.2,0.2-0.3,0.3C958.5,298.7,958.6,298.5,958.7,298.4z"/>
			<path id="XMLID_24_" class="st6" d="M955.8,301.7c-0.3,0.4-0.7,0.8-1.1,1.3C955.1,302.6,955.5,302.1,955.8,301.7z"/>
			<path id="XMLID_23_" class="st4" d="M958.5,503.7c-3.1,5.7-12.7,24.6-15.2,48.4c-10.6,1.8-20.6,5.4-29.8,10.4
				c-5.5-11.4-10.6-23.9-14.6-37.2C915.3,512.1,936,504.1,958.5,503.7z"/>
			<path id="XMLID_17_" class="st6" d="M951.5,307c-0.2,0.2-0.4,0.5-0.6,0.7C951.1,307.5,951.3,307.2,951.5,307z"/>
			<path id="XMLID_11_" class="st5" d="M948.8,600.1h-12.5v-7.7c3.2-0.6,6.5-1.1,9.9-1.5C947,594.1,947.8,597.2,948.8,600.1z"/>
			<path id="XMLID_10_" class="st4" d="M946.2,590.8c-3.4,0.4-6.7,0.9-9.9,1.5v-9.5h8.2C945,585.6,945.5,588.2,946.2,590.8z"/>
			<path id="XMLID_9_" class="st4" d="M944.5,582.8h-8.2v9.5c-1.9,0.4-3.7,0.8-5.5,1.2c-5.7-9.1-11.7-19.5-17.2-31
				c9.1-5,19.2-8.5,29.8-10.4c-0.4,3.6-0.6,7.4-0.6,11.2C942.7,570.1,943.4,576.7,944.5,582.8z"/>
			<path id="XMLID_6_" class="st6" d="M940.3,321.8c0.9-1.2,1.7-2.4,2.6-3.6C942.1,319.4,941.2,320.6,940.3,321.8z"/>
			<path id="XMLID_5_" class="st6" d="M938.2,324.8c-0.5,0.8-1.1,1.6-1.6,2.4C937.2,326.3,937.7,325.6,938.2,324.8z"/>
			<path id="XMLID_4_" class="st6" d="M934.7,330c-0.3,0.5-0.6,1-1,1.4C934.1,330.9,934.4,330.4,934.7,330z"/>
			<path id="XMLID_3_" class="st6" d="M931.9,334.4c-0.3,0.5-0.6,1-1,1.5C931.2,335.4,931.6,334.9,931.9,334.4z"/>
			<path id="XMLID_2_" class="st6" d="M920.1,354.4c-0.3,0.6-0.6,1.2-0.9,1.7C919.4,355.6,919.8,355,920.1,354.4z"/>
			<path id="XMLID_1_" class="st7" d="M898.9,525.3c4.1,13.3,9.2,25.8,14.6,37.2c-23.7,12.9-41.4,35.4-48.1,62.2
				c-1.9-7.5-2.9-15.4-2.9-23.5C862.6,570.5,876.8,543.2,898.9,525.3z"/>
		</g>
		<g id="XMLID_316_">
		</g>
	</g>
</g>
<g id="XMLID_381_">
	<defs>
		<circle id="XMLID_380_" cx="960.1" cy="617.8" r="156.8"/>
	</defs>
	<clipPath id="XMLID_69_">
		<use xlink:href="#XMLID_380_"  style="overflow:visible;"/>
	</clipPath>
	<g id="XMLID_373_" class="st8">
		
			<use xlink:href="#New_Symbol"  width="36" height="35.9" id="XMLID_304_" x="-18" y="-18" transform="matrix(1 0 0 -1 935 737)" style="overflow:visible;"/>
		
			<use xlink:href="#New_Symbol"  width="36" height="35.9" id="XMLID_303_" x="-18" y="-18" transform="matrix(1 0 0 -1 956 749)" style="overflow:visible;"/>
		
			<use xlink:href="#New_Symbol"  width="36" height="35.9" id="XMLID_302_" x="-18" y="-18" transform="matrix(1 0 0 -1 1004 750)" style="overflow:visible;"/>
		
			<use xlink:href="#New_Symbol"  width="36" height="35.9" id="XMLID_301_" x="-18" y="-18" transform="matrix(1 0 0 -1 904 733)" style="overflow:visible;"/>
		
			<use xlink:href="#New_Symbol"  width="36" height="35.9" id="XMLID_104_" x="-18" y="-18" transform="matrix(1 0 0 -1 921 761)" style="overflow:visible;"/>
		
			<use xlink:href="#New_Symbol"  width="36" height="35.9" id="XMLID_109_" x="-18" y="-18" transform="matrix(1 0 0 -1 966 759)" style="overflow:visible;"/>
		
			<use xlink:href="#New_Symbol"  width="36" height="35.9" id="XMLID_300_" x="-18" y="-18" transform="matrix(1.3308 0 0 -1.3308 897.7098 747.618)" style="overflow:visible;"/>
		
			<use xlink:href="#New_Symbol"  width="36" height="35.9" id="XMLID_113_" x="-18" y="-18" transform="matrix(1.0787 0 0 -1.0787 955.9495 757.0331)" style="overflow:visible;"/>
		
			<use xlink:href="#New_Symbol"  width="36" height="35.9" id="XMLID_299_" x="-18" y="-18" transform="matrix(1 0 0 -1 869 715)" style="overflow:visible;"/>
		
			<use xlink:href="#New_Symbol"  width="36" height="35.9" id="XMLID_298_" x="-18" y="-18" transform="matrix(1.1946 0 0 -1.1946 930.9009 729.9661)" style="overflow:visible;"/>
		
			<use xlink:href="#New_Symbol"  width="36" height="35.9" id="XMLID_297_" x="-18" y="-18" transform="matrix(1.0471 0 0 -1.0471 869.7802 735.8219)" style="overflow:visible;"/>
		
			<use xlink:href="#New_Symbol"  width="36" height="35.9" id="XMLID_112_" x="-18" y="-18" transform="matrix(1.3691 0 0 -1.3691 947.9286 754.8951)" style="overflow:visible;"/>
		
			<use xlink:href="#New_Symbol"  width="36" height="35.9" id="XMLID_296_" x="-18" y="-18" transform="matrix(1.1396 0 0 -1.1396 882.6306 737.4854)" style="overflow:visible;"/>
		
			<use xlink:href="#New_Symbol"  width="36" height="35.9" id="XMLID_295_" x="-18" y="-18" transform="matrix(1.0312 0 0 -1.0312 871.9605 726.9833)" style="overflow:visible;"/>
		
			<use xlink:href="#New_Symbol"  width="36" height="35.9" id="XMLID_294_" x="-18" y="-18" transform="matrix(1 0 0 -1 868 732)" style="overflow:visible;"/>
		
			<use xlink:href="#New_Symbol"  width="36" height="35.9" id="XMLID_293_" x="-18" y="-18" transform="matrix(1 0 0 -1 877 735)" style="overflow:visible;"/>
		
			<use xlink:href="#New_Symbol"  width="36" height="35.9" id="XMLID_292_" x="-18" y="-18" transform="matrix(1.1471 0 0 -1.1471 896.7158 738.3802)" style="overflow:visible;"/>
		
			<use xlink:href="#New_Symbol"  width="36" height="35.9" id="XMLID_291_" x="-18" y="-18" transform="matrix(1 0 0 -1 893 733)" style="overflow:visible;"/>
		
			<use xlink:href="#New_Symbol"  width="36" height="35.9" id="XMLID_290_" x="-18" y="-18" transform="matrix(1.102 0 0 -1.102 972.4992 753.4565)" style="overflow:visible;"/>
		
			<use xlink:href="#New_Symbol"  width="36" height="35.9" id="XMLID_108_" x="-18" y="-18" transform="matrix(1.2313 0 0 -1.2313 953.152 759.9182)" style="overflow:visible;"/>
		
			<use xlink:href="#New_Symbol"  width="36" height="35.9" id="XMLID_289_" x="-18" y="-18" transform="matrix(1.1819 0 0 -1.1819 1002.302 711.28)" style="overflow:visible;"/>
		
			<use xlink:href="#New_Symbol"  width="36" height="35.9" id="XMLID_288_" x="-18" y="-18" transform="matrix(1.234 0 0 -1.234 965.4912 735.7571)" style="overflow:visible;"/>
		
			<use xlink:href="#New_Symbol"  width="36" height="35.9" id="XMLID_287_" x="-18" y="-18" transform="matrix(1 0 0 -1 952 733)" style="overflow:visible;"/>
		
			<use xlink:href="#New_Symbol"  width="36" height="35.9" id="XMLID_286_" x="-18" y="-18" transform="matrix(1.3022 0 0 -1.3022 988.1542 747.2355)" style="overflow:visible;"/>
		
			<use xlink:href="#New_Symbol"  width="36" height="35.9" id="XMLID_285_" x="-18" y="-18" transform="matrix(1 0 0 -1 919 738)" style="overflow:visible;"/>
		
			<use xlink:href="#New_Symbol"  width="36" height="35.9" id="XMLID_284_" x="-18" y="-18" transform="matrix(1.1644 0 0 -1.1644 912.7793 718.0558)" style="overflow:visible;"/>
		
			<use xlink:href="#New_Symbol"  width="36" height="35.9" id="XMLID_283_" x="-18" y="-18" transform="matrix(1 0 0 -1 924 746)" style="overflow:visible;"/>
		
			<use xlink:href="#New_Symbol"  width="36" height="35.9" id="XMLID_282_" x="-18" y="-18" transform="matrix(1 0 0 -1 986 702)" style="overflow:visible;"/>
		
			<use xlink:href="#New_Symbol"  width="36" height="35.9" id="XMLID_281_" x="-18" y="-18" transform="matrix(1 0 0 -1 1024 736)" style="overflow:visible;"/>
		
			<use xlink:href="#New_Symbol"  width="36" height="35.9" id="XMLID_280_" x="-18" y="-18" transform="matrix(1 0 0 -1 1028 720)" style="overflow:visible;"/>
		
			<use xlink:href="#New_Symbol"  width="36" height="35.9" id="XMLID_279_" x="-18" y="-18" transform="matrix(1.156 0 0 -1.156 1012.9671 728.9824)" style="overflow:visible;"/>
		
			<use xlink:href="#New_Symbol"  width="36" height="35.9" id="XMLID_278_" x="-18" y="-18" transform="matrix(1.0289 0 0 -1.0289 976.3101 745.5527)" style="overflow:visible;"/>
		
			<use xlink:href="#New_Symbol"  width="36" height="35.9" id="XMLID_277_" x="-18" y="-18" transform="matrix(1.4084 0 0 -1.4084 945.4084 751.195)" style="overflow:visible;"/>
		
			<use xlink:href="#New_Symbol"  width="36" height="35.9" id="XMLID_276_" x="-18" y="-18" transform="matrix(1.1933 0 0 -1.1933 944.0043 723.2589)" style="overflow:visible;"/>
		
			<use xlink:href="#New_Symbol"  width="36" height="35.9" id="XMLID_275_" x="-18" y="-18" transform="matrix(1.1186 0 0 -1.1186 902.513 753.9521)" style="overflow:visible;"/>
		
			<use xlink:href="#New_Symbol"  width="36" height="35.9" id="XMLID_274_" x="-18" y="-18" transform="matrix(1.1182 0 0 -1.1182 876.6799 724.0604)" style="overflow:visible;"/>
		
			<use xlink:href="#New_Symbol"  width="36" height="35.9" id="XMLID_273_" x="-18" y="-18" transform="matrix(1.1186 0 0 -1.1186 895.3033 736.1957)" style="overflow:visible;"/>
		
			<use xlink:href="#New_Symbol"  width="36" height="35.9" id="XMLID_272_" x="-18" y="-18" transform="matrix(1.1149 0 0 -1.1149 883.1211 750.988)" style="overflow:visible;"/>
		
			<use xlink:href="#New_Symbol"  width="36" height="35.9" id="XMLID_270_" x="-18" y="-18" transform="matrix(1.1106 0 0 -1.1106 881.7007 735.7478)" style="overflow:visible;"/>
		
			<use xlink:href="#New_Symbol"  width="36" height="35.9" id="XMLID_111_" x="-18" y="-18" transform="matrix(1.1079 0 0 -1.1079 895.0142 755.5338)" style="overflow:visible;"/>
		
			<use xlink:href="#New_Symbol"  width="36" height="35.9" id="XMLID_269_" x="-18" y="-18" transform="matrix(1.1066 0 0 -1.1066 869.5753 727.7925)" style="overflow:visible;"/>
		
			<use xlink:href="#New_Symbol"  width="36" height="35.9" id="XMLID_116_" x="-18" y="-18" transform="matrix(1.0978 0 0 -1.0978 855.7097 709.6919)" style="overflow:visible;"/>
		
			<use xlink:href="#New_Symbol"  width="36" height="35.9" id="XMLID_115_" x="-18" y="-18" transform="matrix(1.0934 0 0 -1.0934 851.097 687.1495)" style="overflow:visible;"/>
		
			<use xlink:href="#New_Symbol"  width="36" height="35.9" id="XMLID_268_" x="-18" y="-18" transform="matrix(1.1081 0 0 -1.1081 925.8289 733.8942)" style="overflow:visible;"/>
		
			<use xlink:href="#New_Symbol"  width="36" height="35.9" id="XMLID_267_" x="-18" y="-18" transform="matrix(1.0919 0 0 -1.0919 915.4211 725.3807)" style="overflow:visible;"/>
		
			<use xlink:href="#New_Symbol"  width="36" height="35.9" id="XMLID_107_" x="-18" y="-18" transform="matrix(1.0864 0 0 -1.0864 938.9807 759.8124)" style="overflow:visible;"/>
		
			<use xlink:href="#New_Symbol"  width="36" height="35.9" id="XMLID_266_" x="-18" y="-18" transform="matrix(1.0745 0 0 -1.0745 1006.5856 685.9336)" style="overflow:visible;"/>
		
			<use xlink:href="#New_Symbol"  width="36" height="35.9" id="XMLID_106_" x="-18" y="-18" transform="matrix(1.0648 0 0 -1.0648 984.8249 758.9869)" style="overflow:visible;"/>
		
			<use xlink:href="#New_Symbol"  width="36" height="35.9" id="XMLID_265_" x="-18" y="-18" transform="matrix(1.0619 0 0 -1.0619 1029.3748 748.4614)" style="overflow:visible;"/>
		
			<use xlink:href="#New_Symbol"  width="36" height="35.9" id="XMLID_264_" x="-18" y="-18" transform="matrix(1.0624 0 0 -1.0624 1019.8291 707.9177)" style="overflow:visible;"/>
		
			<use xlink:href="#New_Symbol"  width="36" height="35.9" id="XMLID_263_" x="-18" y="-18" transform="matrix(1.063 0 0 -1.063 1041.0311 665.9839)" style="overflow:visible;"/>
		
			<use xlink:href="#New_Symbol"  width="36" height="35.9" id="XMLID_262_" x="-18" y="-18" transform="matrix(1.0635 0 0 -1.0635 1051.9631 735.8272)" style="overflow:visible;"/>
		
			<use xlink:href="#New_Symbol"  width="36" height="35.9" id="XMLID_261_" x="-18" y="-18" transform="matrix(1.0632 0 0 -1.0632 1006.0557 721.1338)" style="overflow:visible;"/>
		
			<use xlink:href="#New_Symbol"  width="36" height="35.9" id="XMLID_260_" x="-18" y="-18" transform="matrix(1.0631 0 0 -1.0631 1034.1377 696.4818)" style="overflow:visible;"/>
		
			<use xlink:href="#New_Symbol"  width="36" height="35.9" id="XMLID_114_" x="-18" y="-18" transform="matrix(1.0845 0 0 -1.0845 842.9646 703.0374)" style="overflow:visible;"/>
		
			<use xlink:href="#New_Symbol"  width="36" height="35.9" id="XMLID_123_" x="-18" y="-18" transform="matrix(1.0855 0 0 -1.0855 863.1306 693.4302)" style="overflow:visible;"/>
		
			<use xlink:href="#New_Symbol"  width="36" height="35.9" id="XMLID_122_" x="-18" y="-18" transform="matrix(1.0871 0 0 -1.0871 863.1548 700.2856)" style="overflow:visible;"/>
		
			<use xlink:href="#New_Symbol"  width="36" height="35.9" id="XMLID_121_" x="-18" y="-18" transform="matrix(1.0897 0 0 -1.0897 864.6309 722.6151)" style="overflow:visible;"/>
		
			<use xlink:href="#New_Symbol"  width="36" height="35.9" id="XMLID_259_" x="-18" y="-18" transform="matrix(1.0906 0 0 -1.0906 867.1321 729.2044)" style="overflow:visible;"/>
		
			<use xlink:href="#New_Symbol"  width="36" height="35.9" id="XMLID_120_" x="-18" y="-18" transform="matrix(1.0894 0 0 -1.0894 865.5468 725.4258)" style="overflow:visible;"/>
		
			<use xlink:href="#New_Symbol"  width="36" height="35.9" id="XMLID_119_" x="-18" y="-18" transform="matrix(1.0896 0 0 -1.0896 864.4305 716.4708)" style="overflow:visible;"/>
		
			<use xlink:href="#New_Symbol"  width="36" height="35.9" id="XMLID_258_" x="-18" y="-18" transform="matrix(1.0955 0 0 -1.0955 889.2639 715.4594)" style="overflow:visible;"/>
		
			<use xlink:href="#New_Symbol"  width="36" height="35.9" id="XMLID_257_" x="-18" y="-18" transform="matrix(1.095 0 0 -1.095 906.039 748.1917)" style="overflow:visible;"/>
		
			<use xlink:href="#New_Symbol"  width="36" height="35.9" id="XMLID_256_" x="-18" y="-18" transform="matrix(1.099 0 0 -1.099 914.154 734.8226)" style="overflow:visible;"/>
		
			<use xlink:href="#New_Symbol"  width="36" height="35.9" id="XMLID_254_" x="-18" y="-18" transform="matrix(1.1009 0 0 -1.1009 934.4256 743.8784)" style="overflow:visible;"/>
		
			<use xlink:href="#New_Symbol"  width="36" height="35.9" id="XMLID_253_" x="-18" y="-18" transform="matrix(1.1004 0 0 -1.1004 989.2753 718.8047)" style="overflow:visible;"/>
		
			<use xlink:href="#New_Symbol"  width="36" height="35.9" id="XMLID_252_" x="-18" y="-18" transform="matrix(1.0953 0 0 -1.0953 1003.4995 726.734)" style="overflow:visible;"/>
		
			<use xlink:href="#New_Symbol"  width="36" height="35.9" id="XMLID_251_" x="-18" y="-18" transform="matrix(1.0935 0 0 -1.0935 1002.9969 736.7946)" style="overflow:visible;"/>
		
			<use xlink:href="#New_Symbol"  width="36" height="35.9" id="XMLID_250_" x="-18" y="-18" transform="matrix(1.092 0 0 -1.092 1014.3901 749.0942)" style="overflow:visible;"/>
		
			<use xlink:href="#New_Symbol"  width="36" height="35.9" id="XMLID_249_" x="-18" y="-18" transform="matrix(1.0897 0 0 -1.0897 1037.5344 744.0453)" style="overflow:visible;"/>
		
			<use xlink:href="#New_Symbol"  width="36" height="35.9" id="XMLID_248_" x="-18" y="-18" transform="matrix(1.0879 0 0 -1.0879 1059.0117 748.8114)" style="overflow:visible;"/>
		
			<use xlink:href="#New_Symbol"  width="36" height="35.9" id="XMLID_247_" x="-18" y="-18" transform="matrix(1.0831 0 0 -1.0831 1061.5126 716.4933)" style="overflow:visible;"/>
		
			<use xlink:href="#New_Symbol"  width="36" height="35.9" id="XMLID_246_" x="-18" y="-18" transform="matrix(1.0812 0 0 -1.0812 1078.5494 702.1205)" style="overflow:visible;"/>
		
			<use xlink:href="#New_Symbol"  width="36" height="35.9" id="XMLID_245_" x="-18" y="-18" transform="matrix(1.0837 0 0 -1.0837 1008.23 747.4022)" style="overflow:visible;"/>
		
			<use xlink:href="#New_Symbol"  width="36" height="35.9" id="XMLID_110_" x="-18" y="-18" transform="matrix(1.0881 0 0 -1.0881 936.8101 755.5765)" style="overflow:visible;"/>
		
			<use xlink:href="#New_Symbol"  width="36" height="35.9" id="XMLID_244_" x="-18" y="-18" transform="matrix(1.0892 0 0 -1.0892 907.0868 726.237)" style="overflow:visible;"/>
		
			<use xlink:href="#New_Symbol"  width="36" height="35.9" id="XMLID_133_" x="-18" y="-18" transform="matrix(1.091 0 0 -1.091 892.908 730.0778)" style="overflow:visible;"/>
		
			<use xlink:href="#New_Symbol"  width="36" height="35.9" id="XMLID_132_" x="-18" y="-18" transform="matrix(1.091 0 0 -1.091 890.9603 718.9325)" style="overflow:visible;"/>
		
			<use xlink:href="#New_Symbol"  width="36" height="35.9" id="XMLID_131_" x="-18" y="-18" transform="matrix(1.0902 0 0 -1.0902 871.5229 731.2122)" style="overflow:visible;"/>
		
			<use xlink:href="#New_Symbol"  width="36" height="35.9" id="XMLID_118_" x="-18" y="-18" transform="matrix(1.0903 0 0 -1.0903 865.1122 719.3967)" style="overflow:visible;"/>
		
			<use xlink:href="#New_Symbol"  width="36" height="35.9" id="XMLID_117_" x="-18" y="-18" transform="matrix(1.0899 0 0 -1.0899 866.0318 715.6884)" style="overflow:visible;"/>
		
			<use xlink:href="#New_Symbol"  width="36" height="35.9" id="XMLID_130_" x="-18" y="-18" transform="matrix(1.0877 0 0 -1.0877 912.05 740.7974)" style="overflow:visible;"/>
		
			<use xlink:href="#New_Symbol"  width="36" height="35.9" id="XMLID_129_" x="-18" y="-18" transform="matrix(1.084 0 0 -1.084 949.0228 738.9904)" style="overflow:visible;"/>
		
			<use xlink:href="#New_Symbol"  width="36" height="35.9" id="XMLID_128_" x="-18" y="-18" transform="matrix(1.0883 0 0 -1.0883 1012.3914 741.6959)" style="overflow:visible;"/>
		
			<use xlink:href="#New_Symbol"  width="36" height="35.9" id="XMLID_127_" x="-18" y="-18" transform="matrix(1.0861 0 0 -1.0861 1040.6484 719.8261)" style="overflow:visible;"/>
		
			<use xlink:href="#New_Symbol"  width="36" height="35.9" id="XMLID_126_" x="-18" y="-18" transform="matrix(1.0801 0 0 -1.0801 1059.5081 684.6138)" style="overflow:visible;"/>
		
			<use xlink:href="#New_Symbol"  width="36" height="35.9" id="XMLID_125_" x="-18" y="-18" transform="matrix(1.078 0 0 -1.078 1069.1125 663.8586)" style="overflow:visible;"/>
		
			<use xlink:href="#New_Symbol"  width="36" height="35.9" id="XMLID_105_" x="-18" y="-18" transform="matrix(1.0828 0 0 -1.0828 1036.1953 758.4293)" style="overflow:visible;"/>
		
			<use xlink:href="#New_Symbol"  width="36" height="35.9" id="XMLID_124_" x="-18" y="-18" transform="matrix(1.0843 0 0 -1.0843 977.2403 717.5763)" style="overflow:visible;"/>
	</g>
</g>
<g id="XMLID_392_">
	<g id="XMLID_18_">
		<path id="XMLID_22_" class="st0" d="M1019.6,695.6c6.6-3.9,12-9.1,16-15.7c0.6-0.9-0.2-2.3-1.3-2.3c-3.9,0.3-7.5,1.2-11,2.7
			c0.7,0.7,1.4,1.4,2.1,2.1c2.3-3.8,5.5-6.6,9.7-8.1c-0.5-0.8-1-1.7-1.5-2.5c-2,2.4-4.4,4.1-7.3,5.3c0.6,0.6,1.2,1.2,1.8,1.8
			c0.5-1.6,1.5-2.8,3-3.4c-0.6-0.8-1.2-1.6-1.8-2.4c-1.7,1.4-3.5,2.3-5.6,3c0.5,0.8,1,1.7,1.5,2.5c1.4-1.5,2.9-2.6,4.8-3.5
			c-0.6-0.8-1.2-1.6-1.8-2.4c-2,1.6-4,2.7-6.5,3.6c0.5,0.8,1,1.7,1.5,2.5c1.5-1.3,3-2.3,4.8-3.2c-0.5-0.9-1-1.7-1.5-2.6
			c-1.9,1.2-3.9,2.4-5.8,3.6c0.7,0.6,1.5,1.1,2.2,1.7c0.1-1.3,0.7-2.4,1.8-3.2c-0.8-0.6-1.6-1.2-2.4-1.8c-0.1,0.2-0.2,0.3-0.4,0.5
			c-0.3,0.4-0.2,1.1,0,1.5c0.8,1.4,1.9,1.6,3.4,1c-0.4-0.9-0.8-1.8-1.2-2.7c-0.6,0.4-1.2,0.9-1.8,1.3c-1.5,1.1-0.1,3.7,1.5,2.6
			c2-1.4,4.1-1.9,6.5-1.4c-0.2-0.8-0.4-1.7-0.7-2.5c-1,1.1-2.1,1.8-3.4,2.4c-1.7,0.8-0.2,3.4,1.5,2.6c1.6-0.7,2.8-1.6,4-2.9
			c0.7-0.8,0.5-2.3-0.7-2.5c-3.3-0.6-6-0.2-8.8,1.7c0.5,0.9,1,1.7,1.5,2.6c0.6-0.4,1.2-0.9,1.8-1.3c1.2-0.9,0.6-3.4-1.2-2.7
			c0.1,0.5,0.2,0.9,0.3,1.4c1.1-1.4-1.2-2.9-2.4-1.8c-1.4,1.3-2.2,2.6-2.5,4.5c-0.2,1.2,1,2.4,2.2,1.7c1.9-1.2,3.9-2.4,5.8-3.6
			c1.7-1,0.2-3.4-1.5-2.6c-2,1-3.7,2.2-5.4,3.7c-1.1,1,0.1,3,1.5,2.5c2.9-1.1,5.4-2.5,7.8-4.4c1.4-1.1-0.4-3-1.8-2.4
			c-2.1,1-3.8,2.3-5.4,3.9c-1,1.1,0,3,1.5,2.5c2.7-0.8,4.8-2,6.9-3.8c1.3-1.1-0.4-3.2-1.8-2.4c-2.2,1.2-3.5,2.9-4.4,5.2
			c-0.4,1,0.8,2.2,1.8,1.8c3.4-1.3,6.3-3.2,8.7-6c0.9-1,0.1-3.1-1.5-2.5c-5,1.8-8.8,4.9-11.5,9.5c-0.8,1.4,0.8,2.6,2.1,2.1
			c3.1-1.3,6.2-2.1,9.5-2.3c-0.4-0.8-0.9-1.5-1.3-2.3c-3.8,6.1-8.7,11-15,14.6C1016.4,693.9,1018,696.5,1019.6,695.6L1019.6,695.6z"
			/>
	</g>
</g>
<g id="XMLID_393_">
	<g id="XMLID_12_">
		<path id="XMLID_16_" class="st0" d="M1020.7,685c0.3-6.3,5.3-10.3,9.9-13.9c-0.6-0.8-1.2-1.6-1.8-2.4c-2.8,2.4-6,3.3-9.7,3.1
			c0.1,1,0.3,2,0.4,2.9c4.5-1.7,9.1-3,13.9-1.8c-0.1-0.9-0.2-1.8-0.4-2.7c-5,2.8-10.3,4.1-15.9,4c0.4,0.8,0.9,1.5,1.3,2.3
			c2.2-4.9,12.1-3.7,16.5-3.3c-0.1-1-0.3-2-0.4-2.9c-2.5,1-4.9,1.9-7.4,2.9c-1.8,0.7-1,3.6,0.8,2.9c2.5-1,4.9-1.9,7.4-2.9
			c1.6-0.6,1.3-2.8-0.4-2.9c-5.4-0.5-16.3-1.5-19.1,4.8c-0.4,1,0.1,2.2,1.3,2.3c6.2,0.1,12-1.4,17.5-4.4c1.1-0.6,0.9-2.4-0.4-2.7
			c-5.4-1.3-10.4-0.1-15.5,1.8c-1.6,0.6-1.3,2.8,0.4,2.9c4.5,0.3,8.4-1.1,11.8-4c1.3-1.1-0.5-3.4-1.8-2.4c-5.6,4.2-11.1,9-11.4,16.4
			C1017.6,686.9,1020.6,686.9,1020.7,685L1020.7,685z"/>
	</g>
</g>
</svg>
