<?xml version="1.0" encoding="utf-8"?>
<!-- Generator: Adobe Illustrator 19.0.0, SVG Export Plug-In . SVG Version: 6.00 Build 0)  -->
<svg version="1.1" id="Layer_1" xmlns="http://www.w3.org/2000/svg" xmlns:xlink="http://www.w3.org/1999/xlink" x="0px" y="0px"
	 viewBox="0 0 960 560" enable-background="new 0 0 960 560" xml:space="preserve">
<path id="XMLID_1_" fill="#999999" stroke="#B3B3B3" stroke-width="5" stroke-miterlimit="10" d="M583.2,328.2h-186
	c-6.6,0-12-5.4-12-12V130.6c0-6.6,5.4-12,12-12h186c6.6,0,12,5.4,12,12v185.5C595.2,322.8,589.8,328.2,583.2,328.2z"/>
<path id="XMLID_2_" fill="#333333" stroke="#1A1A1A" stroke-width="5" stroke-miterlimit="10" d="M571.7,313.6H408.8
	c-6.6,0-12-5.4-12-12V185.1c0-6.6,5.4-12,12-12h162.9c6.6,0,12,5.4,12,12v116.6C583.7,308.2,578.3,313.6,571.7,313.6z"/>
<path id="XMLID_8_" opacity="0.66" fill="#4D4D4D" d="M572.4,257.8H408.6c-4.9,0-8.9-4-8.9-8.9v-64.6c0-4.9,4-8.9,8.9-8.9h163.9
	c4.9,0,8.9,4,8.9,8.9v64.6C581.3,253.7,577.3,257.8,572.4,257.8z"/>
<g id="XMLID_3_">
	<path id="XMLID_10_" fill="#FFFFFF" d="M434.6,202.1l-20.2,9.2v-4.5l15.6-6.7v-0.1l-15.6-6.7V189l20.2,9.2V202.1z"/>
	<path id="XMLID_12_" fill="#FFFFFF" d="M466.5,214.5v2.1h-21v-2.1H466.5z"/>
</g>
<g id="XMLID_7_">
	<circle id="XMLID_4_" fill="#FF1D25" stroke="#666666" stroke-width="3" stroke-miterlimit="10" cx="411" cy="145.4" r="12.5"/>
	<circle id="XMLID_5_" fill="#FFFF00" stroke="#666666" stroke-width="3" stroke-miterlimit="10" cx="445" cy="145.4" r="12.5"/>
	<circle id="XMLID_6_" fill="#7AC943" stroke="#666666" stroke-width="3" stroke-miterlimit="10" cx="479" cy="145.4" r="12.5"/>
</g>
<g id="XMLID_9_">
</g>
<g id="XMLID_14_">
</g>
<g id="XMLID_15_">
</g>
<g id="XMLID_16_">
</g>
<g id="XMLID_17_">
</g>
<g id="XMLID_18_">
</g>
<g id="XMLID_19_">
</g>
<g id="XMLID_20_">
</g>
<g id="XMLID_21_">
</g>
<g id="XMLID_22_">
</g>
<g id="XMLID_23_">
</g>
<g id="XMLID_24_">
</g>
<g id="XMLID_25_">
</g>
<g id="XMLID_26_">
</g>
<g id="XMLID_27_">
</g>
</svg>
