<?xml version="1.0" encoding="utf-8"?>
<!-- Generator: Adobe Illustrator 19.0.0, SVG Export Plug-In . SVG Version: 6.00 Build 0)  -->
<svg version="1.1" id="Layer_1" xmlns="http://www.w3.org/2000/svg" xmlns:xlink="http://www.w3.org/1999/xlink" x="0px" y="0px"
	 viewBox="0 0 542.3 479.7" enable-background="new 0 0 542.3 479.7" xml:space="preserve">
<g id="XMLID_16_">
	<g id="XMLID_43_">
		
			<ellipse id="XMLID_46_" transform="matrix(0.9985 -5.477429e-002 5.477429e-002 0.9985 -19.5482 18.0736)" fill="#FFD3C4" cx="319.9" cy="365.7" rx="4.5" ry="10.2"/>
		
			<ellipse id="XMLID_45_" transform="matrix(0.8816 -0.472 0.472 0.8816 -133.4193 197.0842)" fill="#FFD3C4" cx="326.2" cy="364.5" rx="4.5" ry="10.2"/>
		
			<ellipse id="XMLID_44_" transform="matrix(0.7012 -0.7129 0.7129 0.7012 -158.1752 344.7987)" fill="#FFD3C4" cx="332.3" cy="361.1" rx="4.5" ry="10.2"/>
	</g>
	<g id="XMLID_42_">
		
			<ellipse id="XMLID_39_" transform="matrix(0.7232 0.6907 -0.6907 0.7232 300.2048 -36.4389)" fill="#FFD3C4" cx="195.6" cy="356.3" rx="4.5" ry="10.2"/>
		
			<ellipse id="XMLID_40_" transform="matrix(0.9474 0.32 -0.32 0.9474 125.7436 -45.275)" fill="#FFD3C4" cx="200.7" cy="360" rx="4.5" ry="10.2"/>
		
			<ellipse id="XMLID_41_" transform="matrix(0.9997 2.350258e-002 -2.350258e-002 0.9997 8.5695 -4.7724)" fill="#FFD3C4" cx="207.3" cy="362.2" rx="4.5" ry="10.2"/>
	</g>
	<g id="XMLID_32_">
		<circle id="XMLID_36_" fill="#F47B50" cx="327" cy="88.7" r="24.3"/>
		<circle id="XMLID_35_" fill="#F16A00" cx="327.3" cy="88.7" r="16.3"/>
	</g>
	<g id="XMLID_34_">
		<circle id="XMLID_31_" fill="#F47B50" cx="218" cy="88.7" r="24.3"/>
		<circle id="XMLID_33_" fill="#F16A00" cx="218.3" cy="88.7" r="16.3"/>
	</g>
	<path id="XMLID_21_" fill="#F47B50" d="M397.5,251.5c0,86.6-57.2,114.8-127.7,114.8S142.1,338,142.1,251.5S199.3,94.7,269.8,94.7
		S397.5,164.9,397.5,251.5z"/>
	<g id="XMLID_26_">
		<path id="XMLID_24_" fill="#F47B50" d="M397.5,251.5c0,86.6-57.2,114.8-127.7,114.8S142.1,338,142.1,251.5S197.9,82.1,268.4,82.1
			S397.5,164.9,397.5,251.5z"/>
		<path id="XMLID_30_" fill="#FFBC99" d="M269.8,209.4c-53,0-98.5,39.7-117.8,96.2c19.3,44.7,64.8,60.7,117.8,60.7
			s98.5-16,117.8-60.7C368.3,249.1,322.8,209.4,269.8,209.4z"/>
	</g>
	<g id="XMLID_25_">
		<circle id="XMLID_22_" fill="#FFBC99" cx="209.3" cy="147.6" r="17.3"/>
		<circle id="XMLID_23_" fill="#FFBC99" cx="329.4" cy="147.6" r="17.3"/>
	</g>
	<circle id="XMLID_27_" cx="255.7" cy="111.2" r="3.5"/>
	<circle id="XMLID_28_" cx="283.7" cy="111.2" r="3.5"/>
	<ellipse id="XMLID_29_" fill="#EF2300" cx="270.2" cy="125.7" rx="5.8" ry="2.7"/>
	<path id="XMLID_37_" fill="#FFD3C4" d="M258.4,268.8c-2.3,4.5-14.6,2.9-27.4-3.6c-12.8-6.5-26.7-26.8-20.1-28.9
		c5.4-1.6,19.1,4.3,31.9,10.9C255.6,253.7,260.7,264.2,258.4,268.8z"/>
	<path id="XMLID_38_" fill="#FFD3C4" d="M278.8,268.8c2.3,4.5,14.6,2.9,27.4-3.6c12.8-6.5,26.7-26.8,20.1-28.9
		c-5.4-1.6-19.1,4.3-31.9,10.9C281.5,253.7,276.5,264.2,278.8,268.8z"/>
	<g id="XMLID_50_">
		<path id="XMLID_204_" d="M128.7,205.8"/>
		<g id="XMLID_199_">
			<path id="XMLID_66_" fill="none" stroke="#000000" stroke-miterlimit="10" d="M128.7,205.8"/>
		</g>
	</g>
	<g id="XMLID_61_">
		<path id="XMLID_47_" fill="#FFFFFF" d="M259.5,146.5l2.4,21.6c0.1,1,1,1.8,2.1,1.8h10.9c1.1,0,2.1-0.8,2.3-1.9l3.7-21.2
			c0.2-1-0.6-1.9-1.6-1.9l-9-5.3l-9.3,5.3C260,145,259.4,145.7,259.5,146.5z"/>
		<g id="XMLID_60_">
			<path id="XMLID_52_" fill="none" stroke="#DD2600" stroke-width="3" stroke-miterlimit="10" d="M269.6,138.2
				c1.6,1.6,4.6,5.6,7.4,6.6c6.5,2.4,14.3,0.3,17.9-3.3"/>
			<path id="XMLID_58_" fill="none" stroke="#DD2600" stroke-width="3" stroke-miterlimit="10" d="M270.8,138.2"/>
			<path id="XMLID_57_" fill="none" stroke="#DD2600" stroke-width="3" stroke-miterlimit="10" d="M270.8,138.2
				c-1.6,1.6-4.6,5.6-7.4,6.6c-6.5,2.4-14.3,0.3-17.9-3.3"/>
			<path id="XMLID_56_" fill="none" stroke="#DD2600" stroke-width="3" stroke-miterlimit="10" d="M268.4,138.7"/>
		</g>
	</g>
</g>
<circle id="XMLID_1_" fill="none" stroke="#00A99D" stroke-width="11" stroke-miterlimit="10" cx="269.4" cy="209.9" r="180.1"/>
<circle id="XMLID_2_" fill="#009245" cx="269.4" cy="29.9" r="22.2"/>
<g id="XMLID_3_">
	<circle id="XMLID_4_" fill="#00A99D" cx="269.4" cy="29.9" r="22.2"/>
	<circle id="XMLID_5_" fill="#00A99D" cx="179.4" cy="54" r="22.2"/>
	<circle id="XMLID_6_" fill="#00A99D" cx="113.4" cy="119.9" r="22.2"/>
	<circle id="XMLID_7_" fill="#00A99D" cx="89.3" cy="209.9" r="22.2"/>
	<circle id="XMLID_8_" fill="#00A99D" cx="113.4" cy="300" r="22.2"/>
	<circle id="XMLID_9_" fill="#00A99D" cx="179.4" cy="365.9" r="22.2"/>
	<circle id="XMLID_10_" fill="#00A99D" cx="269.4" cy="390" r="22.2"/>
	<circle id="XMLID_11_" fill="#00A99D" cx="359.4" cy="365.9" r="22.2"/>
	<circle id="XMLID_12_" fill="#00A99D" cx="425.4" cy="300" r="22.2"/>
	<circle id="XMLID_13_" fill="#00A99D" cx="449.5" cy="209.9" r="22.2"/>
	<circle id="XMLID_14_" fill="#00A99D" cx="425.4" cy="119.9" r="22.2"/>
	<circle id="XMLID_15_" fill="#00A99D" cx="359.4" cy="54" r="22.2"/>
</g>
<circle id="XMLID_17_" fill="#29ABE2" cx="268.5" cy="270.7" r="23"/>
<path id="XMLID_18_" fill="#29ABE2" d="M456.1,479.7h-373c-6.6,0-12-5.4-12-12v-1.3c0-6.6,5.4-12,12-12h373c6.6,0,12,5.4,12,12v1.3
	C468.1,474.3,462.7,479.7,456.1,479.7z"/>
<path id="XMLID_19_" fill="#29ABE2" d="M366.9,473.5L366.9,473.5c-5.1,2.4-11.2,0.2-13.6-4.9l-88.6-187.4
	c-2.4-5.1-0.2-11.2,4.9-13.6l0,0c5.1-2.4,11.2-0.2,13.6,4.9L371.8,460C374.2,465,372,471.1,366.9,473.5z"/>
<path id="XMLID_20_" fill="#29ABE2" d="M169.3,478.6L169.3,478.6c5.1,2.4,11.2,0.2,13.6-4.9l88.6-187.4c2.4-5.1,0.2-11.2-4.9-13.6v0
	c-5.1-2.4-11.2-0.2-13.6,4.9l-88.6,187.4C162.1,470.2,164.3,476.2,169.3,478.6z"/>
<g id="XMLID_234_">
</g>
<g id="XMLID_235_">
</g>
<g id="XMLID_236_">
</g>
<g id="XMLID_237_">
</g>
<g id="XMLID_238_">
</g>
<g id="XMLID_239_">
</g>
<g id="XMLID_240_">
</g>
<g id="XMLID_241_">
</g>
<g id="XMLID_242_">
</g>
<g id="XMLID_243_">
</g>
<g id="XMLID_244_">
</g>
<g id="XMLID_245_">
</g>
<g id="XMLID_246_">
</g>
<g id="XMLID_247_">
</g>
<g id="XMLID_248_">
</g>
</svg>
