<?xml version="1.0" encoding="utf-8"?>
<!-- Generator: Adobe Illustrator 19.0.0, SVG Export Plug-In . SVG Version: 6.00 Build 0)  -->
<svg version="1.1" id="Layer_1" xmlns="http://www.w3.org/2000/svg" xmlns:xlink="http://www.w3.org/1999/xlink" x="0px" y="0px"
	 viewBox="0 0 460.2 788.5" enable-background="new 0 0 460.2 788.5" xml:space="preserve">
<rect id="XMLID_1_" x="-1110" y="-11" fill="#333333" width="460.2" height="788.5"/>
<g id="XMLID_8_">
	<rect id="XMLID_3_" x="-1110" y="28.8" width="348.8" height="17.7"/>
	<rect id="XMLID_4_" x="-761.2" y="28.9" fill="#007C94" width="111.4" height="17.6"/>
</g>
<g id="XMLID_9_">
	<rect id="XMLID_5_" x="-1110" y="62.3" width="348.8" height="17.7"/>
	<rect id="XMLID_6_" x="-761.2" y="62.4" fill="#007C94" width="111.4" height="17.6"/>
</g>
<g id="XMLID_2_">
	<rect id="XMLID_7_" x="-1110" y="95.8" width="348.8" height="17.7"/>
	<rect id="XMLID_10_" x="-761.2" y="95.9" fill="#007C94" width="111.4" height="17.6"/>
</g>
<path id="XMLID_11_" fill="#666666" d="M-763,363h69c6.6,0,12,5.4,12,12v352c0,6.6-5.4,12-12,12h-69c-6.6,0-12-5.4-12-12V375
	C-775,368.4-769.6,363-763,363z"/>
<circle id="XMLID_12_" fill="#7AC943" stroke="#000000" stroke-width="5" stroke-miterlimit="10" cx="-728.6" cy="415.1" r="31.8"/>
<g id="XMLID_13_">
	<g id="Layer_8_59_">
		<path id="XMLID_15_" d="M-710.4,417.1c0,10-8.2,18.2-18.2,18.2c-10,0-18.2-8.2-18.2-18.2c0-7.5,4.7-14.3,11.7-17
			c1.2-0.4,2.5,0.1,2.9,1.3c0.4,1.2-0.1,2.5-1.3,2.9c-5.2,2-8.8,7.1-8.8,12.8c0,7.5,6.1,13.7,13.7,13.7c7.5,0,13.7-6.1,13.7-13.7
			c0-5.5-3.3-10.4-8.3-12.6c-1.1-0.5-1.7-1.8-1.2-3c0.5-1.1,1.8-1.7,3-1.2C-714.7,403.3-710.4,409.9-710.4,417.1z M-728.4,415.5
			c1.2,0,2.3-1,2.3-2.3v-16c0-1.2-1-2.3-2.3-2.3c-1.2,0-2.3,1-2.3,2.3v16C-730.6,414.5-729.6,415.5-728.4,415.5z"/>
	</g>
</g>
<circle id="XMLID_14_" fill="#7AC943" cx="-746.6" cy="475.2" r="10.8"/>
<circle id="XMLID_18_" fill="#FF432A" cx="-710.6" cy="475.2" r="10.8"/>
<circle id="XMLID_19_" fill="#333333" stroke="#000000" stroke-width="3" stroke-miterlimit="10" cx="-746.5" cy="714.8" r="11.8"/>
<circle id="XMLID_20_" fill="#333333" stroke="#000000" stroke-width="3" stroke-miterlimit="10" cx="-710.5" cy="714.8" r="11.8"/>
<g id="XMLID_28_">
	
		<rect id="XMLID_22_" x="-758.3" y="504" fill="#333333" stroke="#1A1A1A" stroke-width="3" stroke-miterlimit="10" width="59.7" height="53"/>
	<rect id="XMLID_23_" x="-741.4" y="505.5" fill="#FFFFFF" width="12.1" height="49.9"/>
	<rect id="XMLID_24_" x="-711.9" y="505.5" fill="#FFFFFF" width="12.1" height="49.9"/>
</g>
<g id="XMLID_21_">
	
		<rect id="XMLID_26_" x="-758.3" y="564.5" fill="#333333" stroke="#1A1A1A" stroke-width="3" stroke-miterlimit="10" width="59.7" height="53"/>
	<rect id="XMLID_25_" x="-741.4" y="566" fill="#FFFFFF" width="12.1" height="49.9"/>
	<rect id="XMLID_27_" x="-711.9" y="566" fill="#FFFFFF" width="12.1" height="49.9"/>
</g>
<g id="XMLID_29_">
	
		<rect id="XMLID_32_" x="-758.3" y="625" fill="#333333" stroke="#1A1A1A" stroke-width="3" stroke-miterlimit="10" width="59.7" height="53"/>
	<rect id="XMLID_31_" x="-741.4" y="626.5" fill="#FFFFFF" width="12.1" height="49.9"/>
	<rect id="XMLID_30_" x="-711.9" y="626.5" fill="#FFFFFF" width="12.1" height="49.9"/>
</g>
<rect id="XMLID_33_" x="-1059.7" y="148.1" fill="#999999" stroke="#000000" stroke-width="5" stroke-miterlimit="10" width="359.9" height="67.5"/>
<circle id="XMLID_34_" fill="#999999" stroke="#000000" stroke-width="5" stroke-miterlimit="10" cx="-714.5" cy="245.7" r="14.7"/>
<circle id="XMLID_35_" fill="#999999" stroke="#000000" stroke-width="5" stroke-miterlimit="10" cx="-771.5" cy="245.7" r="14.7"/>
<circle id="XMLID_36_" fill="#007C94" cx="-949.9" cy="523.1" r="129.1"/>
<g id="XMLID_37_">
	<rect id="XMLID_364_" x="-1088.6" y="458.1" fill="none" width="376.7" height="293"/>
	<path id="XMLID_82_" fill="#333333" d="M-1074.2,473.2l-24-16l91.1,9.7c16.6,1.8,29.8,7.7,39.4,17.7c9.6,10,14.4,22.8,14.4,38.3
		c0,19.3-6.8,34.6-20.5,45.7c-13.7,11.2-33.4,17.7-59.2,19.5l-65.2,4.3l37.9-14.1L-1074.2,473.2z M-1037.4,546.3
		c7.9-4.3,14-9.5,18.2-15.4c4.2-5.9,6.4-12.3,6.4-19.2c0-6-1.5-11.5-4.4-16.6c-2.9-5.1-7.2-9.6-12.9-13.7L-1037.4,546.3z"/>
	<path id="XMLID_362_" fill="#333333" d="M-781.2,472.1l-19.2,9.7l-55,62l8.8,41.6l22.3,10.1l-108.4-6l21.1-10.3l10.7-39.4l-46.9-67
		l-18.5-5.8l91.8-7.2l-15.6,10.1l23.6,53.6l20.1-46.8l-15.5-7.9L-781.2,472.1z"/>
</g>
<rect id="XMLID_76_" x="-563" y="-11" fill="#333333" width="460.2" height="788.5"/>
<g id="XMLID_73_">
	<rect id="XMLID_75_" x="-563" y="28.8" width="348.8" height="17.7"/>
	<rect id="XMLID_74_" x="-214.2" y="28.9" fill="#007C94" width="111.4" height="17.6"/>
</g>
<g id="XMLID_70_">
	<rect id="XMLID_72_" x="-563" y="62.3" width="348.8" height="17.7"/>
	<rect id="XMLID_71_" x="-214.2" y="62.4" fill="#007C94" width="111.4" height="17.6"/>
</g>
<g id="XMLID_67_">
	<rect id="XMLID_69_" x="-563" y="95.8" width="348.8" height="17.7"/>
	<rect id="XMLID_68_" x="-214.2" y="95.9" fill="#007C94" width="111.4" height="17.6"/>
</g>
<path id="XMLID_66_" fill="#666666" d="M-216,363h69c6.6,0,12,5.4,12,12v352c0,6.6-5.4,12-12,12h-69c-6.6,0-12-5.4-12-12V375
	C-228,368.4-222.6,363-216,363z"/>
<circle id="XMLID_65_" fill="#7AC943" stroke="#000000" stroke-width="5" stroke-miterlimit="10" cx="-181.6" cy="415.1" r="31.8"/>
<g id="XMLID_61_">
	<g id="Layer_8_1_">
		<path id="XMLID_62_" d="M-163.4,417.1c0,10-8.2,18.2-18.2,18.2c-10,0-18.2-8.2-18.2-18.2c0-7.5,4.7-14.3,11.7-17
			c1.2-0.4,2.5,0.1,2.9,1.3c0.4,1.2-0.1,2.5-1.3,2.9c-5.2,2-8.8,7.1-8.8,12.8c0,7.5,6.1,13.7,13.7,13.7c7.5,0,13.7-6.1,13.7-13.7
			c0-5.5-3.3-10.4-8.3-12.6c-1.1-0.5-1.7-1.8-1.2-3c0.5-1.1,1.8-1.7,3-1.2C-167.7,403.3-163.4,409.9-163.4,417.1z M-181.4,415.5
			c1.2,0,2.3-1,2.3-2.3v-16c0-1.2-1-2.3-2.3-2.3c-1.2,0-2.3,1-2.3,2.3v16C-183.6,414.5-182.6,415.5-181.4,415.5z"/>
	</g>
</g>
<circle id="XMLID_60_" fill="#7AC943" cx="-199.6" cy="475.2" r="10.8"/>
<circle id="XMLID_59_" fill="#FF432A" cx="-163.6" cy="475.2" r="10.8"/>
<circle id="XMLID_58_" fill="#333333" stroke="#000000" stroke-width="3" stroke-miterlimit="10" cx="-199.5" cy="714.8" r="11.8"/>
<circle id="XMLID_57_" fill="#333333" stroke="#000000" stroke-width="3" stroke-miterlimit="10" cx="-163.5" cy="714.8" r="11.8"/>
<g id="XMLID_53_">
	
		<rect id="XMLID_56_" x="-211.3" y="504" fill="#333333" stroke="#1A1A1A" stroke-width="3" stroke-miterlimit="10" width="59.7" height="53"/>
	<rect id="XMLID_55_" x="-194.4" y="505.5" fill="#FFFFFF" width="12.1" height="49.9"/>
	<rect id="XMLID_54_" x="-164.9" y="505.5" fill="#FFFFFF" width="12.1" height="49.9"/>
</g>
<g id="XMLID_48_">
	
		<rect id="XMLID_51_" x="-211.3" y="564.5" fill="#333333" stroke="#1A1A1A" stroke-width="3" stroke-miterlimit="10" width="59.7" height="53"/>
	<rect id="XMLID_50_" x="-194.4" y="566" fill="#FFFFFF" width="12.1" height="49.9"/>
	<rect id="XMLID_49_" x="-164.9" y="566" fill="#FFFFFF" width="12.1" height="49.9"/>
</g>
<g id="XMLID_44_">
	
		<rect id="XMLID_47_" x="-211.3" y="625" fill="#333333" stroke="#1A1A1A" stroke-width="3" stroke-miterlimit="10" width="59.7" height="53"/>
	<rect id="XMLID_46_" x="-194.4" y="626.5" fill="#FFFFFF" width="12.1" height="49.9"/>
	<rect id="XMLID_45_" x="-164.9" y="626.5" fill="#FFFFFF" width="12.1" height="49.9"/>
</g>
<rect id="XMLID_43_" x="-512.7" y="133.1" fill="#999999" stroke="#000000" stroke-width="5" stroke-miterlimit="10" width="359.9" height="67.5"/>
<circle id="XMLID_40_" fill="#007C94" cx="-402.9" cy="523.1" r="129.1"/>
<g id="XMLID_39_">
	<rect id="XMLID_359_" x="-541.6" y="458.1" fill="none" width="376.7" height="293"/>
	<path id="XMLID_348_" fill="#333333" d="M-527.2,473.2l-24-16l91.1,9.7c16.6,1.8,29.8,7.7,39.4,17.7c9.6,10,14.4,22.8,14.4,38.3
		c0,19.3-6.8,34.6-20.5,45.7c-13.7,11.2-33.4,17.7-59.2,19.5l-65.2,4.3l37.9-14.1L-527.2,473.2z M-490.4,546.3
		c7.9-4.3,14-9.5,18.2-15.4c4.2-5.9,6.4-12.3,6.4-19.2c0-6-1.5-11.5-4.4-16.6c-2.9-5.1-7.2-9.6-12.9-13.7L-490.4,546.3z"/>
	<path id="XMLID_357_" fill="#333333" d="M-234.2,472.1l-19.2,9.7l-55,62l8.8,41.6l22.3,10.1l-108.4-6l21.1-10.3l10.7-39.4l-46.9-67
		l-18.5-5.8l91.8-7.2l-15.6,10.1l23.6,53.6l20.1-46.8l-15.5-7.9L-234.2,472.1z"/>
</g>
<rect id="XMLID_79_" x="-512.7" y="220.1" fill="#999999" stroke="#000000" stroke-width="5" stroke-miterlimit="10" width="359.9" height="67.5"/>
<circle id="XMLID_41_" fill="#999999" stroke="#000000" stroke-width="5" stroke-miterlimit="10" cx="-163.5" cy="316.7" r="14.7"/>
<circle id="XMLID_42_" fill="#999999" stroke="#000000" stroke-width="5" stroke-miterlimit="10" cx="-210.5" cy="316.7" r="14.7"/>
<rect id="XMLID_116_" fill="#333333" width="460.2" height="788.5"/>
<g id="XMLID_113_">
	<rect id="XMLID_115_" y="23.8" width="348.8" height="17.7"/>
	<rect id="XMLID_114_" x="348.8" y="23.9" fill="#007C94" width="111.4" height="17.6"/>
</g>
<g id="XMLID_110_">
	<rect id="XMLID_112_" y="57.3" width="348.8" height="17.7"/>
	<rect id="XMLID_111_" x="348.8" y="57.4" fill="#007C94" width="111.4" height="17.6"/>
</g>
<g id="XMLID_107_">
	<rect id="XMLID_109_" x="0.2" y="748.8" width="348.8" height="17.7"/>
	<rect id="XMLID_108_" x="348.9" y="748.9" fill="#007C94" width="111.4" height="17.6"/>
</g>
<path id="XMLID_106_" fill="#666666" d="M347,354h69c6.6,0,12,5.4,12,12v352c0,6.6-5.4,12-12,12h-69c-6.6,0-12-5.4-12-12V366
	C335,359.4,340.4,354,347,354z"/>
<circle id="XMLID_105_" fill="#7AC943" stroke="#000000" stroke-width="5" stroke-miterlimit="10" cx="381.4" cy="406.1" r="31.8"/>
<g id="XMLID_101_">
	<g id="Layer_8_2_">
		<path id="XMLID_102_" d="M399.6,408.1c0,10-8.2,18.2-18.2,18.2c-10,0-18.2-8.2-18.2-18.2c0-7.5,4.7-14.3,11.7-17
			c1.2-0.4,2.5,0.1,2.9,1.3c0.4,1.2-0.1,2.5-1.3,2.9c-5.2,2-8.8,7.1-8.8,12.8c0,7.5,6.1,13.7,13.7,13.7c7.5,0,13.7-6.1,13.7-13.7
			c0-5.5-3.3-10.4-8.3-12.6c-1.1-0.5-1.7-1.8-1.2-3c0.5-1.1,1.8-1.7,3-1.2C395.3,394.3,399.6,400.9,399.6,408.1z M381.6,406.5
			c1.2,0,2.3-1,2.3-2.3v-16c0-1.2-1-2.3-2.3-2.3c-1.2,0-2.3,1-2.3,2.3v16C379.4,405.5,380.4,406.5,381.6,406.5z"/>
	</g>
</g>
<circle id="XMLID_100_" fill="#7AC943" cx="363.4" cy="466.2" r="10.8"/>
<circle id="XMLID_99_" fill="#FF432A" cx="399.4" cy="466.2" r="10.8"/>
<circle id="XMLID_98_" fill="#333333" stroke="#000000" stroke-width="3" stroke-miterlimit="10" cx="363.5" cy="705.8" r="11.8"/>
<circle id="XMLID_97_" fill="#333333" stroke="#000000" stroke-width="3" stroke-miterlimit="10" cx="399.5" cy="705.8" r="11.8"/>
<g id="XMLID_93_">
	
		<rect id="XMLID_96_" x="351.7" y="495" fill="#333333" stroke="#1A1A1A" stroke-width="3" stroke-miterlimit="10" width="59.7" height="53"/>
	<rect id="XMLID_95_" x="368.6" y="496.5" fill="#FFFFFF" width="12.1" height="49.9"/>
	<rect id="XMLID_94_" x="398.1" y="496.5" fill="#FFFFFF" width="12.1" height="49.9"/>
</g>
<g id="XMLID_89_">
	
		<rect id="XMLID_92_" x="351.7" y="555.5" fill="#333333" stroke="#1A1A1A" stroke-width="3" stroke-miterlimit="10" width="59.7" height="53"/>
	<rect id="XMLID_91_" x="368.6" y="557" fill="#FFFFFF" width="12.1" height="49.9"/>
	<rect id="XMLID_90_" x="398.1" y="557" fill="#FFFFFF" width="12.1" height="49.9"/>
</g>
<g id="XMLID_85_">
	
		<rect id="XMLID_88_" x="351.7" y="616" fill="#333333" stroke="#1A1A1A" stroke-width="3" stroke-miterlimit="10" width="59.7" height="53"/>
	<rect id="XMLID_87_" x="368.6" y="617.5" fill="#FFFFFF" width="12.1" height="49.9"/>
	<rect id="XMLID_86_" x="398.1" y="617.5" fill="#FFFFFF" width="12.1" height="49.9"/>
</g>
<rect id="XMLID_84_" x="50.1" y="95.7" fill="#999999" stroke="#000000" stroke-width="5" stroke-miterlimit="10" width="359.9" height="67.5"/>
<circle id="XMLID_83_" fill="#007C94" cx="160.1" cy="534.1" r="129.1"/>
<g id="XMLID_81_">
	<rect id="XMLID_354_" x="21.4" y="469.1" fill="none" width="376.7" height="293"/>
	<path id="XMLID_349_" fill="#333333" d="M35.8,484.2l-24-16l91.1,9.7c16.6,1.8,29.8,7.7,39.4,17.7c9.6,10,14.4,22.8,14.4,38.3
		c0,19.3-6.8,34.6-20.5,45.7c-13.7,11.2-33.4,17.7-59.2,19.5l-65.2,4.3l37.9-14.1L35.8,484.2z M72.6,557.3c7.9-4.3,14-9.5,18.2-15.4
		c4.2-5.9,6.4-12.3,6.4-19.2c0-6-1.5-11.5-4.4-16.6c-2.9-5.1-7.2-9.6-12.9-13.7L72.6,557.3z"/>
	<path id="XMLID_352_" fill="#333333" d="M328.8,483.1l-19.2,9.7l-55,62l8.8,41.6l22.3,10.1l-108.4-6l21.1-10.3l10.7-39.4l-46.9-67
		l-18.5-5.8l91.8-7.2l-15.6,10.1l23.6,53.6l20.1-46.8l-15.5-7.9L328.8,483.1z"/>
</g>
<rect id="XMLID_80_" x="50.1" y="180.6" fill="#999999" stroke="#000000" stroke-width="5" stroke-miterlimit="10" width="359.9" height="67.5"/>
<rect id="XMLID_77_" x="50.1" y="265.4" fill="#999999" stroke="#000000" stroke-width="5" stroke-miterlimit="10" width="359.9" height="67.5"/>
<circle id="XMLID_78_" fill="#999999" stroke="#000000" stroke-width="5" stroke-miterlimit="10" cx="61.5" cy="364.7" r="14.7"/>
<circle id="XMLID_117_" fill="#999999" stroke="#000000" stroke-width="5" stroke-miterlimit="10" cx="105.5" cy="364.7" r="14.7"/>
<circle id="XMLID_118_" fill="#999999" stroke="#000000" stroke-width="5" stroke-miterlimit="10" cx="149.5" cy="364.7" r="14.7"/>
<g id="XMLID_38_">
</g>
<g id="XMLID_52_">
</g>
<g id="XMLID_365_">
</g>
<g id="XMLID_366_">
</g>
<g id="XMLID_367_">
</g>
<g id="XMLID_368_">
</g>
<g id="XMLID_369_">
</g>
<g id="XMLID_370_">
</g>
<g id="XMLID_371_">
</g>
<g id="XMLID_372_">
</g>
<g id="XMLID_373_">
</g>
<g id="XMLID_374_">
</g>
<g id="XMLID_375_">
</g>
<g id="XMLID_376_">
</g>
<g id="XMLID_377_">
</g>
</svg>
