<?xml version="1.0" encoding="utf-8"?>
<!-- Generator: Adobe Illustrator 19.0.0, SVG Export Plug-In . SVG Version: 6.00 Build 0)  -->
<svg version="1.1" id="Layer_1" xmlns="http://www.w3.org/2000/svg" xmlns:xlink="http://www.w3.org/1999/xlink" x="0px" y="0px"
	 viewBox="0 0 460.2 788.5" enable-background="new 0 0 460.2 788.5" xml:space="preserve">
<rect id="XMLID_1_" fill="#333333" width="460.2" height="788.5"/>
<g id="XMLID_8_">
	<rect id="XMLID_3_" y="39.8" width="348.8" height="17.7"/>
	<rect id="XMLID_4_" x="348.8" y="39.9" fill="#007C94" width="111.4" height="17.6"/>
</g>
<g id="XMLID_9_">
	<rect id="XMLID_5_" y="73.3" width="348.8" height="17.7"/>
	<rect id="XMLID_6_" x="348.8" y="73.4" fill="#007C94" width="111.4" height="17.6"/>
</g>
<g id="XMLID_2_">
	<rect id="XMLID_7_" y="106.8" width="348.8" height="17.7"/>
	<rect id="XMLID_10_" x="348.8" y="106.9" fill="#007C94" width="111.4" height="17.6"/>
</g>
<path id="XMLID_11_" fill="#666666" d="M347,374h69c6.6,0,12,5.4,12,12v352c0,6.6-5.4,12-12,12h-69c-6.6,0-12-5.4-12-12V386
	C335,379.4,340.4,374,347,374z"/>
<circle id="XMLID_12_" fill="#7AC943" stroke="#000000" stroke-width="5" stroke-miterlimit="10" cx="381.4" cy="426.1" r="31.8"/>
<g id="XMLID_13_">
	<g id="Layer_8_59_">
		<path id="XMLID_15_" d="M399.6,428.1c0,10-8.2,18.2-18.2,18.2c-10,0-18.2-8.2-18.2-18.2c0-7.5,4.7-14.3,11.7-17
			c1.2-0.4,2.5,0.1,2.9,1.3c0.4,1.2-0.1,2.5-1.3,2.9c-5.2,2-8.8,7.1-8.8,12.8c0,7.5,6.1,13.7,13.7,13.7c7.5,0,13.7-6.1,13.7-13.7
			c0-5.5-3.3-10.4-8.3-12.6c-1.1-0.5-1.7-1.8-1.2-3c0.5-1.1,1.8-1.7,3-1.2C395.3,414.3,399.6,420.9,399.6,428.1z M381.6,426.5
			c1.2,0,2.3-1,2.3-2.3v-16c0-1.2-1-2.3-2.3-2.3c-1.2,0-2.3,1-2.3,2.3v16C379.4,425.5,380.4,426.5,381.6,426.5z"/>
	</g>
</g>
<circle id="XMLID_14_" fill="#7AC943" cx="363.4" cy="486.2" r="10.8"/>
<circle id="XMLID_18_" fill="#FF432A" cx="399.4" cy="486.2" r="10.8"/>
<circle id="XMLID_19_" fill="#333333" stroke="#000000" stroke-width="3" stroke-miterlimit="10" cx="363.5" cy="725.8" r="11.8"/>
<circle id="XMLID_20_" fill="#333333" stroke="#000000" stroke-width="3" stroke-miterlimit="10" cx="399.5" cy="725.8" r="11.8"/>
<g id="XMLID_28_">
	
		<rect id="XMLID_22_" x="351.7" y="515" fill="#333333" stroke="#1A1A1A" stroke-width="3" stroke-miterlimit="10" width="59.7" height="53"/>
	<rect id="XMLID_23_" x="368.6" y="516.5" fill="#FFFFFF" width="12.1" height="49.9"/>
	<rect id="XMLID_24_" x="398.1" y="516.5" fill="#FFFFFF" width="12.1" height="49.9"/>
</g>
<g id="XMLID_21_">
	
		<rect id="XMLID_26_" x="351.7" y="575.5" fill="#333333" stroke="#1A1A1A" stroke-width="3" stroke-miterlimit="10" width="59.7" height="53"/>
	<rect id="XMLID_25_" x="368.6" y="577" fill="#FFFFFF" width="12.1" height="49.9"/>
	<rect id="XMLID_27_" x="398.1" y="577" fill="#FFFFFF" width="12.1" height="49.9"/>
</g>
<g id="XMLID_29_">
	
		<rect id="XMLID_32_" x="351.7" y="636" fill="#333333" stroke="#1A1A1A" stroke-width="3" stroke-miterlimit="10" width="59.7" height="53"/>
	<rect id="XMLID_31_" x="368.6" y="637.5" fill="#FFFFFF" width="12.1" height="49.9"/>
	<rect id="XMLID_30_" x="398.1" y="637.5" fill="#FFFFFF" width="12.1" height="49.9"/>
</g>
<rect id="XMLID_33_" x="50.3" y="159.1" fill="#999999" stroke="#000000" stroke-width="5" stroke-miterlimit="10" width="359.9" height="67.5"/>
<circle id="XMLID_34_" fill="#999999" stroke="#000000" stroke-width="5" stroke-miterlimit="10" cx="395.5" cy="256.7" r="14.7"/>
<circle id="XMLID_35_" fill="#999999" stroke="#000000" stroke-width="5" stroke-miterlimit="10" cx="338.5" cy="256.7" r="14.7"/>
<circle id="XMLID_36_" fill="#007C94" cx="160.1" cy="534.1" r="129.1"/>
<g id="XMLID_37_">
	<rect id="XMLID_338_" x="21.4" y="469.1" fill="none" width="376.7" height="293"/>
	<path id="XMLID_82_" fill="#333333" d="M35.8,484.2l-24-16l91.1,9.7c16.6,1.8,29.8,7.7,39.4,17.7c9.6,10,14.4,22.8,14.4,38.3
		c0,19.3-6.8,34.6-20.5,45.7c-13.7,11.2-33.4,17.7-59.2,19.5l-65.2,4.3l37.9-14.1L35.8,484.2z M72.6,557.3c7.9-4.3,14-9.5,18.2-15.4
		c4.2-5.9,6.4-12.3,6.4-19.2c0-6-1.5-11.5-4.4-16.6c-2.9-5.1-7.2-9.6-12.9-13.7L72.6,557.3z"/>
	<path id="XMLID_336_" fill="#333333" d="M328.8,483.1l-19.2,9.7l-55,62l8.8,41.6l22.3,10.1l-108.4-6l21.1-10.3l10.7-39.4l-46.9-67
		l-18.5-5.8l91.8-7.2l-15.6,10.1l23.6,53.6l20.1-46.8l-15.5-7.9L328.8,483.1z"/>
</g>
<rect id="XMLID_76_" x="547" fill="#333333" width="460.2" height="788.5"/>
<g id="XMLID_73_">
	<rect id="XMLID_75_" x="547" y="39.8" width="348.8" height="17.7"/>
	<rect id="XMLID_74_" x="895.8" y="39.9" fill="#007C94" width="111.4" height="17.6"/>
</g>
<g id="XMLID_70_">
	<rect id="XMLID_72_" x="547" y="73.3" width="348.8" height="17.7"/>
	<rect id="XMLID_71_" x="895.8" y="73.4" fill="#007C94" width="111.4" height="17.6"/>
</g>
<g id="XMLID_67_">
	<rect id="XMLID_69_" x="547" y="106.8" width="348.8" height="17.7"/>
	<rect id="XMLID_68_" x="895.8" y="106.9" fill="#007C94" width="111.4" height="17.6"/>
</g>
<path id="XMLID_66_" fill="#666666" d="M894,374h69c6.6,0,12,5.4,12,12v352c0,6.6-5.4,12-12,12h-69c-6.6,0-12-5.4-12-12V386
	C882,379.4,887.4,374,894,374z"/>
<circle id="XMLID_65_" fill="#7AC943" stroke="#000000" stroke-width="5" stroke-miterlimit="10" cx="928.4" cy="426.1" r="31.8"/>
<g id="XMLID_61_">
	<g id="Layer_8_1_">
		<path id="XMLID_62_" d="M946.6,428.1c0,10-8.2,18.2-18.2,18.2c-10,0-18.2-8.2-18.2-18.2c0-7.5,4.7-14.3,11.7-17
			c1.2-0.4,2.5,0.1,2.9,1.3c0.4,1.2-0.1,2.5-1.3,2.9c-5.2,2-8.8,7.1-8.8,12.8c0,7.5,6.1,13.7,13.7,13.7c7.5,0,13.7-6.1,13.7-13.7
			c0-5.5-3.3-10.4-8.3-12.6c-1.1-0.5-1.7-1.8-1.2-3c0.5-1.1,1.8-1.7,3-1.2C942.3,414.3,946.6,420.9,946.6,428.1z M928.6,426.5
			c1.2,0,2.3-1,2.3-2.3v-16c0-1.2-1-2.3-2.3-2.3c-1.2,0-2.3,1-2.3,2.3v16C926.4,425.5,927.4,426.5,928.6,426.5z"/>
	</g>
</g>
<circle id="XMLID_60_" fill="#7AC943" cx="910.4" cy="486.2" r="10.8"/>
<circle id="XMLID_59_" fill="#FF432A" cx="946.4" cy="486.2" r="10.8"/>
<circle id="XMLID_58_" fill="#333333" stroke="#000000" stroke-width="3" stroke-miterlimit="10" cx="910.5" cy="725.8" r="11.8"/>
<circle id="XMLID_57_" fill="#333333" stroke="#000000" stroke-width="3" stroke-miterlimit="10" cx="946.5" cy="725.8" r="11.8"/>
<g id="XMLID_53_">
	
		<rect id="XMLID_56_" x="898.7" y="515" fill="#333333" stroke="#1A1A1A" stroke-width="3" stroke-miterlimit="10" width="59.7" height="53"/>
	<rect id="XMLID_55_" x="915.6" y="516.5" fill="#FFFFFF" width="12.1" height="49.9"/>
	<rect id="XMLID_54_" x="945.1" y="516.5" fill="#FFFFFF" width="12.1" height="49.9"/>
</g>
<g id="XMLID_48_">
	
		<rect id="XMLID_51_" x="898.7" y="575.5" fill="#333333" stroke="#1A1A1A" stroke-width="3" stroke-miterlimit="10" width="59.7" height="53"/>
	<rect id="XMLID_50_" x="915.6" y="577" fill="#FFFFFF" width="12.1" height="49.9"/>
	<rect id="XMLID_49_" x="945.1" y="577" fill="#FFFFFF" width="12.1" height="49.9"/>
</g>
<g id="XMLID_44_">
	
		<rect id="XMLID_47_" x="898.7" y="636" fill="#333333" stroke="#1A1A1A" stroke-width="3" stroke-miterlimit="10" width="59.7" height="53"/>
	<rect id="XMLID_46_" x="915.6" y="637.5" fill="#FFFFFF" width="12.1" height="49.9"/>
	<rect id="XMLID_45_" x="945.1" y="637.5" fill="#FFFFFF" width="12.1" height="49.9"/>
</g>
<rect id="XMLID_43_" x="597.3" y="144.1" fill="#999999" stroke="#000000" stroke-width="5" stroke-miterlimit="10" width="359.9" height="67.5"/>
<circle id="XMLID_40_" fill="#007C94" cx="707.1" cy="534.1" r="129.1"/>
<g id="XMLID_39_">
	<rect id="XMLID_333_" x="568.4" y="469.1" fill="none" width="376.7" height="293"/>
	<path id="XMLID_322_" fill="#333333" d="M582.8,484.2l-24-16l91.1,9.7c16.6,1.8,29.8,7.7,39.4,17.7c9.6,10,14.4,22.8,14.4,38.3
		c0,19.3-6.8,34.6-20.5,45.7c-13.7,11.2-33.4,17.7-59.2,19.5l-65.2,4.3l37.9-14.1L582.8,484.2z M619.6,557.3
		c7.9-4.3,14-9.5,18.2-15.4c4.2-5.9,6.4-12.3,6.4-19.2c0-6-1.5-11.5-4.4-16.6c-2.9-5.1-7.2-9.6-12.9-13.7L619.6,557.3z"/>
	<path id="XMLID_331_" fill="#333333" d="M875.8,483.1l-19.2,9.7l-55,62l8.8,41.6l22.3,10.1l-108.4-6l21.1-10.3l10.7-39.4l-46.9-67
		l-18.5-5.8l91.8-7.2l-15.6,10.1l23.6,53.6l20.1-46.8l-15.5-7.9L875.8,483.1z"/>
</g>
<rect id="XMLID_79_" x="597.3" y="231.1" fill="#999999" stroke="#000000" stroke-width="5" stroke-miterlimit="10" width="359.9" height="67.5"/>
<circle id="XMLID_41_" fill="#999999" stroke="#000000" stroke-width="5" stroke-miterlimit="10" cx="946.5" cy="327.7" r="14.7"/>
<circle id="XMLID_42_" fill="#999999" stroke="#000000" stroke-width="5" stroke-miterlimit="10" cx="899.5" cy="327.7" r="14.7"/>
<rect id="XMLID_116_" x="1110" y="11" fill="#333333" width="460.2" height="788.5"/>
<g id="XMLID_113_">
	<rect id="XMLID_115_" x="1110" y="34.8" width="348.8" height="17.7"/>
	<rect id="XMLID_114_" x="1458.8" y="34.9" fill="#007C94" width="111.4" height="17.6"/>
</g>
<g id="XMLID_110_">
	<rect id="XMLID_112_" x="1110" y="68.3" width="348.8" height="17.7"/>
	<rect id="XMLID_111_" x="1458.8" y="68.4" fill="#007C94" width="111.4" height="17.6"/>
</g>
<g id="XMLID_107_">
	<rect id="XMLID_109_" x="1110.2" y="759.8" width="348.8" height="17.7"/>
	<rect id="XMLID_108_" x="1458.9" y="759.9" fill="#007C94" width="111.4" height="17.6"/>
</g>
<path id="XMLID_106_" fill="#666666" d="M1457,365h69c6.6,0,12,5.4,12,12v352c0,6.6-5.4,12-12,12h-69c-6.6,0-12-5.4-12-12V377
	C1445,370.4,1450.4,365,1457,365z"/>
<circle id="XMLID_105_" fill="#7AC943" stroke="#000000" stroke-width="5" stroke-miterlimit="10" cx="1491.4" cy="417.1" r="31.8"/>
<g id="XMLID_101_">
	<g id="Layer_8_2_">
		<path id="XMLID_102_" d="M1509.6,419.1c0,10-8.2,18.2-18.2,18.2c-10,0-18.2-8.2-18.2-18.2c0-7.5,4.7-14.3,11.7-17
			c1.2-0.4,2.5,0.1,2.9,1.3c0.4,1.2-0.1,2.5-1.3,2.9c-5.2,2-8.8,7.1-8.8,12.8c0,7.5,6.1,13.7,13.7,13.7s13.7-6.1,13.7-13.7
			c0-5.5-3.3-10.4-8.3-12.6c-1.1-0.5-1.7-1.8-1.2-3c0.5-1.1,1.8-1.7,3-1.2C1505.3,405.3,1509.6,411.9,1509.6,419.1z M1491.6,417.5
			c1.2,0,2.3-1,2.3-2.3v-16c0-1.2-1-2.3-2.3-2.3c-1.2,0-2.3,1-2.3,2.3v16C1489.4,416.5,1490.4,417.5,1491.6,417.5z"/>
	</g>
</g>
<circle id="XMLID_100_" fill="#7AC943" cx="1473.4" cy="477.2" r="10.8"/>
<circle id="XMLID_99_" fill="#FF432A" cx="1509.4" cy="477.2" r="10.8"/>
<circle id="XMLID_98_" fill="#333333" stroke="#000000" stroke-width="3" stroke-miterlimit="10" cx="1473.5" cy="716.8" r="11.8"/>
<circle id="XMLID_97_" fill="#333333" stroke="#000000" stroke-width="3" stroke-miterlimit="10" cx="1509.5" cy="716.8" r="11.8"/>
<g id="XMLID_93_">
	
		<rect id="XMLID_96_" x="1461.7" y="506" fill="#333333" stroke="#1A1A1A" stroke-width="3" stroke-miterlimit="10" width="59.7" height="53"/>
	<rect id="XMLID_95_" x="1478.6" y="507.5" fill="#FFFFFF" width="12.1" height="49.9"/>
	<rect id="XMLID_94_" x="1508.1" y="507.5" fill="#FFFFFF" width="12.1" height="49.9"/>
</g>
<g id="XMLID_89_">
	
		<rect id="XMLID_92_" x="1461.7" y="566.5" fill="#333333" stroke="#1A1A1A" stroke-width="3" stroke-miterlimit="10" width="59.7" height="53"/>
	<rect id="XMLID_91_" x="1478.6" y="568" fill="#FFFFFF" width="12.1" height="49.9"/>
	<rect id="XMLID_90_" x="1508.1" y="568" fill="#FFFFFF" width="12.1" height="49.9"/>
</g>
<g id="XMLID_85_">
	
		<rect id="XMLID_88_" x="1461.7" y="627" fill="#333333" stroke="#1A1A1A" stroke-width="3" stroke-miterlimit="10" width="59.7" height="53"/>
	<rect id="XMLID_87_" x="1478.6" y="628.5" fill="#FFFFFF" width="12.1" height="49.9"/>
	<rect id="XMLID_86_" x="1508.1" y="628.5" fill="#FFFFFF" width="12.1" height="49.9"/>
</g>
<rect id="XMLID_84_" x="1160.1" y="106.7" fill="#999999" stroke="#000000" stroke-width="5" stroke-miterlimit="10" width="359.9" height="67.5"/>
<circle id="XMLID_83_" fill="#007C94" cx="1270.1" cy="545.1" r="129.1"/>
<g id="XMLID_81_">
	<rect id="XMLID_328_" x="1131.4" y="480.1" fill="none" width="376.7" height="293"/>
	<path id="XMLID_323_" fill="#333333" d="M1145.8,495.2l-24-16l91.1,9.7c16.6,1.8,29.8,7.7,39.4,17.7c9.6,10,14.4,22.8,14.4,38.3
		c0,19.3-6.8,34.6-20.5,45.7c-13.7,11.2-33.4,17.7-59.2,19.5l-65.2,4.3l37.9-14.1L1145.8,495.2z M1182.6,568.3
		c7.9-4.3,14-9.5,18.2-15.4c4.2-5.9,6.4-12.3,6.4-19.2c0-6-1.5-11.5-4.4-16.6c-2.9-5.1-7.2-9.6-12.9-13.7L1182.6,568.3z"/>
	<path id="XMLID_326_" fill="#333333" d="M1438.8,494.1l-19.2,9.7l-55,62l8.8,41.6l22.3,10.1l-108.4-6l21.1-10.3l10.7-39.4l-46.9-67
		l-18.5-5.8l91.8-7.2l-15.6,10.1l23.6,53.6l20.1-46.8l-15.5-7.9L1438.8,494.1z"/>
</g>
<rect id="XMLID_80_" x="1160.1" y="191.6" fill="#999999" stroke="#000000" stroke-width="5" stroke-miterlimit="10" width="359.9" height="67.5"/>
<rect id="XMLID_77_" x="1160.1" y="276.4" fill="#999999" stroke="#000000" stroke-width="5" stroke-miterlimit="10" width="359.9" height="67.5"/>
<circle id="XMLID_78_" fill="#999999" stroke="#000000" stroke-width="5" stroke-miterlimit="10" cx="1171.5" cy="375.7" r="14.7"/>
<circle id="XMLID_117_" fill="#999999" stroke="#000000" stroke-width="5" stroke-miterlimit="10" cx="1215.5" cy="375.7" r="14.7"/>
<circle id="XMLID_118_" fill="#999999" stroke="#000000" stroke-width="5" stroke-miterlimit="10" cx="1259.5" cy="375.7" r="14.7"/>
<g id="XMLID_38_">
</g>
<g id="XMLID_52_">
</g>
<g id="XMLID_339_">
</g>
<g id="XMLID_340_">
</g>
<g id="XMLID_341_">
</g>
<g id="XMLID_342_">
</g>
<g id="XMLID_343_">
</g>
<g id="XMLID_344_">
</g>
<g id="XMLID_345_">
</g>
<g id="XMLID_346_">
</g>
<g id="XMLID_347_">
</g>
<g id="XMLID_348_">
</g>
<g id="XMLID_349_">
</g>
<g id="XMLID_350_">
</g>
<g id="XMLID_351_">
</g>
</svg>
