<?xml version="1.0" encoding="utf-8"?>
<!-- Generator: Adobe Illustrator 19.0.0, SVG Export Plug-In . SVG Version: 6.00 Build 0)  -->
<svg version="1.1" id="Layer_1" xmlns="http://www.w3.org/2000/svg" xmlns:xlink="http://www.w3.org/1999/xlink" x="0px" y="0px"
	 viewBox="0 0 460.2 788.5" enable-background="new 0 0 460.2 788.5" xml:space="preserve">
<rect id="XMLID_1_" x="-547" fill="#333333" width="460.2" height="788.5"/>
<g id="XMLID_8_">
	<rect id="XMLID_3_" x="-547" y="39.8" width="348.8" height="17.7"/>
	<rect id="XMLID_4_" x="-198.2" y="39.9" fill="#007C94" width="111.4" height="17.6"/>
</g>
<g id="XMLID_9_">
	<rect id="XMLID_5_" x="-547" y="73.3" width="348.8" height="17.7"/>
	<rect id="XMLID_6_" x="-198.2" y="73.4" fill="#007C94" width="111.4" height="17.6"/>
</g>
<g id="XMLID_2_">
	<rect id="XMLID_7_" x="-547" y="106.8" width="348.8" height="17.7"/>
	<rect id="XMLID_10_" x="-198.2" y="106.9" fill="#007C94" width="111.4" height="17.6"/>
</g>
<path id="XMLID_11_" fill="#666666" d="M-200,374h69c6.6,0,12,5.4,12,12v352c0,6.6-5.4,12-12,12h-69c-6.6,0-12-5.4-12-12V386
	C-212,379.4-206.6,374-200,374z"/>
<circle id="XMLID_12_" fill="#7AC943" stroke="#000000" stroke-width="5" stroke-miterlimit="10" cx="-165.6" cy="426.1" r="31.8"/>
<g id="XMLID_13_">
	<g id="Layer_8_59_">
		<path id="XMLID_15_" d="M-147.4,428.1c0,10-8.2,18.2-18.2,18.2c-10,0-18.2-8.2-18.2-18.2c0-7.5,4.7-14.3,11.7-17
			c1.2-0.4,2.5,0.1,2.9,1.3c0.4,1.2-0.1,2.5-1.3,2.9c-5.2,2-8.8,7.1-8.8,12.8c0,7.5,6.1,13.7,13.7,13.7c7.5,0,13.7-6.1,13.7-13.7
			c0-5.5-3.3-10.4-8.3-12.6c-1.1-0.5-1.7-1.8-1.2-3c0.5-1.1,1.8-1.7,3-1.2C-151.7,414.3-147.4,420.9-147.4,428.1z M-165.4,426.5
			c1.2,0,2.3-1,2.3-2.3v-16c0-1.2-1-2.3-2.3-2.3c-1.2,0-2.3,1-2.3,2.3v16C-167.6,425.5-166.6,426.5-165.4,426.5z"/>
	</g>
</g>
<circle id="XMLID_14_" fill="#7AC943" cx="-183.6" cy="486.2" r="10.8"/>
<circle id="XMLID_18_" fill="#FF432A" cx="-147.6" cy="486.2" r="10.8"/>
<circle id="XMLID_19_" fill="#333333" stroke="#000000" stroke-width="3" stroke-miterlimit="10" cx="-183.5" cy="725.8" r="11.8"/>
<circle id="XMLID_20_" fill="#333333" stroke="#000000" stroke-width="3" stroke-miterlimit="10" cx="-147.5" cy="725.8" r="11.8"/>
<g id="XMLID_28_">
	
		<rect id="XMLID_22_" x="-195.3" y="515" fill="#333333" stroke="#1A1A1A" stroke-width="3" stroke-miterlimit="10" width="59.7" height="53"/>
	<rect id="XMLID_23_" x="-178.4" y="516.5" fill="#FFFFFF" width="12.1" height="49.9"/>
	<rect id="XMLID_24_" x="-148.9" y="516.5" fill="#FFFFFF" width="12.1" height="49.9"/>
</g>
<g id="XMLID_21_">
	
		<rect id="XMLID_26_" x="-195.3" y="575.5" fill="#333333" stroke="#1A1A1A" stroke-width="3" stroke-miterlimit="10" width="59.7" height="53"/>
	<rect id="XMLID_25_" x="-178.4" y="577" fill="#FFFFFF" width="12.1" height="49.9"/>
	<rect id="XMLID_27_" x="-148.9" y="577" fill="#FFFFFF" width="12.1" height="49.9"/>
</g>
<g id="XMLID_29_">
	
		<rect id="XMLID_32_" x="-195.3" y="636" fill="#333333" stroke="#1A1A1A" stroke-width="3" stroke-miterlimit="10" width="59.7" height="53"/>
	<rect id="XMLID_31_" x="-178.4" y="637.5" fill="#FFFFFF" width="12.1" height="49.9"/>
	<rect id="XMLID_30_" x="-148.9" y="637.5" fill="#FFFFFF" width="12.1" height="49.9"/>
</g>
<rect id="XMLID_33_" x="-496.7" y="159.1" fill="#999999" stroke="#000000" stroke-width="5" stroke-miterlimit="10" width="359.9" height="67.5"/>
<circle id="XMLID_34_" fill="#999999" stroke="#000000" stroke-width="5" stroke-miterlimit="10" cx="-151.5" cy="256.7" r="14.7"/>
<circle id="XMLID_35_" fill="#999999" stroke="#000000" stroke-width="5" stroke-miterlimit="10" cx="-208.5" cy="256.7" r="14.7"/>
<circle id="XMLID_36_" fill="#007C94" cx="-386.9" cy="534.1" r="129.1"/>
<g id="XMLID_37_">
	<rect id="XMLID_351_" x="-525.6" y="469.1" fill="none" width="376.7" height="293"/>
	<path id="XMLID_82_" fill="#333333" d="M-511.2,484.2l-24-16l91.1,9.7c16.6,1.8,29.8,7.7,39.4,17.7c9.6,10,14.4,22.8,14.4,38.3
		c0,19.3-6.8,34.6-20.5,45.7c-13.7,11.2-33.4,17.7-59.2,19.5l-65.2,4.3l37.9-14.1L-511.2,484.2z M-474.4,557.3
		c7.9-4.3,14-9.5,18.2-15.4c4.2-5.9,6.4-12.3,6.4-19.2c0-6-1.5-11.5-4.4-16.6c-2.9-5.1-7.2-9.6-12.9-13.7L-474.4,557.3z"/>
	<path id="XMLID_349_" fill="#333333" d="M-218.2,483.1l-19.2,9.7l-55,62l8.8,41.6l22.3,10.1l-108.4-6l21.1-10.3l10.7-39.4l-46.9-67
		l-18.5-5.8l91.8-7.2l-15.6,10.1l23.6,53.6l20.1-46.8l-15.5-7.9L-218.2,483.1z"/>
</g>
<rect id="XMLID_76_" fill="#333333" width="460.2" height="788.5"/>
<g id="XMLID_73_">
	<rect id="XMLID_75_" y="39.8" width="348.8" height="17.7"/>
	<rect id="XMLID_74_" x="348.8" y="39.9" fill="#007C94" width="111.4" height="17.6"/>
</g>
<g id="XMLID_70_">
	<rect id="XMLID_72_" y="73.3" width="348.8" height="17.7"/>
	<rect id="XMLID_71_" x="348.8" y="73.4" fill="#007C94" width="111.4" height="17.6"/>
</g>
<g id="XMLID_67_">
	<rect id="XMLID_69_" y="106.8" width="348.8" height="17.7"/>
	<rect id="XMLID_68_" x="348.8" y="106.9" fill="#007C94" width="111.4" height="17.6"/>
</g>
<path id="XMLID_66_" fill="#666666" d="M347,374h69c6.6,0,12,5.4,12,12v352c0,6.6-5.4,12-12,12h-69c-6.6,0-12-5.4-12-12V386
	C335,379.4,340.4,374,347,374z"/>
<circle id="XMLID_65_" fill="#7AC943" stroke="#000000" stroke-width="5" stroke-miterlimit="10" cx="381.4" cy="426.1" r="31.8"/>
<g id="XMLID_61_">
	<g id="Layer_8_1_">
		<path id="XMLID_62_" d="M399.6,428.1c0,10-8.2,18.2-18.2,18.2c-10,0-18.2-8.2-18.2-18.2c0-7.5,4.7-14.3,11.7-17
			c1.2-0.4,2.5,0.1,2.9,1.3c0.4,1.2-0.1,2.5-1.3,2.9c-5.2,2-8.8,7.1-8.8,12.8c0,7.5,6.1,13.7,13.7,13.7c7.5,0,13.7-6.1,13.7-13.7
			c0-5.5-3.3-10.4-8.3-12.6c-1.1-0.5-1.7-1.8-1.2-3c0.5-1.1,1.8-1.7,3-1.2C395.3,414.3,399.6,420.9,399.6,428.1z M381.6,426.5
			c1.2,0,2.3-1,2.3-2.3v-16c0-1.2-1-2.3-2.3-2.3c-1.2,0-2.3,1-2.3,2.3v16C379.4,425.5,380.4,426.5,381.6,426.5z"/>
	</g>
</g>
<circle id="XMLID_60_" fill="#7AC943" cx="363.4" cy="486.2" r="10.8"/>
<circle id="XMLID_59_" fill="#FF432A" cx="399.4" cy="486.2" r="10.8"/>
<circle id="XMLID_58_" fill="#333333" stroke="#000000" stroke-width="3" stroke-miterlimit="10" cx="363.5" cy="725.8" r="11.8"/>
<circle id="XMLID_57_" fill="#333333" stroke="#000000" stroke-width="3" stroke-miterlimit="10" cx="399.5" cy="725.8" r="11.8"/>
<g id="XMLID_53_">
	
		<rect id="XMLID_56_" x="351.7" y="515" fill="#333333" stroke="#1A1A1A" stroke-width="3" stroke-miterlimit="10" width="59.7" height="53"/>
	<rect id="XMLID_55_" x="368.6" y="516.5" fill="#FFFFFF" width="12.1" height="49.9"/>
	<rect id="XMLID_54_" x="398.1" y="516.5" fill="#FFFFFF" width="12.1" height="49.9"/>
</g>
<g id="XMLID_48_">
	
		<rect id="XMLID_51_" x="351.7" y="575.5" fill="#333333" stroke="#1A1A1A" stroke-width="3" stroke-miterlimit="10" width="59.7" height="53"/>
	<rect id="XMLID_50_" x="368.6" y="577" fill="#FFFFFF" width="12.1" height="49.9"/>
	<rect id="XMLID_49_" x="398.1" y="577" fill="#FFFFFF" width="12.1" height="49.9"/>
</g>
<g id="XMLID_44_">
	
		<rect id="XMLID_47_" x="351.7" y="636" fill="#333333" stroke="#1A1A1A" stroke-width="3" stroke-miterlimit="10" width="59.7" height="53"/>
	<rect id="XMLID_46_" x="368.6" y="637.5" fill="#FFFFFF" width="12.1" height="49.9"/>
	<rect id="XMLID_45_" x="398.1" y="637.5" fill="#FFFFFF" width="12.1" height="49.9"/>
</g>
<rect id="XMLID_43_" x="50.3" y="144.1" fill="#999999" stroke="#000000" stroke-width="5" stroke-miterlimit="10" width="359.9" height="67.5"/>
<circle id="XMLID_40_" fill="#007C94" cx="160.1" cy="534.1" r="129.1"/>
<g id="XMLID_39_">
	<rect id="XMLID_346_" x="21.4" y="469.1" fill="none" width="376.7" height="293"/>
	<path id="XMLID_335_" fill="#333333" d="M35.8,484.2l-24-16l91.1,9.7c16.6,1.8,29.8,7.7,39.4,17.7c9.6,10,14.4,22.8,14.4,38.3
		c0,19.3-6.8,34.6-20.5,45.7c-13.7,11.2-33.4,17.7-59.2,19.5l-65.2,4.3l37.9-14.1L35.8,484.2z M72.6,557.3c7.9-4.3,14-9.5,18.2-15.4
		c4.2-5.9,6.4-12.3,6.4-19.2c0-6-1.5-11.5-4.4-16.6c-2.9-5.1-7.2-9.6-12.9-13.7L72.6,557.3z"/>
	<path id="XMLID_344_" fill="#333333" d="M328.8,483.1l-19.2,9.7l-55,62l8.8,41.6l22.3,10.1l-108.4-6l21.1-10.3l10.7-39.4l-46.9-67
		l-18.5-5.8l91.8-7.2l-15.6,10.1l23.6,53.6l20.1-46.8l-15.5-7.9L328.8,483.1z"/>
</g>
<rect id="XMLID_79_" x="50.3" y="231.1" fill="#999999" stroke="#000000" stroke-width="5" stroke-miterlimit="10" width="359.9" height="67.5"/>
<circle id="XMLID_41_" fill="#999999" stroke="#000000" stroke-width="5" stroke-miterlimit="10" cx="399.5" cy="327.7" r="14.7"/>
<circle id="XMLID_42_" fill="#999999" stroke="#000000" stroke-width="5" stroke-miterlimit="10" cx="352.5" cy="327.7" r="14.7"/>
<rect id="XMLID_116_" x="563" y="11" fill="#333333" width="460.2" height="788.5"/>
<g id="XMLID_113_">
	<rect id="XMLID_115_" x="563" y="34.8" width="348.8" height="17.7"/>
	<rect id="XMLID_114_" x="911.8" y="34.9" fill="#007C94" width="111.4" height="17.6"/>
</g>
<g id="XMLID_110_">
	<rect id="XMLID_112_" x="563" y="68.3" width="348.8" height="17.7"/>
	<rect id="XMLID_111_" x="911.8" y="68.4" fill="#007C94" width="111.4" height="17.6"/>
</g>
<g id="XMLID_107_">
	<rect id="XMLID_109_" x="563.2" y="759.8" width="348.8" height="17.7"/>
	<rect id="XMLID_108_" x="911.9" y="759.9" fill="#007C94" width="111.4" height="17.6"/>
</g>
<path id="XMLID_106_" fill="#666666" d="M910,365h69c6.6,0,12,5.4,12,12v352c0,6.6-5.4,12-12,12h-69c-6.6,0-12-5.4-12-12V377
	C898,370.4,903.4,365,910,365z"/>
<circle id="XMLID_105_" fill="#7AC943" stroke="#000000" stroke-width="5" stroke-miterlimit="10" cx="944.4" cy="417.1" r="31.8"/>
<g id="XMLID_101_">
	<g id="Layer_8_2_">
		<path id="XMLID_102_" d="M962.6,419.1c0,10-8.2,18.2-18.2,18.2c-10,0-18.2-8.2-18.2-18.2c0-7.5,4.7-14.3,11.7-17
			c1.2-0.4,2.5,0.1,2.9,1.3c0.4,1.2-0.1,2.5-1.3,2.9c-5.2,2-8.8,7.1-8.8,12.8c0,7.5,6.1,13.7,13.7,13.7c7.5,0,13.7-6.1,13.7-13.7
			c0-5.5-3.3-10.4-8.3-12.6c-1.1-0.5-1.7-1.8-1.2-3c0.5-1.1,1.8-1.7,3-1.2C958.3,405.3,962.6,411.9,962.6,419.1z M944.6,417.5
			c1.2,0,2.3-1,2.3-2.3v-16c0-1.2-1-2.3-2.3-2.3c-1.2,0-2.3,1-2.3,2.3v16C942.4,416.5,943.4,417.5,944.6,417.5z"/>
	</g>
</g>
<circle id="XMLID_100_" fill="#7AC943" cx="926.4" cy="477.2" r="10.8"/>
<circle id="XMLID_99_" fill="#FF432A" cx="962.4" cy="477.2" r="10.8"/>
<circle id="XMLID_98_" fill="#333333" stroke="#000000" stroke-width="3" stroke-miterlimit="10" cx="926.5" cy="716.8" r="11.8"/>
<circle id="XMLID_97_" fill="#333333" stroke="#000000" stroke-width="3" stroke-miterlimit="10" cx="962.5" cy="716.8" r="11.8"/>
<g id="XMLID_93_">
	
		<rect id="XMLID_96_" x="914.7" y="506" fill="#333333" stroke="#1A1A1A" stroke-width="3" stroke-miterlimit="10" width="59.7" height="53"/>
	<rect id="XMLID_95_" x="931.6" y="507.5" fill="#FFFFFF" width="12.1" height="49.9"/>
	<rect id="XMLID_94_" x="961.1" y="507.5" fill="#FFFFFF" width="12.1" height="49.9"/>
</g>
<g id="XMLID_89_">
	
		<rect id="XMLID_92_" x="914.7" y="566.5" fill="#333333" stroke="#1A1A1A" stroke-width="3" stroke-miterlimit="10" width="59.7" height="53"/>
	<rect id="XMLID_91_" x="931.6" y="568" fill="#FFFFFF" width="12.1" height="49.9"/>
	<rect id="XMLID_90_" x="961.1" y="568" fill="#FFFFFF" width="12.1" height="49.9"/>
</g>
<g id="XMLID_85_">
	
		<rect id="XMLID_88_" x="914.7" y="627" fill="#333333" stroke="#1A1A1A" stroke-width="3" stroke-miterlimit="10" width="59.7" height="53"/>
	<rect id="XMLID_87_" x="931.6" y="628.5" fill="#FFFFFF" width="12.1" height="49.9"/>
	<rect id="XMLID_86_" x="961.1" y="628.5" fill="#FFFFFF" width="12.1" height="49.9"/>
</g>
<rect id="XMLID_84_" x="613.1" y="106.7" fill="#999999" stroke="#000000" stroke-width="5" stroke-miterlimit="10" width="359.9" height="67.5"/>
<circle id="XMLID_83_" fill="#007C94" cx="723.1" cy="545.1" r="129.1"/>
<g id="XMLID_81_">
	<rect id="XMLID_341_" x="584.4" y="480.1" fill="none" width="376.7" height="293"/>
	<path id="XMLID_336_" fill="#333333" d="M598.8,495.2l-24-16l91.1,9.7c16.6,1.8,29.8,7.7,39.4,17.7c9.6,10,14.4,22.8,14.4,38.3
		c0,19.3-6.8,34.6-20.5,45.7c-13.7,11.2-33.4,17.7-59.2,19.5l-65.2,4.3l37.9-14.1L598.8,495.2z M635.6,568.3
		c7.9-4.3,14-9.5,18.2-15.4c4.2-5.9,6.4-12.3,6.4-19.2c0-6-1.5-11.5-4.4-16.6c-2.9-5.1-7.2-9.6-12.9-13.7L635.6,568.3z"/>
	<path id="XMLID_339_" fill="#333333" d="M891.8,494.1l-19.2,9.7l-55,62l8.8,41.6l22.3,10.1l-108.4-6l21.1-10.3l10.7-39.4l-46.9-67
		l-18.5-5.8l91.8-7.2l-15.6,10.1l23.6,53.6l20.1-46.8l-15.5-7.9L891.8,494.1z"/>
</g>
<rect id="XMLID_80_" x="613.1" y="191.6" fill="#999999" stroke="#000000" stroke-width="5" stroke-miterlimit="10" width="359.9" height="67.5"/>
<rect id="XMLID_77_" x="613.1" y="276.4" fill="#999999" stroke="#000000" stroke-width="5" stroke-miterlimit="10" width="359.9" height="67.5"/>
<circle id="XMLID_78_" fill="#999999" stroke="#000000" stroke-width="5" stroke-miterlimit="10" cx="624.5" cy="375.7" r="14.7"/>
<circle id="XMLID_117_" fill="#999999" stroke="#000000" stroke-width="5" stroke-miterlimit="10" cx="668.5" cy="375.7" r="14.7"/>
<circle id="XMLID_118_" fill="#999999" stroke="#000000" stroke-width="5" stroke-miterlimit="10" cx="712.5" cy="375.7" r="14.7"/>
<g id="XMLID_38_">
</g>
<g id="XMLID_52_">
</g>
<g id="XMLID_352_">
</g>
<g id="XMLID_353_">
</g>
<g id="XMLID_354_">
</g>
<g id="XMLID_355_">
</g>
<g id="XMLID_356_">
</g>
<g id="XMLID_357_">
</g>
<g id="XMLID_358_">
</g>
<g id="XMLID_359_">
</g>
<g id="XMLID_360_">
</g>
<g id="XMLID_361_">
</g>
<g id="XMLID_362_">
</g>
<g id="XMLID_363_">
</g>
<g id="XMLID_364_">
</g>
</svg>
