<?xml version="1.0" encoding="utf-8"?>
<!-- Generator: Adobe Illustrator 19.0.0, SVG Export Plug-In . SVG Version: 6.00 Build 0)  -->
<svg version="1.1" id="Layer_1" xmlns="http://www.w3.org/2000/svg" xmlns:xlink="http://www.w3.org/1999/xlink" x="0px" y="0px"
	 viewBox="0 0 796.5 455.8" enable-background="new 0 0 796.5 455.8" xml:space="preserve">
<rect id="XMLID_1_" x="-961" fill="#4D4D4D" width="796.5" height="455.8"/>
<path id="XMLID_2_" fill="#FFFFFF" d="M-303.7,165.5h-95.2c-15.6-15.6-24.4-24.4-40-40V72.6h175.2v52.9
	C-279.3,141.1-288,149.9-303.7,165.5z"/>
<g id="XMLID_22_">
	<rect id="XMLID_3_" x="-406.3" y="87.3" fill="#4D4D4D" width="16.8" height="27.4"/>
	<rect id="XMLID_4_" x="-311.3" y="87.3" fill="#4D4D4D" width="16.8" height="27.4"/>
	<rect id="XMLID_5_" x="-358.8" y="127.3" fill="#4D4D4D" width="16.8" height="27.4"/>
</g>
<rect id="XMLID_6_" x="-438.3" y="299.9" fill="#FFFFFF" width="187.3" height="76"/>
<rect id="XMLID_7_" x="-424.3" y="308.6" fill="#4D4D4D" width="157.3" height="59.3"/>
<circle id="XMLID_8_" fill="none" stroke="#FF0000" stroke-width="5" stroke-miterlimit="10" cx="-299.5" cy="337.7" r="17.8"/>
<rect id="XMLID_9_" x="-406.3" y="333.9" fill="#F7931E" width="47.5" height="10.7"/>
<g id="XMLID_10_">
	<circle id="XMLID_11_" fill="none" stroke="#F7931E" stroke-width="13" stroke-miterlimit="10" cx="-903.7" cy="87.6" r="12.7"/>
	<circle id="XMLID_12_" fill="none" stroke="#F7931E" stroke-width="13" stroke-miterlimit="10" cx="-617.7" cy="87.6" r="12.7"/>
	<g id="XMLID_13_">
		<circle id="XMLID_14_" fill="none" stroke="#F7931E" stroke-width="13" stroke-miterlimit="10" cx="-617.7" cy="361.6" r="12.7"/>
		<circle id="XMLID_15_" fill="none" stroke="#F7931E" stroke-width="13" stroke-miterlimit="10" cx="-903.7" cy="361.6" r="12.7"/>
	</g>
</g>
<g id="XMLID_16_">
	<circle id="XMLID_17_" fill="none" stroke="#FFFFFF" stroke-width="13" stroke-miterlimit="10" cx="-760.7" cy="224.6" r="152.4"/>
	<circle id="XMLID_18_" fill="none" stroke="#FFFFFF" stroke-width="13" stroke-miterlimit="10" cx="-761.1" cy="224.6" r="127.8"/>
	<circle id="XMLID_19_" fill="none" stroke="#FFFFFF" stroke-width="8" stroke-miterlimit="10" cx="-761.1" cy="224.6" r="105.8"/>
	<circle id="XMLID_20_" fill="none" stroke="#FFFFFF" stroke-width="6" stroke-miterlimit="10" cx="-760.7" cy="224.6" r="74.7"/>
	<circle id="XMLID_21_" fill="none" stroke="#FFFFFF" stroke-width="4" stroke-miterlimit="10" cx="-760.6" cy="224.6" r="55.7"/>
</g>
<rect id="XMLID_44_" fill="#4D4D4D" width="796.5" height="455.8"/>
<g id="XMLID_67_">
	<path id="XMLID_43_" fill="#FFFFFF" d="M727,139.6h-95.2c-15.6-15.6-24.4-24.4-40-40V46.6H767v52.9
		C751.3,115.2,742.6,123.9,727,139.6z"/>
	<g id="XMLID_39_">
		<rect id="XMLID_42_" x="624.3" y="61.4" fill="#4D4D4D" width="16.8" height="27.4"/>
		<rect id="XMLID_41_" x="719.3" y="61.4" fill="#4D4D4D" width="16.8" height="27.4"/>
		<rect id="XMLID_40_" x="671.8" y="101.4" fill="#4D4D4D" width="16.8" height="27.4"/>
	</g>
</g>
<g id="XMLID_68_">
	<rect id="XMLID_38_" x="577.7" y="345.9" fill="#FFFFFF" width="187.3" height="76"/>
	<rect id="XMLID_37_" x="591.7" y="354.6" fill="#4D4D4D" width="157.3" height="59.3"/>
	<circle id="XMLID_36_" fill="none" stroke="#FF0000" stroke-width="5" stroke-miterlimit="10" cx="716.5" cy="383.7" r="17.8"/>
	<rect id="XMLID_35_" x="609.7" y="379.9" fill="#F7931E" width="47.5" height="10.7"/>
</g>
<rect id="XMLID_66_" x="-502" y="542" fill="#4D4D4D" width="796.5" height="455.8"/>
<g id="XMLID_91_">
	<path id="XMLID_65_" fill="#FFFFFF" d="M-314,954.8h-95.2c-15.6-15.6-24.4-24.4-40-40v-52.9H-274v52.9
		C-289.6,930.5-298.4,939.2-314,954.8z"/>
	<g id="XMLID_61_">
		<rect id="XMLID_64_" x="-416.6" y="876.7" fill="#4D4D4D" width="16.8" height="27.4"/>
		<rect id="XMLID_63_" x="-321.6" y="876.7" fill="#4D4D4D" width="16.8" height="27.4"/>
		<rect id="XMLID_62_" x="-369.1" y="916.7" fill="#4D4D4D" width="16.8" height="27.4"/>
	</g>
</g>
<g id="XMLID_92_">
	<rect id="XMLID_60_" x="34.7" y="887.9" fill="#FFFFFF" width="187.3" height="76"/>
	<rect id="XMLID_59_" x="48.7" y="896.6" fill="#4D4D4D" width="157.3" height="59.3"/>
	<circle id="XMLID_58_" fill="none" stroke="#FF0000" stroke-width="5" stroke-miterlimit="10" cx="173.5" cy="925.7" r="17.8"/>
	<rect id="XMLID_57_" x="66.7" y="921.9" fill="#F7931E" width="47.5" height="10.7"/>
</g>
<g id="XMLID_90_">
	<g id="XMLID_51_">
		<circle id="XMLID_56_" fill="none" stroke="#F7931E" stroke-width="13" stroke-miterlimit="10" cx="-449.2" cy="584.2" r="8.2"/>
		<circle id="XMLID_55_" fill="none" stroke="#F7931E" stroke-width="13" stroke-miterlimit="10" cx="-264.6" cy="584.2" r="8.2"/>
		<g id="XMLID_52_">
			<circle id="XMLID_54_" fill="none" stroke="#F7931E" stroke-width="13" stroke-miterlimit="10" cx="-264.6" cy="761" r="8.2"/>
			<circle id="XMLID_53_" fill="none" stroke="#F7931E" stroke-width="13" stroke-miterlimit="10" cx="-449.2" cy="761" r="8.2"/>
		</g>
	</g>
	<g id="XMLID_45_">
		<circle id="XMLID_50_" fill="none" stroke="#FFFFFF" stroke-width="13" stroke-miterlimit="10" cx="-356.9" cy="672.6" r="98.3"/>
		<circle id="XMLID_49_" fill="none" stroke="#FFFFFF" stroke-width="13" stroke-miterlimit="10" cx="-357.2" cy="672.6" r="82.5"/>
		<circle id="XMLID_48_" fill="none" stroke="#FFFFFF" stroke-width="8" stroke-miterlimit="10" cx="-357.2" cy="672.6" r="68.3"/>
		<circle id="XMLID_47_" fill="none" stroke="#FFFFFF" stroke-width="6" stroke-miterlimit="10" cx="-356.9" cy="672.6" r="48.2"/>
		<circle id="XMLID_46_" fill="none" stroke="#FFFFFF" stroke-width="4" stroke-miterlimit="10" cx="-356.8" cy="672.6" r="35.9"/>
	</g>
</g>
<g id="XMLID_83_">
	<g id="XMLID_69_">
		<g id="XMLID_29_">
			<circle id="XMLID_34_" fill="none" stroke="#F7931E" stroke-width="13" stroke-miterlimit="10" cx="54.6" cy="58.1" r="9"/>
			<circle id="XMLID_33_" fill="none" stroke="#F7931E" stroke-width="13" stroke-miterlimit="10" cx="257" cy="58.1" r="9"/>
			<g id="XMLID_30_">
				<circle id="XMLID_32_" fill="none" stroke="#F7931E" stroke-width="13" stroke-miterlimit="10" cx="257" cy="252.1" r="9"/>
				<circle id="XMLID_31_" fill="none" stroke="#F7931E" stroke-width="13" stroke-miterlimit="10" cx="54.6" cy="252.1" r="9"/>
			</g>
		</g>
		<g id="XMLID_23_">
			
				<circle id="XMLID_28_" fill="none" stroke="#FFFFFF" stroke-width="13" stroke-miterlimit="10" cx="155.8" cy="155.1" r="107.8"/>
			<circle id="XMLID_27_" fill="none" stroke="#FFFFFF" stroke-width="13" stroke-miterlimit="10" cx="155.5" cy="155.1" r="90.5"/>
			<circle id="XMLID_26_" fill="none" stroke="#FFFFFF" stroke-width="8" stroke-miterlimit="10" cx="155.5" cy="155.1" r="74.9"/>
			<circle id="XMLID_25_" fill="none" stroke="#FFFFFF" stroke-width="6" stroke-miterlimit="10" cx="155.8" cy="155.1" r="52.9"/>
			<circle id="XMLID_24_" fill="none" stroke="#FFFFFF" stroke-width="4" stroke-miterlimit="10" cx="155.9" cy="155.1" r="39.4"/>
		</g>
	</g>
	<g id="XMLID_70_">
		<g id="XMLID_77_">
			<circle id="XMLID_82_" fill="none" stroke="#F7931E" stroke-width="13" stroke-miterlimit="10" cx="331.6" cy="58.1" r="9"/>
			<circle id="XMLID_81_" fill="none" stroke="#F7931E" stroke-width="13" stroke-miterlimit="10" cx="534" cy="58.1" r="9"/>
			<g id="XMLID_78_">
				<circle id="XMLID_80_" fill="none" stroke="#F7931E" stroke-width="13" stroke-miterlimit="10" cx="534" cy="252.1" r="9"/>
				<circle id="XMLID_79_" fill="none" stroke="#F7931E" stroke-width="13" stroke-miterlimit="10" cx="331.6" cy="252.1" r="9"/>
			</g>
		</g>
		<g id="XMLID_71_">
			
				<circle id="XMLID_76_" fill="none" stroke="#FFFFFF" stroke-width="13" stroke-miterlimit="10" cx="432.8" cy="155.1" r="107.8"/>
			<circle id="XMLID_75_" fill="none" stroke="#FFFFFF" stroke-width="13" stroke-miterlimit="10" cx="432.5" cy="155.1" r="90.5"/>
			<circle id="XMLID_74_" fill="none" stroke="#FFFFFF" stroke-width="8" stroke-miterlimit="10" cx="432.5" cy="155.1" r="74.9"/>
			<circle id="XMLID_73_" fill="none" stroke="#FFFFFF" stroke-width="6" stroke-miterlimit="10" cx="432.8" cy="155.1" r="52.9"/>
			<circle id="XMLID_72_" fill="none" stroke="#FFFFFF" stroke-width="4" stroke-miterlimit="10" cx="432.9" cy="155.1" r="39.4"/>
		</g>
	</g>
</g>
<g id="XMLID_89_">
	
		<line id="XMLID_84_" fill="none" stroke="#FFFFFF" stroke-width="4" stroke-miterlimit="10" x1="47.7" y1="345.9" x2="528.7" y2="345.9"/>
	
		<line id="XMLID_85_" fill="none" stroke="#FFFFFF" stroke-width="4" stroke-miterlimit="10" x1="47.7" y1="364.9" x2="528.7" y2="364.9"/>
	
		<line id="XMLID_86_" fill="none" stroke="#FFFFFF" stroke-width="4" stroke-miterlimit="10" x1="47.7" y1="382.9" x2="528.7" y2="382.9"/>
	
		<line id="XMLID_87_" fill="none" stroke="#FFFFFF" stroke-width="4" stroke-miterlimit="10" x1="47.7" y1="401.9" x2="528.7" y2="401.9"/>
	
		<line id="XMLID_88_" fill="none" stroke="#FFFFFF" stroke-width="4" stroke-miterlimit="10" x1="47.7" y1="420.9" x2="528.7" y2="420.9"/>
</g>
<g id="XMLID_93_">
	<g id="XMLID_100_">
		<circle id="XMLID_105_" fill="none" stroke="#F7931E" stroke-width="13" stroke-miterlimit="10" cx="7.7" cy="587.2" r="10.7"/>
		<circle id="XMLID_104_" fill="none" stroke="#F7931E" stroke-width="13" stroke-miterlimit="10" cx="248.3" cy="587.2" r="10.7"/>
		<g id="XMLID_101_">
			
				<circle id="XMLID_103_" fill="none" stroke="#F7931E" stroke-width="13" stroke-miterlimit="10" cx="248.3" cy="817.6" r="10.7"/>
			<circle id="XMLID_102_" fill="none" stroke="#F7931E" stroke-width="13" stroke-miterlimit="10" cx="7.7" cy="817.6" r="10.7"/>
		</g>
	</g>
	<g id="XMLID_94_">
		<circle id="XMLID_99_" fill="none" stroke="#FFFFFF" stroke-width="13" stroke-miterlimit="10" cx="128" cy="702.4" r="128.1"/>
		<circle id="XMLID_98_" fill="none" stroke="#FFFFFF" stroke-width="13" stroke-miterlimit="10" cx="127.7" cy="702.4" r="107.5"/>
		<circle id="XMLID_97_" fill="none" stroke="#FFFFFF" stroke-width="8" stroke-miterlimit="10" cx="127.7" cy="702.4" r="89"/>
		<circle id="XMLID_96_" fill="none" stroke="#FFFFFF" stroke-width="6" stroke-miterlimit="10" cx="128" cy="702.4" r="62.8"/>
		<circle id="XMLID_95_" fill="none" stroke="#FFFFFF" stroke-width="4" stroke-miterlimit="10" cx="128.1" cy="702.4" r="46.8"/>
	</g>
</g>
<g id="XMLID_106_">
	<g id="XMLID_113_">
		<circle id="XMLID_118_" fill="none" stroke="#F7931E" stroke-width="13" stroke-miterlimit="10" cx="-217.2" cy="584.2" r="8.2"/>
		<circle id="XMLID_117_" fill="none" stroke="#F7931E" stroke-width="13" stroke-miterlimit="10" cx="-32.6" cy="584.2" r="8.2"/>
		<g id="XMLID_114_">
			<circle id="XMLID_116_" fill="none" stroke="#F7931E" stroke-width="13" stroke-miterlimit="10" cx="-32.6" cy="761" r="8.2"/>
			<circle id="XMLID_115_" fill="none" stroke="#F7931E" stroke-width="13" stroke-miterlimit="10" cx="-217.2" cy="761" r="8.2"/>
		</g>
	</g>
	<g id="XMLID_107_">
		
			<circle id="XMLID_112_" fill="none" stroke="#FFFFFF" stroke-width="13" stroke-miterlimit="10" cx="-124.9" cy="672.6" r="98.3"/>
		
			<circle id="XMLID_111_" fill="none" stroke="#FFFFFF" stroke-width="13" stroke-miterlimit="10" cx="-125.2" cy="672.6" r="82.5"/>
		<circle id="XMLID_110_" fill="none" stroke="#FFFFFF" stroke-width="8" stroke-miterlimit="10" cx="-125.2" cy="672.6" r="68.3"/>
		<circle id="XMLID_109_" fill="none" stroke="#FFFFFF" stroke-width="6" stroke-miterlimit="10" cx="-124.9" cy="672.6" r="48.2"/>
		<circle id="XMLID_108_" fill="none" stroke="#FFFFFF" stroke-width="4" stroke-miterlimit="10" cx="-124.8" cy="672.6" r="35.9"/>
	</g>
</g>
<g id="XMLID_119_">
	<path id="XMLID_124_" fill="#FFFFFF" d="M-101,954.8h-95.2c-15.6-15.6-24.4-24.4-40-40v-52.9H-61v52.9
		C-76.6,930.5-85.4,939.2-101,954.8z"/>
	<g id="XMLID_120_">
		<rect id="XMLID_123_" x="-203.6" y="876.7" fill="#4D4D4D" width="16.8" height="27.4"/>
		<rect id="XMLID_122_" x="-108.6" y="876.7" fill="#4D4D4D" width="16.8" height="27.4"/>
		<rect id="XMLID_121_" x="-156.1" y="916.7" fill="#4D4D4D" width="16.8" height="27.4"/>
	</g>
</g>
<g id="XMLID_250_">
</g>
<g id="XMLID_251_">
</g>
<g id="XMLID_252_">
</g>
<g id="XMLID_253_">
</g>
<g id="XMLID_254_">
</g>
<g id="XMLID_255_">
</g>
<g id="XMLID_256_">
</g>
<g id="XMLID_257_">
</g>
<g id="XMLID_258_">
</g>
<g id="XMLID_259_">
</g>
<g id="XMLID_260_">
</g>
<g id="XMLID_261_">
</g>
<g id="XMLID_262_">
</g>
<g id="XMLID_263_">
</g>
<g id="XMLID_264_">
</g>
</svg>
