<?xml version="1.0" encoding="utf-8"?>
<!-- Generator: Adobe Illustrator 19.0.0, SVG Export Plug-In . SVG Version: 6.00 Build 0)  -->
<svg version="1.1" id="Layer_1" xmlns="http://www.w3.org/2000/svg" xmlns:xlink="http://www.w3.org/1999/xlink" x="0px" y="0px"
	 viewBox="0 0 796.5 455.8" enable-background="new 0 0 796.5 455.8" xml:space="preserve">
<rect id="XMLID_1_" x="-459" y="-542" fill="#4D4D4D" width="796.5" height="455.8"/>
<path id="XMLID_2_" fill="#FFFFFF" d="M198.3-376.5h-95.2c-15.6-15.6-24.4-24.4-40-40v-52.9h175.2v52.9
	C222.7-400.9,214-392.1,198.3-376.5z"/>
<g id="XMLID_22_">
	<rect id="XMLID_3_" x="95.7" y="-454.7" fill="#4D4D4D" width="16.8" height="27.4"/>
	<rect id="XMLID_4_" x="190.7" y="-454.7" fill="#4D4D4D" width="16.8" height="27.4"/>
	<rect id="XMLID_5_" x="143.2" y="-414.7" fill="#4D4D4D" width="16.8" height="27.4"/>
</g>
<rect id="XMLID_6_" x="63.7" y="-242.1" fill="#FFFFFF" width="187.3" height="76"/>
<rect id="XMLID_7_" x="77.7" y="-233.4" fill="#4D4D4D" width="157.3" height="59.3"/>
<circle id="XMLID_8_" fill="none" stroke="#FF0000" stroke-width="5" stroke-miterlimit="10" cx="202.5" cy="-204.3" r="17.8"/>
<rect id="XMLID_9_" x="95.7" y="-208.1" fill="#F7931E" width="47.5" height="10.7"/>
<g id="XMLID_10_">
	<circle id="XMLID_11_" fill="none" stroke="#F7931E" stroke-width="13" stroke-miterlimit="10" cx="-401.7" cy="-454.4" r="12.7"/>
	<circle id="XMLID_12_" fill="none" stroke="#F7931E" stroke-width="13" stroke-miterlimit="10" cx="-115.7" cy="-454.4" r="12.7"/>
	<g id="XMLID_13_">
		
			<circle id="XMLID_14_" fill="none" stroke="#F7931E" stroke-width="13" stroke-miterlimit="10" cx="-115.7" cy="-180.4" r="12.7"/>
		
			<circle id="XMLID_15_" fill="none" stroke="#F7931E" stroke-width="13" stroke-miterlimit="10" cx="-401.7" cy="-180.4" r="12.7"/>
	</g>
</g>
<g id="XMLID_16_">
	
		<circle id="XMLID_17_" fill="none" stroke="#FFFFFF" stroke-width="13" stroke-miterlimit="10" cx="-258.7" cy="-317.4" r="152.4"/>
	
		<circle id="XMLID_18_" fill="none" stroke="#FFFFFF" stroke-width="13" stroke-miterlimit="10" cx="-259.1" cy="-317.4" r="127.8"/>
	<circle id="XMLID_19_" fill="none" stroke="#FFFFFF" stroke-width="8" stroke-miterlimit="10" cx="-259.1" cy="-317.4" r="105.8"/>
	<circle id="XMLID_20_" fill="none" stroke="#FFFFFF" stroke-width="6" stroke-miterlimit="10" cx="-258.7" cy="-317.4" r="74.7"/>
	<circle id="XMLID_21_" fill="none" stroke="#FFFFFF" stroke-width="4" stroke-miterlimit="10" cx="-258.6" cy="-317.4" r="55.7"/>
</g>
<rect id="XMLID_44_" x="502" y="-542" fill="#4D4D4D" width="796.5" height="455.8"/>
<g id="XMLID_67_">
	<path id="XMLID_43_" fill="#FFFFFF" d="M1229-402.4h-95.2c-15.6-15.6-24.4-24.4-40-40v-52.9H1269v52.9
		C1253.3-426.8,1244.6-418.1,1229-402.4z"/>
	<g id="XMLID_39_">
		<rect id="XMLID_42_" x="1126.3" y="-480.6" fill="#4D4D4D" width="16.8" height="27.4"/>
		<rect id="XMLID_41_" x="1221.3" y="-480.6" fill="#4D4D4D" width="16.8" height="27.4"/>
		<rect id="XMLID_40_" x="1173.8" y="-440.6" fill="#4D4D4D" width="16.8" height="27.4"/>
	</g>
</g>
<g id="XMLID_68_">
	<rect id="XMLID_38_" x="1079.7" y="-196.1" fill="#FFFFFF" width="187.3" height="76"/>
	<rect id="XMLID_37_" x="1093.7" y="-187.4" fill="#4D4D4D" width="157.3" height="59.3"/>
	<circle id="XMLID_36_" fill="none" stroke="#FF0000" stroke-width="5" stroke-miterlimit="10" cx="1218.5" cy="-158.3" r="17.8"/>
	<rect id="XMLID_35_" x="1111.7" y="-162.1" fill="#F7931E" width="47.5" height="10.7"/>
</g>
<rect id="XMLID_66_" fill="#4D4D4D" width="796.5" height="455.8"/>
<g id="XMLID_91_">
	<path id="XMLID_65_" fill="#FFFFFF" d="M188,412.8H92.8c-15.6-15.6-24.4-24.4-40-40v-52.9H228v52.9
		C212.4,388.5,203.6,397.2,188,412.8z"/>
	<g id="XMLID_61_">
		<rect id="XMLID_64_" x="85.4" y="334.7" fill="#4D4D4D" width="16.8" height="27.4"/>
		<rect id="XMLID_63_" x="180.4" y="334.7" fill="#4D4D4D" width="16.8" height="27.4"/>
		<rect id="XMLID_62_" x="132.9" y="374.7" fill="#4D4D4D" width="16.8" height="27.4"/>
	</g>
</g>
<g id="XMLID_92_">
	<rect id="XMLID_60_" x="536.7" y="345.9" fill="#FFFFFF" width="187.3" height="76"/>
	<rect id="XMLID_59_" x="550.7" y="354.6" fill="#4D4D4D" width="157.3" height="59.3"/>
	<circle id="XMLID_58_" fill="none" stroke="#FF0000" stroke-width="5" stroke-miterlimit="10" cx="675.5" cy="383.7" r="17.8"/>
	<rect id="XMLID_57_" x="568.7" y="379.9" fill="#F7931E" width="47.5" height="10.7"/>
</g>
<g id="XMLID_90_">
	<g id="XMLID_51_">
		<circle id="XMLID_56_" fill="none" stroke="#F7931E" stroke-width="13" stroke-miterlimit="10" cx="52.8" cy="42.2" r="8.2"/>
		<circle id="XMLID_55_" fill="none" stroke="#F7931E" stroke-width="13" stroke-miterlimit="10" cx="237.4" cy="42.2" r="8.2"/>
		<g id="XMLID_52_">
			<circle id="XMLID_54_" fill="none" stroke="#F7931E" stroke-width="13" stroke-miterlimit="10" cx="237.4" cy="219" r="8.2"/>
			<circle id="XMLID_53_" fill="none" stroke="#F7931E" stroke-width="13" stroke-miterlimit="10" cx="52.8" cy="219" r="8.2"/>
		</g>
	</g>
	<g id="XMLID_45_">
		<circle id="XMLID_50_" fill="none" stroke="#FFFFFF" stroke-width="13" stroke-miterlimit="10" cx="145.1" cy="130.6" r="98.3"/>
		<circle id="XMLID_49_" fill="none" stroke="#FFFFFF" stroke-width="13" stroke-miterlimit="10" cx="144.8" cy="130.6" r="82.5"/>
		<circle id="XMLID_48_" fill="none" stroke="#FFFFFF" stroke-width="8" stroke-miterlimit="10" cx="144.8" cy="130.6" r="68.3"/>
		<circle id="XMLID_47_" fill="none" stroke="#FFFFFF" stroke-width="6" stroke-miterlimit="10" cx="145.1" cy="130.6" r="48.2"/>
		<circle id="XMLID_46_" fill="none" stroke="#FFFFFF" stroke-width="4" stroke-miterlimit="10" cx="145.2" cy="130.6" r="35.9"/>
	</g>
</g>
<g id="XMLID_83_">
	<g id="XMLID_69_">
		<g id="XMLID_29_">
			<circle id="XMLID_34_" fill="none" stroke="#F7931E" stroke-width="13" stroke-miterlimit="10" cx="556.6" cy="-483.9" r="9"/>
			<circle id="XMLID_33_" fill="none" stroke="#F7931E" stroke-width="13" stroke-miterlimit="10" cx="759" cy="-483.9" r="9"/>
			<g id="XMLID_30_">
				<circle id="XMLID_32_" fill="none" stroke="#F7931E" stroke-width="13" stroke-miterlimit="10" cx="759" cy="-289.9" r="9"/>
				<circle id="XMLID_31_" fill="none" stroke="#F7931E" stroke-width="13" stroke-miterlimit="10" cx="556.6" cy="-289.9" r="9"/>
			</g>
		</g>
		<g id="XMLID_23_">
			
				<circle id="XMLID_28_" fill="none" stroke="#FFFFFF" stroke-width="13" stroke-miterlimit="10" cx="657.8" cy="-386.9" r="107.8"/>
			
				<circle id="XMLID_27_" fill="none" stroke="#FFFFFF" stroke-width="13" stroke-miterlimit="10" cx="657.5" cy="-386.9" r="90.5"/>
			<circle id="XMLID_26_" fill="none" stroke="#FFFFFF" stroke-width="8" stroke-miterlimit="10" cx="657.5" cy="-386.9" r="74.9"/>
			<circle id="XMLID_25_" fill="none" stroke="#FFFFFF" stroke-width="6" stroke-miterlimit="10" cx="657.8" cy="-386.9" r="52.9"/>
			<circle id="XMLID_24_" fill="none" stroke="#FFFFFF" stroke-width="4" stroke-miterlimit="10" cx="657.9" cy="-386.9" r="39.4"/>
		</g>
	</g>
	<g id="XMLID_70_">
		<g id="XMLID_77_">
			<circle id="XMLID_82_" fill="none" stroke="#F7931E" stroke-width="13" stroke-miterlimit="10" cx="833.6" cy="-483.9" r="9"/>
			<circle id="XMLID_81_" fill="none" stroke="#F7931E" stroke-width="13" stroke-miterlimit="10" cx="1036" cy="-483.9" r="9"/>
			<g id="XMLID_78_">
				<circle id="XMLID_80_" fill="none" stroke="#F7931E" stroke-width="13" stroke-miterlimit="10" cx="1036" cy="-289.9" r="9"/>
				<circle id="XMLID_79_" fill="none" stroke="#F7931E" stroke-width="13" stroke-miterlimit="10" cx="833.6" cy="-289.9" r="9"/>
			</g>
		</g>
		<g id="XMLID_71_">
			
				<circle id="XMLID_76_" fill="none" stroke="#FFFFFF" stroke-width="13" stroke-miterlimit="10" cx="934.8" cy="-386.9" r="107.8"/>
			
				<circle id="XMLID_75_" fill="none" stroke="#FFFFFF" stroke-width="13" stroke-miterlimit="10" cx="934.5" cy="-386.9" r="90.5"/>
			<circle id="XMLID_74_" fill="none" stroke="#FFFFFF" stroke-width="8" stroke-miterlimit="10" cx="934.5" cy="-386.9" r="74.9"/>
			<circle id="XMLID_73_" fill="none" stroke="#FFFFFF" stroke-width="6" stroke-miterlimit="10" cx="934.8" cy="-386.9" r="52.9"/>
			<circle id="XMLID_72_" fill="none" stroke="#FFFFFF" stroke-width="4" stroke-miterlimit="10" cx="934.9" cy="-386.9" r="39.4"/>
		</g>
	</g>
</g>
<g id="XMLID_89_">
	
		<line id="XMLID_84_" fill="none" stroke="#FFFFFF" stroke-width="4" stroke-miterlimit="10" x1="549.7" y1="-196.1" x2="1030.7" y2="-196.1"/>
	
		<line id="XMLID_85_" fill="none" stroke="#FFFFFF" stroke-width="4" stroke-miterlimit="10" x1="549.7" y1="-177.1" x2="1030.7" y2="-177.1"/>
	
		<line id="XMLID_86_" fill="none" stroke="#FFFFFF" stroke-width="4" stroke-miterlimit="10" x1="549.7" y1="-159.1" x2="1030.7" y2="-159.1"/>
	
		<line id="XMLID_87_" fill="none" stroke="#FFFFFF" stroke-width="4" stroke-miterlimit="10" x1="549.7" y1="-140.1" x2="1030.7" y2="-140.1"/>
	
		<line id="XMLID_88_" fill="none" stroke="#FFFFFF" stroke-width="4" stroke-miterlimit="10" x1="549.7" y1="-121.1" x2="1030.7" y2="-121.1"/>
</g>
<g id="XMLID_93_">
	<g id="XMLID_100_">
		<circle id="XMLID_105_" fill="none" stroke="#F7931E" stroke-width="13" stroke-miterlimit="10" cx="509.7" cy="45.2" r="10.7"/>
		<circle id="XMLID_104_" fill="none" stroke="#F7931E" stroke-width="13" stroke-miterlimit="10" cx="750.3" cy="45.2" r="10.7"/>
		<g id="XMLID_101_">
			
				<circle id="XMLID_103_" fill="none" stroke="#F7931E" stroke-width="13" stroke-miterlimit="10" cx="750.3" cy="275.6" r="10.7"/>
			
				<circle id="XMLID_102_" fill="none" stroke="#F7931E" stroke-width="13" stroke-miterlimit="10" cx="509.7" cy="275.6" r="10.7"/>
		</g>
	</g>
	<g id="XMLID_94_">
		<circle id="XMLID_99_" fill="none" stroke="#FFFFFF" stroke-width="13" stroke-miterlimit="10" cx="630" cy="160.4" r="128.1"/>
		<circle id="XMLID_98_" fill="none" stroke="#FFFFFF" stroke-width="13" stroke-miterlimit="10" cx="629.7" cy="160.4" r="107.5"/>
		<circle id="XMLID_97_" fill="none" stroke="#FFFFFF" stroke-width="8" stroke-miterlimit="10" cx="629.7" cy="160.4" r="89"/>
		<circle id="XMLID_96_" fill="none" stroke="#FFFFFF" stroke-width="6" stroke-miterlimit="10" cx="630" cy="160.4" r="62.8"/>
		<circle id="XMLID_95_" fill="none" stroke="#FFFFFF" stroke-width="4" stroke-miterlimit="10" cx="630.1" cy="160.4" r="46.8"/>
	</g>
</g>
<g id="XMLID_106_">
	<g id="XMLID_113_">
		<circle id="XMLID_118_" fill="none" stroke="#F7931E" stroke-width="13" stroke-miterlimit="10" cx="284.8" cy="42.2" r="8.2"/>
		<circle id="XMLID_117_" fill="none" stroke="#F7931E" stroke-width="13" stroke-miterlimit="10" cx="469.4" cy="42.2" r="8.2"/>
		<g id="XMLID_114_">
			<circle id="XMLID_116_" fill="none" stroke="#F7931E" stroke-width="13" stroke-miterlimit="10" cx="469.4" cy="219" r="8.2"/>
			<circle id="XMLID_115_" fill="none" stroke="#F7931E" stroke-width="13" stroke-miterlimit="10" cx="284.8" cy="219" r="8.2"/>
		</g>
	</g>
	<g id="XMLID_107_">
		<circle id="XMLID_112_" fill="none" stroke="#FFFFFF" stroke-width="13" stroke-miterlimit="10" cx="377.1" cy="130.6" r="98.3"/>
		<circle id="XMLID_111_" fill="none" stroke="#FFFFFF" stroke-width="13" stroke-miterlimit="10" cx="376.8" cy="130.6" r="82.5"/>
		<circle id="XMLID_110_" fill="none" stroke="#FFFFFF" stroke-width="8" stroke-miterlimit="10" cx="376.8" cy="130.6" r="68.3"/>
		<circle id="XMLID_109_" fill="none" stroke="#FFFFFF" stroke-width="6" stroke-miterlimit="10" cx="377.1" cy="130.6" r="48.2"/>
		<circle id="XMLID_108_" fill="none" stroke="#FFFFFF" stroke-width="4" stroke-miterlimit="10" cx="377.2" cy="130.6" r="35.9"/>
	</g>
</g>
<g id="XMLID_119_">
	<path id="XMLID_124_" fill="#FFFFFF" d="M401,412.8h-95.2c-15.6-15.6-24.4-24.4-40-40v-52.9H441v52.9
		C425.4,388.5,416.6,397.2,401,412.8z"/>
	<g id="XMLID_120_">
		<rect id="XMLID_123_" x="298.4" y="334.7" fill="#4D4D4D" width="16.8" height="27.4"/>
		<rect id="XMLID_122_" x="393.4" y="334.7" fill="#4D4D4D" width="16.8" height="27.4"/>
		<rect id="XMLID_121_" x="345.9" y="374.7" fill="#4D4D4D" width="16.8" height="27.4"/>
	</g>
</g>
<g id="XMLID_263_">
</g>
<g id="XMLID_264_">
</g>
<g id="XMLID_265_">
</g>
<g id="XMLID_266_">
</g>
<g id="XMLID_267_">
</g>
<g id="XMLID_268_">
</g>
<g id="XMLID_269_">
</g>
<g id="XMLID_270_">
</g>
<g id="XMLID_271_">
</g>
<g id="XMLID_272_">
</g>
<g id="XMLID_273_">
</g>
<g id="XMLID_274_">
</g>
<g id="XMLID_275_">
</g>
<g id="XMLID_276_">
</g>
<g id="XMLID_277_">
</g>
</svg>
